<svg class="bg_frontera" xmlns="http://www.w3.org/2000/svg" style="position: absolute; width: 0; height: 0; pointer-events: none; z-index: -9999;" aria-hidden="true">
    <defs>
      <clipPath id="bg_frontera_dos_min">
<path d="M456.8,9.1C456.8,9.1,456.7,9.1,456.8,9.1c0-0.1,0.2-0.1,0.7-0.1c0.1,0,0.2,0,0.2,0
	C458,9.1,457.8,9.2,456.8,9.1z M457.2,10.7C457.2,10.7,457.3,10.7,457.2,10.7c0.5,0.1,0.8,0.1,0.9,0c0,0,0.1,0-0.3,0
	C457.6,10.7,457.4,10.7,457.2,10.7z M454.1,9.3c0.4,0,0.5,0,0.7,0c-0.1,0-0.1,0-0.3,0c-0.1,0-0.2,0-0.6,0c-0.2,0-0.4,0-0.6,0
	c0,0,0,0,0.1,0C453.4,9.4,453.7,9.3,454.1,9.3z M491.1,8.4C491.1,8.4,491.1,8.4,491.1,8.4c1,0,1.1,0,1-0.1c-0.1,0-0.3,0-0.4,0v0
	C491.1,8.3,491.1,8.3,491.1,8.4z M492.6,8.4c0.5,0.1,1.9,0,1.9-0.1C493.4,8.3,492.6,8.3,492.6,8.4C492.5,8.4,492.6,8.4,492.6,8.4z
	 M490,9L490,9C490.1,9,490,9,490,9c-0.6-0.1-1.1,0-1.6,0c0,0,0,0,0,0C488.7,9.1,489.9,9.1,490,9z M446.8,13L446.8,13
	c0,0,0.1,0,0.1,0c0.3,0.1,1,0.1,1.4,0.1c0.2-0.1,0-0.1-0.6-0.1C447.4,13,447.1,13,446.8,13z M493.8,7.8L493.8,7.8c0.9,0,0.9,0,2.1,0
	l1.5-0.1c0.7,0,1.3,0,2,0c1.2,0,2.1-0.1,3.3-0.1c-0.1-0.1-1.1,0-1.4-0.1c0.3-0.1,1.1,0,1.6-0.1c0,0,0,0,0,0c0,0,0,0,0,0
	c-0.1,0-0.1,0-0.3,0c-0.5,0-0.7,0-0.8,0c-0.1-0.1,0-0.1,0.5-0.1c0.4,0,0.8,0,0.7,0c-0.1-0.1-0.5-0.1-0.8-0.1c-0.7,0-1.4,0-2.2,0
	c-0.7,0-1.4,0-2-0.1c-1.3,0-2-0.1-2.8-0.1c-0.5,0.1-1,0.2-1.7,0.3c-0.3,0-0.3,0-0.3-0.1c0,0,0-0.1-0.7-0.1c0.2,0.3,0.2,0.3-1.3,0.3
	c0,0,0.1,0,0.1,0C491.6,7.9,492.8,7.8,493.8,7.8z M451.4,10.1C451.4,10.1,451.5,10.1,451.4,10.1L451.4,10.1c0.7,0,0.8,0,0.8,0
	c0,0,0.1-0.1,0.4-0.1c-0.1,0-0.2,0-0.4,0C451.4,9.9,451.3,10,451.4,10.1z M493.1,6.7c0.1-0.1,0-0.1-0.3-0.2c-0.1,0-0.2,0-0.3-0.1
	c-1,0-0.7,0.1-0.6,0.1C492,6.6,492.4,6.7,493.1,6.7z M451,10.5c0.5,0,0.8,0.1,1.3,0.1c0.1,0,0.2-0.1,0.8-0.1c0.6,0,0.8,0,1.2-0.1
	c0.5,0,0.8,0,0.9,0.1c0.2,0.1,0.4,0.1,0.9,0c-0.1,0-0.4-0.1-0.5-0.1c0.2,0,0.6,0,0.9-0.1c0.1-0.1-0.1-0.1-0.8-0.1
	c-0.6,0-0.8-0.1-0.6-0.2c-0.2,0-0.5,0-0.8,0v0c-0.5,0-0.5,0.1-0.2,0.2c0.2,0,0.4,0,0.5,0c-0.1,0-0.3,0.1-0.4,0.1
	c-0.6-0.1-2-0.1-2-0.1c-0.4,0-0.6,0-0.9,0c0.1,0.1,0.1,0.1-0.2,0.1c-0.3,0-0.3,0.1-0.2,0.1C451,10.5,451,10.5,451,10.5z M454.6,10.9
	c0.3,0.1,0.8,0.1,1,0.1C455.8,11,455.4,10.9,454.6,10.9C454.5,10.9,454.5,10.9,454.6,10.9z M445.7,12.7c-0.1,0.1,0.3,0.1,0.4,0.2
	c0,0,0,0,0,0c0.3,0,1.1-0.1,1.1,0c0,0-0.3,0-0.4,0c0.1,0.1,0.7,0,1,0c0.3,0,0.2-0.1,0.2-0.1C447.2,12.7,446.5,12.7,445.7,12.7z
	 M451.6,10.9l-0.8,0l0,0.1L451.6,10.9L451.6,10.9z M439.7,11.5C439.8,11.5,439.8,11.5,439.7,11.5c1.5,0,1.8,0.1,3.4,0.1
	c0.1,0,0-0.1-0.3-0.1c-0.3,0-0.4,0-0.4-0.1c-0.2,0-0.4,0-0.6,0c-0.3,0-0.6,0-1.1,0c-0.7,0-1,0-1.3,0c0,0-0.1,0-0.2,0
	c0,0-0.1,0-0.1,0c-0.1,0-0.1,0,0,0C439.2,11.5,439.5,11.5,439.7,11.5z M536.9,9.3C536.9,9.3,536.9,9.3,536.9,9.3
	c0.2,0.1,0.2,0.1,2.1,0.1c0-0.1-0.3-0.1-1.3-0.1C537.4,9.3,537.1,9.3,536.9,9.3z M475.5,11.3c0.3,0.1,1,0,1.2-0.1
	c0.1,0-0.1-0.1-0.2-0.1c-0.3,0.1-0.5,0.1-1.1,0.1C475.4,11.3,475.4,11.3,475.5,11.3z M543.7,10.7c0.1,0,0.4,0,0.6,0
	c0.5,0,1.1,0,1.6,0C546,10.7,544.3,10.7,543.7,10.7C543.6,10.7,543.5,10.7,543.7,10.7z M493.5,10c-0.1,0-0.1,0-0.2,0c0,0,0,0-0.1,0
	c-0.7,0-1,0.1-1,0.2c0,0,0.1,0,0.1,0c0.9,0,1.4,0,1.7,0.1c0.1,0,0.1,0,0.4,0c0.3,0,0.4-0.1,0.4-0.1c-0.4,0-0.6,0-0.8,0
	C493.8,10.1,493.8,10.1,493.5,10z M476.6,11.2L476.6,11.2L476.6,11.2L476.6,11.2c0,0,0.1,0,0.1,0c1,0,0.9,0.1,0.9,0.1l0,0
	c0.5,0,1,0,1.5,0c0.1-0.1-0.1-0.1-0.6-0.1c-0.5,0-0.7,0-0.5-0.1C477.1,11.1,476.9,11.1,476.6,11.2z M481.3,10.5L481.3,10.5
	c-0.3,0-0.8,0-1.1,0l-0.1,0.1c0,0,0,0,0,0C480.9,10.6,481.3,10.6,481.3,10.5z M532.5,11L532.5,11c0.1,0,0.1,0,0.2,0.1
	c0.7,0,0.5-0.1,0.1-0.1C532.5,10.9,532.2,10.9,532.5,11z M462.3,12L462.3,12C462.3,12,462.3,12,462.3,12L462.3,12
	C462.4,12,462.3,12,462.3,12z M474.5,10.6L474.5,10.6c0.1,0,0.3-0.1,0.4-0.2l-1.1,0c-0.1,0-0.2,0.1,0,0.1
	C474,10.6,474.4,10.6,474.5,10.6z M477.2,10.4c-0.1,0-0.1,0-0.2,0c-0.4,0-0.5,0-0.6,0.1C476.6,10.5,476.9,10.5,477.2,10.4
	L477.2,10.4z M481.7,10.6C481.7,10.6,481.7,10.6,481.7,10.6c0.5,0.1,1.3,0.1,2.1,0c1.7,0,1.9,0,2,0c1.1-0.1-1-0.2-1.9-0.2
	C481.2,10.4,481.7,10.6,481.7,10.6z M487.1,10.1c0.1,0,0-0.1-0.3-0.1c-0.2,0-0.3,0-0.4-0.1c-0.5,0-0.4,0-0.3,0.1
	C486.2,10.1,486.6,10.2,487.1,10.1z M488.1,9.5c-0.1,0-0.2-0.1-0.3-0.1c2.6,0,5.3,0,7.8,0.1c1.5-0.1,1.9-0.1,3.2,0
	c0.8-0.1,2,0,2.9-0.1c-2.2-0.2-2.2-0.2-2.1-0.3c-0.6,0.1-1.1,0.2-2.3,0.2c-1.7-0.1-1.7-0.1-2-0.1c0,0,0.1,0,0.1,0
	c0.4,0,0.9,0,1.2-0.1c-2.1,0-2.4,0-3,0.1c-0.9,0-1.8,0-2.6,0c0-0.4,0-0.4,1-0.5c0.8,0.1,3.2,0.2,5.3-0.1c-0.1,0-0.2,0-0.3,0
	c-0.3,0-0.3,0-1.1,0c-0.7,0-1.3-0.2-1.2-0.3c0.6,0,0.6,0,3.4,0.1c1.2-0.1,2.1-0.1,3.9-0.2c1.1,0.1,2.9,0.1,4.3,0.2
	c1.3-0.1,1.3-0.1,1.9-0.1c0.1,0,0.2,0,0.2,0.1c-0.1,0-0.1,0-0.2,0c-0.3,0-0.4,0-0.4,0c-0.1,0-0.3,0-0.3,0.1c1.1,0.1,1.9-0.1,3,0
	c-0.3,0-0.7,0-0.9,0c0.5,0.1,0.5,0.1,0.5,0.2c-0.7,0-0.7,0-1.3,0c-0.7-0.1-1.9-0.2-1.9-0.2c0.4,0.1-0.2,0.3,0.5,0.4
	c3.7-0.2,6.9,0.2,10.4,0.1c0.9,0.1,0.9,0.1,1.3,0.1c0.2,0,0.4-0.1,0.6-0.2c0.8,0.2,6.4,0.1,7.3,0c-0.1-0.1-1.1-0.2-1.5-0.3
	c3-0.2,6.5,0,9.5-0.1c1.7,0.2,3.7,0,4.1,0c0,0,0.1,0,0.1,0c1.3,0.2,3.8,0,4.9,0.2c0.5-0.1,1.3-0.1,1.5,0c-0.1,0-3.4,0.3-6.3,0.1
	c-0.1,0.1-1.1,0.1-1.5,0.1c0.1,0,0.2,0,0.2,0c2.1-0.1,3,0.2,5,0.2c-0.5,0.2-3.1,0.1-4.3,0.1c-3.6-0.1-4.5-0.1-5.6,0
	c-0.4-0.1-0.4-0.1-0.3-0.2c1.1,0,2.4,0.1,3.4,0c-1.9-0.2-1.9-0.2-2.1-0.2c-6,0-6,0-6.4,0c0.2,0,0.2,0,0.6,0.2c1.1,0,2.3,0,3.4,0
	c-0.2,0.2-2,0.2-2.8,0.3c0.7,0,2.1-0.1,4.7,0.1c0.8-0.1,0.8-0.1,3,0c-0.4,0.1-0.5,0.1-3.2,0.1c0,0,0,0.1-0.1,0.1
	c1.1,0.1,3.6,0.1,3.6,0.3c-0.4,0-0.7,0-1.1,0c-0.2,0-0.3,0-0.3,0.1c0.8,0.1,1.6,0.1,4,0c-0.4-0.1-0.4-0.1-0.2-0.2c0.2,0,0.5,0,0.6,0
	c0,0-0.3,0.1-0.3,0.1c0.2,0,0.4,0,0.5,0c1.1-0.1,2.7,0,3.9-0.1c-0.2,0-0.5,0-0.7,0c0-0.1,0.5-0.1,0.7-0.2c-1.7,0-1.7,0-2.6-0.2
	c-0.1,0-0.2,0.1-0.2,0.1c-1.6,0-1.9-0.1-1.7-0.2c2.6,0,3.6,0.1,4.4,0.2c0.7-0.2,2-0.1,2.2,0c0.1,0,0.1,0-0.5,0.2
	c0.9,0,1.5,0.1,2.1,0.2l0.1-0.1c0.3,0,0.8,0,1.1,0c0,0.1-0.4,0.1-0.8,0.1c0.4,0,0.9,0.1,1.5,0.1c0.1,0,0.2,0,0.3,0
	c-0.7-0.1-0.7-0.1-0.6-0.2c9.3,0,9.3,0,10,0c0.1,0.2,0.1,0.2,1.2,0.3c0.4,0,1.6,0,2.2,0.1c-1.6,0-3,0.1-4.6,0.1
	c-0.3,0-0.7-0.1-1-0.1l-0.4,0.1c-0.6,0-1.2-0.1-1.9-0.1c-0.1,0-0.2,0-0.3,0c2.4,0.2,2.4,0.2,2.7,0.3c-2-0.1-3.8-0.1-5.5,0.1
	c-0.4-0.1-0.6-0.1-1.5-0.1c-0.5,0-1.2,0.1-1.8,0.1c1.3,0,1.6,0.1,2.1,0.2c0,0,0.1-0.1,0.2-0.1c0.6,0,0.8,0,0.9,0.1
	c-0.1,0-0.3,0-0.5,0c-0.1,0,0,0.1,0.1,0.1c-1.1,0-1.4,0-2.9-0.1c0.2,0,0.5,0,0.7-0.1c-4.1-0.3-4.1-0.3-4.4-0.2c-1.2,0-4.5,0.1-5.8,0
	c-0.2,0-0.5,0-0.7,0c-0.4,0-0.8,0-1.2,0.1l-1.4,0l-0.4,0.1c-1.4,0-2.5-0.1-4-0.1c0,0,0,0,0,0c0,0,0,0,0,0c-1.5,0.1-3.1,0-4.1,0
	c-0.7,0.1-1.5,0-2.2,0.1c-0.4,0.2,5.5,0.2,8,0.1c2.5,0.1,8.5-0.2,8,0.2c-1.1,0-1.4,0-2,0c-0.1,0,0,0.1,0.1,0.1c-1,0-1.2-0.2-2.1-0.2
	c-1.2,0.1-3.5,0.1-5.5-0.1c-0.1,0.1-0.2,0.2-2.8,0.2c0,0-0.1,0.1-0.2,0.1l0.1,0c-0.3,0-0.5,0-0.8-0.1c0,0,0,0,0,0c-1,0-2,0-3-0.1
	c0.7,0,1.6,0,2.3,0c-0.6,0-1.1,0-1.7,0.1h0c-0.2,0-0.4-0.1-0.6-0.1c0,0-0.1,0-0.1,0c0,0,0,0,0,0c-0.9-0.1-1.4-0.1-2.5-0.2
	c0,0-0.1,0-0.2,0c-0.3,0-0.6,0-0.8,0c-0.1,0-0.3,0-0.5,0.1c-1.1-0.1-1.1-0.1-1.4-0.1c-0.1,0-0.3,0-0.4,0.1c-0.9,0-2.1,0-3,0l0,0
	l-1.5,0l0,0l-16.7-0.3c2.3-0.1,2.3-0.1,2.4-0.2c-1.6,0-2.8-0.2-4.5-0.2c0,0,0,0,0.1-0.1c1.8-0.1,3.8,0,5.7-0.1
	c-0.7-0.1-1.1-0.2-0.2-0.2c0.1,0,0.1,0,0.2,0c0.1,0,0.3,0,0.4,0c0.1,0,0.1,0,0.2,0c-7.4,0-7.4,0-7.5,0
	C492.4,9.6,489.4,9.8,488.1,9.5z M550.3,9.7c0.3,0,0.2,0.1,0.1,0.1c-0.1,0-0.1,0,0,0.1c0.1,0,0.2,0,0.4,0c0.6,0,0.7-0.1,1.2-0.1h0
	C552,9.8,551.4,9.7,550.3,9.7z M548.5,10.2C548.5,10.2,548.4,10.3,548.5,10.2C548.4,10.3,548.5,10.3,548.5,10.2
	c0.1,0.1,0.2,0.1,0.3,0.1c0.8,0,0.7-0.1,0.4-0.1C549.1,10.2,548.8,10.2,548.5,10.2L548.5,10.2z M546.2,10.3l0.7,0l0.1-0.1
	L546.2,10.3L546.2,10.3z M542.1,10.3C542.1,10.3,542.2,10.3,542.1,10.3c0.2,0,0.4,0.1,0.5,0.1c0.6,0,1.3,0,1-0.1
	c-0.6,0-0.8,0.1-1.2,0.1c0,0,0,0-0.1,0C542.3,10.3,542.2,10.3,542.1,10.3z M537,10.2C537,10.2,537,10.2,537,10.2
	c0.1,0,0.3,0.1,1,0.1c0.5,0,1.1,0,0.9-0.1C538,10.2,537.5,10.2,537,10.2z M533.3,10.2c0.3,0.1,1.2,0.1,1.3,0.1
	c0.4,0,0.6-0.1,1.9-0.1c-0.1,0-0.2-0.1-0.3-0.1c-0.6,0-1.1,0-1.7,0C534.2,10.1,533.8,10.1,533.3,10.2L533.3,10.2
	C533.3,10.1,533.2,10.2,533.3,10.2z M538.2,8.9C538.3,8.9,538.3,8.9,538.2,8.9c0.2,0,0.3,0,0.4,0c0.9,0,0.7-0.1,0.4-0.1
	C539,8.8,538.7,8.8,538.2,8.9C538.3,8.9,538.3,8.9,538.2,8.9z M523.8,10.6c-0.2,0-0.5,0-0.6-0.1c-0.1,0-0.1,0-0.1-0.1
	c-1.1,0-1.6,0-2.1,0c-0.8,0-1.2,0-2.3,0c-0.3,0.1-0.5,0.1-1.1,0.1c0,0,0.1,0,0.1,0c0.9,0.1,2.1,0.1,2.5,0.1h0
	C521.4,10.6,522.4,10.6,523.8,10.6z M521.7,10.2c0.2,0,0.5,0.1,0.7,0.1C522.3,10.2,522,10.2,521.7,10.2c0.1-0.1-0.1-0.1-0.1-0.1
	C521.5,10.1,521.6,10.1,521.7,10.2z M528.2,10c-1.6,0-3.2,0-4.9,0c0.1,0,0.1,0,0.2,0c0.7,0.1,1.7,0.2,2.3,0.2l0.1-0.1
	c0.1,0,0.2,0.1,0.3,0.1c0.2,0,0.5,0,1.3,0c1.1,0,2.1,0.1,3.2,0.1c0.9,0,1.3,0,1.8,0c0.1-0.1,0.1-0.1,0.1-0.2c-0.5,0-1,0-1.5,0
	c-0.3,0-0.4,0-0.4,0.1C530.2,10.1,529.5,10.1,528.2,10z M525.1,9.8c0,0,0.2,0,0.5,0c0.3,0,0.4,0,0.5,0c-0.2,0-0.5-0.1-0.6-0.1h0
	C524.8,9.8,525,9.8,525.1,9.8z M522.9,9.5c0,0,0.1,0,0.1,0c0.4,0,0.9,0,1.1,0c2.1,0,3.7,0,4.4-0.1c0,0,0.2-0.1,0.1-0.1
	c0,0-0.2,0-0.5,0c0,0-0.1,0-0.1,0c-0.3,0-0.5,0-0.8,0c-0.2,0-0.2,0-0.6,0c-0.3,0-1.1,0-2.1,0c-0.7,0-1.2,0-1.6,0
	C523,9.4,522.9,9.5,522.9,9.5z M518.5,9c0,0,0.1,0,0.2,0.1c0.3,0.1,0.7,0.1,2.4,0.1c0.9,0,1.3,0,1.8,0c-0.1-0.1-0.3-0.2-1-0.2
	c-0.2,0-0.6,0-0.9,0C520,9,519.2,9,518.5,9z M516.6,10c0,0-0.1,0.1-0.1,0.2c0.1,0,0.1,0,0.2,0c0.7,0,1.1,0,1.4,0c1,0,1.7,0,2.6-0.1
	h0C520.2,10,517.6,10,516.6,10z M514.4,9.5C514.4,9.5,514.4,9.5,514.4,9.5c0.2,0,0.4,0,0.5,0c0.9,0,1.3,0,1.7,0
	c-0.1-0.1-1.5-0.2-2-0.1h0C514.3,9.4,514.4,9.4,514.4,9.5z M509.7,10.4l-0.8,0l0,0.1L509.7,10.4L509.7,10.4z M512.3,10.4
	C512.3,10.4,512.3,10.4,512.3,10.4c0.2,0,0.4,0,0.5,0c0.3,0,0.5,0,0.4-0.1C513.1,10.4,512.9,10.4,512.3,10.4z M509,9l0.4,0.1l0.8,0
	c0,0,0.1-0.1,0.1-0.1C509.8,9,509.4,9,509,9z M508.9,10.1c0.2,0,0.6,0,1.3,0.1C510.3,10.1,510.5,10,508.9,10.1
	C508.8,10,508.8,10,508.9,10.1z M506.7,9C506.7,9,506.7,9,506.7,9c0.8,0,0.9,0,0.7-0.1c-0.1,0,0-0.1,0.2-0.1c-0.3,0-0.8,0-1.1-0.1
	C506.4,8.9,506.4,9,506.7,9z M493.9,8.7c-0.4,0-0.8,0-1.2,0l0.7,0.1h0C493.5,8.8,493.7,8.8,493.9,8.7z M499.4,8.9c0,0-0.4,0-0.7,0
	c-0.1,0-0.2,0-0.5,0c0,0,0,0,0.1,0c0.1,0,0.3,0,0.4,0C499.6,9,499.6,8.9,499.4,8.9z M501.8,10.4C501.7,10.4,501.8,10.5,501.8,10.4
	C501.9,10.5,501.9,10.5,501.8,10.4c0.1,0.1,0.1,0.1,0.2,0.1v0c1.3,0,2.4-0.1,3.6-0.1C505,10.3,502.2,10.3,501.8,10.4z M501.9,9.1
	c0.1,0,0.3-0.1,0.4-0.1c-0.3,0-0.8-0.1-1.9-0.1c0,0,0.1,0,0.2,0.1C501,9,501.5,9,501.9,9.1z M501.4,10.1l1.5-0.1
	c-0.2,0-0.5-0.1-0.7-0.1C501.4,9.9,501.3,10,501.4,10.1z M551.8,10.7C551.7,10.7,551.7,10.7,551.8,10.7c0.2,0.1,0.6,0.1,1.4,0.1
	c0.1-0.1-0.2-0.1-0.3-0.2c-0.1,0-0.1,0-0.2,0C552.4,10.7,552.1,10.7,551.8,10.7z M495,6.8l-0.8,0l0,0.1L495,6.8L495,6.8z
	 M557.8,10.8C557.8,10.8,557.8,10.8,557.8,10.8c-0.3-0.1-0.6-0.1-1.2-0.1c-0.9,0-1.7,0-2.6,0c-0.4,0-0.6,0.1-0.5,0.2
	c0.1,0,0.3,0,0.5-0.1c0.4,0.1,0.8,0.1,1.5,0.1c0.6,0,0.9,0,0.9,0c0.5,0,0.9,0,1.5,0C557.9,10.8,557.9,10.8,557.8,10.8z M554.7,11.8
	c-0.2,0-0.7,0.1-0.3,0.2c0.4,0.1,1.8,0.2,3.1,0.1c-0.2-0.1-0.6-0.1-1.4-0.2C555.2,11.9,554.9,11.9,554.7,11.8z M445.9,12l-0.7,0
	l0,0.1L445.9,12L445.9,12z M655.7,9L655.7,9C655.7,9,655.7,9,655.7,9c0.6,0,1.1,0,1.2,0c0.5,0,0.7,0,1.3,0c0.1-0.1-0.7-0.1-1.4-0.1
	C655.9,8.9,655.5,8.9,655.7,9z M656.5,10.1L656.5,10.1c-0.1,0.1-0.5,0.1-0.5,0.1c0,0,0.1,0,0.1,0c0.6,0,1.1,0,1.6,0
	c0.4,0,0.6,0,0.8,0c-0.2-0.1-0.7-0.1-1.6-0.1C656.8,10.1,656.6,10.1,656.5,10.1z M666.5,10.3c-0.1,0-0.2-0.1-0.3-0.1l-0.7,0
	c-0.1,0-0.1,0-0.1,0C665.5,10.3,665.5,10.3,666.5,10.3z M658.4,10.7c0.4,0,0.7,0,1.1,0c-0.1,0-0.2-0.1-0.2-0.1
	C658.7,10.6,658.4,10.7,658.4,10.7C658.4,10.7,658.4,10.7,658.4,10.7z M679.1,9.8c0.4,0.1,1.4,0.1,2.1,0.1c-0.6-0.1-0.7-0.1-0.7-0.3
	c-0.4,0-1,0-1.4,0C679,9.7,678.9,9.7,679.1,9.8z M704.5,9.9l-1,0l-0.1,0.1l1,0L704.5,9.9z M683.9,9.8L683.9,9.8c0.1,0,0.1,0,0.1-0.1
	c-0.6,0-1.2,0-1.8,0c0,0,0,0,0.1,0C682.6,9.8,683.5,9.8,683.9,9.8z M610.7,10.3L610.7,10.3C610.7,10.3,610.7,10.3,610.7,10.3
	l-0.2-0.1c-0.4,0-0.6,0.1-0.4,0.1C610.2,10.4,610.4,10.4,610.7,10.3z M637.4,10.2L637.4,10.2c0.3-0.1-0.9-0.1-0.9-0.1
	c-0.9,0-0.8,0-0.8-0.1c-0.1,0-0.4,0-0.3,0.1C635.7,10.2,637.1,10.2,637.4,10.2z M637.1,8.9L637.1,8.9c0,0-0.3,0-0.5,0.1
	c0,0,0.1,0,0.1,0c0.9,0,2,0,3.5,0c0.2,0,0.3-0.1,0.2-0.1c0,0,0,0,0.3,0c-0.3,0-0.7,0-1.5-0.1c-0.8,0-1.7,0-2.7,0
	c0.1,0,0.2,0.1,0.5,0.1C637,8.9,637.1,8.9,637.1,8.9z M584.5,8.8L584.5,8.8c0.3,0,1.9,0.1,2,0c0.9,0,3.8,0.2,5.1,0.1
	c0.6,0.1,0.6,0.1,4.3,0.1c-0.1,0.1-0.9,0.2-0.9,0.3c0.3,0,0.8,0,1.1,0c0.8,0-0.1-0.1,0.5-0.2c0.5,0,0.7,0.1,1.2,0.1
	c0.4,0,0.7,0,0.8,0c0-0.1-1.2-0.1-1.2-0.2c5,0,5,0,6.3,0c-1.1-0.1-2.8-0.2-4.1-0.3c-1.2,0.1-4.8,0.2-5-0.1c-1.6,0-3.2,0-4.8,0
	c0.3,0.1,1,0.1,1.2,0.1c0.2,0,0.2,0.1,0,0.1c-0.5,0-0.7,0-1.1-0.1c-0.8-0.1-1.3,0-1.3,0c-0.6,0-1-0.1-1.7-0.1c-0.3,0-0.5,0-0.8,0
	c0,0-0.1,0.1-0.1,0.1c-0.7,0-1.3-0.1-2.1,0c-0.5,0-0.5,0-0.5,0.1c0,0,0,0,0.1,0C583.8,8.8,584.1,8.8,584.5,8.8z M645.5,8.9
	c-0.1,0-0.1,0-0.3,0c-0.7,0-1,0-1,0.1c0,0,0,0,0,0C645.1,9,645.7,9,645.5,8.9z M649.7,10.1c0.1,0,0.2,0.1,0.3,0.1c0,0,0,0.1,0.2,0.1
	c0.2,0,0.5,0.1,0.7,0.1c0.8,0,0.9,0,1.6,0c0.5,0,0.9,0,1.2,0.1c0.3-0.1,0.4-0.1,0.3-0.1c0,0,0,0,0,0c-0.1,0-0.4-0.1-1.2-0.1h0
	C651.8,10.1,650.7,10.1,649.7,10.1z M638,10.1L638,10.1c0.5,0.1,1.3,0.1,2.2,0.1c0.2,0,0.5,0,0.7,0c0.2,0,0.2,0,0.2-0.1
	c0.7,0.1,1.3,0.1,2.7,0.1c1.2,0,1.8,0,2.4,0.1c0.9,0,1.6-0.1,2.6-0.1c0.1,0,0.1-0.1,0.2-0.1c-0.8,0-1.3-0.1-2.3-0.1
	c-1.8,0-3.7,0-5.4-0.1c-0.8,0.1-1.6,0.1-3.4,0.1C637.8,10.1,637.9,10.1,638,10.1z M646.6,9.1c0.1,0,0.3,0,0.5,0h0c1.2,0,1.2,0,6.7,0
	c0.9-0.1,0.9-0.1,1.6-0.1c-0.4-0.1-0.5-0.1-1.3-0.1c0.4-0.1,0.8-0.1,1.6-0.1c-0.4,0-0.9,0-1.3,0c-1.7,0-1.7,0-8.1,0
	C646.3,8.8,646.5,8.9,646.6,9.1z M711.8,10.5c0.2-0.1-0.2-0.1-0.7-0.1c-0.1,0-0.1,0-0.2,0c0,0,0,0,0,0
	C711.1,10.5,711.4,10.5,711.8,10.5z M836.3,12.4L836.3,12.4c0.6,0,0.4-0.1,0.1-0.1c-0.1,0-0.2,0-0.3,0c-0.1,0-0.2,0-0.3,0
	c-0.1,0-0.1,0-0.1,0c0,0,0,0,0,0C835.9,12.4,836.3,12.4,836.3,12.4z M846.9,12c0,0,0.1-0.1-0.6-0.1c-0.3,0-0.6,0-0.9,0c0,0,0,0,0,0
	C845.6,12,846.4,12,846.9,12z M887.4,12.1c0.1,0,0.3-0.1,0.1-0.1c-0.3,0-0.9-0.1-1.3-0.1c0,0-0.1,0.1,0,0.1
	C886.3,12,887,12.1,887.4,12.1z M884.6,12c0.3-0.1,0-0.1-0.7-0.1c0,0,0,0,0,0C884,11.9,884.3,12,884.6,12z M927.9,11.5l0.4,0
	C928.4,11.4,928.1,11.4,927.9,11.5c-0.3-0.1-0.7-0.1-0.6,0c0,0,0,0,0,0C927.4,11.5,927.7,11.5,927.9,11.5z M1017.4,12.5
	C1017.5,12.4,1017.5,12.4,1017.4,12.5C1017.5,12.4,1017.4,12.4,1017.4,12.5c-0.4-0.1-0.6,0-0.9,0c0,0-0.1,0,0,0
	C1016.6,12.5,1017.2,12.5,1017.4,12.5z M931.4,11.5L931.4,11.5c0,0,0.1-0.1-0.4-0.1c-0.2,0-0.5,0-0.7,0c0,0,0,0,0,0
	C930.4,11.5,930.9,11.5,931.4,11.5z M714,10.4c0,0-0.1,0-0.1,0c-0.7,0-1,0-1,0.1c0,0,0,0,0,0C713.4,10.5,713.9,10.5,714,10.4z
	 M760.4,11.7C760.3,11.7,760.3,11.6,760.4,11.7c0-0.1-0.1-0.2-0.4-0.2c-0.6,0-0.6,0.1-0.5,0.1C759.7,11.7,760.1,11.7,760.4,11.7z
	 M802.3,11.9c0-0.1-0.1-0.1-0.5-0.1c-1.5,0-1.9,0.1-1.9,0.2c0.3,0.1,0.6,0.2,2,0.2C802,12.1,802.3,12,802.3,11.9z M713.8,10.1
	c0.1,0,0.2-0.1,0.2-0.2c0.2,0,0.4,0.1,0.9,0.1c0.8,0,1.7,0,2.4,0c-0.1-0.1-0.3-0.1-1.3-0.1c-0.2-0.1-0.5-0.1-1.1-0.1
	c-1.2,0-2.1,0.1-1.9,0.2C713.2,10.1,713.6,10.1,713.8,10.1z M790.6,12C790.6,12,790.6,12,790.6,12c0.2,0,0.6,0,0.5-0.1
	c-0.1,0-0.1,0-0.2,0c-0.5,0-0.5,0.1-0.9,0.1c0,0,0,0,0,0C790,12,790.2,12,790.6,12z M792.9,12C792.9,12,792.9,12,792.9,12
	c0.4,0.1,1,0.1,1.3,0.1c0.1,0,0.1-0.1,0.2-0.1c-0.3,0-0.4,0-0.7,0C792.7,11.9,792.9,12,792.9,12L792.9,12z M797.3,11.9
	c0-0.1-0.1-0.2-0.6-0.2c-0.3,0-0.6,0-0.4,0.1C796.3,11.8,796.5,11.9,797.3,11.9z M503.7,7.6c0.1,0,0.5,0.1,0.6,0
	c0.1,0,0.1-0.1,0.1-0.1C503.4,7.5,503.7,7.5,503.7,7.6z M554.9,9.5c1,0,2,0,3,0c-0.9-0.1-1.7-0.1-2.6-0.1c-1.1,0-1.8,0-2.6,0
	c0.1,0,0.2,0,0.3,0C554,9.5,554.6,9.5,554.9,9.5z M552.2,9.2c0.9-0.1,0-0.2-0.8-0.2c-0.6,0-0.8,0-0.9,0.1c0,0,0,0,0,0
	C551.6,9.2,551.6,9.2,552.2,9.2z M553.9,8.8c0.1,0,0.2,0,0.3,0c1,0,2.1,0.1,3.1,0c0.2-0.1-1.1-0.2-1.6-0.2c-0.9,0.1-1.1,0.1-1.9,0
	c-0.2,0.1-0.1,0.1,0.1,0.1C554,8.8,554,8.8,553.9,8.8z M603.6,9.4c-1,0-1.4,0-1.6,0.1c0,0,0.1,0,0.1,0
	C603.4,9.6,603.5,9.5,603.6,9.4z M550.3,8.7c0,0-0.1,0-0.2,0c-0.5,0-0.6,0-0.6,0.1C549.7,8.8,550,8.8,550.3,8.7L550.3,8.7z
	 M578.4,12c-0.8,0-1.1,0-1.5-0.1c0,0,0,0,0.1,0.1c0.2,0,0.5,0.1,0.7,0.1c0.7,0,1.6,0,2.3,0.1C579.8,12,579.5,12,578.4,12z
	 M580.9,11.8L580.9,11.8c-0.1,0-0.2,0-0.2,0c0,0,0,0,0,0c0.2,0.1,0.6,0.1,1,0.1C581.9,11.8,581.6,11.8,580.9,11.8z M547.8,9.1
	L547.8,9.1c0.1,0,0.1,0,1.4,0c-0.1-0.1-0.4-0.1-1-0.1C548.1,9,548,9,547.8,9.1C547.8,9,547.7,9.1,547.8,9.1z M580.9,11.9
	c-0.5,0-0.9,0-1.2,0c-0.5,0-0.8-0.1-1.3-0.1c-0.1,0-0.4,0.1-0.2,0.1c0.1,0,0.5,0,0.8,0c0.3,0,0.5,0,0.7,0c0,0,0,0.1-0.1,0.1l1.8,0
	L580.9,11.9z M518.7,8.6c0.6,0,0.8,0,1.4-0.1c0.6-0.1,0.8-0.1,1.2,0c0.4,0,0.9-0.1,1.2-0.1c0.3,0,0.3-0.1,0.4-0.1
	c-0.2,0-0.3,0-0.5,0c-0.9,0-1.3,0-1.8,0.1c-1.4-0.1-2.4,0-2.2,0.1C518.5,8.6,518.6,8.6,518.7,8.6z M515.5,8.3c-0.1,0-0.2,0-0.3,0
	c-0.3,0-0.4,0-0.5,0.1c0,0,0,0,0.3,0.1L515.5,8.3z M535.1,8.2c-0.1,0-0.3,0-0.4,0c-0.9,0-1.2,0-1.2,0.1c0,0,0,0,0.1,0
	C534.7,8.3,535.1,8.3,535.1,8.2z M547.6,9.5c0.6,0,1,0,1.3,0c0.4,0,0.5,0,0.8,0c0,0-0.6-0.1-1.2-0.1C547.7,9.4,547.4,9.4,547.6,9.5
	C547.5,9.4,547.6,9.5,547.6,9.5z M536.5,8.2c0,0,0.4,0.1,1.2,0c-0.3,0-0.6,0-0.8-0.1C536.3,8.1,536.5,8.2,536.5,8.2z M575.6,13.2
	c-0.5,0-0.9,0-1.4-0.1c-1.4,0-2.7,0-4.1,0c0.1,0,0.2,0.1,0,0.2c-0.1,0.1-0.2,0.1,0.1,0.2c0.2,0,0.4,0,0.7,0.1
	c-0.2,0-0.3-0.1-0.2-0.1c0.1,0,0.5-0.1,0.8-0.1c0.5,0,0.5,0.1,1,0.1c0.5,0,0.7,0,0.6-0.1c-0.1,0-0.6-0.1-0.5-0.1c0,0,0.1,0,0.6,0
	c1.1,0,1.1,0,1.2,0c0,0,0,0,0.1,0.1c0,0,0.1,0,0.1,0c0.2,0.1,0.3,0.1,0.7,0.1c0.5,0,0.4-0.1,0-0.1C575,13.3,575.2,13.2,575.6,13.2z
	 M608.2,10.8C608.2,10.8,608.2,10.8,608.2,10.8c-0.2-0.1-0.5-0.1-0.6-0.1c-0.1,0-0.1,0-0.2,0c0,0-0.1,0,0,0.1c0.1,0,0.3,0,0.6,0.1
	c0.5,0,0.8,0.1,0.6,0.1c0.1,0,0.3-0.1,0.5-0.2C608.5,10.9,608.3,10.9,608.2,10.8z M579.9,8.8L579.9,8.8C580,8.8,579.9,8.8,579.9,8.8
	c-0.1-0.1-0.1-0.1-0.2-0.1c-0.4,0-0.6,0-1,0c0,0,0,0,0,0C578.9,8.9,579.7,8.9,579.9,8.8z M564.9,10.2c-0.3,0-0.6,0-0.9,0
	c1-0.2,4.4,0,4.4,0c0.2,0,0.5-0.1,0.8-0.1c1.2,0,2.6,0,3.8,0c2.4-0.1,2.4-0.1,3.4-0.1c0.3,0.1,0.6,0.1,1.7,0.1c0.1,0,0.3,0,0.4-0.1
	c0-0.1-0.7-0.1-0.6-0.2c0.8,0,0.9,0,1.2,0.1c0.1,0.1,0.4,0.2,5.3,0.1c-0.7-0.2,0.5-0.4,0.2-0.6c3,0.1,3.8-0.1,6.2-0.4
	c0,0,0.1,0,0.2,0c1,0.1,2.3,0,3.4,0.1c-0.1,0.1-0.8,0.1-1,0.2c1.6,0.1,2.3,0.2,1.9,0.3c0.5,0,0.5,0,1.6-0.1c-0.8,0-1.1,0-1-0.1
	c2.2,0.1,3.9,0.1,5.4,0.1c0.1,0.1,0.7,0.3,1.1,0.4c0.4,0,0.4,0,2.1,0.1c0.8-0.1,0.8-0.1,2.2,0c0.3,0,0.3,0,2.5,0
	c-0.1,0.1,0,0.1,0.5,0.1c-0.1,0.1-0.3,0.1-1.3,0.2c-0.9,0-1.8,0-2.6,0c-1.2,0-2.3,0-3.5,0c-1.1,0-2-0.1-3-0.1
	c-1.4,0-2.7,0.1-4.1,0.1c-0.7,0-1,0-1.4,0c-0.3,0-0.7,0.1-1,0.1c0.7,0.1,2.5,0,2.8,0.2c-4.2-0.1-5.3,0.2-4.8,0.3
	c0.5,0.1,0.5,0.1,0.4,0.1c-0.2,0-5.2-0.3-8-0.1c-0.7-0.1-1.9-0.2-2.3-0.3c0.3,0,0.7,0,1,0c0.1,0,0.2,0,0.2-0.1c-1.1,0-0.7-0.2-2-0.2
	c-1.3,0-2.7,0-3.7,0c-1,0-2.1,0-3.1,0c-0.8,0-2.1,0-3.2-0.1l0,0C568.3,10.1,566.6,10.2,564.9,10.2z M600.7,10.1c0,0,0.1,0,0.1,0
	c0.4,0,0.8,0,0.9,0c0.7,0,1.3,0,2.2,0C603.6,10.1,600.9,9.9,600.7,10.1z M598.7,10.1c0.1,0,0.2,0,0.5,0c0.4,0,0.8,0,1.2,0
	c-0.2-0.1-0.3-0.1-0.7-0.2c-0.3,0-0.7,0-0.9-0.1C599.2,10,598.4,10,598.7,10.1z M592.7,9.9c-0.8,0-1.2,0.1-1.4,0.1
	c0.1,0,0.1,0,0.2,0c0.8,0.1,1.7,0.1,2.6,0.1c1.4,0,2.2,0,3.3,0c0,0,0.1-0.1,0.1-0.2c-0.4,0-0.7,0-1.2,0C595,10,594,9.9,592.7,9.9z
	 M590.8,9.7c0.1,0,0.7,0.1,1.7,0.2c0,0,0,0,0,0c0,0-0.1,0-0.1,0c0,0,0,0-0.1,0c-0.4-0.1-0.6-0.2-1.1-0.2
	C590.6,9.6,590.7,9.6,590.8,9.7z M584.8,10.3l0.7,0l0.1-0.1L584.8,10.3L584.8,10.3z M581.9,9.8L581.9,9.8c0.1,0-0.2,0-0.3-0.1
	l-0.8,0c0,0,0,0,0.1,0C581.1,9.9,581.8,9.9,581.9,9.8z M582.4,9.8c0.2,0,0.8,0.1,1.3,0c0-0.1-0.3-0.1-1.1-0.1
	C582.6,9.7,582.5,9.7,582.4,9.8C582.4,9.7,582.3,9.8,582.4,9.8z M581,6.1L581,6.1c0,0,0.1,0,0.1,0c0.2,0,0.5,0,0.7,0L581.7,6
	C581.2,6.1,580.8,6.1,581,6.1z M581.7,8.8c0.6,0,0.8-0.1,0.8-0.1C582,8.7,581.7,8.8,581.7,8.8C581.7,8.8,581.7,8.8,581.7,8.8z
	 M608.2,10.5L608.2,10.5c-1.1,0-2.4,0-3.4-0.1c-0.6,0.1-0.6,0.1-1.5,0c0,0,0.1,0.1,0.2,0.1c0.2,0,0.4,0,0.7,0.1
	c0.6,0,0.8,0.1,1.1,0.1c0.4,0,0.4,0,0.5-0.1c0,0,0.1-0.1,0.4-0.1c0,0,0.3,0,0.8,0c0.5,0,0.7,0,1.3,0c0.1,0,0.3-0.1,0.5-0.1l0.7,0
	C609,10.5,608.7,10.5,608.2,10.5z M599.3,10.5l-0.7,0l-0.1,0.1L599.3,10.5L599.3,10.5z M602.1,10.6c0.1,0-0.3-0.1-0.4-0.1
	c-0.4,0-0.9,0-0.7,0.1c0,0,0,0,0,0c0.2,0,0.5,0,0.7,0L602.1,10.6z M598.4,11L598.4,11c0,0,0.1,0,0.1,0c0.6,0,1.1,0,1.7,0
	c0.4,0,0.7,0,1,0.1c-0.1-0.1-0.9-0.2-1.2-0.3l-0.5,0.1c0,0-0.2,0-0.6,0C598.5,11,598.2,11,598.4,11z M607.8,11.5
	C607.8,11.5,607.9,11.5,607.8,11.5c1.2,0,1.3-0.1,1-0.2c0,0-0.1,0-0.2,0C607.6,11.3,607.6,11.3,607.8,11.5z M595.9,10.6
	c1,0,1.1,0,1.2-0.1c-0.3,0-0.8,0-1.1,0L595.9,10.6C595.9,10.6,595.9,10.6,595.9,10.6z M604.8,10.9c-0.5,0-0.8,0-1.2,0
	c0,0,0.1,0,0.1,0c0.2,0.1,0.6,0.1,1.1,0.1c0.6,0,1,0,1.6,0.1c0.2-0.1,0.2-0.2-0.2-0.2C605.6,10.9,605.3,10.9,604.8,10.9z M488.3,10
	c0,0-0.1,0.1,0.1,0.1c0.2,0,0.2,0,2.8,0.1h0c0-0.1-0.4-0.2-1.3-0.2C489.5,10,489.2,10,488.3,10z M95,5.4c0.1,0,0.2,0,0.2,0
	c0,0,0.1,0,0.1,0c-0.2,0-0.5,0-0.6,0.1c1.6,0,1.6,0.2,2.8,0.2c0,0-0.1-0.1-0.2-0.1c0,0-0.1,0,0-0.1c0.1,0,0.3,0,1,0
	c0.3,0,0.8,0.1,0.9,0.2c0,0.2-0.7,0.3-0.8,0.5c0,0.1,0.1,0.1,0.3,0.2c-0.7,0-0.7,0-0.8-0.1c0-0.1,0-0.1-0.5-0.1c0,0,0,0-0.1,0
	c-0.2,0-0.4,0-0.6,0l0,0c0,0,0,0,0,0c-0.1,0-0.3,0-0.4,0l-2.5,0c-0.1,0-0.1-0.1-0.3-0.1c0.9-0.1,0.8-0.2,0.5-0.3
	C93.4,5.5,93.5,5.4,95,5.4z M97.2,5.8L97.2,5.8L98,5.9l0-0.1L97.2,5.8z M93.7,5c0.4,0.1,0.6,0.1,0.5,0.2c0,0,0.1,0,0.1,0
	c0.9-0.1,0.6-0.2-0.6-0.3C93.1,4.9,93.3,4.9,93.7,5L93.7,5z M95.7,10c0.2,0,0.4-0.1,0.6-0.1c-0.1-0.1-0.3-0.2-1-0.2
	c0.4-0.2,0.5-0.3,0.3-0.6c-0.1-0.2,0.7-0.4,0.5-0.6C96.1,8.3,95,8.2,95,8c0,0,0-0.1,0-0.1c0-0.1,0.2-0.2,0.3-0.2c0,0-0.2,0-0.3-0.1
	c-0.8-0.1,0.1-0.3,0.5-0.4c-0.2,0-0.6,0-0.7-0.1c-0.1,0-0.1,0-0.1,0c-0.2-0.1,0.2-0.1,0-0.2c-0.2-0.1-0.9-0.1-1.2-0.1
	c0,0-0.1,0-0.1,0c-0.4-0.2,0.4-0.5,0.3-0.7c0.8,0,1.8,0,2.5,0c-0.5,0-0.6,0-0.8,0.1c0.4,0,0.8,0,1.2,0c-1,0-1.1,0.1-1.1,0.2
	c1.1,0.4,1.1,0.4,1.7,0.4C97.5,6.9,96.8,7,97.5,7c0.5,0,1.3,0,2.1,0c1,0.3,1.1,0.3,2.6,0.4c-0.5,0.2,1.9,0.5-0.5,0.6
	c1.8,0.1,2.6,0.3,4.2,0.5c0,0,0,0.1,0,0.1c1,0,1,0,1.2,0c-0.1,0-0.2,0-0.2,0c-0.2,0.1,0.8,0.2,0,0.3c-0.1,0-0.1,0-0.4-0.1
	c-0.5,0-0.7,0-1.4,0.2c-1.5,0-2.2-0.1-2.9-0.2c-0.2,0-0.2,0-1.4,0.1c0,0.1,1.2,0.2,1.2,0.3c-1.3,0-2.3,0.1-3.6,0.1
	c-0.2,0.1-0.2,0.2,1.2,0.3c-0.4,0.3,0,0.4,1.7,0.8c-2.8,0-6.6,0-9.5-0.1c0.1,0,0.2,0,0.1-0.1c-0.8,0-1.7,0-2.4-0.1
	c0,0.1,0.3,0.1,0.8,0.1l0,0c0,0,0.1,0,0.1,0l-1.8,0c0.6-0.2,0.6-0.4,0.2-0.6c1.5,0,0.8,0.2,0.6,0.3c0.3,0,0.6,0,0.9,0
	c0,0,0.1,0,0.2,0c0,0,0,0,0,0.1c1.3,0.1,1.4-0.2,2.4-0.2C93.9,9.9,94.7,10,95.7,10z M104.1,8.7C104.1,8.7,104.1,8.7,104.1,8.7
	c0.4,0.1,0.8,0.1,1.2,0.1C105.4,8.7,104.8,8.7,104.1,8.7z M97.4,7.6c0.1,0.2,0.3,0.3,0.4,0.4c0.1,0.1-0.1,0.2,0,0.3
	c0.1,0.1,0.4,0.1,0.5,0.1c0.3,0,0.8,0.1,1.8,0.1c1.2-0.3-0.1-0.6,0.6-1c-1.7-0.1-2.3-0.2-2.9-0.3c0.1,0,0.2,0,0.3,0
	c0.3,0,0.4,0,0.4-0.1c-0.4,0-0.9,0-1.2,0l0,0C97.3,7.3,97.3,7.4,97.4,7.6z M107.9,9.7C107.8,9.7,107.8,9.7,107.9,9.7l-0.5-0.1
	c-0.4,0-0.5,0.1-0.2,0.1C107.3,9.8,107.5,9.8,107.9,9.7z M90.3,7.8C90.4,7.7,90.3,7.7,90.3,7.8c-1-0.1-0.7,0-0.6,0
	C89.9,7.8,90.2,7.8,90.3,7.8z M108.5,8.3L108.5,8.3c-1.2,0-1.2,0-1.3,0c-0.1,0,0,0,0-0.1c0,0,0.1-0.1,0.1-0.1c-0.3,0-0.6,0-0.8,0.1
	c-0.3,0.1-0.3,0.1-0.6,0.2c0,0,0.1,0,0.1,0C106.6,8.4,108.7,8.4,108.5,8.3z M98.9,6.4c-0.4,0-0.5,0.1-0.2,0.1c0.3,0,0.6,0,0.7,0
	c0,0,0-0.1,0-0.1L98.9,6.4C99,6.4,98.9,6.4,98.9,6.4z M139.6,4.8C139.6,4.8,139.6,4.8,139.6,4.8c0.1-0.1,0-0.1-0.2-0.1
	c-0.2,0-0.2,0-0.1-0.1c0.2,0,0.6,0,0.8-0.1c0.1,0,0-0.1-0.1-0.1c0,0,0,0-0.1,0c-1.3,0-1.7,0.2-1.2,0.3
	C138.9,4.8,139.4,4.8,139.6,4.8z M72.6,8.8L72.6,8.8l-0.8-0.1l0,0.1L72.6,8.8z M90.2,7.2c0.2,0,0.5,0,0.6,0c0.1,0,0-0.1-0.1-0.1
	C89.8,7.1,90.2,7.2,90.2,7.2z M76.5,8.2L76.5,8.2c-0.3,0-0.6,0-0.7,0c-0.2,0-0.3,0-0.5,0c0,0,0,0,0.2,0.1c0.2,0,0.6,0.1,0.7,0.1
	C77.3,8.4,77.1,8.3,76.5,8.2z M73.4,10.5L73.4,10.5c-0.8,0.1,0.4,0.2-0.9,0.3c-0.1,0-0.2,0-0.3,0c0.1,0,0.1-0.1-0.1-0.2
	c-0.3-0.2-0.3-0.2,0.5-0.3c-0.8-0.2-0.6-0.4,0-0.4c0,0,0.1,0,0.1,0c0.1,0.1,0.1,0.1,0.5,0.1c0.3,0.1,0.3,0.1,0.1,0.2
	c0.8,0,1,0,1.6,0.1c0.4,0.1,0.7,0.1,1.6,0c0,0.1,0.5,0.2,0.2,0.3c-0.2,0.1-0.6,0.1-1.4,0C74.7,10.4,73.4,10.5,73.4,10.5z M74.2,10.5
	L74.2,10.5l-0.9-0.1l0.1,0.1L74.2,10.5z M89,7.6l0.8,0l-0.1-0.1l-1.2,0L89,7.6z M89.2,7.4c0.1,0-0.3-0.1-0.4-0.1
	c-0.4,0-0.5,0.1-0.3,0.1C88.7,7.4,89.2,7.4,89.2,7.4z M78.5,7.4L78.5,7.4c0.2,0,0.5,0,0.7,0c-0.5-0.1-0.4-0.1,0.1-0.1
	c0.6,0,0.8,0,0.6-0.1c-0.1,0-0.1,0-0.2,0C78.8,7.3,78.1,7.4,78.5,7.4z M72.5,8C71.4,7.8,73,7.5,76,7.5c0,0,0,0,0,0
	c0,0,0,0.1,0.2,0.1c0.1,0,0.3,0,0.4,0c0.5,0,0.9,0,1.1,0c0.3,0.1,0.2,0.1-0.5,0.1c-1,0-1,0-1,0c0.3,0,0.6,0.1,0.8,0.1
	c0.1-0.1,0.3-0.1,1-0.1c0.6,0,0.8,0,1,0c-0.2,0.1,0,0.1,0.5,0.1c0.4,0,0.5,0,0.5,0.1c-0.5,0-0.8,0-1.1,0c-0.2,0-0.3,0-0.5-0.1
	c-0.1,0-0.2,0.1-0.3,0.1c0.7,0,0.7,0,1.7,0.2c-0.1,0-0.2,0-0.6,0.1c-0.5,0-1.1,0-1.7,0c-0.5-0.1-0.7-0.1-3.1,0
	C74.2,8,73.3,7.9,72.8,8C72.7,8,72.6,8,72.5,8C72.5,8,72.5,8,72.5,8L72.5,8z M75.9,7.8c0.1,0,0.2,0.1,0.5,0.2
	c0.5,0.1,1.3,0.1,1.6,0.1C78.1,7.9,76.7,7.8,75.9,7.8z M138.7,5.7c-0.1,0-0.2,0-0.6,0c-0.6,0-1.2,0-1.3,0c0,0,0.1,0,0.2,0
	C137.4,5.8,138.1,5.7,138.7,5.7z M138.2,5.3c-0.1,0-0.1,0-0.2,0c-0.7,0-1.1,0-1,0.1c0,0,0,0,0,0C138.3,5.4,138.2,5.3,138.2,5.3z
	 M132.3,8.8L132.3,8.8c0.9,0,1.4-0.1,2.3-0.1c0.5-0.5,2-1,1.6-1.5c0.4,0,0.8,0,1.2-0.1c-0.3-0.1-0.3-0.1,0.2-0.3
	c0.6-0.2,0.5-0.3,0.2-0.4c0.2,0,0.5,0,0.8,0c-0.3-0.3-0.3-0.3-1.3-0.4c-0.7,0-1.2,0.1-2,0.1c1.3,0,1.3,0.2,2.1,0.3
	c-0.5,0-0.8,0-0.9,0.1c-0.2,0.1,0.1,0.2,0,0.3c-0.1,0.1-1.6,0.2-0.6,0.4c-1.2,0.1-1.2,0.1-1.9,0.1C132.4,8,132.1,8.3,132.3,8.8
	C132.3,8.8,132.3,8.8,132.3,8.8z M133.1,9.2c0.4,0.1,1.5,0.1,1.7,0.1C135.1,9.1,133.4,9.2,133.1,9.2C133.1,9.1,132.9,9.1,133.1,9.2z
	 M137.1,5.6C137.1,5.6,137.2,5.6,137.1,5.6c1,0,1.3,0,1.1-0.2C137.3,5.5,137.1,5.5,137.1,5.6z M138.6,5c0.2,0,0.5,0,0.6,0
	c0.1,0,0-0.1,0-0.1C138.3,4.9,138.6,5,138.6,5z M138.8,5.2c0.3,0,0.6,0,0.9,0C139.7,5.2,139.7,5.1,138.8,5.2c-0.5-0.1-0.8-0.1-1-0.1
	c0,0,0,0,0.1,0C138,5.2,138.3,5.2,138.8,5.2z M105.5,9.4c-0.6,0-0.7,0-0.8,0c0.3,0.1,1.2,0.1,1.2,0.2c0.2-0.1,0.3-0.1,0.7-0.1
	c0.6,0,1.3,0,1.9-0.1c0.1,0.1,0.1,0.1,0,0.1c-0.3,0-0.4,0-0.7,0c-0.1,0-0.1,0,0,0.1c0.5,0,0.8,0.1,1.6,0.1c0,0.1,0,0.1,1.4,0.3
	c-1.6,0-2.4-0.1-3.6-0.2c-1.1,0.2-1.1,0.2-0.2,0.3c-0.2,0-0.2,0-1.6,0c-0.2-0.1-0.2-0.1,0.3-0.1c0.5,0,0.5,0,0.4-0.1
	c-0.3-0.1-1.4-0.1-1.7-0.2c0,0-0.1,0-0.1,0c0,0,0,0,0.1-0.1c-0.8,0.1-0.8,0.1,0,0.3c0.7,0.1,0.6,0.2-0.4,0.3c0.1,0,0.3,0.1,0.6,0.1
	c0.6,0.1,1.4,0.1,1.9,0.1c0.1,0,0.2,0,0.2,0c2.7,0,6.3,0,8.9,0.1c-2.1-0.2-1-0.3-0.7-0.3h0c0,0-0.1,0-0.3,0c-0.3,0-1.1,0-0.8,0.1
	c-0.5-0.1-0.7-0.1-1.2-0.2c-0.5-0.2-0.6-0.2-1.2-0.3c0.3,0,0.8,0,1.1,0c0-0.3-1-0.3-1.8-0.3c-0.5,0-0.7,0-1,0.1
	c-0.3,0-0.4,0.1-1.3,0.1C107.4,9.5,106.6,9.4,105.5,9.4z M128,10.6c0,0,0.1,0,0.1,0l0,0C128,10.6,127.9,10.6,128,10.6
	C127.9,10.6,127.9,10.6,128,10.6z M113.3,6.4c0.3,0,0.8,0.1,1,0.1c0.1-0.1,0-0.1-0.3-0.1c-0.2-0.1-0.3-0.1-0.2-0.2
	C113,6.2,112.9,6.3,113.3,6.4z M103,9.1c-0.2,0-0.4,0-0.6,0c0,0,0.1,0,0.1,0c0.8,0.1,1.7,0.1,3.1,0.1C105.1,9.2,103.9,9.1,103,9.1z
	 M127,9.9c0.5,0.1,0.6,0.2,0.2,0.2c0.4,0,0.8,0,1.2,0c0.1,0,0.1,0,0.3-0.1c1,0,0.6,0.2,1.7,0.2c-0.1,0-0.2,0.1-0.9,0.1
	c-1.4,0-1,0.1-0.8,0.1c0.3,0,0.6,0,0.9,0c0.2,0,0.6,0.1-0.3,0.1c0.8,0,1.8,0,2.6,0c0,0-0.1-0.1-0.1-0.1c1-0.1,1-0.1,1.2-0.5
	c-0.8,0-0.8,0-1,0c0,0-0.2-0.1-0.2-0.1c0,0,0,0,0.2,0c0.6-0.1,1.2,0,1.8,0c-0.2-0.2-0.2-0.3,0.1-0.6c-0.8,0-1.6,0-2.3,0
	c-0.5,0.1-0.2,0.2-1.4,0.3c-1.2-0.1-0.3-0.4-1.8-0.3c0.2-0.1,0.9-0.2,1.1-0.3c0,0-0.3-0.1-0.5-0.1c-0.2,0-0.6,0-0.8-0.1
	c-0.6,0.1,0.2,0.2,0.1,0.2c-0.1,0.1-0.9,0.1-1.1,0.2c0,0,0,0,0,0c-0.1,0.1,0.2,0.2,0,0.3C126.5,9.8,126.5,9.8,127,9.9z M129.8,8.5
	L129.8,8.5c-1,0-1.5,0.1-1.5,0.2c0,0,0.1,0,0.1,0C129.4,8.7,129.7,8.6,129.8,8.5z M128.4,10.6l-0.3,0l0,0
	C128.2,10.6,128.3,10.6,128.4,10.6z M107.2,9.3c0.3,0,0.5,0,0.8,0c0.2-0.1-0.6-0.2-1.2-0.2c-0.4,0-0.9,0-0.8,0.1c0,0,0,0,0.1,0
	C106.6,9.3,106.8,9.3,107.2,9.3z M337.1,12.5c-0.2,0-0.5,0-0.7,0h0c0,0,0,0,0,0c0.4,0,0.7,0,1.1,0C337.3,12.5,337.2,12.5,337.1,12.5
	z M429.6,16.5c0.2,0,0.3,0,0.3,0c0,0-0.2-0.1-0.3-0.1c0.5,0,0.6,0,1,0.1c0.3,0,0.7,0.1,1.6,0.1c0.1-0.1,0.5-0.1,0.5-0.2
	c0-0.1-0.1-0.1-0.5-0.1c-1.3,0-2.4,0.1-3.7,0.1c-1.2,0-2.2-0.1-3.4-0.1c0,0,0,0.1,0,0.1c-0.1,0-0.2,0-0.7-0.1
	c-0.8-0.1-0.8-0.1-0.8,0.1c0,0,0,0,0.1,0C424.7,16.3,427.9,16.4,429.6,16.5z M166.2,12.6L166.2,12.6L166.2,12.6L166.2,12.6z
	 M1024,14.9V20v2980H0V20v-0.3c0.4,0.1,0.9,0.2,1.3,0.3H2c-0.7-0.3-1.3-0.6-2-0.9v-0.9c36.4,0.2,66.4,0.3,92.4,0.5
	C58.8,18.5,42.3,18.4,0,18.2v-4.1c18.2,0.1,40.1,0.2,57.1,0.3c0.1,0.1,0.6,0.2,1,0.3c0.3,0,0.8,0,1.1-0.1c0,0-0.1-0.1-0.1-0.1
	c0.7,0,1.6,0,2.3-0.1l0.8,0c0.4,0,1,0,1.5,0c0.1-0.1-0.6-0.3-1.6-0.3c-0.1,0-0.4,0.1-0.7,0.1c-0.2,0-0.5,0-0.7-0.1
	c0.3,0,0.8-0.1,1.3-0.1c0,0,0-0.1,0-0.1c-1,0.1-1,0.1-1.8,0.1c-0.6-0.2-0.6-0.2,3.5-0.3c-0.4,0-0.9,0-1.1-0.1c0.4,0,1,0,1.4,0
	c-1.2-0.5-1.2-0.5-0.9-0.5C62,12.9,62,12.9,62,12.9c2-0.1,2.4-0.1,1-0.6c1.9-0.3,0.6-1.1,0.5-1.1c0.3,0,0.8-0.1,1.1-0.1
	c-0.8-0.3,0.6-0.5,0-0.8c0.8,0,1.9,0,2.7,0c3.7,0.9,3.7,0.9,4.7,0.9c0.2-0.1,0.4-0.1,0.7-0.2c0.7,0,0.7,0,2.1,0.1
	c0.3,0.2,0.2,0.2-0.6,0.3c4.3,0.3,1.2,0.8,3.6,1.1l-0.7,0.1l-0.2,0.2c0.1,0.2,1.2,0.3,1.2,0.4c0,0.2-1.3,0.5-1.3,0.7
	c0.9,0,1.5,0.1,2.3,0.1c0.8-0.4-0.8-0.8,1-1.1c-1.6-0.2,0.6-0.6-1.5-0.8c0.2,0,0.4,0,0.6,0c0.3,0,0.7,0.1,1,0.1c0.1,0,0.3,0,0.4-0.1
	c0.1-0.1-1.2-0.2-1.1-0.4c0-0.1,1.4-0.3,1.4-0.4c0.2,0,0.4,0,0.6,0c2,0.2,2,0.2,2.6,0.2c-0.1-0.2,0.4-0.4,0.2-0.7
	c0.5,0,1.1-0.1,1.4-0.1c-0.3-0.1-0.6-0.1-0.9-0.2c1.8,0.1,2,0.1,2.5,0.3c0.6-0.1,0.6-0.1,1.1-0.2c0.6,0,1.3,0,1.9,0
	c0.2,0.3,0.2,0.3,1.1,0.4c0.2,0,0.5,0,0.7,0c-0.9-0.3-0.9-0.3-0.4-0.4c2.9,0,6.7,0,9.6,0c0.5,0.2,0.1,0.3,1.2,0.5
	c-1.4,0.5,0.5,1-0.5,1.4c0.4,0,0.4,0,2,0.1c2.4-0.5,1.5-1,2.8-1.4c-0.3-0.1-0.9-0.1-1.3-0.2c0.3,0,0.8,0,1.1-0.1
	c-0.5-0.1-0.5-0.1,0-0.3c2.7,0,6.2,0,8.9,0c0.2,0,0.4,0,0.6,0c0.1,0,0.3,0,0.4,0l0.4,0c0.2-0.1-0.8-0.1-0.9-0.2
	c-0.1-0.1,0.7-0.1,0.7-0.1c0-0.1-0.7-0.1-0.5-0.2c0.6-0.2,0.6-0.2,0.6-0.3c-0.2-0.2-2-0.5-1.6-0.7c0.1-0.1,0.6-0.1,0.7-0.2
	c0,0-0.4-0.1-0.5-0.1c0-0.1,0.2-0.1,0.7-0.2c-0.1-0.1-0.8-0.1-0.9-0.1c-0.1-0.1,0.8-0.2,0.8-0.3c-0.2-0.3-1.7-0.6-1.3-0.9
	c0.2,0,0.5,0,0.7,0.1c1.1,0.2,1.6,0.6,1.6,0.6c-0.2,0-0.8,0-0.7,0.1c0.1,0.1,0.9,0.1,1.1,0.1c0.8,0.2,0.2,0.4,0.9,0.5
	c0.2,0.1,0.7,0.1,0.8,0.1c0.3,0.1-0.1,0.2,0.2,0.3c0.2,0.1,1,0.2,1.3,0.2c0.2,0.1,0,0.2,0.1,0.2c0.5,0.2,2.5,0.4,2,0.7
	c1.3,0,1.7,0.1,2.2,0.3c0.5,0.2,0.8,0.3,2.5,0.4c0.7-0.1,0.6-0.2-0.2-0.3c0.4,0,1,0,1.4,0h0.1c1,0,2.3,0,3.3,0
	c0.7,0.5-0.8,1.1-0.9,1.6c0,0.1,0.7,0.2,1.2,0.2c0.9-0.1,1.7-0.1,2.5-0.2c-0.8-0.2,1.1-0.4,0.9-0.5c0.3,0,0.8-0.1,1.1-0.1
	c0-0.3,0.4-0.4,2-0.5c-0.2,0-0.3-0.1-0.3-0.1c0.7,0,0.7,0,2.2,0.1c-0.2,0-0.5,0-0.7,0c0.5,0.2,1.5,0.5,1.5,0.5
	c1.5-0.4,1.5-0.4,1.7-0.7c0.4,0,0.8-0.1,1-0.1c3.8,0,8.9,0,12.7,0c0,0,0.3,0.9-1.7,1.2l0.4,0.1c-0.4,0-0.8,0-1.1,0.1
	c-0.1,0.3,0.9,0.4,3.2,0.3c0.2,0,0.3,0,0.5,0c-0.2,0-0.5-0.1-0.8-0.1c0.2,0,0.2,0,2.4,0c0.8-0.3,1.5-0.6,2.4-0.9
	c1.4,0,1.6,0,3.5,0.1c0.6,0.4-2.2,0.7,0.6,1.1c-0.4,0-0.8,0.1-1,0.1c0.2,0,0.5,0,0.7,0.1c0.8-0.1,0.8-0.1,0.2-0.3c0.4,0,1,0,1.4,0
	c0.6-0.1,0.6-0.1,0-0.3c0.6,0,0.6,0,2.7-0.1c0.1-0.1,0.5-0.2,0.6-0.3c0.7,0,1.3,0.1,2,0.1c0.2,0,0.4,0,0.5,0c-0.1,0-0.4-0.1-0.7-0.1
	c-0.2,0-0.5,0-0.7,0c-0.3,0-0.6,0-0.9,0c-0.3-0.1,0.5-0.3,0.6-0.4c1.1,0,1.8,0.1,2.8,0.2c0.5-0.1,0.6-0.1,0.1-0.2c0.2,0,0.4,0,0.5,0
	c0.3,0.4,0.7,1,1,1.4c-0.2-0.4-0.6-1-0.8-1.4c0.3,0,0.4,0,0.6,0c-0.9-0.1-0.1-0.2,0.6-0.3c0.1,0,0.2,0,0.3,0
	c1.1,0.1,1.2,0.1,1.4,0.2c-0.9,0-1,0-0.9,0.1c0.1,0,0,0.1-0.2,0.1c0-0.1-0.9-0.1-1.1-0.1c0,0-0.6,0.1,0.8,0.2c0.6,0,1.1,0.1,1,0.3
	c0,0-0.1,0.1-0.1,0.1c-0.2,0.1-0.2,0.1-1.1,0.4c-0.4,0.1,0.8,0.2-0.3,0.3c-0.1,0-0.2,0-0.3,0c0,0,0,0,0,0l0,0l0,0
	c0.2,0,0.2,0.1,0,0.1c0,0,0,0,0,0c-1.6,0.2,1.1,0.5-1.5,0.6c0.1,0,0.2,0,0.2,0.1c0.5,0,1.1,0,1.5,0c0.4,0.5,0.9,1.1,1.2,1.6
	l-1.1-1.6c0.2,0,0.5,0,0.7,0c-0.1,0-0.1-0.1-0.2-0.1c1.2-0.1,2.8-0.1,3.6-0.3c0.3-0.1,0-0.2,0.1-0.2c0.3-0.1,0.9-0.2,1.3-0.4
	c0.2-0.1,0.4-0.1,0.5-0.2c0.1-0.1-0.9-0.3-0.2-0.4c1.8-0.4,1.8-0.4,0.9-0.5c1,0,1.2,0,1.4-0.2c-0.8,0-0.8,0-1.2,0c0,0,0,0,0,0
	c0.7,0,0.8,0,1.3-0.1c1.2-0.2,0.9-0.5,2.1-0.8c-0.8-0.3,1-0.5,1.2-0.7c0.1-0.1-1.1-0.1-0.9-0.2c0.1,0,0.5-0.1,0.7-0.1
	c1.5-0.3,2.5-0.6,4.3-0.9c-0.1,0-0.2-0.1-0.1-0.1c0,0,0.1,0,0.1-0.1c0.2-0.1,1.3-0.1,1.5-0.2c0.3-0.1-0.3-0.3,0-0.4c0,0,0.1,0,0.2,0
	c0.7,0.1,1.6,0.1,2.4,0.1c-0.5,0-0.6,0.1-0.6,0.1c0,0.2,0.8,0.3,0.8,0.4c0.1,0.3-0.6,0.7-0.4,1c1,0,1.8,0.1,2.7,0.1
	c-0.1-0.1-0.1-0.1,0.5-0.1c0.3,0,0.6,0,0.6-0.1c0,0,0,0,0,0c0,0-0.6-0.1-0.6-0.1c-0.1-0.1,0.5-0.3,0.1-0.4c0.7,0,0.9,0,1.4-0.2
	c0.6-0.1,0.6-0.3,1.1-0.4c1.3,0,2.3,0.1,3.6,0.1c0.3,0.1,0.7,0.3,1.9,0.2c0.1,0,0.2,0,0.2,0c0.1,0,0.2,0,0.2,0c0-0.1-1.6-0.1-1-0.2
	c1.8-0.2,2.9-0.2,3.9-0.2c0.6,0.1-0.9,0.2-0.9,0.3c0.1,0,0.3,0,0.4,0c0.7,0.2,0.7,0.2,0.8,0.2c-0.1-0.1-0.1-0.1,0.6-0.1
	c0.3,0,0.8,0,1.6-0.5c0,0,0.1-0.1,0.1-0.1c0-0.1-0.6-0.1-0.6-0.2c0-0.1,1.3-0.2,0.7-0.3c0.1,0,0.3,0,0.5,0c-0.1,0-0.3,0-0.4,0
	c-0.1,0-0.2,0-0.3,0c0,0,0,0-0.1,0c2.9-0.1,1.9-0.6,1.9-0.7c0,0-0.1,0-0.1,0c0.2-0.1,0.9-0.1,1.1-0.2c0.2-0.1-0.2-0.2,0.1-0.3
	c0.4-0.1,0.7-0.1,2.1-0.3c0.1,0,0.2,0,0.3,0.1c1.2,0.3,0.9,0.4,0.6,0.6c0.6,0,0.3,0.1,1.2,0.1c-0.5,0.5-0.5,0.5-0.6,0.9h0
	c0,0.6-0.1,0.8-0.9,1.2c0.2,0,0.6,0.1,0.8,0.1c-0.5,0.2-0.5,0.2,0.1,0.3c-0.6,0-0.8,0-0.7,0.2c0.1,0.2,0.1,0.3-0.6,0.5
	c0.4,0,0.4,0,0.9,0.2c-0.3,0.1-0.8,0.1-0.8,0.2c-0.2,0.2,0.8,0.5,0.3,0.7c-0.1,0.1-0.6,0.1-0.6,0.2c0,0.1,0.6,0.6,0.6,0.6
	c0.1,0,0.4,0,0.6,0c0.1,0,0.1,0,0.2,0c1,0,2.4,0,3.5,0c0.2,0.3-1.4,0.6-0.8,0.8c-0.3,0-0.8,0-1.1,0c0.6,0.1,1.2,0.2,1.9,0.1
	c0.5,0.1,0.5,0.1,2.1,0.2c-0.1,0-0.2,0-0.3,0c-0.4,0.1-0.2,0.2-0.7,0.2c0.4,0,0.8,0,1.2,0c0.1,0.1,0.1,0.1-1,0.1
	c1,0.2,1,0.2,0.8,0.3c1,0.1,1.6,0.1,2.4,0.3c-0.8,0.1-1.6,1.2-0.5,1.3c-2.8,0.1-0.6,0.6-0.4,0.7c0.5-0.1,1.6-0.1,1.8-0.2
	c0.2-0.1-0.9-0.2-0.8-0.3c0.2,0,0.4,0,0.6,0c0.2,0,0.1,0.1,0.5,0.1c0.3,0,0.9,0,1.2-0.1c-0.6,0-2.4-0.1,0.1-0.4
	c-0.8,0-1.2-0.1-1.2-0.2c0.2,0,0.5,0,0.6-0.1c0,0,1.1-0.7,1.2-0.9c1.6,0.2,1.4,0.4,2.2,0.6c-1.1,0.1-1.3,0.1-1.4,0.2
	c-0.1,0.1,0.8,0.1,0.8,0.2c-0.8,0-0.7,0-0.6,0.2c-1.5,0.1-1.1,0.2-0.5,0.3c0.1,0,0.3,0,0.3,0.1c0.2,0.1-0.4,0.2-0.2,0.3
	c0.1,0.1,0.9,0.1,0.9,0.2c-1.4,0.3-0.3,0.4,0.7,0.6c-0.1,0-0.2,0.1-0.3,0.1c0.5,0,1.2,0,1.7,0c0.3,0,0.6,0,0.9,0
	c-1,0.1-2.1,0.1-3.2,0.1c-0.1,0-0.3,0.1-0.4,0.1c0.3,0,0.6,0,0.9,0c0.1,0,0.1,0.1,0.2,0.1c-0.3,0-0.7,0-1,0c-2,0.7-2,0.7,0.2,0.9
	c1.6-0.4,1.6-0.4,1.4-0.5c0.2,0,0.5,0,0.8,0c0.2,0,0.6,0,0.8,0c0.8-0.1,3.5-0.3,1.6-0.6c0.5,0,1.1,0,1.6,0.1c0.3,0,0.8-0.1,1.2-0.1
	c-0.1,0-0.2-0.1-0.3-0.1c0.4,0,0.7-0.1,0.9-0.2c0.5,0,1.1-0.1,1.6-0.1c0.2-0.1,0.2-0.1,0.1-0.2c17.5,0.2,38.5,0.4,58.8,0.5
	c-20.3-0.2-41.3-0.4-58.8-0.6c-0.3-0.1-0.9-0.4,1.2-1c-0.4,0-0.8-0.1-1.2-0.1c6.4-0.4-0.2-1.1,2.3-1.7l-0.4-0.1l0.7-0.2
	c-0.2,0-0.5,0-0.7-0.1c1.9-0.8,1.9-0.8,1.9-1c0.8,0,1.8,0,2.6,0c0.3,0.6,0.3,0.8-0.3,1.2c0.2,0,0.4,0,0.6,0.1c0,0-0.1,0.1-0.1,0.1
	c0.8,0.2,1.3,0.4,2.2,0.6c1.5-0.1,1.5-0.1,2.5-0.4c0.3,0,0.8,0,1.1,0c0.6-0.3,1-1.2,1.1-1.4c18.3,0.2,42.7,0.4,61.1,0.6
	c1,0.2,1.9,0.4,3,0.6c0.4,0,0.9,0,1.3,0c-0.1,0-0.3,0.1-0.4,0.1c1.5,0.1,1.7,0.3,3.5,0.3c-3.6-0.7-3.6-0.7-3.6-0.7
	c-1.2,0-1.3,0-1.9-0.2c5.7,0.1,12,0.1,18.4,0.2c0,0,0,0,0,0c0.2,0.1,0.8,0.1,1.1,0.2c0.1,0,0,0,0,0.1c0,0,0.3,0.1,0.4,0.1
	c0.5,0.1,0.5,0.1,0.4,0.2c0.1,0,0.3,0,0.4,0c0.6,0.1,1.1,0.1,1.4,0.2c1.3,0.2,2,0.3,3.6,0.3c0.5-0.1-0.4-0.2-0.5-0.3
	c-0.8,0-1-0.1-1.9-0.1c0.1-0.1,0.1-0.1-0.4-0.2c0,0-2.4-0.4-3.5-0.5c21.9,0.2,46.3,0.5,65.8,0.7v0l-85.6-1c-0.3,0-0.9-0.1-1.4-0.1
	c-0.1,0-0.3,0-0.4,0.1c-18.3-0.2-42.7-0.4-61-0.6c0-0.3-0.4-0.4-1.4-0.5c1.2-0.2,1.5-0.2,0.5-0.4c1.4-0.6,1.6-1.1,1.6-1.1
	c-0.4,0-0.8-0.1-1-0.1c0.3,0,0.6-0.1,0.8-0.1c-0.7-0.2-3.9-0.7-3.9-0.7c-0.2,0-0.5,0-0.7,0.1c-0.1,0.2,0.5,0.5,0.1,0.7
	c-0.5,0-1.1,0.1-1.3,0.1c0.2,0,0.6,0,0.8,0c0.2,0,0.4,0,0.5,0.1c0,0-0.1,0.1-0.2,0.1c0.3,0,0.7,0,0.9,0c0.2,0,0.4,0,0.6-0.1
	c0.2,0,0.5,0,0.8,0.1c0,0,0.1,0.1,0.1,0.1c-0.8,0-1.4-0.1-2.2-0.1c-0.9,0.2-1.1,0.4-2.3,0.6l0.5,0.2c-0.7,0.3,1.1,0.6-0.9,0.8
	c0.2,0,0.5,0,0.8,0c0,0-0.1,0.1-0.1,0.1c-0.3,0-0.6,0-0.8,0c0,0-0.1,0.1-0.1,0.1l0,0c-0.1,0,0,0,0,0l-2.6,0c0.2,0,0.4-0.1,0.5-0.2
	c-0.2,0-0.4,0-0.6-0.1c0.9-0.3,0.9-0.3-0.3-0.5c-0.3,0-0.7,0.1-1.1,0.1c-0.9-0.1-2.1-0.2-0.5-0.6c1.5,0.4,3.6,0.2,3.6,0.2
	c0.4-0.1-0.6-0.3-0.9-0.4c0.3,0,0.8-0.1,1.1-0.1c-1.1-0.2,0-0.5-1.3-0.7c0.7-0.1,0.9-0.3,1.9-0.4c-0.5-0.2-0.3-0.4-1.3-0.6
	c0.6-0.1,1.1-0.1-0.1-0.4c0.2,0,0.5,0,0.7,0c0-0.2,0-0.2-0.3-0.5c9.5,0.1,22.2,0.2,31.7,0.2l-31.8-0.3c-0.4-0.4-0.4-0.4,0.6-0.6
	c0.3-0.3-0.1-0.5,0.3-0.8c-0.4,0-0.8-0.1-1.2-0.1c-0.6,0-1.2,0.1-1.8,0.1c-0.6-0.2,0.2-0.3-0.5-0.5c1,0,1.3,0,2,0.1
	c-0.2,0-0.6,0-0.8,0c1.4,0.2,2.5,0,2.4,0c-0.2-0.1-1.1-0.1-1.3-0.1c-0.3-0.2,1.1-0.3,0-0.5c0.4,0,1.7-0.5,0-0.8l0-0.2
	c0,0,0.6-1,2-1.2c0.7,0.1,0.3,0.2,1.2,0.3c-0.4,0-0.8,0-1.2,0.1c0,0,0,0,0,0.1c1.2,0,1.7,0.3,3.2,0.2c-0.6,0.3-0.6,0.3,0.4,0.4
	c-1.8,0-1.1,0.2-0.9,0.2c0.7,0,0.7,0,1.3,0.1c0-0.1,0-0.2,0-0.3c0.9,0,0.9,0.1,1.6,0.1c-0.1-0.2-0.1-0.2,1.2-0.3
	c-0.6-0.1-1-0.2-2-0.3c0.2,0,0.4,0,0.5,0c0.1,0,0.2,0,0.3,0c-0.4-0.2-2-0.4-1.2-0.6c-0.8,0-0.8,0-1.7-0.2c-1.3,0-0.5-0.2,0.2-0.3
	c0.2,0,0.5,0,0.7,0c0.5,0.1-0.1,0.3,1.2,0.4c0.7,0,0.7,0,0-0.2c0.2,0,0.5-0.1,0.8-0.1c-0.3-0.6-0.3-0.6-3.5-0.8
	c-0.1-0.5-0.1-0.6-2.3-0.6c-0.1,0.1-0.1,0.1-0.1,0.2c0.4,0,0.9,0,1.2,0c0,0.1,0,0.1-1.6,0.3c-0.3-0.1-0.3-0.1-0.7-0.9
	c2.8,0,2.8,0,3.2,0c-0.3,0-0.3,0,0.5-0.4c0,0,0.1,0,0.1,0.1c0.4,0.1,1.6,0.1,2.2,0.2c-0.1,0-0.3,0-0.4,0c-0.1,0-0.2,0-0.3,0
	c0.6,0.4,3.4,0.7,2.9,1.1c0.9,0.1,0.6,0.2,1.9,0.3c0.8,0.4,0.8,0.4,1.6,0.4c-0.4,0.2,1.3,0.4-0.8,0.5c0.8,0.1,1.3,0.2,1.9,0.3
	c-1.2,0-1.5,0.1-2.4,0.1c2.5,0.2,0.2,0.5,1.6,0.7c1,0.5,1.2,0.6,3.1,0.7c0.4,0,0.5-0.1,0.8-0.1c0.7,0.2,2.1,0.4,2.3,0.7
	c1.5,0.1,2.5,0.3,3.9,0.4c-0.1-0.3,1.7-0.5,1.6-0.8c-0.2-0.3,0-0.6-0.4-0.8c-0.4-0.2-0.4-0.2-0.7-0.4c2.8-0.1-0.2-0.5-0.3-0.6
	c0,0-0.1,0-0.1,0c-0.1,0-0.3,0-0.4,0c-0.1,0-0.2,0-0.3,0c1-0.2,1-0.2,0.8-0.3c0.9,0,0.9,0,2,0c0.9,0.4,0.9,0.4,1.5,0.4
	c0.1,0.4,1.4,0.9,0.7,1.3c1.4,0.1,0.5,0.3,1.6,0.5c-0.1,0.4-0.4,0.6-1.2,0.7c0.8,0.1,0.8,0.2,0.4,0.4c1,0.1,1,0.1,1.2,0.2
	c-0.1,0-0.3,0-0.4,0c-0.2,0.1-0.3,0.2-0.3,0.2l3.9,1.4h0c-0.5,0.1-0.5,0.1-1.8,0.9c1.8,0,2.3,0.1,4.1,0.2c0.3,0,0.6,0,0.9,0
	c0.6-0.2,0.4-0.4,1.3-0.5c0.5,0,1.2,0,1.6,0c0-0.2,1.2-0.3,1.6-0.4c0.6,0,1.3,0,1.9,0v0c0.1,0.7,0.3,1,0.9,1.4c0.4,0,1,0,1.2,0.1
	c0.2-0.2,1.6-0.3,1.4-0.5c0.4,0,1.1,0,1.5,0c0.2,0,0.4-0.1,0.5-0.1c-0.3,0-0.7-0.1-1.1-0.1c0.2,0,0.5,0,0.6,0
	c-0.1,0-0.2-0.1-0.3-0.1c0.8-0.2,0.5-0.4,1.5-0.6c-0.1,0-0.2-0.1-0.3-0.1c3,0,6.8,0.1,9.9,0.1l-9.9-0.1c-0.5-0.4,2.4-0.7,0.2-1.1
	c-0.4-0.4,1.2-0.4,1.9-0.4c0.3,0.1,0.3,0.1-0.4,0.2c0.8,0,0.8,0,2.1,0.1c-0.3,0.5-0.3,0.5,0.7,0.7c3.9-0.2,1.7-0.7,4.3-1
	c-0.4,0-0.4,0-0.4-0.2c0.2,0,0.4,0,0.6,0c3.2,0.3-1.1,0.8,2.1,1.1c-0.1,0-0.3,0-0.4,0c-0.1,0-0.2,0-0.3,0c-0.7,0-0.7,0.2-0.3,0.3
	c0.5,0,1,0,1.5,0c-0.3-0.2-0.2-0.2,0.5-0.3c0.2,0,0.4,0,0.5,0.1c-0.4-0.2,0-0.5-0.4-0.7c1.5,0,1.5,0,2-0.1c-0.7-0.1,0.5-0.2,0.4-0.3
	c0.6,0,0.8,0,1.2-0.1c0,0-0.1,0-0.1,0c-0.1,0-0.2,0-0.3,0c-0.5,0-0.5,0-1.1-0.2c2.4,0,2.7,0,4.3,0c0.7,0.5,1.2,0.7,2.6,1
	c-0.2,0-0.5,0-0.7,0c-0.7,0.1-0.8,0.2-1.3,0.3c1.4,0.1,0.3,0.3,1.8,0.4c0.3,0,0.3-0.1,0.5-0.2c0.2,0,0.5,0,0.7,0c0.1,0,0.3,0,0.4,0
	c-0.1,0.1-0.5,0.1-0.6,0.2c1.5,0.2,3.1-0.1,3.2-0.4c0.3-0.8,0.3-0.8,0.7-0.9c-1-0.2-0.8-0.4,0.4-0.6c0.1,0,0.2,0.1,0.4,0.1
	c0-0.1,0-0.2,0-0.2c2.4,0.1,1.1,0.4,1.9,0.6c-1.3,0.3,0.8,0.6-0.1,1c1.1,0.1,2.2,0.4,3,0.2c1.5-0.3,0.4-0.6,0.7-0.9
	c0.5-0.6,0.5-0.7,0.2-0.9c-0.4-0.3-0.4-0.3,0.7-0.4l0,0c-0.8-0.1-0.8-0.1-1-0.2c2.7-0.1,2.1,0.5,2.1,0.5c-0.1,0.1-0.1,0.1,0,0.2
	c0.4,0.1,1.7,0.2,2.1,0.4c0.6,0.2,0,0.4,0.9,0.7c0.6,0.4,1.2,0.5,3.4,0.6c0.1,0,0.3-0.1,0.3-0.1c0,0,0.3-0.8,0.3-0.8
	c0-0.1-0.5-0.2-0.8-0.3c0.7-1,0.3-1.2,0.2-1.2c0.7,0,0.7,0,1.6-0.2c-1.3-0.2-1.3-0.2-1.6-0.2c0.4-0.1,0.5-0.2,1.3-0.3c0,0,0,0,0,0
	c0.1,0,0.2,0,0.3,0c-0.5,0.1-0.6,0.1-0.1,0.2c0.3,0,0.3,0,1.3-0.2c0.8,0,1.5,0.1,2.3,0.1c0,0.2-0.1,0.2-0.5,0.2c0.9,0,1.1,0,1.2,0.1
	c1.1,0.7,1.2,1.4,2.3,2c1,0,0.7,0.1,1.4,0.2c0.2,0,0.2,0,0.6-0.5c1.4,0.1,1.8,0.1,2.3,0c2,0.5,2,0.5,2.7,0.5
	c0.5,0.1,0.8,0.2,2.1,0.2c0.6-0.4,0.6-0.4,2.1-0.3c-0.5,0.2,0.1,0.3,0,0.5c0.7,0,1.6,0.1,2.3,0.1c-0.1-0.2,0.5-0.3,0.1-0.5
	c-0.1,0-0.3,0-0.4,0c-0.1,0-0.3,0-0.4,0c-0.5-0.1-0.8-0.3,1.8-0.3c1.6,0.4,1.6,0.4,3.1,0.4c-1-0.2-0.7-0.3,0.9-0.3
	c0,0-0.1,0-0.1,0.1c1.3,0.2,1.3,0.2,1.2,0.4l0.7,0c0.9,0.5,0.9,0.5,2.5,0.5c0.6,0,3.3,0.1,3.2,0.3c1.7,0.1,1.7,0.1,5.7,0.9
	c-3.2,0-7.5-0.1-10.7-0.1c-2-0.1-3.1-0.2-4.7-0.3c-0.6,0-0.6,0-0.8,0.1c0.2,0,0.4,0,0.5,0.1c-0.5,0-1.2,0-1.7,0
	c-2.6-0.2-2.6-0.2-3-0.4c-0.1,0-7.4-0.7-15-0.6c-0.4-0.1-1.3-0.2-6.2,0c4.2,0.2,8.8,0.2,13,0.4c0.3,0,0.3,0,7.7,0.6
	c-0.1,0-0.2,0-0.4,0c0.1,0,0.3,0,0.4,0c3.4,0.3,5.4,0.7,9.9,0.9c-1.1-0.3-2.4-0.5-6.5-0.8c0.5,0,1.3,0,1.8,0c0.2,0,0.5,0,0.8,0
	c1.5,0.3,1.8,0.3,5.9,0.6c-0.7-0.1-0.9-0.3-1.8-0.4c0.1-0.1,0.3-0.1,0.3-0.2c3.1,0,7.3,0.1,10.5,0.1c0.3,0,0.7,0.1,1,0.1
	c0.2,0,0.4,0,0.5-0.1c0.8,0,1.7,0,2.5,0c1,0.4,1,0.4,1.1,0.4c1.9-0.1,2.2-0.1,2-0.4h0c-0.3-0.2-0.8-0.3-0.8-0.5
	c0-0.1,0.5-0.2,0.9-0.2c-0.2-0.1,0-0.2-0.3-0.3c0.3,0,0.7,0,1,0c0.8,0,1,0.1,0.9,0.2c0.8,0,1,0,1.1,0.1c0.1,0.1,0.1,0.1,0.4,0.1
	c0.4,0,0.4,0,2.3-0.1c0.7,0.2-0.2,0.5,1.8,0.7c0.1,0,0.2,0,0.3,0c0-0.1,0-0.1,0.1-0.1c0.3,0,0.3,0.1,1.2,0.1c0.3,0,1.1,0,1.1,0.1
	c0,0-0.2,0.1-0.2,0.1l-1.1,0c0.4,0,0.7,0,1.1,0c0.8,0.3,0.8,0.3,0.5,0.4c2.1,0.2,1.1,0.5,3.3,0.6c-0.1,0-0.2,0.1-0.2,0.1
	c-0.6,0-0.7,0-0.7,0c-0.8,0.2,0,0.5-0.1,0.7c0.3,0,0.7,0.1,1,0.1c-0.1-0.1-0.2-0.1-0.3-0.2c0.3,0,0.7,0,0.9,0
	c0.6,0.1,0.6,0.1,2.3,1.1c0.5,0,1.1,0.1,1.5,0.1c-0.2,0-0.5,0.1-0.9,0.1c0,0.1,0.1,0.1,0,0.2c-0.2,0-0.5,0-0.7,0
	c-0.2,0-0.4,0-0.6,0.1c0.4,0.1,0.8,0.2,1.5,0.2c0.2,0,0.3-0.1,0.2-0.2c0.3,0,0.8-0.1,1.1-0.1c0,0-0.1-0.1-0.1-0.1
	c0.2,0,0.6-0.1,0.8-0.1l-0.4-0.2c0.3,0,0.7,0,1,0c0.1,0.1-0.1,0.2,0.1,0.4c-0.2,0-0.5,0-0.7,0c0.9,0.2,2.5,1,2.5,1l0-0.6
	c2.3-0.1-0.4-0.5,2.3-0.6c0,0,0.1,0,0.1,0.1c0.6,0.1,1.8,0.2,2.1,0.3c0,0-0.9,0-1.1,0.1c-0.1,0.1-0.2,0.1-0.4,0.2
	c-0.1,0-0.4,0-0.4,0.1c-0.1,0.1,1,0.2,1.1,0.3c-1,0-1,0-1.4,0.1c-0.1,0.1-0.2,0.2,0.5,0.6c2.2,0,2.2,0,1.9-0.6
	c0.2-0.2,0.2-0.2,0.7-0.4c2.6,0,2.6,0,3.8-0.2c0.7,0,1.7,0,2.4,0c-0.1-0.1-0.2-0.2-2-0.2c-0.1-0.1-0.2-0.2,0-0.3
	c5.3-0.3,5.5-0.2,7.2-0.1c0.2,0,0.6-0.1,0.8-0.1c-0.6,0-1.4-0.1-2-0.1c0.1-0.1,0.2-0.2,0.1-0.2c-5,0.1-5,0.1-7.5,0
	c0.1,0.2,0.2,0.3-0.6,0.7c-0.4,0-0.8,0-1.2,0c-2.8-0.3,1.9-0.8-2.7-1c-0.1,0-0.1-0.1-0.2-0.1c0.3,0,0.7,0,1.1,0
	c0.3-0.1,1-0.1,1.5-0.2l1.4-1.3c-0.6-0.2-0.6-0.2-0.4-0.4c0,0,0.1,0,0.1,0.1c1.6,0.1,1.6,0.1,2,0.3c0.2,0,0.6,0,0.8-0.1
	c-0.1,0-0.2-0.1-0.2-0.1c0.5,0,1.1-0.1,1.4-0.2c2.3,0.6,0.7,1.3,1.7,1.9c0.7,0,1.5,0.1,2,0.1c-0.3,0-0.8,0-1.1,0
	c0.2,0,0.4,0.1,0.5,0.1c1.9,0,1.9,0,3.7,0c0.1,0,0.3-0.1,0.4-0.1c-0.3,0-0.6,0-0.9-0.1c-0.3,0-0.7,0-1.1,0c-0.4-0.1-1.2-0.1-1.8-0.1
	c-0.1-0.3-0.9-1-0.9-1c0.2-0.1,0.6-0.3,0.9-0.4c-0.2,0-0.5-0.1-0.7-0.1c0.3,0,0.8-0.1,1.1-0.1c-0.2,0-0.5-0.1-0.8-0.1
	c0.1-0.1,0.1-0.2,0.2-0.2c0.6,0,1.2,0.1,1.5,0.1c1.3-0.1,1.3-0.1,1.6-0.3c0.9,0,1.9,0,2.9,0l-2.9,0c0.1-0.1-0.1-0.3,0.2-0.4
	c0.3-0.1,0.9-0.1,1.3-0.2c0,0,0.1,0,0.1,0c0.1,0.1,0,0.2,0.2,0.2c0.1,0,0.3,0.1,0.8,0.1c1.4,0.1,2.6,0.1,3.7,0
	c0.7,0.1,1,0.2,0.9,0.3c0,0,0,0,0,0c-0.2,0-0.4,0.1-0.5,0.1c-0.2,0-0.4-0.1-0.6-0.1c-0.6,0-1.5,0-2.1,0c-0.2,0.2-0.2,0.2,0.2,0.6
	c0.6,0,1.5,0,2.1,0c2.3,0.3,2.3,0.3,3.1,0.3c0.2,0.1,0.7,0.2,1.3,0.2c0.3,0,0.6-0.1,0.9-0.1c1.2,0.1,1.2,0.1,1.4,0.5c0,0,0,0,0,0
	c0,0-0.1,0.1-0.1,0.1c-0.7,0-1.8,0.1-2.7,0.1c-0.1,0-0.2,0.1-0.3,0.1c-2,0-2,0-3.7-0.3c-0.3,0-0.8,0-1.1,0c-1.1,0.1-1.4,0.2-0.7,0.4
	c-1.1,0-2.4,0.1-2.1,0.4c1.9,0.1,3.6,0.3,5.5,0.4c-0.2-0.1-0.5-0.1-0.7-0.2c1.7-0.2,3.9,0,5.7-0.1c0.5,0,1.2,0.1,1.9,0.1
	c-0.2,0-0.4,0.1-0.6,0.1c-0.9-0.1-2-0.1-2.8-0.1c-0.3,0-0.8,0-1.1,0c0.1,0.1,0.4,0.2,0.7,0.2c1.9,0,2.2,0,4.9,0
	c2.6,0.4,4.2,0.6-0.9,0.7c-0.2,0-0.5-0.1-0.6-0.1c-0.3,0-0.7,0-1,0c-2.4-0.2-2.4-0.2-5.4-0.2c-0.4,0-0.9,0.1-1.3,0.2
	c-2.2,0-2.2,0-3.1,0.1c0.2,0,0.6,0,0.8,0.1c2.1,0,2.1,0,4.7,0.2c0.2,0,0.4-0.1,0.6-0.1c3,0,3,0,4,0.1c0.2,0,0.4,0,0.7,0
	c2.7,0.1,5.4,0.1,8.1,0.1c1.9,0.3,1.9,0.3,3.8,0.4c0.1,0,0.3-0.1,0.4-0.1c0.3,0,0.7,0,1,0c1.8-0.2,4.4-0.1,6.5-0.2c-0.3,0-0.7,0-1,0
	c0.6,0,1.5,0,2,0c0.3-0.1,0.6-0.2,0.6-0.3c-2.5,0-4.2,0-5.2,0c-0.4-0.1-0.8-0.2-1.1-0.3c0.5,0,1.1-0.1,1.3-0.2c1,0,2.1,0,3.2,0.1
	c1.6-0.1,1.9-0.1,3.1,0c0.3,0,0.6-0.1,0.9-0.1c-0.7-0.1-1.8-0.1-2.4-0.2c0.6,0,1.3-0.1,1.7-0.1c-1.4-0.1-3,0-4.3-0.1
	c-1.9-0.1-1.7-0.5-4.5-0.5c-0.3-0.1-0.7-0.1-1.1-0.2c1.1-0.1,2.5-0.1,3.7-0.1c-0.1-0.1-0.5-0.2-1-0.2c1.3,0,1.3,0,4.5,0
	c0.2,0,0.5,0.1,0.7,0.1c-0.6,0-0.6,0-3.1,0.1c0.2,0,0.5,0.1,0.7,0.1c3.6,0.1,3.6,0.1,4.3,0.1c-0.8,0.1-0.8,0.3,3.5,0.5l1-0.1
	c0.2,0,0.5,0.1,0.8,0.1c-0.1-0.1,0.1-0.2,0.4-0.2c0.6,0,1.3,0.1,1.6,0.1c1.1,0,1.1,0,5.3-0.1c1.6,0.1,3.6,0.1,5.1,0.2
	c0.5-0.1,1.4-0.1,2.2-0.1c0.1-0.1-0.3-0.2-0.1-0.3c0.6,0,1.4,0.1,1.9,0.1c0.5,0,0.5,0,3.2-0.1c0.2,0,0.4-0.1,0.5-0.1
	c-2.4,0-3.8-0.1-3.6-0.4c1.1,0.2,3.3,0.1,4.7,0.2c1.7-0.4,6.8,0,8.2-0.4c-0.4-0.1-0.9-0.2-1.3-0.2c-3.8,0-3.8,0-4.6-0.2
	c1.4-0.1,2-0.1,27.4,0.3l0,0l1.5,0l0,0l2.9,0.1c-0.5,0-1.1,0.1-1.4,0.2c-0.2,0-0.5-0.1-0.8-0.1c-1,0-1,0-2.9,0.3c0.5,0,0.5,0,3.7,0
	c1.2,0.1,3.3,0.2,4.1,0.4c0.3-0.1,0.8-0.1,1.2-0.2c0.6,0,1.3,0.1,1.7,0.1c0.5-0.1,1.1-0.1,1.6-0.2c14.7,0.3,14.7,0.3,15.3,0.1
	c0,0.1,0.2,0.2,0.5,0.2c1.9,0,1.9,0,3.4,0c0.2,0.1,0.5,0.2,0.9,0.3c0.1-0.1,0.3-0.2,0.6-0.2c0.4,0,0.8,0.1,0.9,0.2c0.3,0,0.7,0,1,0
	c0.3-0.1,0.6-0.1,0.7-0.2c1.1,0.1,2.1,0.2,3.3,0.2c0,0.1,0.3,0.2,0.7,0.2c0-0.1,0-0.2,0.1-0.2c0.3,0,0.6,0,0.9,0.1
	c-0.1,0-0.3,0.1-0.4,0.1c0.5,0.1,1.1,0.1,1.6,0.2c1,0,2,0,3.1,0c3.1,0.3,7.8-0.2,10.7,0.2c-0.6,0-1.5,0-2,0c-0.2,0-0.4,0.1-0.6,0.1
	c-0.2,0-0.6-0.1-0.8-0.1c-1.4,0-2.9,0.1-4.2,0.1c0,0.1,0.3,0.2,0.6,0.2c-0.3,0-0.7,0-1.1,0c-0.4-0.1-1-0.1-1.5-0.2
	c0,0.1,0,0.2,0.1,0.2c0,0,0,0,0,0c0.7,0,1.9,0.1,2.8,0.1c0.8,0.1,0.8,0.1,2.9,0.1c0,0,0.1,0.1,0.1,0.1c-0.3,0-0.3,0-3,0
	c0.5,0.3,0.5,0.3,0.4,0.4c1.2,0,2.4,0,3.6,0c0.2,0,0.6-0.1,0.8-0.1c1.2,0,2.3,0.1,3.4,0.1c0.2,0,0.5-0.1,0.7-0.1
	c1.6,0,1.6,0,3.8,0.1c0.7,0,1.7-0.1,2.5-0.1c0.2-0.2-0.8-0.3-1.2-0.4c1.6-0.2,1.6-0.2,1.7-0.3c-1-0.1-1.5-0.2-2.3-0.2
	c-0.4,0-0.9,0.1-1.3,0.1c-3.2-0.1-3.2-0.1-4.3-0.2c0.2-0.1,0.6-0.2,0.9-0.2c3.7,0.1,4.9,0.1,6.2-0.1c0.6,0,1.3,0.1,1.7,0.1
	c1.2-0.1,1.2-0.1,3.4-0.1c0.2-0.1,0.2-0.2,0-0.2c2.6,0,6.1,0.1,8.8,0.1c-0.7,0-1.7,0-2.5,0c0.1,0,0.3,0.1,0.4,0.1
	c2.8,0.1,4.7,0.1,10,0c0,0,0,0-0.1,0l3.1,0.1l-3.1-0.1l-0.6-0.2c-0.6,0-0.8,0-1.1,0.1c-2.1,0-4.2,0-6.2,0l-9.1-0.2
	c-0.2-0.1-0.2-0.1,0-0.2c0.2,0,0.4,0,0.6,0c0,0-0.1,0-0.2,0c0,0,0,0,0,0c0.5,0,0.7,0,0.8,0c0-0.1,0-0.1,0.3-0.1
	c0.2,0.1,1,0.1,1.3,0.1c1.7-0.2,4.1-0.1,6-0.2c-0.6-0.1-0.3-0.2-1.2-0.3c0.7,0,0.6-0.1,1.3-0.1c0.5,0,1.2,0.1,1.6,0.2
	c0.2-0.1,1.9-0.1,2-0.2c-1.1,0-1.2,0-2-0.2c0.8,0,0.8-0.1,1.5-0.1c1,0.1,3.7,0,3.9,0.2c-0.3,0-0.3,0-1.7,0c-0.4,0-0.3,0.1-0.3,0.2
	c0.8,0,1.3,0.1,2.1,0.1c0.8,0.2,3.6,0.5,3.6,0.5c0.9,0.1,1.9,0,2.8,0c0.4-0.1,1.9-0.2,2.2-0.3c0.7,0,0.5,0.1,1.2,0.1
	c1.6-0.1,2.6-0.2,4-0.3c-1-0.1-1.1-0.1-1.3-0.2c0.5,0,0.5,0,1.6,0.2c1.2,0,2,0.1,3.1,0.1c0.8-0.1,1.1-0.1,1.3-0.3
	c1.5,0.2,3.4,0,5.1,0c0.2,0,0.4,0,0.5,0c-0.1,0-0.2,0-0.3,0c0.2,0,0.2,0,0.8,0.1c0.5,0,1.2-0.1,1.7-0.2c1,0.1,2.7,0.2,4,0.3
	c-0.2-0.1-0.5-0.2-0.7-0.2c1.3,0,3,0.1,4.2,0.2c0.7,0,1.5-0.1,2.2-0.1c0.6,0,1.4,0.1,1.9,0.1c0.3-0.1,0.7-0.1,1-0.2
	c0.7,0,1.5,0,2.2,0c0.2,0.1,0.4,0.2,0.6,0.2c0.7,0,1.7,0,2.4,0c-0.1-0.1-0.2-0.2-0.3-0.2c4.7,0.2,4.7,0.2,5.8,0.2
	c-0.1-0.1-0.3-0.2-0.4-0.2c0.7,0,1.5,0,2.2,0c0.3,0.1,0.7,0.1,1,0.2c0.7,0,1.7,0,2.4,0c-0.1-0.1-0.2-0.2-0.2-0.2
	c0.6,0,1.5,0.1,2.1,0.1c0.3-0.1,0.8-0.2,1.2-0.2c3.7,0,6-0.5,10.2-0.4c0.7-0.1,1.5-0.3,2-0.4c0.2,0.1,0.6,0.2,0.8,0.2
	c4.7-0.5,14.6-0.1,18.8,0c0.1,0,0.2-0.1,0.2-0.1c2,0.2,2,0.2,10.8,0.2c0.3,0.1,0.7,0.2,1,0.2c-0.5,0.1-1.1,0.1-1.5,0.2
	c-1.3,0-3-0.1-3.9-0.2c-0.9,0.1-2.7,0.2-4,0.3c1.9,0.2,1.9,0.2,15.7,0.4c0.1,0.1,0.3,0.2,0.4,0.2c1.1,0.1,3,0.1,4.3,0.1
	c-0.2,0-0.4-0.1-0.5-0.1c-0.5,0-1.1-0.1-1.6-0.2c0.7,0,1.7,0,2.5,0c0.3,0.1,0.8,0.2,1.2,0.2c0.4,0,1,0,1.4,0
	c-0.8-0.1-1.4-0.3-1.7-0.5c-1.2-0.1-2.6-0.2-3.1-0.4c2.9,0,3.2,0,15.5-0.4c-0.2-0.1-0.4-0.1-0.6-0.2c-1.4,0-3.2,0-4.5,0
	c6-0.3,6-0.3,8.7-0.3c0.4,0.1,1,0.1,1.4,0.2c0.7,0,1.6,0,2.3,0c0.2,0.1,0.4,0.2,0.6,0.2c-1.4,0-3.4,0-4.8-0.1c0.3,0.1,0.7,0.2,1,0.2
	c1.4,0,3.2,0,4.6,0c-0.1,0.1-0.2,0.2-0.3,0.2c0.4,0.1,1,0.1,1.4,0.2c0.7,0,1.5,0,2.2,0c-0.5,0.1-1.1,0.1-1.5,0.2
	c0.4,0.1,0.8,0.2,1.2,0.2c-0.6,0-1.3,0.1-1.9,0.1c0.2-0.1,0.5-0.2,0.8-0.3c-0.6,0-1.3-0.1-1.8-0.1c-0.2,0.1-0.4,0.3-0.5,0.5
	c-1.3,0-2.9-0.1-3.9-0.2c0,0.1,0,0.2,0,0.2c-3.8,0-7.8,0.1-11.6,0c-0.6,0-1.3,0.1-1.9,0.1c0.6,0,1.5,0.1,2.1,0.1
	c0.3,0,0.8-0.1,1.1-0.1c5.8,0.1,11.4,0.3,17.3,0.4c-0.4,0.1-0.9,0.1-1.3,0.2c0.1,0,0.4,0.1,0.5,0.1c1.1-0.1,2.7-0.2,3.9-0.3
	c1.3,0,3.1,0.1,4.4,0.1c0.2,0.1,0.6,0.1,0.8,0.2c0.7,0,1.6,0,2.2,0c-0.3-0.1-0.8-0.1-1.1-0.2c0.6,0,1.5-0.1,2.2-0.1
	c0.3,0.1,0.8,0.1,1.1,0.2c0.3-0.1,0.7-0.2,1-0.2c2.3,0,4.6,0,6.9,0c6.3,0.1,12.4,0,12.4,0c0.2,0,0.4,0,0.6,0.1c1.4,0,3.2,0,4.6,0
	c-3.7-0.4-8.7-0.2-13-0.3c0.8-0.1,1.5-0.3,1.7-0.4c0.4,0.1,0.9,0.1,1.3,0.2c0.5,0,1.1-0.1,1.5-0.2c1.6,0.1,1.6,0.1,10.5,0.4
	c-0.3,0.1-0.8,0.2-1.1,0.3c5.3,0.1,10.8,0,16.1,0.2c0.3,0,0.7-0.1,1-0.1c0.6,0,1.5,0.1,2.1,0.1c0.6,0,1.3-0.1,1.9-0.1
	c2.9,0.3,7.6,0.2,10.5,0.5c-0.1,0.1-0.3,0.2-0.4,0.2c6.4,0.1,12,0.4,18,0.6c-0.1-0.1-0.3-0.2-0.4-0.2c6.8-0.2,14-0.1,20.9-0.3
	c-0.4-0.1-0.9-0.1-1.3-0.2c-3.1,0-3.8-0.1-6.5-0.2c6.4-0.1,6.4-0.1,8.7-0.4c1.2,0,2.9-0.1,3.8-0.2c3.7,0.1,4,0.1,6.7,0
	c0.2-0.1,0.4-0.2,0.6-0.2c1.3,0,3.1,0,4.5,0c1.2-0.2,3.5-0.3,4.2-0.6c1.4,0,3.2-0.1,4.3-0.2c-0.4,0.1-0.8,0.1-1.2,0.2
	c0.2,0,0.4,0.1,0.6,0.1c0.7,0,1.6,0,2.3-0.1c2.3,0.3,4,0.5,5.4,0.7c0.2-0.1,0.2-0.1,0.6-0.1c0.1,0,0.2,0,0.3,0
	c0.1,0-0.1,0.1-0.6,0.1c3.7,0.4,5.5,0.4,11.9,0.4c-0.1-0.1-0.2-0.2-0.3-0.2c3.2-0.1,6.4,0,9.7,0l1.2,0c3.9-0.1,3.9-0.1,5.6-0.4
	l27.6,0.5c0.5,0,1.1,0.1,1.6,0.2c0.2-0.1,0.4-0.2,0.6-0.2c4.9-0.1,10,0.1,14.8-0.1c-0.2-0.1-0.5-0.2-0.7-0.2
	c1.1,0.1,2.9,0.1,4.1,0.1c-0.3-0.1-0.6-0.2-0.9-0.2c2.8-0.2,6.8-0.2,9.5-0.4c0.3-0.1,0.8-0.1,1.1-0.2c5.3,0,7.1,0.3,7.9,0.4
	c2.8,0,3.8,0,7.5,0.1c7.2-0.4,16.7,0,16.8,0c4.8,0,8,0.6,13.3,0.3c0.3,0.1,0.3,0.1,6.9,0.6c-2,0.1-2,0.1-9.4-0.1
	c-0.8,0.1-1.3,0.3-1.1,0.5c-1.3,0.1-3.1,0.2-4.4,0.3c0.2,0.1,0.4,0.2,0.6,0.2c3,0.1,6.2,0.1,9.1,0.3c1.2,0.1,2.6,0.2,3.2,0.3
	c-0.3,0.1-0.6,0.1-0.9,0.2c0.3,0.1,0.8,0.1,1.1,0.2c3,0,5.8,0.1,8.7,0.1c0.1,0.1,0.2,0.1,0.3,0.2c-0.6,0-1.5,0-2.2-0.1
	c-0.9,0.1-1.7,0.3-2,0.4c0.7,0,1.5,0,2.2,0.1c0.5,0,1.1-0.1,1.6-0.2C1023,14.8,1023.5,14.8,1024,14.9z M344.8,7.1c0,0,0,0,0.1,0
	c0.2,0,0.8,0.1,1,0.1c0.1,0,0.3,0,0.4,0c0.2-0.1-0.8-0.1-1.4-0.1h0C344.8,7.1,344.8,7.1,344.8,7.1z M337.4,5.9
	c0.4,0.1,1.1,0.1,1.3,0.1c0-0.1-0.6-0.1-0.8-0.2C336.9,5.8,337.3,5.8,337.4,5.9z M269.8,6.2c-1.1,0-1.3,0.1-1.1,0.2c0,0,0,0,0,0
	c0.1,0,0.1,0,0.2,0C269.7,6.4,269.7,6.3,269.8,6.2z M245.3,10.6c-0.3,0-0.7,0-1.1,0l0.8,0.1C246,10.8,245.7,10.7,245.3,10.6z
	 M250.9,8C250.9,8,250.9,8,250.9,8C250.9,8.1,250.9,8.1,250.9,8c0.2,0.1,0.3,0.1,0.4,0.1c0.8,0,0.7-0.1,0.4-0.1
	C251.6,8,251.2,7.9,250.9,8z M252.8,8.5c0.3-0.1,0.4-0.1,0-0.2c-0.6,0-0.8,0-1.1,0c-0.2,0-0.3,0-0.5,0l0,0c-0.5,0-0.9,0-1.6,0
	c0.6,0.2,0.6,0.2,0.4,0.3c0,0,0.1,0,0.2,0c0.3,0,2,0,2.2,0C252.5,8.5,252.6,8.5,252.8,8.5z M254.1,8.7L254.1,8.7c-0.2,0-0.6,0-1.2,0
	c0,0,0,0,0.1,0c0.3,0,0.5,0,0.8,0C254.3,8.7,254.3,8.7,254.1,8.7z M257.1,11.2L257.1,11.2c-1.3-0.1-1.9-0.1-1.5,0
	c0.1,0,0.6,0.1,1.1,0.1C256.9,11.2,257,11.2,257.1,11.2z M260.8,10.6c-0.6,0-0.7,0-0.8,0.1l0.4,0C260.5,10.7,260.7,10.7,260.8,10.6
	L260.8,10.6z M309.2,6.3c0.1,0,0.3,0,0.4,0c0.5,0.1,0.6,0.1,0.7,0.1c0.1,0,0.1,0,0.1-0.1v0C309.9,6.3,309.6,6.3,309.2,6.3z
	 M309.3,6.7c0.2,0,0.4,0.1,0.8,0.1c0.1,0,0.2,0,0.2,0c0.1-0.1,0-0.1-0.4-0.1c-0.3,0-0.4,0-0.4-0.1C308.9,6.6,309.1,6.7,309.3,6.7z
	 M310.2,11.4c0-0.1-1.2-0.1-1.2-0.2c-4,0-6.2-0.1-8.1-0.4c-0.7,0-0.7,0.1-1.5,0.2c-0.3,0-0.5,0-0.9-0.1c-0.4,0.1-0.7,0.2-1.1,0.3
	c0.1,0,0.2,0,0.3,0c1.5,0.1,3.5,0.2,4.5,0.1c0,0,0.9,0,1.3,0.1c1-0.3,2.6-0.3,3.6,0c0.1,0,0.2,0.1,0.2,0.1c0.1,0,0.2,0,0.3,0
	c0.1,0,0.2,0,0.3,0c0.2,0,0.4,0,0.6,0C309.5,11.5,309.9,11.4,310.2,11.4z M304.5,8.2c0.8,0,0.8-0.1,0.3-0.2L304.5,8.2
	C304.5,8.2,304.5,8.2,304.5,8.2z M310.6,8c-1.4,0-2.8,0-4.1,0c0.3-0.1,0.3-0.1,0.2-0.1c-0.1,0-0.3,0-0.5,0c0,0,0.1-0.1,0.2-0.1
	c-0.7-0.1-0.7-0.1-0.8-0.1c-0.2,0-0.4,0-0.5,0c-0.5,0.1-0.5,0.1-1,0.1c0,0.1,0,0.1,0.7,0.1c-0.1,0-0.1,0-0.2,0c0,0,0,0,0,0
	c0.1,0,0.3,0,0.5,0.1C306.9,8,308.7,8,310.6,8z M314.4,11.5c0.1,0.1,0.1,0.1,0.3,0.2c0.2,0,0.6,0,0.9,0.1
	C316.1,11.6,315.7,11.5,314.4,11.5z M341.6,11.7c0,0,0.1,0,0.3,0c0.4,0,0.6,0,0.1-0.1c0,0,0,0-0.1,0
	C341.6,11.7,341.4,11.7,341.6,11.7z M338.1,11c-0.2-0.1-0.6-0.2-1.4-0.2c-0.9-0.1-1.3-0.2-1.4-0.3c-0.3,0-0.8,0-1.2-0.1
	c-0.1,0-0.2,0-0.3,0l0,0c0,0,0,0-0.1,0c0.1,0.1,0.4,0.1,0.3,0.2c0.1,0,0.1,0,0.2,0c0.8,0,1.1,0.1,1.5,0.2
	C336.5,11,336.9,11,338.1,11L338.1,11z M340,11.8c-0.3,0-1.1,0-1.1-0.1c-0.6,0-0.3,0.1-0.1,0.1c0,0,0.4,0.1,0.9,0.1
	C340.2,11.9,340.3,11.9,340,11.8z M344.3,12.3c-0.7-0.1-0.5-0.3-0.5-0.3c0,0,0,0,0,0c-0.1-0.1-0.1-0.1-0.4-0.2c-0.6,0-0.8,0-1.4,0.1
	c-0.5,0-0.8,0.1-1.7,0c0.1,0,0.1,0.1,0.4,0.1c0.4,0.1,0.9,0.1,1.1,0.2C342.8,12.3,343.5,12.3,344.3,12.3z M357.6,10.1
	c-0.1,0-0.2,0-0.4,0c-0.4,0-0.6,0.1-0.3,0.1c0.1,0,0.2,0,0.3,0C357.4,10.2,357.5,10.2,357.6,10.1L357.6,10.1z M375.5,9.8
	c-0.5,0-0.7,0-0.7,0.1l0.4,0C375.3,9.9,375.4,9.8,375.5,9.8z M375.7,8.9c-0.4,0-0.5,0-0.8,0.1h0c-0.3,0.1-0.7,0.1-1.1,0.1
	c0.8,0.1,0.6,0.3,1.3,0.4c0.4,0.1,1,0.1,1.3,0.1C375.8,9.4,377.5,9.2,375.7,8.9z M380.6,9.2c-0.4,0-1,0-1.5,0h0
	c0,0.1-0.4,0.2-0.3,0.4c0.1,0.1,0.5,0.2,0.9,0.3c0.3,0,0.4,0.1,0.8,0.1C381.1,9.7,381.2,9.5,380.6,9.2z M384.2,8.3l0.8,0l0-0.1
	L384.2,8.3L384.2,8.3z M385.4,8.8c0.1,0,0.2,0,0.3,0l0-0.1c-0.3,0-0.8,0-1.1,0c0.2,0,0.2,0.1,0.4,0.1C385.1,8.8,385.3,8.8,385.4,8.8
	z M386.4,12.9c-0.9,0-0.6,0.1-0.6,0.1c0,0,0.2,0,0.3,0C386.4,13,386.5,12.9,386.4,12.9z M386.6,12.6c-0.3,0-0.5,0-0.5-0.1
	c-0.7,0-0.3,0.1-0.3,0.1c0.1,0,0.4,0.1,0.9,0.1c0.2,0,0.3,0,0.5,0C387.3,12.7,387,12.7,386.6,12.6z M387.5,9.9c0.3,0,0.8,0,1,0
	c0.1-0.1,0-0.2-0.4-0.2c0,0-0.3,0-0.6,0c-0.3,0-0.6,0-0.8,0c0,0,0,0,0,0C387,9.8,387.1,9.8,387.5,9.9z M386.7,9.5
	C386.7,9.5,386.7,9.5,386.7,9.5c0.2,0,0.4,0,0.5,0c0.6,0,0.9,0,1.4,0c0.2-0.1,0-0.1-0.3-0.1c-0.3,0-0.3,0-0.4-0.1
	C386.7,9.2,386.7,9.3,386.7,9.5L386.7,9.5z M388.5,12.2c0,0,0.1,0,0.4,0c0.3,0,0.2-0.1,0.2-0.1C388.2,12.1,388.4,12.2,388.5,12.2z
	 M389.4,12.5c-0.2,0-0.6,0-0.7,0c-0.2,0,0,0.1-0.1,0.1c0,0,0,0,0.1,0h0C389.3,12.6,389.5,12.6,389.4,12.5z M389.7,8.9l-4-0.1
	C387,8.9,388.4,8.9,389.7,8.9z M398.7,13c-0.2,0-0.3,0-0.2-0.1h0c-0.7,0-1,0.1-1.2,0.2l1.5,0C398.9,13,398.9,13,398.7,13z
	 M262.4,15.7c0,0-1.1-0.1-1.3,0c-0.1,0-0.1,0,0,0c0.1,0,0.1,0,0.2,0C261.6,15.7,262,15.7,262.4,15.7z M1,17.7c0.1,0,0.3,0,0.5,0.1
	c0.6,0,0.8-0.2,0-0.2C0.9,17.5,0.3,17.6,1,17.7z M2.6,18c-0.5-0.1-0.7-0.1-0.3-0.2c-1.2,0-1.1,0.1-0.5,0.2c0.6,0.1,0.8,0.1,0.7,0.2
	c0,0,0.1,0,0.1,0h0C3.3,18.1,3,18.1,2.6,18z M72.2,11.4c-0.1,0-0.3,0-0.4,0c-0.1,0-0.5,0-0.3,0c0.1,0,0.6,0.1,1.1,0.1
	c0.1,0,0.2,0,0.4,0c0.1-0.1-0.1-0.1-0.5-0.1c-0.3,0-0.4,0-0.5-0.1c-0.6,0-0.5,0-0.2,0.1C72.2,11.4,72.3,11.4,72.2,11.4z M72.7,11.5
	c-0.3,0-0.8-0.1-1.6-0.1c-0.3,0.1-0.1,0.2,0.4,0.3c0.5,0.1,0.7,0.2,0.3,0.2c0,0,0.1,0,0.1,0c0.2,0,0.4,0,0.7,0
	C74.5,12,74,11.7,72.7,11.5z M996.7,12.8l0.5,0l0.2-0.1l-0.5,0L996.7,12.8z M996.3,13c1,0,1,0,2,0.1c0.1,0,0.1,0,0,0
	c-0.3,0-0.9-0.1-1.3-0.1c-0.4,0-0.4-0.1-0.3-0.1c0,0,0,0-0.1,0c0,0,0,0,0,0C996.4,12.9,996.2,13,996.3,13z M976.8,12.6
	C976.8,12.6,976.8,12.6,976.8,12.6c0.4,0.1,0.9,0,1.5,0c0.3,0,0.4,0,0.8,0.1c0.6,0.1,1.3,0,1.9,0c0.1,0,0.5,0,0.7,0.1c0,0,0,0,0.1,0
	c0.1,0,0.3,0,0.8,0c0.2,0,0.4,0,0.6,0c0.1,0,0.2,0,0.3,0c0,0,0,0,0,0c0,0,0,0,0,0c0,0,0,0,0,0c0,0,0,0,0,0c0,0,0,0,0,0
	c0.5,0,0.5,0,1.4,0c0.8,0,0.9,0.1,1.5,0.1c0.3,0,0.7,0,1,0c0.4,0,0.7,0,1,0.1c0.2,0,0.3,0,1.3,0c0.9,0,1.1,0,1.8,0
	c0.1,0,0.4,0,0.8,0.1c1.1-0.1,1.4-0.2,1.8-0.3c-0.1,0-0.3,0-0.4,0c-0.5,0-0.8-0.1-1.4-0.1c-0.6,0.1-1.4,0.1-1.9,0.2
	c-0.7,0-1.3-0.1-2.1-0.1c0,0-3.1,0-3.3,0c-0.3,0-0.3,0-1,0c-1.3-0.1-2.4-0.2-3.9-0.2h0C978,12.4,977.1,12.6,976.8,12.6z M971.2,12.4
	c0.1,0.1,0.6,0.1,0.8,0.1c0.7,0,1.2,0,1.5-0.1c-0.4,0-0.6,0-0.9,0C972.1,12.4,971.7,12.4,971.2,12.4
	C971.2,12.3,971.2,12.4,971.2,12.4z M968.7,12.4C968.7,12.4,968.8,12.4,968.7,12.4c0.1,0,0.5,0,0.9,0c0.2,0,0.5,0,1,0
	c0.2-0.1,0-0.1-0.4-0.1c-0.4,0-0.5,0-0.4-0.1C969.4,12.3,969.1,12.4,968.7,12.4z M966.8,12.1C966.8,12.1,966.8,12.1,966.8,12.1
	c0.1,0,0.2,0,0.2,0.1c0.1,0,0.2,0,0.3,0c0.1,0,0.2-0.1,0.3-0.1C967.2,12,966.8,12,966.8,12.1z M965.1,12.2
	C965.1,12.2,965.1,12.2,965.1,12.2c0.2,0,0.3,0,0.4,0c0.6,0,0.7,0,0.5-0.1C965.5,12.2,965.3,12.2,965.1,12.2z M951.3,12
	C951.4,12,951.4,12,951.3,12c0.2,0.1,0.4,0.1,0.5,0.1c0.3,0,0.5,0,0.4,0C952.2,12,951.9,12,951.3,12z M851.4,15.4
	c0.2,0.1,0.6,0.1,1.2,0.1c0.3-0.1-0.1-0.2,0.2-0.3c-0.4,0-0.8,0-1.2,0C851.5,15.2,851.3,15.3,851.4,15.4z M848.9,15.3
	c0.2,0.1,0.7,0.1,0.9,0.1C850.3,15.3,849.6,15.3,848.9,15.3L848.9,15.3C848.9,15.3,848.8,15.3,848.9,15.3z M847.4,15.5
	c0.1,0.1,0.5,0.1,0.7,0.1c0.1,0,0.3,0,0.4,0c0.2-0.1,0.4-0.2,0.4-0.2c-0.4,0-0.9,0-1.3,0C847.5,15.4,847.3,15.5,847.4,15.5z
	 M841.4,15.5C841.4,15.5,841.4,15.5,841.4,15.5c0.1,0,0.1,0,0.2,0c0.2,0,0.5,0,0.8,0c0.7,0,0.9,0.1,1.4,0.1c1.7,0,2.5-0.1,3-0.2
	c-1-0.1-2.3-0.1-3.6-0.1h0C841.6,15.3,841.4,15.5,841.4,15.5z M838.5,15.5C838.5,15.5,838.5,15.5,838.5,15.5c0.2,0,0.3,0,0.5,0
	c0.2,0,0.4,0,0.7,0c0.3,0,0.6,0,0.9,0c-0.6-0.2-0.6-0.2-0.8-0.2c-0.8-0.1-1.1,0-1.2,0C838.3,15.4,838.5,15.5,838.5,15.5z
	 M835.8,15.5C835.9,15.5,835.9,15.5,835.8,15.5c0.5,0,0.7,0.1,1.1,0.1c0.1,0,0.2-0.1,0.2-0.1c0,0-0.3-0.1-0.4-0.1
	C836.2,15.3,836,15.4,835.8,15.5z M831.2,15.3c0.1,0,0.3,0.1,1.1,0.1c0.4,0,0.6,0,0.9,0h0C833.5,15.2,832.2,15.1,831.2,15.3
	C831.2,15.2,831.1,15.2,831.2,15.3z M584.6,15.2c0.1,0,0.3,0,0.6,0c0.2,0,0.5,0,0.1-0.1C584.7,15.1,584.5,15.2,584.6,15.2z
	 M579.2,15.2c0,0,0,0,0.5,0.1c0.3,0,0.1,0-0.3,0.1c0,0,0,0,0,0c0,0,0.1,0,0.4,0c0.4,0,0.6-0.1,1-0.1c0,0-0.3,0-0.9,0
	C579.7,15.2,579.4,15.2,579.2,15.2z M572,15.2l0.7,0l0-0.1L572,15.2L572,15.2z M568.7,15.2c-0.3,0-0.7,0-1,0c0.1,0,0.2,0.1,0.3,0.1
	c0,0,0.1,0,0.1,0c0.8,0,1.1,0,1.5,0c0.3,0,0.7,0,1.3,0c-0.4-0.1-0.3-0.1,0.4-0.1c-0.2,0-0.3,0-0.6,0c-0.4,0-0.7,0-1.1,0
	C569.2,15.2,569.1,15.2,568.7,15.2L568.7,15.2C568.8,15.2,568.8,15.2,568.7,15.2z M566.2,14.6c0,0,0.1,0,0.1,0.1
	c0.3,0.1,0.7,0.1,1,0.1c0.2,0,0.4,0,0.6,0C568.1,14.6,567.1,14.5,566.2,14.6z M560.7,15.2C560.7,15.2,560.7,15.2,560.7,15.2
	c0.1,0,0.2,0,0.3,0c0.2,0,0.4,0,0.5,0C561.1,15.1,560.8,15.1,560.7,15.2z M559,13L559,13L559,13c0.1,0,0.1,0,0.2,0c0,0,0,0,0,0
	c0.1,0,0.2,0,0.3,0C559.3,12.9,559.1,13,559,13z M509.2,15.6C509.2,15.6,509.2,15.6,509.2,15.6c0.3,0.1,0.8,0.1,1,0.1
	c0.1,0,0.3,0,0.4,0c0.2-0.1-0.8-0.1-1.3-0.1C509.2,15.6,509.2,15.6,509.2,15.6z M490.4,14.7C490.4,14.7,490.4,14.7,490.4,14.7
	c0.2,0.1,0.4,0.1,0.4,0.1c0.2,0,0.2,0,0.3,0l0-0.1c-0.4,0-0.4,0-0.5,0C490.4,14.7,490.4,14.7,490.4,14.7z M476.2,15.5
	C476.2,15.5,476.3,15.5,476.2,15.5c0.4,0,0.5,0,0.7,0c0.3,0,0.5,0,0.8,0c0.4-0.1-0.9-0.1-1.3-0.1C476,15.5,476.2,15.5,476.2,15.5z
	 M471.8,14.8c0.1,0,0.1,0,0.2,0c2.6,0,1.7-0.2,1.5-0.2c-0.3,0-0.7,0-1.4-0.1C471.5,14.7,471.5,14.7,471.8,14.8z M473.7,15.1
	c-0.1,0-0.2-0.1-0.3-0.1c-0.5,0-0.8,0-0.8,0.1c0,0,0,0,0,0c0.1,0,0.1,0,0.2,0C473.2,15.2,473.4,15.1,473.7,15.1z M473.3,15.4
	c-0.3,0-0.8,0-1.1,0c-0.1,0-0.2,0.1,0,0.1c0.2,0,0.6,0,0.7,0.1L473.3,15.4L473.3,15.4z M471.2,15c-0.2,0-0.5,0-0.8,0c0,0-0.1,0,0,0
	c0.1,0,0.5,0,1.1,0L471.2,15z M409.6,15c0.5,0.1,1.3,0.3,12.5,0.4c-0.1,0.1-0.2,0.2-0.2,0.2c0.6,0,1.5,0,2.1,0
	c-0.4-0.1-0.9-0.1-1.4-0.2c0.3,0,0.7,0,1,0c0.5,0,1.2,0.1,1.9,0.1c0.1,0,0.3-0.1,0.4-0.1c4.7-0.1,9.1,0.1,13.7,0.1
	c0.2,0,0.5,0.1,0.7,0.1c-0.1,0-0.1,0-0.2,0.1c0.3,0,0.6,0,0.9,0l0-0.1l0.8,0l0.3,0.1c1.4,0,2.7,0,4.1,0c-0.2,0-0.5,0-0.8,0.1
	c-0.3,0-0.7,0-1,0c0.5,0,1.4,0.1,2,0.1c0.1,0,0.2,0,0.3,0c3.1-0.2,3.3-0.2,5.1-0.1c1.2-0.1,2.7-0.1,3.7-0.2c-0.3,0-0.6,0-0.8-0.1
	c-0.3,0-0.6,0-0.9,0.1c-0.7-0.1-0.7-0.1-1.2-0.2c2.3,0,2.3,0,3.4-0.1c-1.3-0.2-4.2-0.6-4.2-0.6c0.1-0.1,0.1-0.1-0.1-0.2
	c-0.3,0-0.8,0-1.1,0c-0.2,0-0.4-0.1-0.6-0.1c0.2,0,0.6-0.1,0.8-0.1c2.1,0.1,4.4,0,6.4,0.1c0,0,0.1,0.1,0.2,0.1
	c1.1-0.1,1.1-0.1,3.4-0.2l0-0.1c1.6,0,2.2,0.1,2.6,0.2c0.3,0,0.3,0,0-0.1c-0.5-0.1-1.3-0.1-1.8-0.2c0.3-0.1,0.4-0.1,1-0.1
	c0.8,0,1.6,0,2.4,0c0.2,0,0.5,0.1,0.7,0.1c-0.1,0-0.2,0.1-1.1,0c-0.7,0-0.9,0-1.1,0c1.5,0.2,3.7,0.1,5.5,0.1c0,0-0.1-0.1-0.7-0.1
	c-0.7,0-1.5,0-2.3,0c-0.1-0.1,0.2-0.1,1.7-0.1c1.2,0,1.5,0,1.8,0c0.5,0,0.6,0,0.5,0.1c-0.1,0-0.1,0.1,0.1,0.1c1.1,0,0.1-0.2,0.1-0.2
	c-0.3,0-0.3,0-4.5-0.1c-1.3,0-1.8,0-2.5-0.1c-2.1,0.1-4.5,0-6.7,0.1c0,0,0.1,0,0.1,0c0.4,0.1,1.1,0.1,2,0.1c1.8,0,2.4,0,3,0.1
	c0,0.1,0,0.1-0.5,0.1c-0.4,0-0.4,0.1-0.3,0.1c-0.7,0-1.5-0.1-2-0.1L440,13.7c-0.4,0-1.2,0-1.5,0l-13.9-0.2c4.9,0.1,9.7,0.1,13.9,0.2
	c0,0,0,0.1,0,0.1c0.9,0.1,2,0.1,2.9,0.2c-0.2,0-0.6,0-0.8,0.1c-0.6,0-1.4,0-2-0.1c-0.3,0-0.7,0-1,0.1c0.2,0,0.6,0.1,0.8,0.1
	c-0.1,0-0.3,0.1-0.4,0.1c1.9,0.2,2.3,0.2,3.9,0.2c0.2,0,0.5-0.1,0.6-0.1c-0.1,0-0.2-0.1-0.3-0.1c0.2,0,0.5-0.1,0.7-0.1
	c2.5,0.1,2.5,0.1,2.9,0.1c-0.5,0-1.4,0.1-2.1,0.1c0.4,0,0.9,0.1,1.3,0.1c0.6,0,1.6,0,2.2,0c0,0,0,0.1,0,0.1
	c-2.7,0.1-5.1-0.1-7.6-0.1c0.1,0,0.2,0.1,0.3,0.1c-0.2,0-0.6,0.1-0.8,0.1c-1.4-0.2-1.4-0.2-2.7-0.3c0,0,0.1,0.1,0.1,0.1
	c0.3,0,0.7,0,1,0c-0.1,0-0.3,0.1-0.4,0.1c-0.6,0-1.3-0.1-1.9-0.1c0.2,0,0.5,0,0.7,0.1c-0.2,0-0.5,0.1-0.7,0.1
	c-1.2,0-2.2,0.1-3.5,0.1c0.1,0,0.2,0.1,0.3,0.1c-7.2,0.2-14.4-0.1-21.6,0c-0.1,0-0.3-0.1-0.4-0.1C410,14.9,409.8,15,409.6,15z
	 M432.4,14.8c0.1,0,0.2,0,0.3,0h0c0.1,0,0.2,0,0.3,0c-0.3,0-0.3-0.1-0.3-0.2C432.2,14.6,432.3,14.8,432.4,14.8z M463.4,15.1l0.8,0
	l0-0.1L463.4,15.1L463.4,15.1z M463.5,14.6c-0.9,0-0.7,0.1-0.6,0.1c0.1,0,0.1,0,0.2,0C464,14.8,464,14.7,463.5,14.6z M463.7,15.5
	C463.8,15.5,463.8,15.5,463.7,15.5c0.2,0,0.4,0,0.5,0c0.7,0,0.6-0.1,0.2-0.1c0,0,0,0,0,0l0,0C463.9,15.4,463.7,15.4,463.7,15.5z
	 M462.1,15.1L462.1,15.1c0.3,0,0.5,0,0.3,0c-0.1,0-0.3,0-0.5,0c-0.1,0-0.4,0-0.3,0.1C461.7,15,461.9,15.1,462.1,15.1z M448.4,17.4
	c3.5,0,7.1,0,10.6,0c0-0.1-0.1-0.1-0.4-0.1c-1.6-0.1-1.9-0.1-2-0.1c-0.3,0-0.2,0.1-0.5,0.1c-2.6-0.1-5.5-0.1-8.1-0.2l0.4,0.1
	c-0.4,0-0.6,0-0.8,0c0,0,0.1,0,0.1,0C447.9,17.3,448.2,17.3,448.4,17.4C448.4,17.3,448.4,17.4,448.4,17.4z M459.3,15.4L459.3,15.4
	c-0.5-0.1-0.8,0-0.9,0c0,0,0,0,0.1,0c0.1,0,0.2,0,0.2,0C458.8,15.4,459,15.4,459.3,15.4z M460.5,15c-0.8,0-1.3,0-2,0
	c-0.8,0-1.3,0-2.1-0.1c0,0,0.1,0,0.2,0.1c0.2,0,0.6,0.1,0.9,0.1C459.7,15.1,460.4,15.1,460.5,15z M457.7,14.7c0.1,0,0.4,0.1,0.7,0.1
	c0.1,0,0.2,0,0.2,0c-0.9-0.1-1.1-0.1-1.1-0.1C457.6,14.6,457.7,14.7,457.7,14.7z M460.1,15.4c0.1,0,0.2,0,0.5,0c0.4,0,0.9,0,0.6-0.1
	C460.8,15.4,460.4,15.4,460.1,15.4C460,15.4,460,15.4,460.1,15.4z M446.6,17.4c0.2,0,0.6,0,0.4-0.1c-0.3-0.1-1-0.1-1.5-0.2
	c-0.7,0-0.8,0.1-0.7,0.2c0.1,0,0.3,0.1,1.2,0C446.6,17.3,446.7,17.3,446.6,17.4z M443.6,17.1c-0.5,0-0.7,0-0.8,0.1c-1,0-1,0-0.9,0
	c0,0,0,0,0,0c0.1,0,0.5,0.1,1,0.1C444,17.3,443.8,17.2,443.6,17.1z M440.4,17.1c-0.5,0-1,0-1.5,0c-1.2,0-2.3-0.1-3.6-0.1
	c-0.8,0-1.1,0.1-0.8,0.1c0.6,0.1,4.3,0.1,4.4,0.1c0.5,0,1.7,0,1.8,0C440.8,17.2,440.7,17.1,440.4,17.1z M432.1,15.5
	c-1,0.1-1,0.1-2.9,0c-0.3,0-0.6,0.1-0.9,0.1c0.8,0.1,0.8,0.1,2.9,0.2c0.1,0,0.2-0.1,0.3-0.1c2.4,0,4.7,0,7.1,0
	C436.5,15.6,434.1,15.6,432.1,15.5z M403.3,15.8l0-0.2C403.3,15.7,403.3,15.8,403.3,15.8c-0.3,0-0.6,0-0.8,0c-0.1,0-0.1,0.1-0.2,0.1
	c0.2,0,0.6,0,0.8,0c0.1,0.4,0.2,0.9,0.3,1.3l-0.1-1.3l0.2,0c0.5,0,0.7,0,0.9,0.1c-0.3,0-0.4,0.1-0.3,0.2c1.7,0,3,0.2,2.3,0.3
	c-0.2,0-0.8,0-1.1,0c0.1,0.1,1,0.3,0.8,0.4c0.3,0,0.8,0,1.1,0c-0.6,0-0.8,0-0.8,0.1c0,0.1-0.1,0.1-0.7,0.1c0.2,0,0.8,0.1,1.3,0
	c0.9,0,1.6-0.1,2.4-0.1c1.7,0.2,2.9,0.2,3.5,0.3c26.3,0.6,62.1,0.9,88.7,1.3c0.1,0,0.1,0,0.2,0c-24.5-0.4-47.9-0.7-87.4-1.3
	c0.3,0,0.6,0,0.9,0c-1.1-0.2-1.1-0.2-3-0.3c2.1-0.1,2.1-0.1,6.3,0c0.1,0,0.3-0.1,0.5-0.1c-0.4,0-0.9-0.1-1.2-0.1
	c-1.3,0-1.6,0-5.8-0.1c-0.6-0.2-0.6-0.2-0.2-0.4c1.4-0.1,3,0,4.4-0.1c0.1,0,0.3,0.1,0.5,0.1c0.1,0,0.3-0.1,0.4-0.1
	c4.9,0.2,10.2,0.2,15,0.4c0.7-0.1,0.7-0.2,1.3-0.3c0.9,0.1,1.9,0.2,5.4,0.2c-0.2-0.1-0.2-0.1-2-0.3c0,0,0-0.1,0-0.1
	c0.3,0,0.8,0,1.2,0c0.1,0,0.2-0.1,0.3-0.1c-1.7,0-3.5-0.1-5.2,0c-4.1-0.3-9.7-0.1-13.8-0.4c-0.1-0.2-0.3-0.2-2.1-0.3
	c-2.6,0.2-2.6,0.2-3,0.2c-0.3-0.1-0.3-0.2-1.9-0.3c-2.1,0.1-2.1,0.1-3,0c-0.4,0.1-1,0.2-1.4,0.2c-0.2-0.1-0.4-0.2-0.5-0.2
	C406.5,15.7,406,15.9,403.3,15.8z M432.6,17.2c-0.1-0.1-1.4-0.1-1.9-0.1c0,0,0.1,0,0.1,0c0.2,0,0.6,0,0.8,0
	C432,17.2,432.3,17.2,432.6,17.2L432.6,17.2z M417.8,17.5c0,0,0.1,0,0.1,0c0.5,0,0.8,0,1,0c1.6,0,1.8-0.1,1.8-0.2
	C419.2,17.4,418.3,17.4,417.8,17.5z M449.5,18.5c-1.3,0-2.5,0-3.7,0c0,0,0,0,0.1,0.1c0.2,0,0.6,0.1,1.6,0.1
	C448,18.6,449.6,18.6,449.5,18.5z M448.9,18.9c-0.3,0-0.5,0-0.5-0.1c-1,0-0.7,0.1-0.7,0.1c0.2,0,0.5,0,0.8,0c0.3,0,0.5,0,0.6,0
	C449.7,19,449.5,18.9,448.9,18.9z M433,18.2c-0.4,0-0.5,0-0.7,0c0,0,0.1,0,0.1,0c0.4,0,0.7,0,1,0c0.5,0,0.8,0,1.1,0
	C434.5,18.2,434.6,18.2,433,18.2z M408.2,17.3c-0.1,0-0.2,0-0.3,0.1c0,0,0.1,0.1,0.1,0.1c0.1,0,0.3-0.1,0.4-0.1
	C408.4,17.4,408.3,17.4,408.2,17.3z M402.9,15.4l-1.1,0c0,0,0,0.1,0,0.2c0,0,0,0,0.1,0c0.1,0,0.3,0,0.4,0
	C403,15.6,403.1,15.5,402.9,15.4z M401.6,14.2c0.7,0.2,0.7,0.2,0.4,0.3c0.6,0.1,1,0.1,1.3,0.2l0-0.1c1.5-0.2,1.5-0.2,1.1-0.4
	c-0.3,0-0.7,0-1,0c0-0.3,0-0.6-0.1-0.9l0,0.9C402.7,14.2,402,14.2,401.6,14.2z M398.5,15.4c0.1,0,0.3,0,0.7,0c0.2,0,0.6,0,0-0.1
	C398.5,15.3,398.3,15.4,398.5,15.4z M389.6,18.9c-0.7,0-1,0.1-1.8,0.2c0,0,0,0,0.1,0c0.3,0,0.6,0,0.7,0h0c0.6,0,0.9-0.1,1.4-0.1
	c2.5,0.1,2.9,0.1,5.2,0.1c0-0.1,0-0.2-0.1-0.2c-0.2,0-0.4,0-0.6,0c-2.4,0-2.7,0-2.7,0.1C391.6,19,391,18.9,389.6,18.9
	C389.6,18.9,389.6,18.9,389.6,18.9z M360.9,18.2l0.8,0c0,0,0-0.1,0-0.1C361,18.1,361,18.1,360.9,18.2z M358.7,17.7
	c0.3,0,0.7,0.1,0.9,0.1v0c0.2,0,0.1,0.1,0.1,0.1c0.1,0,0.3-0.1,0.4-0.1c-0.1,0-0.2,0-0.3,0c-0.7,0-0.5-0.1-0.9-0.1
	C358.6,17.7,358.5,17.7,358.7,17.7z M229.4,15.2l0.8,0.1l0.3-0.1L229.4,15.2z M225,16.2c0.1,0.2,0.3,0.4,0.4,0.7l0.8,0
	c0.3,0,0.9-0.1,1.1-0.1c0.3-0.1-0.2-0.3,0-0.4c-0.5,0-0.8-0.1-1.3-0.1C225.6,16.2,225.5,16.2,225,16.2L225,16.2z M214.8,15.1
	c0.2,0.1,0.2,0.1,1,0.3c0.1,0,0.2,0.1,0.3,0.1c0.6,0,1.4-0.1,2.1-0.1c-0.4,0-0.9,0-1.2,0c0.2-0.1,0.3-0.1,0.9-0.2
	c-0.1-0.1-0.4-0.1-0.5-0.2C216.6,15.1,216.6,15.1,214.8,15.1z M215,15.6c0.4,0,0.4,0,0.6,0.1c-0.7,0.1-0.7,0.1-0.2,0.4c0,0,0,0,0,0
	c0.8,0,1.2,0.1,1.3,0.1c0.4,0.1,0.5,0.1,0.7,0.1c0.2,0,0.4,0,0.7,0c-0.7,0-0.9-0.1-1.2-0.1l0,0c-0.3-0.1-0.6-0.1-1.3-0.1
	c0.2-0.1,1.2-0.2,1.3-0.4c-0.4,0-0.6,0-1.3-0.1c-0.6,0-1,0-1.5,0C214.2,15.6,214.2,15.6,215,15.6z M213.9,16
	c0.2,0.1,0.3,0.2,0.2,0.4c0,0.1,0,0.2,0.2,0.3c0,0,0,0,0,0c1.6,0,2-0.1,2.1-0.1c0.5-0.1-0.3-0.3-0.2-0.4c-0.1,0-0.3,0-0.5,0
	c-0.2,0-0.4,0-0.6,0C214.8,16,214.5,16,213.9,16z M213.9,17.1L213.9,17.1c0.1,0,0.5,0,0.3,0.1C214.1,17.1,214.1,17.2,213.9,17.1
	c-0.1,0.1-0.3,0.1-0.5,0.1c-0.4,0-0.6,0-0.7,0c0.2,0,0.3,0.1,0.3,0.1c0,0.1,0.1,0.1,0.3,0.1c0.3,0,0.6,0,1.1,0
	c0.1-0.1,0-0.2,0.4-0.3c0.3-0.1,0.9-0.1,1.6-0.1c-0.2,0-0.6-0.1-1.2-0.1c-0.7,0-1.3,0-1.9,0.1C213.3,17,213.4,17,213.9,17.1z
	 M214.1,17.5c-0.1,0-0.3,0-0.4,0c-0.3,0-0.6,0-0.3,0.1c0.2,0,0.3,0,0.4,0C214,17.6,214.1,17.6,214.1,17.5L214.1,17.5z M210.9,16.2
	c0.2,0.1,0.9,0.1,0.9,0.2c0,0,0,0,0.1,0c0.3,0,0.6,0,0.8,0c0.1,0,0.2,0,0.3,0c0.1-0.1,0.1-0.1-0.9-0.1
	C211.6,16.2,211.1,16.2,210.9,16.2z M212.2,16.4c-0.2,0-0.8-0.1-0.8,0c0,0,0.1,0,0.1,0c0.2,0,0.3,0,0.4,0
	C212.1,16.5,212.2,16.5,212.2,16.4L212.2,16.4z M210.9,17.7L210.9,17.7l-0.8-0.1l0.1,0.1L210.9,17.7z M210.5,17.8
	c-0.9,0-0.9,0-0.9,0.3c0,0,0,0,0.1,0C210.4,18,210.7,17.9,210.5,17.8z M204.9,11.1c2.2,0,4.3,0,6.4,0.1L204.9,11.1z M199,16.6
	C199,16.6,199,16.6,199,16.6c0.6,0,0.7-0.1,0.7-0.2C199,16.5,198.8,16.5,199,16.6z M163,11.8c0,0,0.1,0,0.1,0c0.2,0,0.4,0,0.5,0
	c0.5,0,0.9-0.1,0.5-0.2c-0.4,0-0.5,0-0.6,0C163.3,11.8,163.3,11.8,163,11.8z M154.3,12.6c0.4,0.1,0.5,0.2,0.2,0.3c0,0,0.1,0,0.1,0
	c0.3,0,0.5,0,0.7,0c0.3,0,0.7,0,1.4,0c-0.1-0.2-0.1-0.2-0.6-0.3c0,0-0.5,0-1,0v0C154.9,12.6,154.7,12.6,154.3,12.6z M154.3,13.2
	l0.5,0c0.1,0,0.2-0.1,0.3-0.1h0C154.4,13.1,154.3,13.1,154.3,13.2z M145,12.1L145,12.1l0.8,0.1l-0.1-0.1L145,12.1z M142.2,13
	c0,0.1,0.1,0.2,0.2,0.2c0,0,0.1,0,0.1,0c0.1,0,0.3,0,0.4,0c0.3,0,0.5,0,0.8,0c0.4,0,0.6-0.1,0.9-0.1C144.4,13.1,144.4,13.1,142.2,13
	z M134.6,12.6l0.1,0.1l1.2,0l-0.4-0.1L134.6,12.6z M131.4,14.6C131.4,14.6,131.4,14.7,131.4,14.6c0.2,0,0.3,0,0.3,0
	c0.1,0,0.3,0,0.6,0C131.5,14.6,131.4,14.6,131.4,14.6z M129,10.7C129,10.7,129,10.7,129,10.7c0.1,0,0.3,0,0.6,0c0.5,0,1,0,0.6-0.1
	C129.7,10.6,129.4,10.7,129,10.7z M127.7,13.2L127.7,13.2l0.8,0.1l-0.1-0.1L127.7,13.2z M127.7,11.7c-0.3,0-0.9,0-1.1,0.1
	c-0.2,0.1,0.4,0.2,0.5,0.3c0,0,0.1,0,0.1,0C128.5,12,128.2,11.9,127.7,11.7z M129.2,12.6L129.2,12.6l-0.8-0.1l0.1,0.1L129.2,12.6z
	 M128.9,13.3L128.9,13.3l0.9,0.1l-0.1-0.1L128.9,13.3z M125.4,11c0.2,0,0.4,0.1,0.6,0.1c0.5,0.1,1,0.1,1.1,0.1
	c0.1,0.1-0.7,0.1-1.1,0.1l0.9,0.1c0.3-0.1,0.6-0.1,1.2-0.1c0.8,0,1.2,0,1.3-0.1c-1,0-1,0-2.8-0.3c-0.3,0-0.4,0-0.5,0.1h0
	C125.9,11,125.8,11,125.4,11z M99.5,13.3c0,0,0.1,0,0.1,0c0.2,0,0.4,0.1,0.7,0.1c0.5,0,0.6-0.1,0.7-0.1
	C99.1,13.1,99.5,13.3,99.5,13.3z M100.6,12.7c0,0-0.1,0-0.1-0.1c0,0,0,0,0,0c-0.4-0.1-1.3-0.1-1.4,0c0,0,0,0,0.1,0.1L100.6,12.7z
	 M100.8,12.9c-0.9,0-1.1,0.1-0.6,0.2c0,0,0.1,0,0.1,0C101,13.1,100.9,13,100.8,12.9z M100,11.8c-0.7,0-0.9,0.1-1,0.2
	c-0.1,0.1,0,0.1,0,0.2c0,0.1-0.1,0.1-0.1,0.2c0,0,0,0.1,0.4,0.1c0.4,0.1,1.1,0.1,1.7,0.1h0C100.7,12.2,100.7,12.1,100,11.8z
	 M97.9,10.6C97.9,10.6,98,10.6,97.9,10.6c0.2,0,0.4,0,0.6,0c0.7,0,0.7-0.1,0.5-0.2C98.2,10.4,98.2,10.4,97.9,10.6z M93.3,11.2
	c0.6,0.1,0.6,0.2,1.3,0.2c-0.1,0-0.3,0-0.4,0c-0.6,0.1-0.3,0.2,0.3,0.3c0,0,0.3,0,0.7,0c-0.2-0.1,0.8-0.2-0.2-0.3
	c1.1-0.1,1.1-0.1,1.9-0.5c0.8,0,0.8,0,1,0.2c0.5,0,0.5,0,2.2-0.1c-1-0.2-1-0.2-1-0.3c-0.9-0.1-2.1-0.1-3-0.1c-0.5,0-0.8-0.1-1-0.1
	c-0.8,0-1.1,0.1-1.3,0.3C93.8,11.1,93.7,11.2,93.3,11.2z M87.2,11.3L87.2,11.3l0.9,0.1L88,11.3L87.2,11.3z M87,11.6
	c0.2,0,0.5,0,0.6,0.1c0.1,0-0.2,0-0.3,0.1c-0.4,0.1-0.3,0.1-0.1,0.2c0.1,0,0.1,0,0.2,0c0.5,0,0.8,0,1.3,0.1c0.2,0,0.4-0.1,0.4-0.2
	c0-0.1-0.3-0.2-0.4-0.4c-0.5,0-1.1,0-1.6,0c-0.1,0.1,0.4,0.2,1.7,0.2c-0.1,0-0.3,0.1-0.8,0h0C87.3,11.6,87.3,11.6,87,11.6z
	 M78.2,14.2C78.2,14.2,78.3,14.2,78.2,14.2c0.1,0,0.3,0,0.4,0c0.4,0,0.4,0,0.3-0.1c-0.1,0-0.1-0.1-0.1-0.1l0,0
	C78.2,14.1,78.1,14.1,78.2,14.2z M177.8,15.1L177.8,15.1c-29.6-0.2-69-0.4-98.6-0.6c-0.2-0.2-0.4-0.2-1.7-0.2
	c0.4,0.1,0.4,0.1,0.2,0.2C110.3,16,144.4,14.9,177.8,15.1z M101.1,18.2c0,0-0.1,0-0.1,0c-0.3,0-0.4,0.1-0.3,0.1
	C100.7,18.2,100.8,18.2,101.1,18.2C101.4,18.2,101.6,18.2,101.1,18.2z M423,16.2c-0.3,0-0.8,0-1.1,0v0.1c0,0,0,0,0,0
	C422.3,16.3,423.1,16.3,423,16.2z M414.5,16.3c0.3-0.1,1.1-0.1,2.6-0.1c1.3,0,1.9,0,2.2-0.1c-0.3,0-0.8,0-1.2,0
	c-0.5,0-0.9-0.1-1.4-0.1c-0.4,0-0.9,0.1-1.1,0.1c-0.4,0-0.5,0-0.7-0.1c-0.1,0-0.3,0-0.8,0C414.1,16.3,414.1,16.3,414.5,16.3z
	 M411.5,15.9L411.5,15.9c0.7,0,0.4-0.1,1.1-0.1c-0.1-0.1-0.4-0.1-1.2-0.1c-0.2,0-0.4,0-0.6,0c-0.2,0.1-0.2,0.1,0,0.2
	C411,15.9,411.3,15.9,411.5,15.9z M405.2,16.2c0.9,0,0.9-0.1,0.3-0.1c-0.8,0-0.7,0.1-0.5,0.1C405,16.2,405.1,16.2,405.2,16.2z
	 M1008.7,13L1008.7,13c1.1,0.1,1.5,0,1.7-0.1c0.2,0,0.3,0,0.8,0c0.7,0,1,0,1.1,0c-1-0.1-1.6,0-2.2,0c-0.1,0-0.3,0-0.5-0.1
	c0.6,0,1-0.1,1.3-0.2c-0.3,0-0.8,0-1.1-0.1c-0.1,0.1-0.3,0.1-0.7,0.1c-0.4,0-0.6,0-0.7,0.1c0,0,0.1,0,0.1,0c0.5,0,0.7,0,0.7,0
	c0,0,0,0-0.1,0C1009,12.9,1008.8,12.9,1008.7,13z M1005.9,12.8L1005.9,12.8C1005.9,12.8,1005.9,12.8,1005.9,12.8c0.8,0,1.5,0,2.3,0
	c0.1,0,0.2-0.1,0.3-0.1c0,0,0.1,0,0,0c-0.2,0-0.5,0.1-0.6,0.1c-0.1,0-0.3-0.1-0.4-0.1c-0.4,0-0.8,0-1.2,0c0.1,0,0.1,0.1-0.1,0.1
	C1006.1,12.8,1006,12.8,1005.9,12.8z M1014.1,13.8c0,0,0.2,0.1,0.4,0h0c0.1,0,0.2-0.1,0.2-0.1C1014,13.8,1014.1,13.8,1014.1,13.8z
	 M490.1,10.9L490.1,10.9l1.4,0.1l-0.6-0.1L490.1,10.9z M252,3.3c0-0.1-0.8-0.1-0.9-0.1c-0.3,0-0.4,0-0.6,0c0,0,0,0,0.1,0
	c0,0,0,0,0,0C250.8,3.3,251.2,3.3,252,3.3z M253.1,9.2L253.1,9.2l0.7,0.1l0-0.1L253.1,9.2z M65,6.9c0.3,0.1,0.8,0.1,0.9,0.1
	c0,0,0,0,0,0c-0.1,0-0.3,0-0.4,0c-0.4,0-0.6-0.1-0.7-0.1C64.7,6.8,64.9,6.9,65,6.9L65,6.9z M449.7,12.1c0.2,0,0.4-0.1,1.1,0
	c0.3,0,0.2,0-0.4,0c-0.8,0-1.8,0-1.5,0.1c0.1,0,0.2,0,0.3,0C449.5,12.1,449.5,12.1,449.7,12.1z M52.1,11.3
	C52.2,11.3,52.2,11.3,52.1,11.3c0.8,0,0.8-0.1,0.6-0.2c-0.1,0-0.3,0-0.4,0c-0.1,0-0.3,0-0.3,0C52,11.2,52.2,11.3,52.1,11.3z
	 M20.9,6.7c0.7,0,0.2-0.1-0.3-0.2c-0.1,0-0.3,0-0.4,0c-0.1,0-0.1,0-0.2,0c0,0,0,0,0.1,0.1C20.3,6.7,20.9,6.7,20.9,6.7z M61,14.3
	L61,14.3c-0.2-0.1-0.4-0.2-1-0.2c-0.1,0-0.1,0-0.2,0c0.1,0,0.3,0.1,0.2,0.1c-0.2,0.1-0.7,0.1-0.9,0.2l2.3,0
	C61.2,14.4,61.1,14.3,61,14.3z M434.8,16.5l-0.7,0v0.1L434.8,16.5L434.8,16.5z M15.2,9.1L15.2,9.1c1,0,1.2-0.1,0.8-0.1
	c-0.1,0-0.1,0-0.2,0C15.1,8.9,14.9,9,15.2,9.1C15.2,9.1,15.2,9.1,15.2,9.1z M62.6,5.1C62.6,5.1,62.7,5.1,62.6,5.1l-0.7,0.1
	c0,0,0,0,0.1,0C62.2,5.2,62.5,5.1,62.6,5.1z M60.1,13.7L60.1,13.7C60.2,13.7,60.2,13.7,60.1,13.7c0.7,0,1.2,0,1.9,0
	c-0.2-0.1-0.9-0.2-1.1-0.3c-0.1,0-0.2,0-0.3,0c-0.4,0-0.8,0-1.2,0C59.7,13.5,60.2,13.6,60.1,13.7z M64,9.4c0.2,0.1,1.1,0.1,1.2,0.2
	c0.1,0.1,0.1,0.1-0.5,0.2c-0.6,0.1-0.8,0.2-0.3,0.3l2.9,0c-1.3-0.3-0.7-0.4,0.1-0.5c-0.5-0.1,0.7-0.3-1.1-0.4c0.5-0.4-0.4-0.8,0-1.2
	c-0.3,0-0.8,0-1.2,0c0-0.1,1.4-0.1,1.4-0.2c-0.5,0-0.5,0-0.7,0c0.3-0.1,1.2-0.2,0.9-0.3c-0.3,0-0.7,0-0.9,0c0,0,0,0,0,0
	c0.4,0,0.4-0.1,0.5-0.1c-0.8,0-1-0.1-1.6-0.1c-0.1,0-0.3,0-0.4,0c0.1,0.2,0.6,0.3,0.7,0.5c0.1,0.2-2,0.4-0.4,0.6
	c-0.8,0.1-0.7,0.2-1.3,0.3C63.8,9.1,63.6,9.3,64,9.4z M449.6,14.4c0.1,0,0.2,0,0.3,0c0.2,0,0.5,0,0.8-0.1c-0.1,0-0.2,0-0.4,0
	C449.8,14.3,449.4,14.4,449.6,14.4L449.6,14.4z M450.7,15.2c0.1,0,0.1-0.1-0.2-0.1c-0.8,0-0.9,0.1-0.7,0.2c0.3,0.1,0.8,0,1,0
	C450.5,15.2,450.6,15.2,450.7,15.2z M448.7,14.7c-0.6,0-0.8,0.1-0.8,0.1c0.3,0,0.8,0,1.1,0L448.7,14.7z M57.1,14.4
	c-17-0.1-38.8-0.2-57.1-0.3V8.3c0.1,0,0.2,0,0.4,0c0,0-0.1-0.1-0.4-0.2V7.3c1.1,0.2,1.3,0.3,2.5,0.3c0.3,0.2,0.8,0.3,2.2,0.4
	C4.8,8,4.1,8.1,4.8,8.1c0.7,0.1,3.8,0.1,3.8,0.1c0.2-0.1,0.3-0.1-0.2-0.2C7.9,8,7.8,8,7.7,7.9c-0.1,0,0.1-0.1,0.1-0.1
	C7.7,7.6,6.2,7.5,7.2,7.3C5.1,7.2,4.4,7,4.4,7C4.2,6.9,4,6.9,4.1,6.8c0.2-0.1,1.2-0.1,1-0.2c-0.3-0.1-0.7-0.3-1-0.4
	C4.8,6.2,5.7,6.1,6.2,6c0.1,0,0.3,0,0.4,0.1c0.1,0,0.3,0.1,0.4,0.1l2.4,0.9c0.2,0.1,0.2,0.1-1.3,0.1c-0.2,0-0.3,0-0.1,0.1
	c2.5-0.1,2.5,0,2.4,0.2c-0.1,0-0.2,0-0.3,0C9.5,7.5,9.3,7.5,9,7.5c0,0-0.1,0-0.2,0c0.8,0.1,2,0.1,2.7,0.2c-0.1,0-0.1,0-0.2,0
	c-0.1,0-0.2,0-0.2,0c-0.1,0-0.1,0-0.2,0c0.2,0.1,1.1,0.1,1.3,0.1c0.3,0.1-0.4,0.2,0,0.4c0.1,0,0.5,0,0.7,0.1c-1,0-0.7,0.2-0.3,0.2
	c0.5,0,1.1,0,1.8,0c0.7,0.1-0.3,0.3,0.5,0.4c-3.4,0.1,1,0.4,1,0.4c0.2,0,0.6,0,0.8,0c0.1,0.1,0.7,0.2,0.6,0.2c0.5,0,1.2,0.1,1.6,0.1
	c-0.1,0-0.2,0-0.3,0l0.8,0c0.1,0.1,0.1,0.1,0.1,0.2c0,0.2,2.4,0.3,1.3,0.6c0.7,0,1,0,2,0.4c1.1,0.4,2.4,0.5,5.4,0.7
	c0.1,0,0.1,0-0.2-0.7c-2.6-0.2-1.7-0.6-3.1-0.8c0.1,0,0.2,0,0.2,0c1.8,0,2.1,0,6.6,0l-5.3,0c0,0,0,0-0.1-0.1c-0.8,0-1.5,0-2.2,0
	c0-0.1,0.2-0.2,0.8-0.3c0.2,0.1,1,0,1.4,0c-0.3-0.2-0.3-0.2,0.6-0.8c-0.8,0-0.9,0-3.6-1.1c-0.4,0-0.9,0-1.2-0.1
	c-0.2-0.1,0.1-0.2-0.1-0.2c-0.4-0.2-1.1-0.3-1.6-0.4c-0.3-0.1-0.5-0.2-0.6-0.3c0.2,0,0.5,0,0.8,0.1c1.3,0.2,1.4,0.4,3.2,0.6
	c-0.1,0,0,0.1,0.2,0.2C25.1,7.7,25,7.9,26,7.9C25.6,8,25.6,8,26.2,8.1C27,8.1,27,8.1,27.1,8.3l1.2,0.1C30,8.8,30,8.8,30.6,8.8
	c0.4,0.3,2.8,0.6,3.1,0.9l0.9,0.1c0.1,0.1-0.3,0.2,0.3,0.2l1.2,0.2c0,0,4.2,1.1,4.9,1.2c0.5,0.1,0.9,0.1,1.2,0.1
	c2.1,0.8,2.2,0.8,4.8,1c-0.9-0.4,2.1-0.5,2.6-0.5c1.5,0,0.4,0.2,1.7,0.3c-0.2-0.1-0.2-0.1,0.3-0.2C51.3,12,51.3,12,51,12
	c0.7-0.2,0.7-0.4,2-0.6c0.5,0.2,0.6,0.2,0.4,0.4c0.2,0,0.5,0,0.7,0c0.4,0.1,0.3,0.1,0.6,0.2c0.1,0,0.3,0,0.4,0
	c-0.2,0.2-1.5,0.4-1.6,0.6c-0.1,0.1-0.1,0.1,0.9,0.4c0.3,0.1,2,1,2,1c0.4,0,0.8,0,1.2,0C57.4,14.2,57.1,14.3,57.1,14.4z M11.6,8.5
	c0,0,0.1,0.1,0.1,0.2c0,0,0,0,0,0c0.1,0,0.1,0,0.2,0c1,0,1-0.1,0.6-0.1C12.4,8.5,12.1,8.5,11.6,8.5z M9.5,8c0.1,0,0.1,0,0.2,0
	c0.7,0,1,0,1.3,0c0.3,0,0.1-0.1,0.1-0.1c0,0-0.5-0.1-2,0h0C9.1,7.8,9.1,7.9,9.5,8z M14.3,10.2c-0.1-0.1-0.1-0.1,0-0.3
	c0-0.2-0.2-0.2-1.3-0.3c-0.9-0.6-0.9-0.6-1.7-0.6c-0.1,0-0.1,0-0.5-0.3c-0.3,0-0.6,0-0.9-0.1C9.4,8.6,8.6,8.5,8.5,8.4
	c-0.4,0-0.9,0-1.3,0c-0.1,0,0-0.1,0.1-0.1C6.4,8.4,7.8,8.5,6.4,8.6c0.1,0,0.1,0,0.2,0c0.1,0,0.2,0,0.2,0c1.9,0.3,2.3,0.7,3.9,1
	c0.3,0.1,0.6,0.2,1,0.2C13.2,10.2,13.8,10.2,14.3,10.2z M22.8,12.6L22.8,12.6l-0.9-0.1l0.1,0.1L22.8,12.6z M23.8,12.2
	c0,0-0.1-0.1-0.1-0.1C23,12,22.3,12,21.8,12c0.2,0,0.3,0.1,0.5,0.1c0.3,0.1,0.6,0.1,1,0.1C23.5,12.2,23.6,12.2,23.8,12.2z
	 M25.3,13.6L25.3,13.6l-0.8-0.1l0.1,0.1L25.3,13.6z M30.7,11.9c-0.1-0.1-0.1-0.1-0.2-0.2c-0.7,0-1.1,0.1-0.7,0.2
	C30,11.9,30.3,11.9,30.7,11.9z M42.2,13.9c0.1-0.1-0.4-0.1-1.2-0.1c0,0,0,0,0,0C41.4,13.9,41.8,13.9,42.2,13.9z M453.2,14.6
	C453.1,14.6,453.1,14.6,453.2,14.6c-1.1,0-1.2,0.1-1.5,0.2c0,0,0,0,0.1,0C453,14.7,453.1,14.7,453.2,14.6z M22.6,9.3
	c-0.6-0.1-0.8-0.2-1-0.2c-0.4,0-0.7,0-1.5,0c0.1,0.1,0.2,0.2,0.6,0.2C21.3,9.4,22.2,9.3,22.6,9.3z M210.3,7.4L210.3,7.4
	c0.1,0-0.1,0.1-0.1,0.1c0,0,0.1,0,0.1,0c0.5,0,0.7-0.1,1.3-0.1c0.4,0,1.1,0,1.3,0c-0.3,0-0.8-0.1-1.1-0.1c-0.2,0-0.2-0.1-0.2-0.1
	c-0.7,0-1.2,0.1-1.9,0.1C209.9,7.3,210.2,7.3,210.3,7.4z M330.6,5.8L330.6,5.8c0,0-0.2,0-0.5-0.1c-0.1,0-0.2,0-0.3,0
	c0,0,0,0.1,0,0.1c0,0,0,0,0,0C330.5,5.9,330.7,5.8,330.6,5.8z M326.9,4.5c-0.2,0-0.3,0-0.6,0c-0.3,0-0.4,0-0.3,0.1
	C326.1,4.5,326.3,4.5,326.9,4.5z M141.8,4.2L141.8,4.2C141.8,4.1,141.8,4.1,141.8,4.2L141.4,4c-0.4,0-0.5,0.1-0.3,0.1
	C141.2,4.2,141.4,4.2,141.8,4.2z M337.9,3.6L337.9,3.6c0.1,0,0.1,0.1,0.1,0.1c0,0-0.3,0-0.5,0c-0.5,0-0.6,0-0.4,0.1c0,0,0,0,0,0
	c1.7,0,2.5-0.2,1.7-0.4c-0.3-0.1-0.8-0.1-1.1-0.1c-0.3,0-0.7,0-0.8,0c0,0,0,0,0,0c0,0,0.2,0.1,0.4,0.1
	C337.6,3.5,337.8,3.6,337.9,3.6z M360.6,6c0.2,0,0.5,0,0.6,0c0.1,0,0-0.1,0-0.1C360.3,5.9,360.6,6,360.6,6L360.6,6z M326,4.9l1.2,0
	l0-0.1L326,4.7L326,4.9z M352.2,6.7c0.7,0,0.8-0.1,0.8-0.2C352.3,6.5,352,6.6,352.2,6.7C352.2,6.7,352.2,6.7,352.2,6.7z M356.7,5.4
	L356.7,5.4l0.4-0.1c-0.1,0-0.1,0-0.2,0c-0.7,0-0.5,0.1-0.5,0.1C356.4,5.4,356.6,5.4,356.7,5.4z M269.8,2.4L269.8,2.4
	c0,0,0.1,0,0.1,0c1.4,0,1.5-0.2,1.5-0.2c-0.6,0-0.9,0-1.2-0.1c-0.5,0-0.5,0.1-0.4,0.2C269.9,2.3,269.9,2.4,269.8,2.4z M286.3,7.7
	l1.9,0c0-0.1,0.6-0.3,0.3-0.4c-0.1,0-0.4,0-0.6,0c-0.5,0,0-0.1,0.2-0.1c-0.1,0-0.1,0-0.2,0c-0.1,0-0.1,0-0.2,0
	c-0.7,0-2.3,0.2-0.8,0.3c-0.2,0-0.6,0-0.7,0C286.2,7.5,286.2,7.6,286.3,7.7C286.3,7.6,286.3,7.7,286.3,7.7z M261.4,2.6
	c-0.4,0-0.6,0-0.7-0.1l-0.4,0.2l1.5,0C262.2,2.7,262,2.6,261.4,2.6z M312.3,5.3c0.1,0,0.3-0.1,0.4-0.1l-0.8,0c-0.3,0-0.4,0-0.2,0
	C311.9,5.3,312.3,5.3,312.3,5.3z M319.8,5c0.1,0,0.3,0,0.7,0c0,0,0-0.1,0-0.1l-0.4,0c0,0,0,0-0.1,0C319.8,4.9,319.5,5,319.8,5
	L319.8,5z M290,8.9c0.1,0,0.2,0,0.3,0c0.8,0,0.8-0.1,0.6-0.1c0,0,0,0,0,0c-0.1,0-0.1,0-0.2,0C289.7,8.8,289.8,8.9,290,8.9z
	 M320.5,5.5C320.5,5.5,320.5,5.5,320.5,5.5c1.1,0,1.2-0.1,0.8-0.2c-0.1,0-0.2,0-0.3,0C320,5.3,320.6,5.5,320.5,5.5z M406.6,10.7
	c0,0,0-0.1,0-0.1c-0.1,0-0.2,0-0.4,0c-0.4,0-0.8,0-1.1,0c0,0,0,0,0.1,0C405.5,10.7,405.9,10.7,406.6,10.7z M408.1,11.1
	c-0.6,0-1.3,0-1.9-0.1c0,0,0.1,0,0.1,0c0.2,0.1,0.5,0.1,0.8,0.1c0.5,0,0.7,0,0.5,0.1C408.6,11.3,407.9,11.1,408.1,11.1z M406,9.3
	c0.1,0,0.5,0.1,0.6,0c0.1,0,0-0.1,0-0.1C405.7,9.2,405.9,9.3,406,9.3z M246.8,0.4c0.3,0.1,1,0,1.1,0C248,0.3,247.5,0.3,246.8,0.4
	C246.7,0.3,246.6,0.3,246.8,0.4z M408.1,10.9L408.1,10.9c0.2,0,0.5,0.1,0.8,0.1c0,0,0-0.1-0.2-0.1c-0.2,0-0.3-0.1-0.1-0.1
	c-0.1,0-0.1,0-0.2,0C407.6,10.7,407.7,10.8,408.1,10.9z M414.9,8.5c0.5,0,0.6-0.1,0.6-0.1c0-0.1-0.4-0.2-0.5-0.4
	c-0.5,0.1-0.3,0.4-0.2,0.5C414.8,8.5,414.9,8.5,414.9,8.5z M376.4,8.7L376.4,8.7l2.3,0c-0.4-0.1-1-0.2-2-0.2c-0.1,0-0.2,0-0.3,0
	C376.6,8.7,376.6,8.7,376.4,8.7z M415,9.5c0.1,0,0.3,0,0.7,0c0.1-0.1-0.3-0.1-0.4-0.2C414.9,9.4,414.7,9.5,415,9.5z M425,8.5
	l-0.3-0.1l-0.8,0l0.4,0.1L425,8.5z M380.4,6.1c0.3,0.1,0.9,0.1,1.2,0.1c0.3-0.1,0.1-0.2-0.6-0.6c-0.1,0-0.3,0-0.5,0
	c-0.1,0-0.1,0-0.2,0c-0.1,0-0.1,0,0.1,0.1c0.2,0.1,0.2,0.1,0.1,0.1c-0.1,0.1-0.2,0.1-0.3,0.2c0,0,0,0,0,0
	C380.2,6.1,380.4,6.1,380.4,6.1L380.4,6.1z M381,5.6L381,5.6C381.1,5.5,381.1,5.5,381,5.6l-0.4-0.1c0,0,0,0-0.1,0
	c-0.3,0-0.5,0.1-0.3,0.1C380.4,5.6,380.7,5.6,381,5.6z M380,5.3c0.6-0.1-0.2-0.3-1.1-0.4C379.2,5.1,379.6,5.2,380,5.3
	C380,5.4,380,5.3,380,5.3z M399.8,11.2c0.1,0,0.2,0,0.4,0l0-0.1L399.8,11.2l-1.1-0.1c-0.2,0-0.5,0-0.3,0.1
	C398.7,11.2,399.4,11.2,399.8,11.2z M382.2,7.7c1.7,0,1.6-0.1,1.4-0.1c-0.2,0-0.6,0-0.8,0c-0.1,0,0,0,0-0.1c-0.1,0-0.2,0-0.3,0
	C382,7.5,382,7.5,382.2,7.7c-0.1,0-0.1,0-0.1,0C382.1,7.7,382.1,7.7,382.2,7.7z M399.7,11.6l1.1,0c0,0,0.2-0.2-0.7-0.2
	c-0.4,0-0.8,0-1.2,0C399.2,11.5,399.5,11.6,399.7,11.6z M338.7,3.8c-0.3,0-0.4,0-0.6,0c-0.2,0-0.4,0-1,0c0,0,0,0.1,0.1,0.1
	c0,0,0,0,0,0c0.1,0,0.2,0,0.5,0c0.4,0,0.6,0,0.5,0.1C339.5,4.2,339.2,3.9,338.7,3.8z M157.1,5.4c-0.1,0-0.3,0-0.6,0
	c-0.6,0-1.2,0-0.9,0.1C156,5.4,156.6,5.4,157.1,5.4z M155.5,5.7c0.3,0.1,0.9,0.1,1,0.2c0.6,0,0.5-0.1,0.2-0.1
	c-0.3-0.1-0.4-0.1-0.3-0.1c0,0-0.1,0-0.1,0c-0.4,0-0.7,0-1,0C155.3,5.7,155.3,5.7,155.5,5.7z M165.6,11.5c0.9,0,0.1-0.2-0.1-0.2
	c-0.9,0-0.1,0.2-0.1,0.2C165.5,11.5,165.5,11.5,165.6,11.5z M147.4,7.7c0.7,0,1.8,0,2.3-0.1c-0.5-0.1-0.5-0.1,0.3-0.2
	c1-0.1,0.9-0.1,0.6-0.2c0.5,0,1.2,0,1.5-0.1l1.1-0.5h0c-0.1-0.1-0.2-0.1-0.5-0.2c0.7,0,1,0,1.4-0.1c0.3-0.1,0.4-0.1,0.9-0.1
	c-0.3,0-1-0.2-0.1-0.2c0.1,0,0.2,0,0.2,0c0.3,0.1,0.5,0.1,0.5,0.2c0,0.1,0.1,0.1,0.6,0.2c-0.9,0.2-0.9,0.2-1.5,0.2c0,0,0,0,0,0
	l-0.7,0c0.2,0,0.5,0,0.7,0c-0.3,0.5-0.3,0.5-3.1,1.9c1.1,0.1,1.6,0.2,0.9,0.2c-0.1,0-0.3,0-0.4,0c-1.1,1-1.1,1-1.4,1.1
	c0.8,0,0.8,0,3.2,0.3c1.5-0.1,1.5-0.1,2.1-0.1c0.4,0.1-0.5,0.1-0.6,0.2h0c1.7,0.1,1.7,0.1,1.3,0.8l-12.6-0.1c0-0.1,0-0.3-1.8-0.4
	c1.3-0.3,1.3-0.3,0.5-0.5c0.2,0,0.2,0,1,0c0,0,0.1,0,0.1,0c-0.2-0.2,1.1-0.4,0.9-0.6c2.4,0,2.6-1.1,2.6-1.1c0.2,0,0.5,0,0.7,0
	C148.3,7.9,148.1,7.8,147.4,7.7z M148.6,10.1c-0.5,0.1-0.7,0.2-1.5,0.2c0.2,0.1,0.3,0.2,0.2,0.3c-0.1,0.1-0.1,0.1,0.1,0.1
	c0.1,0,0.2,0,0.3,0c0.7,0,1.4,0,2,0c-0.1-0.1-0.3-0.1-0.5-0.2c0.4-0.1,0.4-0.1,1.9,0v0c0.1,0,0.5-0.1,0.3-0.2
	c-0.2-0.1-0.8-0.1-1.4-0.1C149.4,10.2,148.5,10.2,148.6,10.1z M148.4,9.8c-0.1,0-0.3,0-0.3,0c0,0,0.3,0.1,0.4,0.1c0,0,0,0,0.1,0
	c0.3,0,0.2,0,0.2,0C148.7,9.9,148.5,9.8,148.4,9.8z M175.8,10.9L175.8,10.9C175.8,10.9,175.8,10.9,175.8,10.9c0.7,0.1,2,0,1.9-0.1
	c0,0,0,0-0.1,0c-0.2,0-0.3,0-0.5,0C175.2,10.7,175.7,10.9,175.8,10.9z M175.3,9.9L175.3,9.9l-0.8-0.1l0,0.1L175.3,9.9z M176.8,10.7
	c0.1-0.1-0.2-0.1-0.1-0.2c-0.1,0-0.2,0-0.3,0c-0.8,0-1,0.1-0.7,0.2C175.9,10.7,176.7,10.7,176.8,10.7z M142.3,3c0,0,0.1,0,0.1,0
	c0.5,0,1.2,0,1.5,0c-0.6-0.1-0.4-0.1,0.2-0.2c0.4-0.1,0.5-0.1,0.5-0.1c0.1-0.1-0.3-0.2,0-0.3c0.5-0.1,0.6-0.2,0.2-0.3
	c-0.1,0-0.2,0-0.3,0c-0.2,0-0.4,0-0.5,0c-0.1,0.1,0.4,0.1,0.4,0.1c-1.2,0.1-1.7,0.2-1.9,0.4c0.5,0,1.1,0.1,1.6,0.1
	c-0.5,0.1-1.3,0.1-1.8,0.2C142.2,2.9,142.2,3,142.3,3z M141.7,3.8C141.8,3.8,141.8,3.8,141.7,3.8c-0.6-0.1-1,0-1.6,0
	c0,0,0.1,0,0.1,0C140.6,3.9,141.6,3.9,141.7,3.8z M138.7,10.6c0,0,0,0,0.1,0.1c0.2,0,0.5,0,1.5,0.1
	C139.7,10.7,139.5,10.6,138.7,10.6C138.7,10.6,138.7,10.6,138.7,10.6z M142.5,3.8c0.8-0.1,0.5-0.1-0.3-0.1c-0.8,0-1-0.1-0.9-0.1
	c-0.1,0-0.2,0-0.5,0c-0.5,0-0.6,0.1-0.6,0.1c0.1,0,0.1,0,0.2,0C142.1,3.6,142.4,3.8,142.5,3.8z M144.9,2L144.9,2c0.3,0,0.5,0,0.7,0
	c0,0,0.1,0,0.1,0c0.8,0,0.7-0.2,1.1-0.2c-0.4,0-0.8,0-1.2,0c0.2,0.1,0,0.1-0.4,0.1C144.9,1.9,144.8,1.9,144.9,2
	C144.9,2,144.9,2,144.9,2z M146.1,1.7c0.7,0,0.8-0.1,0.7-0.2C146.1,1.6,145.9,1.6,146.1,1.7C146,1.7,146.1,1.7,146.1,1.7z
	 M140.6,3.5c0.3,0,1,0,1.1,0.1c1.1-0.1,0.5-0.3,2.3-0.3c-0.3,0-0.4-0.1-0.5-0.2c-0.1,0-0.1,0-0.2,0c-2.1,0-1.8,0.2-2.9,0.3
	C140.4,3.4,140.4,3.5,140.6,3.5z M202.8,7.6c0,0,0.1,0,0.1,0c0.5,0,0.5-0.1,0.4-0.1c-0.1-0.1,0-0.1,1-0.1c-0.1,0-0.3-0.1-0.5-0.1
	l-1.2,0C202.2,7.4,202.4,7.5,202.8,7.6z M233.3,11.3c0.2,0,0.5,0,0.7,0c0,0,0-0.1,0-0.1l-0.4,0C233.1,11.2,233.1,11.2,233.3,11.3z
	 M246.2,2.3c0.4,0,0.8,0,1.2,0c1,0.1,2,0.3,0.4,0.4c-0.1,0-0.3-0.1-1.1-0.1c0,0-0.1,0-0.1,0c0.1-0.1,0.1-0.1-0.1-0.2h0
	C246.2,2.4,246.2,2.4,246.2,2.3z M247,2.6l0.7,0V2.5L247,2.6L247,2.6z M233.4,11.7c-0.1-0.1-0.2-0.1,0.1-0.1c0.2,0,0.2-0.1,0.2-0.1
	c-0.6,0-0.7-0.1-1.3-0.1c-0.5,0-0.6,0-0.5,0c0.1,0,0.6,0,1,0c-0.1,0-0.2,0.1-0.6,0.1c-1,0.1-0.4,0.2-0.4,0.2
	C232.3,11.7,232.9,11.7,233.4,11.7z M232.2,13.3l0.7,0l0-0.1L232.2,13.3L232.2,13.3z M232.3,12c-0.2,0-0.5,0-0.7,0.1
	c-0.2,0.1,0.1,0.1,0.1,0.2c0,0,0,0,0.1,0c0.7,0,1-0.1,1.4-0.2C232.9,12,232.5,12,232.3,12z M237.5,1.1
	C237.6,1.1,237.6,1.1,237.5,1.1c1-0.1,1.4-0.2,1.2-0.4c-1.1,0-1.1,0.1-1,0.2C237.8,1,237.8,1,237.5,1.1z M247,2.2l0,0.2c0,0,0,0,0,0
	c0.4,0,1.3,0,1.2-0.2h0C247.8,2.2,247.3,2.2,247,2.2z M243.6,10c0.8,0,0.5-0.1,0-0.2c-0.2,0-0.8,0-0.2,0.1
	C243.4,9.9,243.5,10,243.6,10z M436.7,11.2c-0.1,0-0.2-0.1-0.3-0.1l-0.8,0c0,0-0.1,0,0,0.1C435.8,11.2,435.8,11.2,436.7,11.2z
	 M219.5,11.1c-0.3,0-0.7,0.1-0.2,0.1c0.1,0,0.3,0,0.4,0.1c1,0,2.4,0,3.5,0c0-0.1,0.2-0.1,0.8-0.1c0.2,0,0.4,0.1,0.6,0.1
	c0,0,0,0,0.1,0c0.7,0.1,1.3,0.1,2.1,0.2c-0.5-0.1-0.3-0.1,0.2-0.2c-0.3,0-0.7,0-1.1,0c1.2,0,1.3,0,1.6,0c-0.4-0.2-0.6-0.3-0.6-0.5
	c-1.2-0.1-1.5-0.1-2.4-0.1c-0.1-0.1,0.2-0.2-0.1-0.2c0,0-0.3,0-0.8,0c0,0-0.1,0,0-0.1c0.2,0,0.6,0,0.8,0c0.1,0,0,0,0-0.1
	c-0.3,0-0.6,0-0.9,0c-0.8,0-1.4,0-2.2,0c-0.1,0-0.2,0.1-0.3,0.1c-0.4,0.2-0.2,0.4-0.6,0.5C220.1,11,219.6,11.1,219.5,11.1z
	 M218.4,5.3L218.4,5.3l-0.8-0.1l0,0.1L218.4,5.3z M209.4,7.1c1.6,0,2.3-0.1,2.2-0.3c-0.7,0-1,0-1.2-0.1c-1.2,0-1.2,0.2-1.1,0.4
	C209.3,7.1,209.4,7.1,209.4,7.1z M231.3,13.1c0.1,0,0.2,0,0.3,0c0.1,0,0-0.1-0.2-0.1C231.2,12.9,231.2,13,231.3,13.1z M231.1,12.6
	L231.1,12.6c1,0,1.1,0,0.8-0.1c-0.1,0-0.2,0-0.5,0C231,12.5,231,12.6,231.1,12.6C231.1,12.6,231.1,12.6,231.1,12.6z M231.6,11.9
	L231.6,11.9c0.5,0,1,0,1.5,0c-0.1-0.1-0.6-0.2-1.6-0.2C231.5,11.8,231.5,11.9,231.6,11.9C231.6,11.9,231.6,11.9,231.6,11.9z"/>
      </clipPath>
    </defs>
</svg>
