<svg class="bg_frontera" xmlns="http://www.w3.org/2000/svg" style="position: absolute; width: 0; height: 0; pointer-events: none; z-index: -9999;" aria-hidden="true">
    <defs>
      <clipPath id="bg_frontera_uno_medio">
<path d="M928.6,13.5C928.6,13.5,928.6,13.5,928.6,13.5c1,0,2-0.1,3-0.1c0.1,0,0.2,0,0.1,0.1l0,0
	C931.5,13.6,929.1,13.6,928.6,13.5z M936.9,12.6c1.1,0.1,3.9,0,3.8-0.2C938.5,12.4,936.9,12.4,936.9,12.6
	C936.8,12.6,936.9,12.6,936.9,12.6z M1721.1,17.9c0.5-0.1-0.1-0.1-1.5-0.2c0,0,0,0,0,0C1719.9,17.9,1720.5,17.9,1721.1,17.9z
	 M933.9,12.5C933.9,12.6,933.9,12.6,933.9,12.5c2,0.1,2.3,0,1.9-0.1c-0.2,0-0.5-0.1-0.9-0.1v0C934,12.4,934,12.4,933.9,12.5z
	 M1546.4,17.8c-0.1-0.2-0.1-0.2-1.1-0.3c-0.7,0-1.1,0.1-0.9,0.1C1544.5,17.7,1544.9,17.8,1546.4,17.8z M1556.5,17.8
	c0-0.1-0.3-0.1-1-0.1c-3-0.1-3.8,0.2-3.7,0.2c0.6,0.1,1.3,0.2,4,0.3C1555.9,18.1,1556.5,18,1556.5,17.8z M1726.6,18.1
	c0.2,0,0.6-0.1,0.2-0.2c-0.6-0.1-1.8-0.1-2.5-0.1c-0.1,0-0.2,0.1-0.1,0.2C1724.5,18.1,1726,18.1,1726.6,18.1z M1537.7,18
	C1537.7,18,1537.8,18,1537.7,18c0.8,0.1,2,0.1,2.5,0.1c0.1,0,0.3-0.1,0.4-0.2c-0.5,0-0.9,0-1.3,0C1537.2,17.9,1537.7,18,1537.7,18
	L1537.7,18z M1645.7,18c0,0,0.1-0.1-1.3-0.1c-0.7,0-1.3,0-1.8,0c0,0,0,0,0.1,0.1C1643.1,18,1644.7,18,1645.7,18z M1039.1,16.1
	c0.2,0,0.7,0.1,1.1,0.1c1.1,0,2.2,0,3.3,0c0.3-0.2-3-0.1-4.3-0.2C1039,16,1038.8,16,1039.1,16.1z M904.9,16.8l-0.1,0l0,0L904.9,16.8
	c0.1,0,0.2,0,0.3,0c1.9,0,1.8,0.2,1.7,0.2l0,0c1.1,0,2-0.1,3.1,0c0.2-0.1-0.3-0.1-1.2-0.1c-1,0-1.3-0.1-1-0.2
	C906,16.6,905.5,16.7,904.9,16.8z M906.2,15.6c-0.1,0-0.3,0-0.4,0c-0.9,0-0.9,0-1.2,0.2c0.5,0,1.1,0,1.6,0L906.2,15.6z M900.8,15.9
	L900.8,15.9c0.2-0.1,0.6-0.2,0.8-0.2l-2.2,0c-0.2,0-0.4,0.1-0.1,0.1C899.7,15.8,900.6,15.9,900.8,15.9z M902.8,17
	c0.6,0.1,2,0,2.4-0.1c0.3-0.1-0.1-0.1-0.3-0.1c-0.5,0.1-0.9,0.1-2.3,0.1C902.5,16.9,902.5,17,902.8,17z M915.1,15.9c0,0,0.1,0,0.1,0
	c0.9,0.1,2.5,0.1,4,0.1c3.4,0,3.8,0,4,0c2.2-0.2-2-0.3-3.8-0.3C914.2,15.6,915.1,15.8,915.1,15.9z M1806.5,17.2c0.4,0,0.8,0,1.2,0
	l0.7,0c0.3-0.1-0.3-0.1-0.6-0.1C1807,17.1,1806.3,17.1,1806.5,17.2C1806.5,17.2,1806.5,17.2,1806.5,17.2z M854.6,15.1
	c0,0,0.1,0,0.1,0c1.4,0.1,1.4,0,1.4-0.1c0-0.1,0.1-0.1,0.8-0.1c-0.2,0-0.4-0.1-0.8-0.1C854.6,14.9,854.3,15.1,854.6,15.1z M859.9,14
	c0.8,0,1,0,1.3,0c-0.1,0-0.3-0.1-0.6-0.1c-0.2,0-0.4,0-1.2,0c-0.4,0-0.9,0.1-1.2,0c0,0,0,0,0.1,0C858.6,14,859.1,14,859.9,14z
	 M853.8,15.7c1,0,1.6,0.1,2.7,0.1c0.2-0.1,0.5-0.1,1.5-0.1c1.1,0,1.6,0,2.4-0.1c1.1,0,1.5,0.1,1.8,0.1c0.5,0.1,0.7,0.1,1.9,0.1
	c-0.3,0-0.7-0.1-1-0.1c0.5,0,1.2-0.1,1.8-0.1c0.2-0.1-0.2-0.1-1.5-0.2c-1.3-0.1-1.5-0.1-1.2-0.2c-0.4,0-1.1,0-1.5,0v0
	c-1.1,0-1.1,0.2-0.5,0.2c0.4,0,0.8,0,1.1,0c-0.2,0.1-0.6,0.1-0.8,0.2c-1.1-0.1-4.1-0.1-4.1-0.1c-0.8,0-1.1,0-1.9,0
	c0.1,0.1,0.1,0.1-0.4,0.2c-0.6,0.1-0.6,0.1-0.4,0.2C853.7,15.7,853.8,15.7,853.8,15.7z M926,15.2c0.2-0.1-0.1-0.1-0.7-0.1
	c-0.5,0-0.7,0-0.7-0.1c-1.1,0-0.8,0.1-0.7,0.1C924.2,15.2,925,15.2,926,15.2z M860.9,16.4c0.6,0.1,1.7,0.1,2.1,0.1
	c0.4-0.1-0.4-0.1-2.2-0.1C860.8,16.4,860.8,16.4,860.9,16.4z M876.4,18L876.4,18c-0.1,0-0.1,0-0.1,0L876.4,18
	C876.5,18,876.4,18,876.4,18z M866.2,16.1C866.2,16.1,866.2,16.1,866.2,16.1c1,0.1,1.6,0.1,1.7,0c0,0,0.2-0.1-0.5-0.1
	C867,16.1,866.6,16.1,866.2,16.1z M914.4,15.7L914.4,15.7c-0.7,0-1.6,0-2.2,0l-0.1,0.2c0,0,0,0,0,0
	C913.5,15.9,914.4,15.9,914.4,15.7z M1814.8,17.2L1814.8,17.2c0,0,0.2-0.1-0.8-0.1c-0.5,0-0.9,0-1.4,0c0,0,0,0,0,0.1
	C1812.8,17.3,1813.8,17.3,1814.8,17.2z M1986.9,18.7c0.2,0,0.2-0.1,0.1-0.1c-0.1,0-0.2,0-0.3,0c-0.6,0-1,0-1.6,0c-0.1,0-0.1,0-0.1,0
	C1985.2,18.7,1986.4,18.8,1986.9,18.7z M928,14.3c-0.3,0-0.4-0.1-0.6-0.1c5.2,0,10.6,0,15.7,0.1c3-0.1,3.9-0.1,6.3,0
	c1.7-0.1,4-0.1,5.8-0.1c-4.4-0.4-4.4-0.4-4.2-0.5c-1.2,0.2-2.3,0.2-4.7,0.3c-3.4-0.2-3.4-0.2-4-0.2c0.1,0,0.2,0,0.3-0.1
	c0.8,0,1.7-0.1,2.5-0.1c-4.2,0-4.8,0-6,0.1c-1.8,0-3.5,0-5.3-0.1c-0.1-0.6-0.1-0.6,2.1-0.8c1.6,0.1,6.4,0.3,10.6-0.1
	c-0.2,0-0.4,0-0.6,0c-0.6,0-0.6,0-2.1,0.1c-1.4,0-2.6-0.3-2.3-0.4c1.3,0,1.3,0,6.8,0.1c2.5-0.1,4.1-0.2,7.7-0.3
	c2.3,0.2,5.8,0.2,8.6,0.3c2.6-0.2,2.6-0.2,3.8-0.2c0.1,0,0.3,0.1,0.4,0.1c-0.1,0-0.3,0-0.4,0.1c-0.6,0-0.7,0-0.9,0
	c-0.3,0-0.6,0.1-0.6,0.1c2.1,0.1,3.8-0.2,5.9,0c-0.6,0-1.4,0-1.9,0.1c1,0.2,1,0.2,0.9,0.3c-1.3,0-1.3,0-2.7,0.1
	c-1.3-0.1-3.8-0.3-3.8-0.3c0.7,0.2-0.5,0.4,1.1,0.5c7.4-0.3,13.7,0.3,20.8,0.2c1.9,0.2,1.9,0.2,2.7,0.2c0.4-0.1,0.8-0.2,1.2-0.2
	c1.5,0.3,12.7,0.2,14.6,0.1c-0.2-0.2-2.3-0.3-3.1-0.5c5.9-0.3,13,0.1,18.9-0.2c3.4,0.3,7.4,0.1,8.2,0c0.1,0,0.2,0,0.2,0
	c2.6,0.2,7.7-0.1,9.9,0.3c1-0.2,2.6-0.1,3-0.1c-0.3,0-6.9,0.5-12.7,0.2c-0.2,0.1-2.2,0.1-3,0.2c0.2,0,0.3,0,0.5,0
	c4.1-0.1,6.1,0.3,10,0.3c-1,0.4-6.1,0.2-8.6,0.1c-7.2-0.2-9-0.2-11.3-0.1c-0.8-0.1-0.8-0.1-0.5-0.3c2.2,0,4.9,0.2,6.7,0
	c-3.7-0.2-3.7-0.2-4.2-0.3c-12,0-12,0-12.7,0.1c0.4,0,0.4,0,1.2,0.4c2.2,0,4.5,0,6.7,0c-0.3,0.3-4,0.3-5.6,0.5
	c1.3,0,4.2-0.2,9.4,0.2c1.7-0.1,1.7-0.1,5.9,0c-0.8,0.2-1,0.2-6.4,0.2c0,0-0.1,0.1-0.1,0.1c2.3,0.2,7.1,0.1,7.3,0.5
	c-0.7,0-1.4,0-2.1-0.1c-0.3,0-0.6,0.1-0.6,0.1c1.6,0.1,3.3,0.1,7.9,0c-0.7-0.1-0.8-0.1-0.5-0.4c0.4,0,0.9,0,1.3,0
	c0.1,0.1-0.5,0.1-0.6,0.2c0.3,0,0.7,0,1.1,0c2.2-0.2,5.4,0,7.8-0.1c-0.4,0-1,0-1.4,0c0-0.1,1.1-0.1,1.4-0.2c-3.4,0-3.4,0-5.2-0.2
	c-0.1,0-0.3,0.1-0.4,0.1c-3.1-0.1-3.8-0.1-3.5-0.3c5.2,0,7.3,0.1,8.7,0.3c1.4-0.3,4-0.1,4.5,0c0.3,0.1,0.3,0.1-1.1,0.2
	c1.8,0,3,0.2,4.3,0.3l0.1-0.1c0.7,0,1.5,0,2.2,0c0,0.1-0.8,0.2-1.6,0.2c0.8,0.1,1.8,0.1,3,0.1c0.2,0,0.4,0,0.6,0
	c-1.4-0.2-1.4-0.2-1.3-0.3c18.6,0,18.6,0,20,0c0.3,0.4,0.3,0.4,2.4,0.5c0.7,0,3.1,0,4.3,0.2c-3.1,0.1-6,0.2-9.2,0.2
	c-0.6,0-1.4-0.1-2.1-0.1l-0.8,0.1c-1.3,0-2.4-0.1-3.8-0.1c-0.2,0-0.4,0-0.6,0.1c4.8,0.3,4.8,0.3,5.4,0.4c-4.1-0.1-7.6-0.1-11.1,0.1
	c-0.9-0.1-1.3-0.1-3.1-0.2c-1.1,0.1-2.5,0.1-3.5,0.2c2.6,0.1,3.2,0.1,4.2,0.2c0,0,0.1-0.1,0.4-0.1c1.1,0,1.5,0,1.8,0.1
	c-0.3,0-0.7,0-0.9,0c-0.1,0-0.1,0.1,0.1,0.1c-2.2,0-2.7,0-5.7-0.2c0.4,0,1-0.1,1.5-0.1c-8.3-0.4-8.3-0.4-8.9-0.4
	c-2.3,0.1-9.1,0.2-11.6,0.1c-0.4,0-0.9,0-1.3-0.1c-0.7,0-1.7,0.1-2.4,0.1l-2.9,0l-0.8,0.1c-2.9,0-5.1-0.2-7.9-0.2c0,0,0,0-0.1,0
	c0,0,0,0,0,0.1c-3,0.2-6.2,0-8.1-0.1c-1.3,0.1-3,0.1-4.5,0.1c-0.8,0.2,10.9,0.3,16,0.2c5.1,0.2,17-0.3,16,0.3c-2.2-0.1-2.7,0-4,0
	c-0.2,0.1,0,0.1,0.3,0.2c-2,0-2.3-0.2-4.3-0.3c-2.4,0.1-6.9,0.2-11-0.1c-0.2,0.2-0.4,0.3-5.6,0.4c-0.1,0-0.2,0.1-0.3,0.1l0.2,0.1
	c-0.5,0-1.1-0.1-1.6-0.1c0,0,0,0-0.1,0c-1.9-0.1-4-0.1-6-0.1c1.4,0,3.2,0,4.5,0.1c-1.1,0-2.2,0.1-3.4,0.1h0c-0.4,0-0.8-0.1-1.2-0.1
	c-0.1,0-0.1,0-0.2,0c0,0,0,0,0,0c-1.7-0.2-2.8-0.2-5-0.3c-0.1,0-0.2,0-0.3,0.1c-0.5,0-1.2,0-1.7,0c-0.2,0-0.6,0.1-1,0.1
	c-2.1-0.1-2.1-0.1-2.8-0.1c-0.2,0-0.6,0.1-0.8,0.1c-1.8,0-4.3,0-6.1-0.1l0-0.1l-3,0l0,0.1l-33.3-0.4c4.6-0.2,4.6-0.2,4.8-0.2
	c-3.3,0-5.7-0.2-9-0.2c0,0,0.1-0.1,0.1-0.1c3.6-0.2,7.6-0.1,11.4-0.1c-1.4-0.2-2.2-0.3-0.4-0.4c0.1,0,0.3,0,0.4,0.1
	c0.2,0,0.6,0,0.8,0c0.1,0,0.3,0,0.4-0.1c-14.7,0-14.7,0-15.1,0C936.5,14.4,930.6,14.7,928,14.3z M1052.3,14.6
	c0.5,0.1,0.5,0.1,0.2,0.1c-0.1,0-0.2,0,0,0.1c0.3,0,0.3,0.1,0.9,0.1c1.1,0,1.3-0.1,2.4-0.1h0C1055.8,14.7,1054.7,14.6,1052.3,14.6z
	 M1048.7,15.3c0,0-0.1,0.1-0.1,0.1c0,0,0.1,0,0.1,0c0.2,0,0.4,0,0.7,0c1.6,0,1.4-0.1,0.9-0.1C1050,15.3,1049.4,15.2,1048.7,15.3
	L1048.7,15.3z M1044.2,15.4l1.4,0l0.1-0.1l-1.4,0L1044.2,15.4z M1036,15.4c0.1,0,0.1,0,0.2,0c0.3,0,0.7,0,0.9,0
	c1.2,0,2.6-0.1,2.1-0.2c-1.2,0-1.6,0.1-2.5,0.1c0,0-0.1,0-0.1,0C1036.4,15.4,1036.2,15.4,1036,15.4z M1025.7,15.3
	C1025.7,15.3,1025.7,15.3,1025.7,15.3c0.2,0,0.6,0.1,2,0.1c1,0,2.2,0,1.7-0.1v0C1027.7,15.3,1026.7,15.3,1025.7,15.3z M1018.4,15.3
	c0.6,0.1,2.3,0.1,2.7,0.2c0.7-0.1,1.2-0.1,3.8-0.1c-0.1-0.1-0.4-0.1-0.5-0.2c-1.1,0-2.2,0-3.4,0c-0.8,0-1.7,0-2.5-0.1h0
	C1018.4,15.2,1018.1,15.2,1018.4,15.3z M1028.3,13.4c0,0,0.1,0,0.1,0c0.2,0,0.4,0,0.7,0c1.7,0,1.3-0.1,0.9-0.1c-0.3,0-0.8-0.1-1.6,0
	C1028.4,13.3,1028.3,13.4,1028.3,13.4z M999.4,15.8c-0.3,0-0.9-0.1-1.2-0.1c-0.3,0-0.3,0-0.2-0.1c-2.2,0-3.2,0-4.2,0
	c-1.6,0-2.3,0-4.6,0c-0.5,0.1-1,0.1-2.3,0.1c0.1,0,0.2,0,0.3,0c1.9,0.1,4.3,0.1,5.1,0.2h0C994.5,15.9,996.7,15.9,999.4,15.8z
	 M995.1,15.2c0.4,0.1,1,0.1,1.4,0.1c-0.1,0-0.8-0.1-1.2-0.1c0.1-0.1-0.3-0.1-0.4-0.1C994.9,15.2,994.9,15.2,995.1,15.2z
	 M1008.2,15.1c-3.2,0-6.5,0-9.7,0c0.1,0,0.2,0,0.3,0.1c1.4,0.2,3.5,0.2,4.6,0.2l0.1-0.2c0.2,0.1,0.5,0.1,0.7,0.2
	c0.4,0,1.1-0.1,2.6,0c2.2,0,4.2,0.1,6.3,0.1c1.7,0,2.6,0,3.6,0c0.1-0.2,0.1-0.2,0.3-0.3c-1,0-2,0-3,0c-0.7,0-0.7,0-0.8,0.1
	C1012.2,15.2,1010.7,15.1,1008.2,15.1z M1001.9,14.7c0.1,0,0.4,0.1,1,0.1c0.5,0,0.8,0,1,0c-0.4,0-0.9-0.1-1.3-0.1h0
	C1001.5,14.7,1001.8,14.7,1001.9,14.7z M997.6,14.3c0.1,0,0.2,0,0.3,0c0.8,0,1.8,0.1,2.3,0.1c4.2,0,7.5-0.1,8.7-0.1
	c0.1-0.1,0.3-0.1,0.2-0.2c0,0-0.4,0-0.9-0.1c-0.1,0-0.2,0-0.2,0c-0.6,0-0.9,0.1-1.5,0.1c-0.3,0-0.3,0-1.2,0c-0.5,0-2.2-0.1-4.2-0.1
	c-1.4,0-2.3,0-3.2,0C997.8,14.1,997.7,14.2,997.6,14.3z M988.7,13.5c0.1,0,0.2,0.1,0.3,0.1c0.6,0.1,1.4,0.1,4.7,0.1
	c1.9,0,2.7,0,3.6,0.1c-0.2-0.1-0.6-0.2-2.1-0.3c-0.4,0-1.2,0-1.8,0C991.8,13.4,990.3,13.5,988.7,13.5z M985,15.1
	c0,0.1-0.1,0.2-0.2,0.2c0.1,0,0.3,0,0.4,0c1.4,0.1,2.2,0.1,2.7,0.1c2,0,3.5,0,5.1-0.1h0C992.3,15,986.9,15,985,15.1z M980.6,14.2
	c0,0,0.1,0,0.1,0c0.3,0,0.6,0,0.9,0c1.9,0,2.7,0,3.4,0c-0.2-0.2-3-0.3-4.1-0.2l0,0C980.4,14.1,980.5,14.1,980.6,14.2z M971.2,15.7
	l-1.5,0l-0.1,0.1l1.5,0L971.2,15.7z M976.4,15.7C976.4,15.7,976.4,15.7,976.4,15.7c0.5,0.1,0.8,0.1,1,0.1v0c0.7,0,1.1-0.1,0.8-0.1
	C978,15.6,977.6,15.6,976.4,15.7z M969.8,13.5l0.7,0.1l1.5,0c0,0,0.1-0.1,0.1-0.2C971.4,13.5,970.7,13.5,969.8,13.5z M969.6,15.1
	c0.4,0.1,1.2,0.1,2.7,0.1c0.1,0,0.4-0.2-2.8-0.2C969.4,15,969.3,15.1,969.6,15.1z M965.1,13.5c0,0,0.1,0,0.2,0c1.4,0,1.5,0,1.3-0.1
	c-0.1-0.1-0.1-0.1,0.4-0.1c-0.7,0-1.5-0.1-2.2-0.1C964.7,13.4,964.6,13.5,965.1,13.5z M939.5,13.1c-0.9,0-1.6,0-2.4,0l1.4,0.1h0
	C938.8,13.2,939.2,13.1,939.5,13.1z M950.5,13.3c0,0-0.8,0-1.4,0c-0.3,0-0.5,0.1-0.9,0.1c0,0,0.1,0,0.1,0c0.2,0,0.6,0,0.7,0
	C950.9,13.5,950.9,13.4,950.5,13.3z M955.4,15.6c-0.2,0-0.1,0.1,0,0.1c0,0,0,0,0,0c0.1,0,0.2,0,0.3,0v0c2.5,0,4.8-0.1,7.2-0.1
	C961.8,15.5,956.2,15.4,955.4,15.6z M955.7,13.6c0.3-0.1,0.6-0.1,0.8-0.2c-0.5,0-1.5-0.1-3.7-0.1c0.1,0,0.2,0.1,0.4,0.1
	C953.7,13.5,954.8,13.6,955.7,13.6z M954.5,15.2l3-0.1c-0.4-0.1-1-0.1-1.4-0.2C954.6,14.9,954.5,15,954.5,15.2z M1025.5,13.9
	c0,0,0,0,0.1,0.1c0.3,0.1,0.3,0.1,4.2,0.1c-0.1-0.1-0.7-0.1-2.6-0.2C1026.6,14,1026.1,14,1025.5,13.9z M854.9,16.3l-1.5,0l-0.1,0.1
	l1.5,0L854.9,16.3z M928.3,15.1c-0.1,0-0.2,0.1,0.2,0.1c0.5,0.1,0.5,0.1,5.6,0.1h0c-0.1-0.2-0.8-0.2-2.5-0.3
	C930.7,15.1,930.1,15.1,928.3,15.1z M843.6,18l-1.4,0l0,0.1l1.4,0L843.6,18z M1016.9,16.5L1016.9,16.5c0.1,0,0.3,0.1,0.4,0.1
	c1.5,0,0.9-0.1,0.2-0.2C1016.8,16.3,1016.1,16.3,1016.9,16.5z M1067.4,16.2c0,0-0.1,0-0.1,0c-0.4-0.1-1-0.1-2.2-0.1
	c-1.7,0-3.5,0-5.2,0c-0.9,0.1-1.1,0.1-1.1,0.3c0.3,0,0.6-0.1,0.9-0.1c0.8,0.1,1.5,0.1,3,0.1c1.2,0,1.8,0,1.9,0.1c0.9,0,1.7,0,2.9,0
	C1067.6,16.3,1067.6,16.2,1067.4,16.2z M938.8,15c-0.1,0-0.2,0-0.3,0c0,0-0.1,0-0.1,0c-1.3,0-2.1,0.1-1.9,0.3c0.1,0,0.1,0,0.2,0
	c1.8,0,2.9,0.1,3.4,0.1c0.1,0,0.2,0,0.8,0c0.7,0,0.8-0.1,0.8-0.1c-0.7,0-1.3,0-1.6-0.1C939.3,15.2,939.3,15.1,938.8,15z
	 M1061.2,17.7c-0.3,0-1.4,0.1-0.6,0.2c0.7,0.1,3.5,0.3,6.1,0.2c-0.3-0.2-1.2-0.2-2.9-0.2C1062.2,17.8,1061.5,17.8,1061.2,17.7z
	 M1055.3,16.1c-0.1,0-0.2,0.1,0.1,0.1c0.3,0.1,1.1,0.1,2.7,0.1c0.2-0.1-0.4-0.2-0.6-0.2c-0.1,0-0.2,0-0.4,0
	C1056.5,16,1056,16.1,1055.3,16.1z M1624.5,18.6L1624.5,18.6c1.3,0,0.9-0.1,0.2-0.2c-0.2,0-0.4,0-0.6,0c-0.2,0-0.3,0-0.5,0
	c-0.1,0-0.2,0-0.2,0.1c0,0,0,0,0,0C1623.7,18.5,1624.5,18.6,1624.5,18.6z M1155.9,14.3c2.6,0,2.9-0.1,3.1-0.2c-1.9,0-2.9,0-3.2,0.2
	C1155.8,14.3,1155.9,14.3,1155.9,14.3z M1533,18L1533,18C1533.1,18,1533.1,18,1533,18c0.5,0,1.3,0,0.9-0.2c-0.1,0-0.2,0-0.3,0
	c-0.9,0-0.9,0.1-1.9,0.1c0,0,0,0,0.1,0C1531.9,18,1532.3,18,1533,18z M1173.1,15.5L1173.1,15.5c0,0,0.1-0.1,0.2-0.1l-0.6-0.1
	c-0.8,0-1.1,0.1-0.8,0.1C1172.1,15.5,1172.6,15.5,1173.1,15.5z M1120.8,13.3L1120.8,13.3c0.5,0.1,3.8,0.2,4-0.1
	c1.8,0.1,7.5,0.2,10.2,0.1c1.1,0.1,1.1,0.1,8.6,0.2c-0.2,0.1-1.8,0.2-1.9,0.4c0.7,0,1.5,0,2.2,0c1.7,0-0.3-0.2,1-0.3
	c1,0.1,1.4,0.2,2.5,0.2c0.7,0,1.4,0,1.7,0c0-0.1-2.5-0.2-2.5-0.3c10.1,0,10.1,0,12.5-0.1c-2.2-0.2-5.6-0.3-8.2-0.4
	c-2.5,0.2-9.6,0.2-10-0.2c-3.2,0-6.5-0.1-9.7,0c0.6,0.1,1.9,0.1,2.4,0.2c0.5,0.1,0.4,0.1,0,0.2c-1,0-1.4-0.1-2.2-0.1
	c-1.5-0.2-2.7-0.1-2.7,0c-1.3-0.1-2-0.2-3.3-0.2c-0.6,0-0.9,0-1.7,0c-0.1,0.1-0.2,0.1-0.2,0.2c-1.5,0-2.6-0.1-4.1-0.1
	c-1,0-1.1,0.1-1.1,0.2c0,0,0.1,0,0.1,0C1119.3,13.2,1120.1,13.2,1120.8,13.3z M1226,13.3L1226,13.3c0,0-0.5,0.1-1.1,0.1
	c0.1,0,0.2,0,0.3,0c1.7,0,3.9,0,6.9,0.1c0.4-0.1,0.5-0.1,0.5-0.1c0,0,0-0.1,0.5-0.1c-0.6,0-1.4-0.1-3.1-0.1c-1.6,0-3.4,0-5.4,0
	c0.2,0.1,0.4,0.1,1.1,0.2C1225.8,13.3,1225.9,13.3,1226,13.3z M1222.6,15.1c0.6,0.1,3.5,0.2,4,0.1h0c0.6-0.1-1.8-0.1-1.8-0.1
	c-1.7,0-1.6-0.1-1.6-0.1C1223,15.1,1222.3,15.1,1222.6,15.1z M1227.8,15.2L1227.8,15.2c1,0.1,2.5,0.1,4.5,0.2c0.4,0,1,0,1.3-0.1
	c0.3,0,0.3,0,0.4-0.1c1.5,0.1,2.6,0.2,5.4,0.1c2.5,0,3.5,0,4.9,0.2c1.8,0,3.2-0.1,5.1-0.1c0.1-0.1,0.3-0.1,0.4-0.2
	c-1.5-0.1-2.6-0.1-4.7-0.1c-3.6-0.1-7.4,0-10.8-0.2c-1.7,0.1-3.3,0.2-6.9,0.2C1227.5,15.1,1227.7,15.2,1227.8,15.2z M1115.5,14.7
	L1115.5,14.7c0.1,0-0.3-0.1-0.5-0.1l-1.6,0c0,0,0.1,0,0.1,0C1114,14.8,1115.3,14.8,1115.5,14.7z M1113.8,9.2L1113.8,9.2
	c0.1,0,0.2,0,0.3,0c0.5,0,1,0,1.5,0l-0.5-0.2C1114.2,9.1,1113.4,9.1,1113.8,9.2z M1111.6,13.3L1111.6,13.3c0.2,0,0-0.1-0.1-0.1
	c-0.1,0-0.1,0-0.2,0c-0.7,0-1.3,0-2,0c0,0,0,0,0,0C1109.6,13.3,1111.2,13.3,1111.6,13.3z M1115.2,13.2c1.3,0,1.5-0.1,1.6-0.1
	C1115.7,13.1,1115.3,13.1,1115.2,13.2C1115.2,13.2,1115.2,13.2,1115.2,13.2z M939.3,11.7L939.3,11.7c1.9,0,1.9,0,4.2,0.1l3-0.1
	c1.4,0,2.7,0,4.1,0.1c2.3,0,4.1-0.2,6.5-0.1c-0.2-0.1-2.2-0.1-2.9-0.2c0.6-0.1,2.3,0,3.2-0.1c0,0,0,0,0,0c0,0,0,0,0,0
	c-0.1,0-0.3,0-0.6,0c-0.9,0-1.4,0-1.6,0c-0.2-0.1,0-0.1,1-0.1c0.8,0,1.5,0,1.5,0c-0.1-0.1-1.1-0.2-1.6-0.2c-1.5,0-2.9,0-4.3,0
	c-1.4,0-2.7-0.1-4.1-0.1c-2.5-0.1-3.9-0.1-5.6-0.1c-1.1,0.2-1.9,0.2-3.4,0.4c-0.7,0-0.7,0-0.6-0.1c0.1-0.1,0.1-0.1-1.5-0.1
	c0.5,0.5,0.5,0.5-2.6,0.5c0.1,0,0.1,0,0.3,0.1C934.9,11.8,937.3,11.8,939.3,11.7z M1116.6,14.7c0.4,0.1,1.6,0.1,2.7,0.1
	c0-0.1-0.7-0.1-2.1-0.2c-0.2,0-0.4,0-0.5,0C1116.5,14.6,1116.4,14.6,1116.6,14.7z M1379.4,15.1c0.1-0.1,0.3-0.2,0.4-0.2
	c0.4,0.1,0.8,0.1,1.8,0.1c1.6,0,3.3,0,4.9,0.1c-0.3-0.2-0.7-0.2-2.6-0.1c-0.4-0.1-1-0.2-2.2-0.2c-2.4,0-4.3,0.1-3.7,0.2
	C1378.3,15.1,1379,15.1,1379.4,15.1z M1316.5,14.5c0.5,0.1,2.4,0.2,3.1,0.1h0c0.2,0,0.2-0.1,0.3-0.1c-1.2,0-2.3,0-3.5-0.1
	C1316.4,14.5,1316.4,14.5,1316.5,14.5z M1310.1,14.7c0.7,0.2,2.7,0.2,4.2,0.2c-1.2-0.2-1.4-0.2-1.5-0.4c-0.8,0-2,0-2.8,0
	C1309.9,14.5,1309.7,14.6,1310.1,14.7z M1264.9,15.2L1264.9,15.2c-0.1,0.1-1,0.1-1,0.2c0.1,0,0.2,0,0.2,0c1.2,0,2.2,0,3.2,0
	c0.8,0,1.1,0,1.6,0c-0.4-0.1-1.3-0.1-3.3-0.2C1265.3,15.2,1265.1,15.2,1264.9,15.2z M843.2,19c-0.1,0.1,0.5,0.2,0.8,0.2
	c0,0,0.1,0,0.1,0c0.6,0,2.1-0.1,2.1,0c0,0-0.5,0-0.8,0.1c0.2,0.1,1.5,0,1.9,0c0.5-0.1,0.5-0.1,0.5-0.1C846.1,19.1,844.8,19,843.2,19
	z M1284.7,15.4c-0.2,0-0.4-0.1-0.6-0.1l-1.3,0c-0.1,0-0.2,0-0.1,0.1C1282.9,15.4,1282.9,15.4,1284.7,15.4z M1268.6,16.1
	c0.8,0,1.4,0,2.2,0c-0.1,0-0.3-0.1-0.5-0.1C1269.2,16,1268.7,16,1268.6,16.1C1268.6,16.1,1268.6,16.1,1268.6,16.1z M1245,13.6
	c0.3,0,0.6,0,0.9,0h0c2.5,0,2.5,0,13.5,0.1c1.7-0.2,1.7-0.2,3.2-0.1c-0.8-0.1-1-0.2-2.6-0.2c0.8-0.1,1.6-0.2,3.3-0.2
	c-0.9,0-1.7,0-2.6-0.1c-3.5-0.1-3.5-0.1-16.3,0C1244.5,13.3,1244.9,13.4,1245,13.6z M1242.8,13.3c-0.2,0-0.2,0-0.6,0
	c-1.4,0-2,0-2,0.2c0,0,0.1,0,0.1,0C1242.1,13.6,1243.3,13.4,1242.8,13.3z M1360.8,14.8l-2,0l-0.2,0.1l2.1,0L1360.8,14.8z
	 M1263.2,13.5C1263.2,13.5,1263.2,13.5,1263.2,13.5c1.3,0,2.1,0,2.4,0c0.9,0,1.4-0.1,2.7,0c0.1-0.1-1.3-0.2-2.7-0.2
	C1263.7,13.3,1262.9,13.4,1263.2,13.5z M1251.3,15.1c0.3,0.1,0.4,0.1,0.6,0.2c0,0,0.1,0.1,0.3,0.1c0.3,0.1,0.9,0.1,1.4,0.1
	c1.6-0.1,1.7-0.1,3.1,0c1.1,0.1,1.8,0.1,2.5,0.1c0.6-0.1,0.8-0.1,0.6-0.2c0,0-0.1,0-0.1,0c-0.3,0-0.7-0.1-2.3-0.2h0
	C1255.5,15.2,1253.3,15.2,1251.3,15.1z M1375.4,15.7c0.4-0.1-0.4-0.1-1.4-0.1c-0.1,0-0.3,0-0.4,0c0,0,0.1,0,0.1,0
	C1374,15.7,1374.7,15.7,1375.4,15.7z M1379.8,15.6c-0.1,0-0.2,0-0.3,0c-1.3,0-1.9,0-2.1,0.1c0,0,0,0,0,0
	C1378.6,15.8,1379.6,15.8,1379.8,15.6z M1471,17.4c0.3,0.1,1.1,0.1,1.7,0.1c-0.2-0.1-0.2-0.1-0.2-0.1c0.1-0.1,0-0.1-0.6-0.2
	C1470.8,17.2,1470.7,17.4,1471,17.4z M1052.3,13.1c-0.1,0-0.2,0-0.3,0c-1.1,0-1.1,0.1-1.2,0.2c0.4,0,1,0,1.4,0L1052.3,13.1z
	 M1024.8,12.3c0.1,0,0.7,0.1,2.3,0c-0.6,0-1.1-0.1-1.6-0.1C1024.5,12.2,1024.7,12.3,1024.8,12.3z M1047,14.2c1.2,0,1.9,0,2.6,0
	c0.7,0,1,0,1.7,0c0,0-1.3-0.1-2.4-0.1c-1.6,0-2.3,0-2,0.1C1046.8,14.2,1046.9,14.2,1047,14.2z M1047.4,13.6c0.2,0,0.2,0,2.9,0
	c-0.2-0.1-0.8-0.1-2.1-0.1c-0.3,0-0.5,0-0.8,0C1047.3,13.6,1047.1,13.6,1047.4,13.6z M1061.6,14.2c2,0,3.9,0,5.9-0.1
	c-1.9-0.1-3.4-0.1-5.2-0.2c-2.2,0-3.7,0-5.1,0.1c0.1,0,0.4,0,0.5,0C1059.7,14.2,1060.9,14.2,1061.6,14.2z M1056.2,13.8
	c1.8-0.1,0-0.3-1.6-0.3c-1.1,0-1.6,0-1.9,0.1c0,0,0.1,0,0.1,0C1055,13.7,1055,13.7,1056.2,13.8z M1059.6,13.2L1059.6,13.2
	c0.2,0,0.4,0,0.5,0c2,0,4.2,0.1,6.2,0c0.4-0.2-2.3-0.2-3.3-0.3c-1.9,0.1-2.2,0.1-3.8,0.1c-0.4,0.1-0.3,0.1,0.2,0.2
	C1059.8,13.2,1059.8,13.2,1059.6,13.2z M959.1,11.3c0.3,0,0.9,0.1,1.2,0c0.2,0,0.1-0.1,0.1-0.1C958.6,11.2,959.1,11.3,959.1,11.3z
	 M941.8,10.1l-1.5,0l-0.1,0.1l1.5,0L941.8,10.1z M938,10.1c0.3-0.1-0.1-0.2-0.7-0.3c-0.2,0-0.4-0.1-0.6-0.1c-1.9,0-1.5,0.1-1.2,0.2
	C935.8,9.9,936.5,10.1,938,10.1z M989.1,12.9c1.2,0,1.6,0,2.9-0.1c1.1-0.1,1.7-0.1,2.4,0.1c0.8-0.1,1.8-0.1,2.5-0.1
	c0.7-0.1,0.7-0.1,0.7-0.2c-0.3,0-0.7,0-1,0c-1.8,0-2.7,0-3.6,0.1c-2.9-0.1-4.7,0-4.3,0.1C988.8,12.9,988.9,12.9,989.1,12.9z
	 M1018.9,12.4c2.2,0,3.1,0,3-0.2c-0.3,0-0.5,0-0.8,0c-1.7,0-2.5,0-2.3,0.2C1018.8,12.4,1018.8,12.4,1018.9,12.4z M982.7,12.5
	c-0.2,0-0.3,0-0.5,0c-0.5,0-0.8,0-0.9,0.1c-0.1,0-0.1,0,0.6,0.1L982.7,12.5z M1113.6,17.9c-1,0-1.7,0-2.3,0c-1,0-1.7-0.1-2.6-0.1
	c-0.2,0-0.7,0.1-0.4,0.1c0.3,0,0.9,0,1.5,0.1c0.5,0,1,0,1.5,0c0,0-0.1,0.1-0.1,0.1l3.6,0.1L1113.6,17.9z M1161.4,16.4
	c-1,0-1.5,0-2.4,0c0.1,0,0.1,0,0.2,0.1c0.4,0.1,1.1,0.1,2.1,0.1c1.3,0,2,0,3.2,0.1c0.4-0.2,0.3-0.3-0.4-0.4
	C1163.1,16.4,1162.5,16.4,1161.4,16.4z M1103,19.8c-1.1,0-1.8-0.1-2.8-0.1c-2.8,0-5.4,0.1-8.1,0.1c0.3,0.1,0.5,0.1,0.1,0.3
	c-0.3,0.1-0.5,0.2,0.1,0.3c0.3,0,0.9,0.1,1.4,0.1c-0.3,0-0.6-0.1-0.5-0.1c0.3-0.1,1-0.1,1.5-0.1c1,0,1,0.1,2.1,0.1
	c1,0,1.3-0.1,1.2-0.1c-0.2-0.1-1.1-0.1-1.1-0.2c0,0,0.2,0,1.2,0c2.2,0,2.2,0,2.5,0c0,0,0.1,0.1,0.2,0.1c0.1,0,0.1,0,0.2,0
	c0.5,0.1,0.6,0.1,1.5,0.2c0.9-0.1,0.7-0.1,0.1-0.2C1101.8,19.9,1102.2,19.8,1103,19.8z M1168.2,15.7L1168.2,15.7
	c-2.3,0-4.7,0-6.8-0.1c-1.2,0.2-1.2,0.2-3.1,0.1c0.1,0,0.1,0.1,0.4,0.1c0.3,0,0.8,0.1,1.3,0.1c1.2,0.1,1.7,0.1,2.1,0.2
	c0.8,0,0.9,0,1.1-0.1c0,0,0.2-0.1,0.7-0.1c0.1,0,0.5,0,1.6,0.1c1,0.1,1.5,0.1,2.6,0.1c0.3,0,0.7-0.1,1-0.2l1.3,0
	C1169.8,15.8,1169.3,15.8,1168.2,15.7z M1167.5,17.2C1167.5,17.2,1167.5,17.2,1167.5,17.2c2.3,0.1,2.6-0.1,2-0.2c-0.1,0-0.2,0-0.3,0
	v0C1167,16.9,1167.1,16.9,1167.5,17.2z M1168.2,16.2C1168.2,16.2,1168.2,16.2,1168.2,16.2c-0.3-0.1-0.9-0.1-1.2-0.1
	c-0.1,0-0.3,0-0.4,0c-0.1,0-0.2,0.1,0,0.1c0.2,0,0.7,0.1,1.2,0.1c0.9,0,1.6,0.1,1.2,0.2c0.3-0.1,0.7-0.2,1-0.2
	C1168.8,16.3,1168.5,16.3,1168.2,16.2z M1150.3,15.7l-1.3,0l-0.1,0.1l1.3,0L1150.3,15.7z M1148.6,16.6L1148.6,16.6
	c0.1,0,0.2,0,0.3,0c1.1,0,2.3,0,3.4,0c0.8,0,1.4,0,2,0.1c-0.1-0.2-1.8-0.3-2.4-0.4l-0.9,0.2c0,0.1-0.3,0.1-1.2,0
	C1148.7,16.5,1148.2,16.5,1148.6,16.6z M1156,15.8c0.2-0.1-0.6-0.1-0.9-0.1c-0.9,0-1.8,0-1.4,0.1c0,0,0,0,0.1,0c0.4,0,1,0,1.5,0
	L1156,15.8z M1113.6,17.6L1113.6,17.6c-0.2,0-0.3,0-0.5,0c0,0,0.1,0,0.1,0c0.4,0.1,1.2,0.1,1.9,0.1
	C1115.5,17.7,1114.9,17.7,1113.6,17.6z M1108.6,18c-1.5,0-2.3,0-3-0.1c0,0,0,0.1,0.2,0.1c0.3,0.1,1,0.1,1.4,0.1
	c1.5,0.1,3.1,0.1,4.6,0.1C1111.4,18.1,1110.7,18,1108.6,18z M1143.7,15.8c2,0,2.3-0.1,2.3-0.1c-0.6,0-1.5,0-2.2,0L1143.7,15.8
	C1143.6,15.8,1143.7,15.8,1143.7,15.8z M1081.6,15.2c-0.5,0-1.2,0-1.8,0c2.1-0.3,8.8-0.1,8.9-0.1c0.4,0,1-0.1,1.5-0.1
	c2.5-0.1,5.2,0.1,7.6-0.1c4.7-0.2,4.7-0.2,6.8-0.2c0.7,0.1,1.2,0.1,3.4,0.2c0.3,0,0.6-0.1,0.9-0.1c-0.1-0.1-1.5-0.1-1.2-0.3
	c1.6,0,1.9,0.1,2.3,0.2c0.3,0.1,0.7,0.2,10.5,0.1c-1.4-0.3,1-0.6,0.3-0.9c6,0.1,7.6-0.1,12.4-0.6c0.1,0,0.2,0,0.3,0
	c2.1,0.1,4.7,0.1,6.9,0.2c-0.2,0.1-1.7,0.2-1.9,0.3c3.2,0.1,4.6,0.2,3.7,0.5c1,0,1,0,3.2-0.2c-1.5,0-2.2-0.1-2-0.2
	c4.4,0.1,7.8,0.1,10.8,0.1c0.1,0.2,1.5,0.4,2.3,0.6c0.7,0,0.7,0,4.1,0.2c1.7-0.1,1.7-0.1,4.5,0.1c0.7,0,0.7,0,4.9,0
	c-0.2,0.1-0.1,0.1,0.9,0.2c-0.2,0.1-0.6,0.2-2.5,0.3c-1.9,0-3.5,0-5.3-0.1c-2.4,0-4.6,0.1-7,0.1c-2.2,0-3.9-0.1-6.1-0.1
	c-2.8,0-5.4,0.1-8.2,0.1c-1.3,0-1.9,0-2.7,0c-0.6,0-1.4,0.1-2,0.1c1.5,0.1,4.9,0,5.5,0.3c-8.4-0.1-10.7,0.3-9.5,0.4
	c1,0.1,1,0.1,0.7,0.2c-0.4,0-10.4-0.5-15.9-0.1c-1.5-0.2-3.7-0.3-4.6-0.5c0.6,0,1.3,0,2,0c0.2,0,0.4-0.1,0.4-0.1
	c-2.1-0.1-1.4-0.3-4-0.4c-2.6,0-5.5,0-7.4,0c-1.9,0-4.2,0-6.2,0c-1.6,0-4.1,0-6.4-0.1h0C1088.5,15.1,1085,15.3,1081.6,15.2z
	 M1153.2,15.2c0.1,0,0.2,0,0.3,0c0.8,0,1.5,0.1,1.9,0.1c1.5,0,2.6,0,4.5,0C1159,15.1,1153.5,14.8,1153.2,15.2z M1149.1,15.2
	c0.3,0.1,0.4,0.1,1,0.1c0.8,0,1.6,0,2.3,0c-0.5-0.1-0.6-0.2-1.4-0.3c-0.6-0.1-1.4-0.1-1.9-0.1C1150.3,15,1148.6,15.1,1149.1,15.2z
	 M1137.2,14.9c-1.7,0-2.3,0.1-2.9,0.2c0.1,0,0.2,0,0.3,0c1.7,0.2,3.4,0.1,5.2,0.1c2.8-0.1,4.4-0.1,6.7,0.1c0.1-0.1,0.2-0.2,0.3-0.2
	c-0.9,0-1.5,0-2.5,0C1141.9,15,1139.8,14.9,1137.2,14.9z M1133.5,14.5c0.3,0.1,1.4,0.2,3.3,0.2c0,0,0.1,0,0.1,0c0,0-0.1,0-0.2-0.1
	c0,0-0.1,0-0.1,0c-0.7-0.2-1.2-0.2-2.2-0.3C1133.1,14.4,1133.2,14.4,1133.5,14.5z M1121.4,15.5l1.3,0l0.1-0.1l-1.4,0L1121.4,15.5z
	 M867.2,13.6c-0.1,0-0.3,0-0.4-0.1c-1,0-1.6,0.1-1.6,0.2c0,0,0.1,0,0.2,0C867.3,13.8,867.7,13.7,867.2,13.6z M141.6,8.1
	c0.1,0,0.3,0,0.5,0c0.1,0,0.2,0,0.2,0c-0.4,0-1,0-1.3,0.1c3.3,0,3.2,0.3,5.6,0.3c-0.1-0.1-0.2-0.1-0.5-0.2c-0.1,0-0.2-0.1-0.1-0.1
	c0.2,0,0.7,0,2,0c0.5,0,1.7,0.1,1.7,0.3c0,0.2-1.4,0.5-1.6,0.7c0,0.1,0.2,0.2,0.6,0.2c-1.4,0-1.5,0-1.5-0.1c-0.1-0.1-0.1-0.1-1-0.1
	c0,0,0,0-0.2,0c-0.4,0-0.8,0-1.2,0l0,0c0,0-0.1,0-0.1,0c-0.3,0-0.6,0-0.9,0l-5.1,0c-0.1-0.1-0.3-0.1-0.6-0.2
	c1.8-0.1,1.6-0.2,0.9-0.5C138.4,8.2,138.5,8.1,141.6,8.1z M146,8.8l0.1,0.1l1.6,0l-0.1-0.1L146,8.8z M149.4,9.6
	c-0.7,0-0.9,0.1-0.4,0.2c0.6,0.1,1.2,0,1.5,0c0,0-0.1-0.1-0.1-0.1l-0.9-0.1C149.5,9.6,149.5,9.6,149.4,9.6z M166,14
	c0.6,0,0.9,0,1.6,0c0.4-0.1-1.2-0.2-2.4-0.2c-0.9,0-1.9,0-1.6,0.2c0,0,0.1,0,0.1,0C164.7,13.9,165.1,13.9,166,14z M168.7,12.4
	L168.7,12.4c-2.3,0-2.5,0-2.7,0c-0.1,0-0.1-0.1,0-0.1c0.1,0,0.1-0.1,0.1-0.1c-0.7,0-1.2,0-1.7,0.1c-0.7,0.1-0.7,0.2-1.2,0.3
	c0.1,0,0.1,0,0.2,0C164.8,12.6,168.9,12.6,168.7,12.4z M167.3,14.6c0,0-0.1-0.1-0.1-0.1l-0.9-0.1c-0.9,0-1,0.1-0.5,0.2
	C166.1,14.6,166.6,14.7,167.3,14.6z M162.7,14.1c-1.2,0-1.3,0-1.7,0c0.6,0.1,2.3,0.2,2.3,0.3c0.5-0.1,0.7-0.1,1.4-0.1
	c1.2-0.1,2.6,0,3.9-0.1c0.2,0.1,0.2,0.1-0.1,0.1c-0.6,0-0.8,0-1.4,0c-0.1,0-0.1,0,0,0.1c1.1,0,1.5,0.2,3.2,0.1c0,0.2,0,0.2,2.7,0.5
	c-3.1,0-4.8-0.1-7.2-0.3c-2.2,0.3-2.2,0.3-0.4,0.4c-0.4,0-0.4,0-3.2-0.1c-0.3-0.1-0.4-0.1,0.7-0.1c1.1,0,1,0,0.7-0.1
	c-0.5-0.1-2.8-0.1-3.3-0.3c-0.1,0-0.1,0-0.2-0.1c-0.1,0,0.1-0.1,0.1-0.1c-1.7,0.1-1.5,0.2,0,0.4c1.5,0.2,1.3,0.3-0.9,0.4
	c0.2,0.1,0.5,0.1,1.1,0.2c1.1,0.1,2.7,0.1,3.8,0.1c0.2,0,0.3,0,0.4,0.1c5.4,0,12.5,0.1,17.9,0.1c-4.2-0.3-2.1-0.4-1.4-0.4h0
	c-0.1,0-0.2,0-0.6-0.1c-0.5,0-2.3,0-1.6,0.2c-1-0.1-1.4-0.1-2.3-0.4c-1-0.3-1.2-0.3-2.3-0.5c0.7,0,1.6,0,2.3,0c0-0.4-2-0.5-3.6-0.5
	c-1.1,0-1.5,0-2,0.1c-0.5,0.1-0.8,0.1-2.6,0.1C166.3,14.2,164.8,14.1,162.7,14.1z M96.6,12c-2.1-0.4,1.1-0.7,7.1-0.8c0,0,0,0,0,0
	c0,0,0,0.1,0.4,0.1c0.3,0,0.6,0,0.8,0c0.9,0,1.8,0,2.1,0c0.5,0.1,0.3,0.1-1.1,0.1c-2,0-2,0-2,0.1c0.5,0,1.2,0.1,1.7,0.1
	c0.2-0.1,0.6-0.1,1.9-0.1c1.2,0,1.6,0,1.9,0c-0.4,0.1-0.1,0.1,0.9,0.2c0.9,0,1,0.1,0.9,0.1c-1,0-1.6,0-2.3-0.1
	c-0.5-0.1-0.6-0.1-1-0.1c-0.2,0-0.4,0.1-0.6,0.1c1.3,0,1.3,0,3.3,0.3c-0.3,0.1-0.3,0.1-1.1,0.1c-1.1,0-2.3,0-3.4,0.1
	c-1.1-0.2-1.4-0.2-6.3,0c0.2-0.3-1.6-0.4-2.6-0.3c-0.2,0-0.3,0-0.5,0C96.7,12,96.6,12,96.6,12L96.6,12z M103.3,11.8
	c0.1,0.1,0.3,0.2,1,0.2c1,0.1,2.6,0.1,3.3,0.1C107.7,11.8,105,11.8,103.3,11.8z M157.5,13.6c-0.5,0-0.8,0-1.2,0c0.1,0,0.1,0,0.1,0
	c1.5,0.1,3.3,0.2,6.3,0.2C161.8,13.8,159.4,13.7,157.5,13.6z M130,11.1c0.1,0-0.5-0.1-0.7-0.1c-0.7,0-0.9,0.1-0.7,0.1
	C128.9,11.1,129.9,11.1,130,11.1z M129.6,11.4l1.6,0l-0.1-0.2l-2.3,0L129.6,11.4z M108.5,11.2L108.5,11.2c0.4,0,1,0,1.4,0
	c-1-0.1-0.8-0.1,0.1-0.1c1.1,0,1.6-0.1,1.2-0.2c-0.1,0-0.3,0-0.4,0C109.1,10.9,107.7,11.1,108.5,11.2z M132,10.8c0.4,0,1,0.1,1.2,0
	c0.1,0-0.1-0.1-0.1-0.1C131.2,10.7,131.9,10.8,132,10.8z M143,15c0.4,0,0.8-0.1,1.2-0.1c-0.1-0.2-0.5-0.3-1.9-0.4
	c0.8-0.3,0.9-0.4,0.6-0.9c-0.2-0.3,1.3-0.6,1.1-0.8c-0.2-0.3-2.3-0.5-2.4-0.7c0,0,0-0.1,0-0.1c0.1-0.1,0.5-0.2,0.6-0.3
	c0,0-0.5-0.1-0.7-0.1c-1.6-0.2,0.2-0.5,1.1-0.6c-0.5,0-1.2,0-1.5-0.1c-0.1,0-0.2,0-0.3-0.1c-0.4-0.1,0.4-0.2,0-0.2
	c-0.5-0.1-1.9-0.1-2.4-0.2c-0.1,0-0.1,0-0.2,0c-0.8-0.3,0.9-0.7,0.6-1c1.5,0,3.5,0,5.1,0c-1,0-1.1,0-1.5,0.1c0.7,0,1.7,0.1,2.4,0.1
	c-1.9,0-2.2,0.1-2.2,0.2c2.2,0.6,2.2,0.6,3.5,0.6c0.5,0.1-0.8,0.2,0.5,0.3c1,0.1,2.7,0.1,4.3,0c1.9,0.4,2.1,0.5,5.2,0.6
	c-1,0.3,3.9,0.7-1,0.9c3.6,0.2,5.2,0.5,8.4,0.7c0,0,0.1,0.1,0.1,0.1c1.9,0,1.9,0,2.3,0c-0.1,0-0.3,0-0.5,0c-0.3,0.2,1.5,0.3,0,0.5
	c-0.3-0.1-0.3-0.1-0.7-0.1c-1,0-1.3,0.1-2.9,0.3c-3.1,0-4.4-0.1-5.8-0.3c-0.4,0-0.4,0-2.7,0.1c0.1,0.2,2.3,0.3,2.4,0.4
	c-2.5,0.1-4.6,0.2-7.3,0.2c-0.4,0.1-0.4,0.3,2.3,0.4c-0.7,0.4,0,0.5,3.3,1.2c-5.7,0-13.3-0.1-18.9-0.1c0.2,0,0.3-0.1,0.3-0.1
	c-1.5-0.1-3.3,0-4.8-0.1c-0.1,0.1,0.6,0.2,1.5,0.2l0,0c-0.1,0,0.2,0,0.3,0l-3.6,0c1.1-0.4,1.2-0.6,0.5-0.9c3,0,1.7,0.4,1.1,0.4
	c0.6,0,1.1,0,1.7,0c0.1,0,0.2,0,0.3,0c-0.1,0,0,0.1,0.1,0.1c2.6,0.1,2.7-0.2,4.9-0.3C139.3,14.9,141,15,143,15z M159.8,13
	c0,0,0.1,0,0.1,0c0.6,0.1,1.5,0.1,2.3,0.1C162.4,13,161.3,13,159.8,13z M146.4,11.4c0.2,0.2,0.6,0.5,0.9,0.7
	c0.2,0.1-0.3,0.3-0.1,0.4c0.2,0.1,0.8,0.2,0.9,0.2c0.5,0,1.5,0.1,3.6,0.1c2.4-0.5-0.2-1,1.3-1.4c-3.4-0.2-4.5-0.3-5.8-0.5
	c0.2,0,0.4,0,0.6,0c0.6,0,0.8,0,0.9-0.1c-0.7,0-1.7,0-2.5,0v0C146.2,10.9,146.2,11.1,146.4,11.4z M132.3,11.7c0.1,0,0-0.1-0.1-0.1
	c-1.9,0-1.2,0.1-1.1,0.1C131.4,11.7,132.1,11.7,132.3,11.7z M138.9,7.5c0.8,0.1,1.1,0.2,0.9,0.3c0.1,0,0.1,0,0.2,0
	c1.8-0.1,1.2-0.4-1.2-0.5C137.8,7.3,138.1,7.4,138.9,7.5L138.9,7.5z M178.2,9.6c0.6,0.1,1.5,0.1,2,0.1c0.1-0.1,0-0.1-0.6-0.2
	c-0.5-0.1-0.6-0.1-0.4-0.2C177.6,9.3,177.3,9.5,178.2,9.6z M230.1,7.5c0.1,0,0-0.1,0-0.1c-2,0-1.4,0.1-1.3,0.1h0
	C229.2,7.5,229.9,7.6,230.1,7.5z M225.8,8.1c2.5,0,2.3-0.1,2.2-0.2c-0.1,0-0.2,0-0.3,0C226.2,7.9,225.6,7.9,225.8,8.1
	C225.7,8.1,225.8,8.1,225.8,8.1z M225.9,8.4C225.9,8.4,225.9,8.4,225.9,8.4c1.9,0,2.6-0.1,2.2-0.2C226.2,8.2,225.8,8.3,225.9,8.4z
	 M227.3,7.8c0.3,0,0.9,0,1.8,0c0.6,0,1.2,0,1.9,0c0,0-0.1-0.1-1.8-0.1c-1.1,0-1.7,0-2,0C227.2,7.7,227.2,7.7,227.3,7.8L227.3,7.8z
	 M229,15.9c0,0,0,0.1,0.2,0.1c0.4,0.1,1.1,0.1,3.1,0.1c-1.2,0-1.6-0.2-3.1-0.2C229.1,15.9,229,15.9,229,15.9z M230.8,7.2
	C230.8,7.2,230.8,7.2,230.8,7.2c0.1-0.1-0.1-0.1-0.5-0.2c-0.4-0.1-0.4-0.1-0.3-0.1c0.3,0,1.2,0,1.6-0.1c0.2,0,0-0.1-0.1-0.1
	c0,0-0.1,0-0.1,0c-2.7,0-3.4,0.3-2.4,0.4C229.5,7.2,230.3,7.2,230.8,7.2z M235.2,6.2L235.2,6.2c0,0,0-0.1,0-0.1l-0.9-0.1
	c-0.8,0-1.1,0.1-0.6,0.2C233.9,6.2,234.4,6.3,235.2,6.2z M207.5,15.9c0.1,0,0.2,0,0.3,0l0,0c-0.2,0-0.3,0-0.5,0
	C207.4,15.9,207.4,15.9,207.5,15.9z M205.6,14.9c1.1,0.2,1.1,0.2,0.4,0.4c0.8,0,1.6,0.1,2.5,0c0.2,0,0.3,0,0.6-0.1
	c2.1,0,1.1,0.3,3.4,0.3c-0.3,0.1-0.4,0.1-1.8,0.1c-2.9,0-2,0.1-1.7,0.2c0.6,0,1.2,0,1.7,0c0.4,0,1.1,0.1-0.5,0.2c1.6,0,3.6,0,5.2,0
	c-0.1,0-0.2-0.1-0.3-0.1c2.1-0.1,2.1-0.1,2.4-0.8c-1.7,0-1.7,0-2,0c0-0.1-0.4-0.1-0.5-0.2c0,0,0,0,0.3-0.1c1.2-0.1,2.4,0,3.6,0
	c-0.4-0.3-0.4-0.5,0.1-0.8c-1.5,0-3.1,0-4.7,0c-0.9,0.1-0.4,0.3-2.7,0.4c-2.4-0.1-0.6-0.5-3.5-0.4c0.4-0.2,1.8-0.3,2.1-0.5
	c0.1-0.1-0.6-0.1-1-0.2c-0.5,0-1.1-0.1-1.6-0.1c-1.2,0.1,0.4,0.2,0.3,0.4c-0.2,0.1-1.8,0.2-2.1,0.3c0,0-0.1,0-0.1,0
	c-0.2,0.2,0.5,0.3,0.1,0.4C204.5,14.7,204.5,14.7,205.6,14.9z M208.3,15.9l-0.5,0l0,0C208,15.9,208.2,15.9,208.3,15.9z M229,8.5
	c-0.1,0-0.4-0.1-1.2-0.1c-1.3,0-2.5,0-2.7,0.1c0.1,0,0.2,0.1,0.4,0.1C226.3,8.7,227.9,8.6,229,8.5z M211.2,12.8L211.2,12.8
	c-2.1,0-3,0.1-2.9,0.2c0.1,0,0.1,0,0.2,0C210.5,13,211,12.9,211.2,12.8z M217.9,13.7c0.9,0.1,3,0.2,3.3,0.1c0.5-0.1-2.7-0.1-3.2-0.2
	C217.9,13.7,217.4,13.7,217.9,13.7z M216.2,13.2L216.2,13.2c1.7,0,2.8-0.1,4.5-0.1c0.9-0.7,4-1.5,3.3-2.2c0.7,0,1.7-0.1,2.4-0.1
	c-0.7-0.2-0.6-0.2,0.5-0.5c1.2-0.3,1-0.4,0.4-0.6c0.5,0,1.1,0,1.6-0.1c-0.7-0.5-0.7-0.5-2.6-0.6c-1.4,0-2.4,0.1-3.9,0.1
	c2.6,0.1,2.5,0.3,4.2,0.4c-1,0-1.6,0.1-1.9,0.2c-0.4,0.2,0.1,0.3-0.1,0.5c-0.2,0.2-3.2,0.3-1.3,0.5c-2.4,0.2-2.4,0.2-3.8,0.2
	C216.5,11.9,215.8,12.4,216.2,13.2C216.1,13.2,216.1,13.2,216.2,13.2z M851.2,18.2c0.4-0.1,0.7-0.1,2.1,0c0.6,0,0.4-0.1-0.7-0.1
	c-1.6,0-3.6,0-3,0.1c0.2,0,0.4,0,0.7,0.1C850.7,18.2,850.8,18.2,851.2,18.2z M2000,22.3V30v4000H0V27.5c51.6,0.2,96.4,0.4,136.4,0.5
	C83.7,27.8,52,27.7,0,27.5v-6.1c23,0.1,46,0.2,65.7,0.2c0.3,0.1,1.2,0.3,2,0.4c0.7,0,1.5-0.1,2.2-0.1c-0.1-0.1-0.2-0.1-0.2-0.2
	c1.4,0,3.2-0.1,4.5-0.1l1.6,0c0.9,0,2.1,0,2.9,0c0.2-0.1-1.2-0.5-3.2-0.5c-0.3,0.1-0.9,0.1-1.5,0.2c-0.4,0-1-0.1-1.4-0.1
	c0.7-0.1,1.7-0.1,2.5-0.1c0,0,0-0.1,0-0.1c-2,0.1-2.1,0.1-3.7,0.1c-1.2-0.2-1.2-0.2,7-0.4c-0.8,0-1.7-0.1-2.3-0.1
	c0.8,0,1.9,0,2.8-0.1c-2.4-0.7-2.4-0.7-1.7-0.8c-1.8-0.2-1.8-0.2-1.8-0.3c4-0.1,4.8-0.2,1.9-0.9c3.8-0.5,1.1-1.6,1.1-1.7
	c0.6,0,1.5-0.1,2.2-0.1c-1.6-0.4,1.3-0.8,0-1.2c1.7,0,3.8,0,5.5,0c7.4,1.3,7.4,1.3,9.4,1.3c0.4-0.1,0.9-0.2,1.5-0.3
	c1.3,0,1.3,0,4.2,0.1c0.5,0.3,0.3,0.3-1.1,0.4c8.7,0.4,2.4,1.2,7.3,1.7l-1.4,0.2l-0.4,0.2c0.1,0.2,2.4,0.4,2.4,0.7
	c0,0.4-2.5,0.7-2.6,1c1.8,0,2.9,0.1,4.5,0.1c1.5-0.6-1.6-1.2,2-1.7c-3.2-0.4,1.2-0.8-2.9-1.2c0.3,0,0.8,0,1.1,0
	c0.6,0,1.4,0.1,2.1,0.1c0.2,0,0.7-0.1,0.7-0.1c0.2-0.2-2.4-0.3-2.3-0.6c0.1-0.2,2.8-0.4,2.7-0.6c0.3,0,0.8,0,1.1,0
	c4,0.3,4,0.3,5.1,0.3c-0.3-0.3,0.7-0.7,0.4-1c1-0.1,2.2-0.1,2.9-0.2c-0.5-0.1-1.2-0.2-1.8-0.3c3.6,0.1,4.1,0.2,4.9,0.4
	c1.2-0.1,1.2-0.1,2.1-0.3c1.1,0,2.7,0,3.8,0c0.4,0.5,0.5,0.5,2.1,0.6c0.4,0,0.9,0,1.3,0c-1.9-0.4-1.9-0.4-0.8-0.5
	c5.7,0,13.4,0,19.1,0.1c1.1,0.2,0.2,0.5,2.3,0.7c-2.8,0.7,1.1,1.4-1,2.1c0.8,0,0.8,0,4,0.2c4.9-0.7,3-1.5,5.7-2.2
	c-0.7-0.1-1.7-0.2-2.6-0.2c0.7,0,1.6-0.1,2.2-0.1c-1-0.1-1-0.1,0-0.4c5.3,0,12.5,0,17.8,0c0.4,0,0.8,0,1.2,0.1c0.2,0,0.6,0,0.8,0
	l0.9-0.1c0.3-0.1-1.7-0.2-1.8-0.3c-0.1-0.1,1.5-0.1,1.4-0.2c0-0.1-1.3-0.2-0.9-0.3c1.2-0.3,1.2-0.3,1.1-0.4c-0.4-0.4-4-0.7-3.2-1.1
	c0.2-0.1,1.3-0.2,1.4-0.3c0-0.1-0.7-0.1-1-0.2c0.1-0.1,0.3-0.1,1.4-0.2c-0.2-0.1-1.6-0.1-1.8-0.2c-0.2-0.2,1.6-0.3,1.5-0.5
	c-0.3-0.5-3.5-0.9-2.7-1.4c0.4,0,1,0.1,1.4,0.1c2.2,0.3,3.1,0.9,3.1,0.9c-0.3,0.1-1.6,0.1-1.4,0.1c0.2,0.1,1.8,0.1,2.3,0.2
	c1.7,0.3,0.4,0.6,1.8,0.8c0.4,0.1,1.4,0.1,1.6,0.2c0.5,0.2-0.2,0.3,0.4,0.5c0.5,0.1,2.1,0.2,2.6,0.4c0.4,0.1-0.1,0.2,0.3,0.4
	c1,0.4,5.1,0.7,3.9,1.1c2.5,0.1,3.4,0.1,4.4,0.4c1.1,0.3,1.7,0.4,5,0.6c1.4-0.2,1.3-0.2-0.4-0.5c0.8,0,1.9,0,2.8,0h0.1
	c2,0,4.6,0,6.7,0c1.4,0.8-1.6,1.6-1.8,2.4c0,0.2,1.5,0.3,2.4,0.3c1.8-0.1,3.3-0.2,5-0.3c-1.5-0.3,2.2-0.5,1.7-0.8
	c0.7,0,1.5-0.1,2.2-0.1c-0.1-0.4,0.8-0.6,4.1-0.7c-0.3-0.1-0.6-0.1-0.6-0.2c1.5,0,1.5,0,4.5,0.1c-0.4,0-0.9,0-1.3,0
	c1,0.3,3,0.7,3,0.7c3-0.7,3-0.7,3.4-1c0.7,0,1.6-0.1,2-0.1c7.6,0,17.7,0,25.3,0c0,0,0.7,1.4-3.4,1.8l0.8,0.1c-0.7,0-1.6,0.1-2.2,0.1
	c-0.3,0.5,1.9,0.7,6.3,0.5c0.3,0,0.7,0,0.9-0.1c-0.4-0.1-1-0.2-1.6-0.2c0.4,0,0.4,0,4.9,0.1c1.6-0.4,3-0.9,4.9-1.3
	c2.8,0,3.2,0,7.1,0.2c1.3,0.5-4.3,1.1,1.3,1.6c-0.7,0-1.6,0.1-2.1,0.1c0.4,0,1,0.1,1.4,0.1c1.5-0.1,1.5-0.2,0.5-0.5
	c0.8,0,1.9,0,2.8,0c1.2-0.1,1.2-0.1,0-0.4c1.2,0,1.2,0,5.4-0.1c0.2-0.1,1-0.3,1.3-0.4c1.4,0,2.7,0.1,4,0.1c0.3,0,0.8,0,1.1-0.1
	c-0.2-0.1-0.8-0.1-1.4-0.1c-0.4,0-0.9,0-1.3,0c-0.5,0-1.2,0-1.7-0.1c-0.7-0.2,1-0.4,1.1-0.6c2.3,0.1,3.7,0.2,5.6,0.3
	c1.1-0.1,1.3-0.2,0.1-0.3c0.3,0,0.8,0,1.1-0.1c0.6,0.6,1.4,1.5,2,2.1c-0.5-0.6-1.1-1.5-1.6-2.1c0.6,0,0.9,0,1.3,0
	c-1.9-0.2-0.3-0.4,1.2-0.4c0.2,0,0.4,0,0.5,0c2.2,0.1,2.4,0.2,2.9,0.3c-1.7,0-2.1,0-1.8,0.2c0.2,0.1,0.1,0.1-0.4,0.1
	c0-0.1-1.8-0.2-2.2-0.1c0,0-1.2,0.1,1.7,0.3c1.2,0.1,2.2,0.1,1.9,0.5c0,0-0.1,0.1-0.2,0.1c-0.3,0.1-0.3,0.1-2.1,0.5
	c-0.7,0.2,1.6,0.3-0.6,0.5c-0.1,0-0.4,0-0.5,0c0,0,0,0,0,0l0,0l0,0c0.4,0.1,0.5,0.1,0.1,0.1c0,0,0,0,0,0c-3.1,0.3,2.2,0.7-2.9,1
	c0.1,0,0.3,0.1,0.5,0.1c0.9,0,2.1,0,3,0c0.8,0.7,1.7,1.6,2.5,2.3l-2.2-2.3c0.4,0,0.9,0,1.4-0.1c-0.1-0.1-0.3-0.1-0.4-0.2
	c2.4-0.1,5.6-0.2,7.3-0.4c0.7-0.1,0-0.2,0.3-0.3c0.6-0.2,1.9-0.4,2.6-0.5c0.4-0.1,0.8-0.2,0.9-0.3c0.3-0.2-1.7-0.4-0.5-0.6
	c3.5-0.6,3.5-0.6,1.7-0.8c2.1,0,2.3-0.1,2.9-0.3c-1.7,0-1.7,0-2.3-0.1c0,0,0,0-0.1-0.1c1.3,0,1.7-0.1,2.7-0.2
	c2.4-0.4,1.8-0.8,4.3-1.2c-1.5-0.4,2-0.7,2.5-1.1c0.2-0.1-2.3-0.2-1.8-0.3c0.2-0.1,1-0.1,1.4-0.2c2.9-0.5,5-1,8.7-1.4
	c-0.2,0-0.4-0.1-0.3-0.2c0.1,0,0.1-0.1,0.2-0.1c0.4-0.1,2.5-0.2,3-0.3c0.6-0.2-0.7-0.4,0-0.6c0.1,0,0.3,0,0.4,0
	c1.4,0.1,3.2,0.1,4.7,0.1c-1,0.1-1.3,0.1-1.3,0.2c0,0.2,1.6,0.4,1.7,0.7c0.2,0.5-1.3,1-0.8,1.5c1.9,0,3.5,0.1,5.5,0.2
	c-0.2-0.1-0.2-0.1,0.9-0.2c0.5,0,1.2-0.1,1.2-0.1c0,0,0,0,0-0.1c-0.1-0.1-1.2-0.1-1.3-0.2c-0.3-0.2,1.1-0.4,0.2-0.6
	c1.4-0.1,1.7-0.1,2.8-0.3c1.2-0.2,1.2-0.4,2.2-0.7c2.5,0,4.6,0.2,7.1,0.2c0.6,0.2,1.3,0.4,3.7,0.4c0.3,0,0.4,0,0.4,0
	c0.1,0,0.3,0,0.5,0c-0.1-0.1-3.1-0.2-1.9-0.3c3.7-0.3,5.8-0.3,7.9-0.3c1.2,0.2-1.9,0.3-1.8,0.5c0.2,0,0.5,0,0.8,0
	c1.4,0.2,1.4,0.2,1.6,0.2c-0.3-0.1-0.2-0.1,1.2-0.2c0.5,0,1.6,0,3.2-0.7c0.1,0,0.2-0.1,0.3-0.1c0-0.1-1.2-0.2-1.2-0.3
	c0-0.1,2.7-0.2,1.3-0.4c0.3,0,0.6,0,0.9,0c-0.3,0-0.6,0-0.9,0c-0.2,0-0.4,0-0.7-0.1c0,0-0.1,0-0.1,0c5.9-0.1,3.8-1,3.8-1
	c-0.1,0-0.2,0-0.2-0.1c0.3-0.1,1.8-0.2,2.2-0.3c0.5-0.1-0.5-0.3,0.3-0.4c0.8-0.2,1.3-0.2,4.3-0.5c0.2,0,0.4,0.1,0.6,0.1
	c2.5,0.4,1.8,0.6,1.2,0.8c1.2,0,0.7,0.2,2.3,0.2c-1.1,0.7-1.1,0.7-1.2,1.3h0c-0.1,0.9-0.2,1.2-1.7,1.7c0.5,0.1,1.2,0.1,1.7,0.2
	c-0.9,0.3-0.9,0.3,0.2,0.4c-1.2,0-1.7,0.1-1.4,0.4c0.3,0.3,0.2,0.5-1.3,0.8c0.9,0.1,0.9,0.1,1.7,0.3c-0.6,0.1-1.5,0.2-1.6,0.3
	c-0.5,0.4,1.5,0.7,0.6,1.1c-0.3,0.1-1.2,0.2-1.2,0.3c-0.1,0.1,1.2,0.8,1.2,0.8c0.3,0,0.8,0,1.1,0.1c0.1,0,0.3,0,0.4,0
	c2.1,0,4.9,0,6.9,0c0.5,0.4-2.9,0.8-1.6,1.3c-0.7,0-1.6,0-2.3,0c1.2,0.2,2.4,0.2,3.8,0.2c1,0.2,1,0.2,4.2,0.4c-0.2,0-0.5,0-0.7,0
	c-0.8,0.1-0.4,0.2-1.4,0.3c0.7,0,1.6,0.1,2.3,0.1c0.3,0.1,0.3,0.1-1.9,0.2c2,0.2,2,0.2,1.6,0.5c2.1,0.1,3.2,0.2,4.9,0.4
	c-1.7,0.1-3.1,1.7-0.9,1.9c-5.5,0.2-1.3,0.9-0.8,1c1-0.1,3.1-0.1,3.5-0.3c0.4-0.2-1.9-0.3-1.7-0.4c0.4,0,0.9,0,1.2,0
	c0.3,0.1,0.2,0.1,1,0.2c0.6-0.1,1.8,0,2.4-0.1c-1.2,0-4.8-0.2,0.3-0.6c-1.5-0.1-2.3-0.1-2.5-0.3c0.4,0,1-0.1,1.1-0.1
	c0,0,2.3-1.1,2.4-1.3c3.3,0.2,2.8,0.6,4.4,0.9c-2.2,0.1-2.6,0.2-2.8,0.3c-0.3,0.1,1.6,0.1,1.6,0.2c-1.5,0-1.5,0.1-1.2,0.3
	c-3,0.1-2.2,0.3-1,0.5c0.2,0,0.6,0.1,0.6,0.1c0.4,0.1-0.7,0.3-0.4,0.4c0.2,0.1,1.9,0.2,1.8,0.3c-2.8,0.4-0.5,0.6,1.3,0.8
	c-0.2,0-0.4,0.1-0.6,0.1c1,0,2.4,0,3.3,0c0.5,0,1.2,0,1.7,0.1c-2,0.1-4.3,0.1-6.4,0.2c-0.2,0-0.5,0.1-0.7,0.2c0.5,0,1.2,0,1.8,0
	c0.1,0,0.2,0.1,0.4,0.1c-0.6,0-1.5,0-2.1-0.1c-3.9,1.1-3.9,1.1,0.5,1.3c3.2-0.6,3.2-0.6,2.9-0.8c0.5,0,1.1,0,1.5-0.1
	c0.5,0,1.1,0,1.6,0c1.7-0.1,6.9-0.5,3.2-0.8c1,0,2.3,0.1,3.3,0.1c0.5-0.1,1.6-0.1,2.5-0.2c-0.2,0-0.4-0.1-0.6-0.2
	c0.8-0.1,1.5-0.2,1.7-0.3c0.9,0,2.2-0.1,3.3-0.1c0.3-0.1,0.5-0.2,0.2-0.3c35,0.2,77,0.5,117.6,0.8c-40.6-0.3-82.6-0.6-117.7-0.9
	c-0.5-0.2-1.9-0.7,2.4-1.5c-0.7-0.1-1.7-0.1-2.4-0.2c12.9-0.6-0.4-1.7,4.6-2.5l-0.8-0.2l1.3-0.2c-0.4,0-1-0.1-1.4-0.1
	c3.8-1.2,3.8-1.2,3.8-1.5c1.6,0,3.7,0,5.3,0c0.7,0.9,0.6,1.3-0.6,1.8c0.3,0,0.8,0.1,1.1,0.1c-0.1,0-0.2,0.1-0.3,0.1
	c1.6,0.3,2.5,0.6,4.4,0.9c3-0.1,3-0.1,4.9-0.7c0.7,0,1.6,0,2.3,0c1.2-0.4,2-1.7,2.2-2.1c36.7,0.3,85.5,0.6,122.2,0.9
	c2.1,0.3,3.8,0.6,6.1,0.8c0.8,0,1.9,0,2.7,0c-0.2,0-0.5,0.1-0.7,0.1c2.9,0.1,3.4,0.4,7,0.5c-7.1-1-7.1-1-7.2-1c-2.4,0-2.6,0-3.8-0.3
	c11.5,0.1,23.9,0.2,36.8,0.3c0,0,0,0,0,0c0.5,0.1,1.7,0.1,2.2,0.2c0.2,0-0.1,0.1-0.1,0.1c-0.1,0.1,0.6,0.2,0.9,0.2
	c0.9,0.1,0.9,0.2,0.9,0.3c0.2,0,0.5,0,0.7,0c1.2,0.1,2.1,0.2,2.9,0.3c2.7,0.3,4,0.4,7.2,0.5c0.9-0.2-0.8-0.3-0.9-0.5
	c-1.7,0-2.1-0.2-3.7-0.2c0.2-0.1,0.2-0.1-0.8-0.3c0,0-4.7-0.5-7-0.7c43.7,0.4,92.6,0.8,131.7,1.1v0l-171.2-1.5
	c-0.6-0.1-1.8-0.1-2.8-0.2c-0.3,0-0.6,0.1-0.8,0.1c-36.6-0.3-85.4-0.6-122-0.9c0.1-0.5-0.8-0.6-2.7-0.8c2.4-0.3,3-0.3,0.9-0.6
	c2.7-0.9,3.3-1.6,3.3-1.6c-0.8,0-1.7-0.1-2.1-0.2c0.6-0.1,1.3-0.1,1.7-0.2c-1.4-0.3-7.7-1.1-7.8-1.1c-0.4,0-1,0.1-1.4,0.1
	c-0.2,0.4,1,0.7,0.2,1.1c-1,0-2.1,0.1-2.7,0.2c0.5,0,1.1,0,1.6,0c0.3,0,0.8,0.1,1.1,0.1c-0.1,0-0.2,0.1-0.3,0.1c0.6,0,1.3,0,1.9,0
	c0.3,0,0.8-0.1,1.1-0.1c0.4,0,1,0.1,1.5,0.1c0.1,0,0.1,0.1,0.2,0.1c-1.5,0-2.9-0.1-4.5-0.1c-1.8,0.3-2.3,0.6-4.6,0.9l1,0.2
	c-1.3,0.4,2.2,0.9-1.8,1.3c0.5,0,1.1,0,1.5,0c-0.1,0-0.2,0.1-0.3,0.1c-0.5,0-1.2,0-1.7,0c-0.1,0-0.2,0.1-0.3,0.1l0,0c-0.1,0,0,0,0,0
	l-5.3,0c0.4-0.1,0.9-0.2,1-0.2c-0.4,0-0.9-0.1-1.3-0.1c1.8-0.5,1.8-0.5-0.6-0.7c-0.6,0.1-1.4,0.1-2.1,0.2c-1.7-0.1-4.1-0.3-1-0.9
	c3.1,0.7,7.1,0.2,7.1,0.2c0.7-0.2-1.2-0.4-1.8-0.6c0.7-0.1,1.6-0.2,2.2-0.2c-2.2-0.3,0-0.7-2.7-1.1c1.5-0.2,1.9-0.4,3.7-0.6
	c-1-0.3-0.5-0.6-2.6-0.8c1.3-0.1,2.3-0.2-0.1-0.6c0.4,0,1,0,1.4,0c0.1-0.2,0-0.3-0.6-0.7c19,0.1,44.4,0.3,63.5,0.4L444.7,11
	c-0.7-0.6-0.7-0.6,1.3-0.9c0.6-0.4-0.1-0.8,0.5-1.1c-0.7,0-1.6-0.1-2.4-0.1c-1.2,0-2.3,0.1-3.7,0.1c-1.2-0.2,0.4-0.5-1.1-0.7
	c2.1,0,2.6,0,4,0.1c-0.5,0-1.1,0-1.6,0c2.9,0.3,5,0,4.8,0c-0.3-0.1-2.2-0.1-2.5-0.2c-0.7-0.2,2.1-0.5,0-0.7c0.7,0,3.5-0.8-0.1-1.2
	l0-0.3c0,0,1.3-1.5,4-1.8c1.5,0.1,0.7,0.4,2.4,0.5c-0.8,0-1.6,0-2.4,0.1c0,0,0,0.1,0,0.1c2.4,0.1,3.4,0.4,6.3,0.3
	c-1.1,0.4-1.2,0.5,0.7,0.7c-3.6,0-2.2,0.3-1.8,0.3c1.5,0,1.5,0,2.6,0.1c0-0.2,0-0.3,0-0.5c1.8,0,1.8,0.2,3.2,0.2
	c-0.3-0.2-0.3-0.2,2.4-0.4c-1.1-0.2-2-0.2-4-0.4c0.3,0,0.7,0,1,0c0.2,0,0.4,0,0.6-0.1c-0.7-0.3-3.9-0.6-2.3-0.9
	c-1.6,0-1.6,0-3.3-0.3c-2.6,0-1-0.4,0.4-0.5c0.4,0,1,0,1.4-0.1c1,0.2-0.2,0.5,2.3,0.6c1.4,0,1.4,0,0.1-0.3c0.5,0,1.1-0.1,1.6-0.2
	c-0.7-0.9-0.7-0.9-7-1.1c-0.1-0.8-0.2-0.9-4.6-0.9c-0.2,0.1-0.2,0.1-0.2,0.3c0.7,0,1.8,0,2.5,0c-0.1,0.1-0.1,0.1-3.3,0.4
	c-0.7-0.2-0.7-0.2-1.4-1.3c5.7,0,5.7,0,6.4,0c-0.7-0.1-0.7-0.1,1-0.7c0.1,0,0.2,0.1,0.2,0.1c0.9,0.1,3.2,0.1,4.5,0.2
	c-0.3,0-0.6,0-0.8,0c-0.2,0-0.4,0-0.6,0.1c1.3,0.6,6.8,1.1,5.8,1.7c1.8,0.1,1.2,0.3,3.8,0.4c1.5,0.5,1.5,0.5,3.2,0.6
	c-0.8,0.3,2.5,0.6-1.5,0.8c1.5,0.1,2.5,0.3,3.8,0.4c-2.3,0-3,0.2-4.7,0.2c5,0.3,0.5,0.7,3.2,1c1.9,0.7,2.4,0.8,6.2,1
	c0.8,0,1-0.1,1.6-0.2c1.3,0.3,4.2,0.6,4.7,1c2.9,0.2,5,0.4,7.9,0.6c-0.1-0.4,3.5-0.8,3.1-1.2c-0.3-0.4,0-0.8-0.8-1.2
	c-0.7-0.3-0.8-0.4-1.5-0.5c5.6-0.2-0.4-0.8-0.7-0.8c-0.1,0-0.1,0.1-0.2,0.1c-0.2,0-0.6,0-0.8,0c-0.2,0-0.5,0-0.6,0
	c1.9-0.3,1.9-0.3,1.7-0.4c1.9,0.1,1.9,0.1,4,0c1.9,0.6,1.9,0.6,3,0.6c0.1,0.7,2.7,1.3,1.5,2c2.8,0.2,0.9,0.5,3.2,0.7
	c-0.2,0.6-0.7,0.8-2.5,1.1c1.6,0.2,1.6,0.3,0.9,0.7c2,0.2,2,0.2,2.4,0.3c-0.2,0-0.5,0-0.7,0c-0.5,0.2-0.5,0.2-0.5,0.2l7.8,2.2h-0.1
	c-0.9,0.1-0.9,0.1-3.7,1.3c3.7,0.1,4.6,0.1,8.3,0.4c0.6,0,1.3,0,1.8,0c1.1-0.3,0.8-0.6,2.7-0.8c1,0,2.3,0,3.3-0.1
	c0.1-0.3,2.4-0.4,3.3-0.7c1.1,0,2.6,0,3.8,0v0c0.3,1,0.6,1.4,1.9,2.1c0.9,0,1.9,0.1,2.5,0.1c0.3-0.3,3.2-0.5,2.8-0.8
	c0.9,0,2.2,0,3,0c0.3,0,0.7-0.1,1-0.1c-0.6-0.1-1.5-0.1-2.2-0.2c0.4,0,0.9,0,1.3-0.1c-0.2,0-0.4-0.1-0.6-0.1
	c1.6-0.3,0.9-0.6,2.9-0.8c-0.2,0-0.4-0.1-0.5-0.1c5.9,0,13.7,0.1,19.9,0.1l-19.9-0.2c-1-0.5,4.8-1.1,0.5-1.6
	c-0.9-0.5,2.4-0.6,3.8-0.6c0.7,0.1,0.7,0.1-0.7,0.3c1.5,0,1.5,0,4.1,0.2c-0.6,0.8-0.6,0.8,1.4,1c7.8-0.3,3.4-1.1,8.6-1.5
	c-0.9-0.1-0.9-0.1-0.7-0.4c0.4,0,0.9,0,1.2,0c6.4,0.5-2.1,1.2,4.2,1.7c-0.2,0-0.6,0-0.8,0.1c-0.2,0-0.4,0-0.5,0
	c-1.3,0.1-1.5,0.3-0.6,0.4c1,0,2,0,2.9,0c-0.5-0.3-0.5-0.4,0.9-0.4c0.4,0,0.8,0.1,1,0.1c-0.8-0.3,0.1-0.7-0.7-1c3.1,0,3.1,0,3.9-0.1
	c-1.5-0.2,1-0.3,0.8-0.5c1.1,0,1.6,0,2.4-0.1c-0.1,0-0.2,0-0.3-0.1c-0.2,0-0.4,0-0.6,0c-0.9,0-0.9,0-2.2-0.3c4.8,0,5.3,0,8.6-0.1
	c1.4,0.7,2.4,1,5.3,1.5c-0.4,0-0.9,0-1.3,0c-1.3,0.1-1.5,0.3-2.6,0.4c2.8,0.1,0.6,0.4,3.7,0.6c0.7-0.1,0.6-0.2,0.9-0.2
	c0.4,0,1,0,1.5,0c0.2,0,0.5,0,0.7,0c-0.2,0.1-1,0.2-1.1,0.3c3,0.2,6.1-0.1,6.3-0.6c0.5-1.2,0.5-1.2,1.5-1.4
	c-1.9-0.4-1.7-0.6,0.8-0.8c0.2,0,0.5,0.1,0.7,0.1c0-0.2,0-0.2,0.1-0.4c4.8,0.2,2.2,0.6,3.8,0.9c-2.7,0.5,1.6,1-0.1,1.4
	c2.2,0.1,4.4,0.5,6,0.3c3.1-0.4,0.9-0.9,1.3-1.4c0.9-1,1-1.1,0.3-1.4c-0.7-0.4-0.7-0.4,1.3-0.6l-0.1,0c-1.6-0.1-1.6-0.2-2-0.2
	c5.5-0.1,4.2,0.8,4.2,0.8c-0.2,0.1-0.2,0.2,0,0.3c0.7,0.2,3.4,0.3,4.2,0.6c1.2,0.3,0,0.7,1.8,1c1.3,0.6,2.3,0.7,6.8,0.8
	c0.2-0.1,0.5-0.1,0.6-0.2c0,0,0.6-1.2,0.6-1.3c0-0.1-0.9-0.3-1.6-0.4c1.5-1.5,0.6-1.7,0.4-1.8c1.3,0,1.3,0,3.3-0.3
	c-2.5-0.3-2.5-0.3-3.1-0.3c0.8-0.1,0.9-0.3,2.5-0.4c0,0,0.1,0,0.1,0c0.2,0,0.5,0,0.6,0c-0.9,0.1-1.2,0.1-0.2,0.3
	c0.6,0,0.6,0,2.6-0.3c1.5,0.1,3,0.1,4.6,0.2c0.1,0.2-0.1,0.3-1,0.3c1.8,0,2.1,0,2.4,0.2c2.2,1,2.4,2,4.7,3.1c2.1,0,1.3,0.2,2.7,0.3
	c0.3,0,0.3,0,1.2-0.7c2.8,0.1,3.6,0.1,4.6,0c4.1,0.7,4.1,0.7,5.3,0.7c0.9,0.2,1.5,0.3,4.3,0.3c1.2-0.5,1.2-0.5,4.1-0.5
	c-1,0.2,0.3,0.5,0,0.7c1.4,0,3.2,0.1,4.6,0.2c-0.1-0.2,1-0.5,0.3-0.7c-0.2,0-0.5,0-0.7,0c-0.2,0-0.6,0-0.8,0c-1-0.1-1.6-0.4,3.6-0.4
	c3.2,0.5,3.2,0.5,6.3,0.6c-2-0.2-1.4-0.4,1.7-0.5c-0.1,0-0.2,0.1-0.3,0.1c2.5,0.3,2.5,0.3,2.5,0.5l1.4,0c1.8,0.8,1.8,0.8,4.9,0.8
	c1.3,0,6.6,0.2,6.4,0.5c3.4,0.2,3.4,0.2,11.5,1.3c-6.4-0.1-15-0.1-21.4-0.2c-4-0.1-6.2-0.2-9.4-0.4c-1.1,0-1.3,0.1-1.6,0.2
	c0.4,0,0.7,0.1,0.9,0.1c-1,0-2.3,0-3.3,0c-5.2-0.4-5.2-0.4-6-0.6c-0.1,0-14.7-1-30-0.9c-0.8-0.1-2.6-0.4-12.4,0
	c8.5,0.3,17.6,0.4,25.9,0.7c0.7,0,0.7,0,15.5,0.8c-0.2,0-0.5,0-0.8,0c0.3,0,0.5,0,0.8,0c6.8,0.4,10.7,1.1,19.9,1.3
	c-2.3-0.5-4.8-0.7-13-1.2c1.1,0,2.5,0,3.6,0c0.5,0,1.1,0,1.5,0c3.1,0.4,3.7,0.5,11.7,0.9c-1.4-0.2-1.7-0.4-3.6-0.6
	c0.3-0.1,0.5-0.2,0.6-0.3c6.3,0.1,14.7,0.1,21,0.2c0.6,0.1,1.4,0.1,2,0.2c0.3,0,0.7-0.1,1.1-0.1c1.5,0,3.5,0,5,0
	c1.9,0.6,1.9,0.6,2.3,0.6c3.8-0.1,4.4-0.2,4.1-0.6h0c-0.5-0.2-1.6-0.5-1.6-0.7c0-0.2,1-0.3,1.8-0.3c-0.5-0.2,0.1-0.3-0.6-0.5
	c0.7,0,1.3,0,2,0c1.7,0.1,2.1,0.1,1.8,0.3c1.7,0,2,0,2.1,0.1c0.2,0.1,0.3,0.1,0.8,0.1c0.8,0,0.8,0,4.6-0.1c1.4,0.3-0.4,0.7,3.6,1
	c0.2,0,0.4,0,0.6,0c0-0.1,0-0.1,0.2-0.1c0.5,0.1,0.6,0.1,2.4,0.1c0.7,0,2.2,0.1,2.2,0.1c-0.1,0.1-0.4,0.1-0.4,0.2l-2.2,0
	c0.7,0,1.5,0,2.2,0c1.6,0.5,1.6,0.5,0.9,0.6c4.1,0.2,2.2,0.7,6.6,1c-0.1,0-0.3,0.1-0.5,0.1c-1.2,0-1.3,0-1.5,0
	c-1.7,0.4,0.1,0.7-0.2,1.1c0.6,0,1.3,0.1,1.9,0.1c-0.1-0.1-0.3-0.2-0.6-0.3c0.6,0,1.3,0,1.9,0c1.2,0.1,1.2,0.1,4.6,1.7
	c0.9,0,2.1,0.1,2.9,0.2c-0.4,0.1-1.1,0.2-1.8,0.2c0.1,0.1,0.1,0.2,0,0.3c-0.4,0-1,0-1.4,0c-0.3,0-0.8,0.1-1.1,0.1
	c0.8,0.2,1.5,0.3,2.9,0.3c0.4-0.1,0.5-0.2,0.3-0.2c0.7-0.1,1.6-0.2,2.2-0.2c-0.1,0-0.2-0.1-0.3-0.1c0.5,0,1.1-0.1,1.6-0.1l-0.8-0.3
	c0.6,0,1.4,0,2.1,0.1c0.2,0.2-0.2,0.4,0.1,0.6c-0.4,0-1,0-1.5,0c1.7,0.4,5,1.5,5,1.5l0.1-0.9c4.6-0.2-0.7-0.7,4.6-0.9
	c0.1,0,0.2,0.1,0.3,0.1c1.2,0.2,3.6,0.3,4.3,0.5c0,0-1.8,0-2.3,0.2c-0.3,0.1-0.3,0.2-0.7,0.3c-0.2,0-0.8,0.1-0.9,0.1
	c-0.3,0.2,2,0.3,2.2,0.4c-1.9,0-2.1,0-2.7,0.2c-0.1,0.1-0.4,0.3,1.1,0.9c4.4,0,4.4,0,3.7-0.9c0.3-0.3,0.3-0.3,1.5-0.5
	c5.2,0,5.2,0,7.6-0.3c1.4,0,3.3,0,4.7,0c-0.3-0.2-0.4-0.3-3.9-0.3c-0.3-0.1-0.3-0.3,0.1-0.4c10.5-0.4,11-0.4,14.3-0.2
	c0.5,0,1.1-0.1,1.6-0.1c-1.2,0-2.8-0.1-4.1-0.1c0.2-0.1,0.3-0.2,0.3-0.3c-10,0.1-10,0.1-14.9,0c0.2,0.3,0.3,0.5-1.2,1.1
	c-0.7,0-1.7,0-2.4,0c-5.5-0.4,3.8-1.3-5.3-1.6c-0.1-0.1-0.3-0.1-0.5-0.2c0.6,0,1.5,0,2.1,0c0.7-0.1,1.9-0.2,3-0.2l2.8-1.9
	c-1.2-0.3-1.2-0.3-0.8-0.5c0.1,0,0.1,0.1,0.2,0.1c3.2,0.1,3.2,0.1,4,0.5c0.5,0,1.1-0.1,1.6-0.1c-0.1-0.1-0.3-0.1-0.5-0.2
	c1-0.1,2.2-0.2,2.8-0.2c4.7,0.9,1.3,1.9,3.4,2.8c1.3,0,3,0.1,4,0.1c-0.6,0-1.5,0-2.2,0c0.3,0,0.7,0.1,1,0.2c3.8,0,3.8,0,7.4,0
	c0.2,0,0.6-0.1,0.8-0.2c-0.5,0-1.2-0.1-1.7-0.1c-0.6,0-1.5,0-2.1,0c-0.9-0.1-2.3-0.2-3.6-0.2c-0.3-0.4-1.8-1.5-1.8-1.5
	c0.4-0.2,1.2-0.4,1.7-0.6c-0.4,0-0.9-0.1-1.4-0.1c0.6-0.1,1.5-0.1,2.2-0.2c-0.5,0-1.1-0.1-1.6-0.1c0.1-0.1,0.3-0.2,0.4-0.3
	c1.1,0,2.5,0.1,3.1,0.2c2.5-0.1,2.5-0.1,3.2-0.4c1.7,0,3.8,0,5.8,0.1l-5.8-0.1c0.2-0.2-0.3-0.4,0.5-0.6c0.6-0.2,1.7-0.2,2.7-0.3
	c0,0,0.1,0,0.1,0c0.3,0.1,0,0.2,0.5,0.3c0.1,0,0.5,0.1,1.6,0.2c2.7,0.1,5.1,0.1,7.5,0c1.5,0.2,2,0.3,1.8,0.5c0,0,0,0,0,0
	c-0.3,0-0.8,0.1-1.1,0.1c-0.4,0-0.9-0.1-1.2-0.1c-1.3,0-2.9,0-4.2-0.1c-0.4,0.3-0.4,0.3,0.4,0.9c1.3,0,3,0,4.3,0
	c4.6,0.4,4.6,0.4,6.2,0.4c0.3,0.1,1.5,0.2,2.6,0.3c0.5,0,1.3-0.1,1.8-0.1c2.4,0.2,2.4,0.2,2.8,0.8c0,0,0,0,0,0
	c-0.1,0-0.2,0.1-0.3,0.2c-1.5,0.1-3.6,0.1-5.3,0.2c-0.2,0.1-0.4,0.2-0.5,0.2c-4,0-4,0-7.4-0.4c-0.7,0-1.6,0-2.3,0
	c-2.2,0.2-2.9,0.3-1.3,0.6c-2.1,0.1-4.8,0.1-4.3,0.6c3.8,0.2,7.2,0.4,11.1,0.6c-0.4-0.1-1-0.2-1.4-0.3c3.3-0.2,7.7-0.1,11.4-0.2
	c1,0.1,2.5,0.2,3.7,0.2c-0.4,0-0.8,0.1-1.2,0.1c-1.7-0.1-3.9-0.1-5.7-0.2c-0.7,0-1.6,0-2.2,0.1c0.2,0.1,0.8,0.2,1.4,0.3
	c3.9,0.1,4.3,0.1,9.8,0c5.2,0.6,8.4,0.9-1.8,1.1c-0.4,0-0.9-0.1-1.3-0.1c-0.6,0-1.4,0-2,0c-4.8-0.3-4.8-0.3-10.8-0.4
	c-0.8,0.1-1.9,0.2-2.7,0.2c-4.4,0-4.4,0-6.2,0.1c0.5,0,1.1,0.1,1.6,0.1c4.1-0.1,4.1-0.1,9.4,0.3c0.4,0,0.8-0.1,1.2-0.2
	c5.9,0,5.9,0,8,0.1c0.4,0,0.9,0,1.3,0c5.4,0.1,10.8,0.1,16.2,0.2c3.8,0.5,3.8,0.5,7.5,0.6c0.2,0,0.5-0.1,0.7-0.2c0.6,0,1.4,0,2,0.1
	c3.6-0.3,8.9-0.1,12.9-0.3c-0.6,0-1.4,0-2-0.1c1.2,0,2.9,0,4,0c0.6-0.1,1.1-0.3,1.2-0.4c-5,0.1-8.4,0-10.5,0
	c-0.8-0.1-1.7-0.3-2.3-0.4c1.1-0.1,2.1-0.2,2.5-0.3c2.1,0,4.3,0,6.3,0.1c3.2-0.1,3.8-0.1,6.2,0c0.5,0,1.2-0.1,1.7-0.1
	c-1.3-0.1-3.7-0.2-4.9-0.3c1.2,0,2.7-0.1,3.5-0.2c-2.8-0.1-6,0-8.7-0.1c-3.9-0.2-3.4-0.7-9-0.7c-0.5-0.1-1.4-0.2-2.2-0.3
	c2.3-0.1,5-0.1,7.5-0.2c-0.2-0.1-1.1-0.2-1.9-0.3c2.5,0,2.5,0,9.1,0c0.4,0,0.9,0.1,1.3,0.1c-1.2,0-1.2,0-6.2,0.1
	c0.4,0,0.9,0.1,1.3,0.1c7.1,0.1,7.1,0.1,8.6,0.1c-1.6,0.2-1.7,0.5,7.1,0.8l2-0.1c0.5,0,1.1,0.1,1.5,0.1c-0.1-0.1,0.2-0.2,0.7-0.3
	c1.2,0,2.5,0.1,3.2,0.2c2.2,0,2.2,0,10.6-0.1c3.2,0.2,7.1,0.2,10.3,0.4c0.9-0.1,2.9-0.2,4.4-0.2c0.2-0.2-0.5-0.3-0.2-0.5
	c1.2,0,2.9,0.1,3.9,0.2c1-0.1,1-0.1,6.4-0.2c0.3,0,0.7-0.1,1-0.2c-4.8,0-7.6-0.2-7.2-0.6c2.2,0.3,6.6,0.1,9.5,0.3
	c3.3-0.5,13.6,0,16.3-0.6c-0.8-0.1-1.9-0.2-2.5-0.3c-7.7-0.1-7.7-0.1-9.2-0.3c2.8-0.1,4-0.1,54.9,0.5l0,0.1l3,0l0-0.1l5.9,0.1
	c-1,0.1-2.2,0.2-2.9,0.3c-0.4,0-1.1-0.1-1.5-0.1c-2.1,0.1-2.1,0.1-5.7,0.4c1,0,1,0,7.3,0c2.4,0.2,6.5,0.3,8.1,0.5
	c0.5-0.1,1.5-0.2,2.5-0.3c1.2,0,2.6,0.1,3.5,0.2c1-0.1,2.2-0.2,3.1-0.3c29.5,0.4,29.5,0.4,30.6,0.1c0,0.1,0.5,0.2,1,0.3
	c3.7,0.1,3.9,0.1,6.9,0c0.3,0.1,1.1,0.3,1.9,0.4c0.1-0.1,0.5-0.2,1.2-0.3c0.9,0.1,1.7,0.2,1.9,0.3c0.6,0,1.4,0,2,0.1
	c0.5-0.1,1.1-0.2,1.5-0.3c2.2,0.1,4.3,0.3,6.6,0.4c-0.1,0.1,0.6,0.2,1.4,0.3c0-0.1,0-0.2,0.1-0.3c0.6,0,1.3,0.1,1.8,0.1
	c-0.2,0.1-0.5,0.1-0.7,0.2c0.9,0.1,2.2,0.2,3.3,0.2c2-0.1,4.1,0,6.1,0c6.1,0.5,15.7-0.3,21.4,0.4c-1.2,0-2.9,0-4.1,0
	c-0.4,0-0.8,0.1-1.2,0.1c-0.5,0-1.2-0.1-1.7-0.1c-2.8,0.1-5.9,0.1-8.5,0.2c0,0.1,0.6,0.2,1.2,0.3c-0.6,0-1.5,0-2.1,0
	c-0.7-0.1-1.9-0.2-3-0.3c0,0.1,0.1,0.2,0.1,0.4c-0.4,0-0.7,0-0.9,0h0h0c0.1,0,0.2,0,0.3,0c0,0,0,0,0,0c0.3,0,0.4,0,0.6,0
	c1.4,0.1,3.9,0.1,5.5,0.1c1.7,0.1,1.7,0.1,5.9,0.2c0.1,0.1,0.2,0.1,0.3,0.2c-0.5,0-0.5,0-6.1,0c1.1,0.4,1.1,0.4,0.8,0.6
	c2.3,0,4.8,0,7.1,0.1c0.5,0,1.1-0.1,1.6-0.1c2.4,0,4.5,0.1,6.9,0.1c0.4,0,1-0.1,1.4-0.2c3.3,0,3.3,0,7.6,0.2c1.4-0.1,3.5-0.1,5-0.1
	c0.5-0.2-1.7-0.4-2.4-0.6c3.3-0.2,3.3-0.2,3.4-0.5c-1.9-0.1-3.1-0.2-4.6-0.4c-0.7,0.1-1.7,0.1-2.5,0.2c-6.4-0.1-6.4-0.1-8.5-0.3
	c0.4-0.1,1.2-0.2,1.9-0.3c7.4,0.1,9.8,0.1,12.5-0.1c1.2,0,2.6,0.1,3.4,0.2c2.3-0.2,2.3-0.2,6.7-0.1c0.3-0.1,0.3-0.3-0.1-0.4
	c5.3,0,12.3,0.1,17.6,0.1c-1.5,0-3.5,0-4.9,0.1c0.2,0.1,0.5,0.1,0.8,0.2c5.6,0.2,9.4,0.2,20,0c0,0-0.1,0-0.1,0l6.3,0.1l-6.2-0.1
	l-1.1-0.2c-1.1,0-1.5,0-2.2,0.1c-4.2,0-8.3,0-12.5-0.1l-18.2-0.3c-0.4-0.1-0.4-0.2,0.1-0.3c0.4,0,0.8,0,1.3,0c0,0-0.3,0.1-0.5,0.1
	c0,0,0,0,0.1,0c1,0,1.3,0,1.6,0c-0.1-0.2-0.1-0.2,0.5-0.2c0.3,0.1,2.1,0.1,2.7,0.2c3.5-0.2,8.2-0.1,11.9-0.2
	c-1.2-0.2-0.7-0.4-2.4-0.5c1.4,0,1.1-0.2,2.5-0.2c1,0.1,2.3,0.2,3.3,0.2c0.5-0.2,3.8-0.2,4.1-0.4c-2.1,0-2.4-0.1-4-0.3
	c1.6,0,1.5-0.2,3.1-0.2c2.1,0.2,7.4,0,7.8,0.3c-0.6,0.1-0.6,0.1-3.3,0c-0.8,0-0.6,0.2-0.7,0.3c1.6,0,2.6,0.1,4.2,0.1
	c1.6,0.4,7.1,0.7,7.2,0.7c1.8,0.1,3.8,0,5.6,0c0.8-0.2,3.8-0.3,4.4-0.5c1.4,0,1.1,0.2,2.5,0.2c3.3-0.1,5.1-0.3,8.1-0.5
	c-2-0.2-2.3-0.2-2.5-0.3c1.1,0,1.1,0,3.3,0.3c2.5,0,4.1,0.2,6.2,0.2c1.6-0.1,2.1-0.2,2.7-0.4c3.1,0.3,6.9,0,10.2,0.1
	c0.3,0,0.8,0,1.1,0c-0.1,0-0.4,0-0.5,0c0.4,0,0.4,0,1.7,0.1c1-0.1,2.4-0.2,3.4-0.2c2.1,0.2,5.4,0.3,8.1,0.4
	c-0.4-0.1-0.9-0.2-1.3-0.3c2.6,0.1,6,0.1,8.4,0.2c1.3-0.1,3.1-0.1,4.4-0.2c1.2,0.1,2.7,0.1,3.9,0.2c0.6-0.1,1.5-0.2,2.1-0.3
	c1.3,0,3.1,0,4.4,0c0.4,0.1,0.9,0.2,1.2,0.3c1.5,0,3.4,0,4.9,0c-0.2-0.1-0.4-0.2-0.5-0.3c9.5,0.3,9.5,0.3,11.6,0.3
	c-0.3-0.1-0.6-0.3-0.8-0.4c1.3,0,3.1,0,4.4,0c0.6,0.1,1.4,0.2,1.9,0.3c1.4,0,3.3,0,4.8,0c-0.1-0.1-0.3-0.3-0.4-0.4
	c1.2,0,2.9,0.1,4.2,0.2c0.7-0.1,1.6-0.2,2.3-0.3c7.3-0.1,12.1-0.7,20.4-0.6c1.4-0.2,3.1-0.4,4.1-0.6c0.5,0.1,1.2,0.2,1.7,0.3
	c9.4-0.7,29.2-0.2,37.6,0.1c0.2-0.1,0.3-0.2,0.5-0.2c4,0.3,4,0.3,21.5,0.3c0.6,0.1,1.4,0.2,2,0.3c-0.9,0.1-2.1,0.2-3,0.3
	c-2.6,0-6-0.2-7.9-0.3c-1.9,0.2-5.3,0.4-8.1,0.4c3.8,0.4,3.8,0.4,31.3,0.5c0.2,0.1,0.5,0.2,0.7,0.3c2.3,0.1,6,0.2,8.7,0.2
	c-0.3-0.1-0.8-0.1-1.1-0.2c-1-0.1-2.3-0.2-3.3-0.2c1.5,0,3.5,0,4.9,0.1c0.7,0.1,1.6,0.3,2.3,0.4c0.8,0,1.9,0,2.8,0
	c-1.5-0.2-2.9-0.5-3.5-0.7c-2.4-0.1-5.2-0.3-6.2-0.5c5.8,0,6.4,0,30.9-0.5c-0.4-0.1-0.8-0.2-1.2-0.3c-2.7,0-6.4,0-9.1,0
	c12.1-0.4,12.1-0.4,17.4-0.4c0.8,0.1,2,0.2,2.9,0.3c1.4,0,3.3,0,4.7-0.1c0.4,0.1,0.8,0.3,1.2,0.4c-2.9,0-6.7-0.1-9.6-0.1
	c0.6,0.1,1.4,0.2,2,0.3c2.8,0,6.5,0,9.2,0c-0.2,0.1-0.4,0.3-0.6,0.4c0.9,0.1,2,0.2,2.9,0.3c1.3,0,3.1,0,4.4,0
	c-0.9,0.1-2.1,0.2-3,0.3c0.7,0.1,1.7,0.2,2.4,0.3c-1.1,0.1-2.6,0.1-3.7,0.2c0.5-0.1,1.1-0.3,1.5-0.4c-1.1-0.1-2.5-0.2-3.6-0.2
	c-0.3,0.2-0.7,0.5-1,0.7c-2.6-0.1-5.8-0.2-7.8-0.3c0,0.1,0,0.2,0.1,0.4c-7.7-0.1-15.5,0.2-23.1-0.1c-1.1,0.1-2.7,0.2-3.8,0.2
	c1.2,0,2.9,0.1,4.2,0.1c0.7-0.1,1.6-0.1,2.2-0.2c11.6,0.1,22.9,0.4,34.5,0.6c-0.8,0.1-1.8,0.2-2.5,0.3c0.3,0,0.7,0.1,1,0.1
	c2.2-0.2,5.3-0.3,7.8-0.5c2.6,0.1,6.1,0.1,8.8,0.2c0.5,0.1,1.1,0.2,1.6,0.3c1.4,0,3.1,0,4.5,0c-0.7-0.1-1.6-0.2-2.3-0.3
	c1.3,0,3-0.1,4.3-0.1c0.6,0.1,1.5,0.2,2.2,0.3c0.6-0.1,1.4-0.2,2-0.4c4.6,0,9.2,0.1,13.7,0c12.6,0.1,24.7,0,24.8,0
	c0.4,0,0.9,0.1,1.2,0.1c2.8,0,6.5,0,9.3-0.1c-7.4-0.6-17.4-0.3-25.9-0.5c1.7-0.2,3.1-0.4,3.4-0.6c0.8,0.1,1.8,0.2,2.6,0.3
	c0.9-0.1,2.1-0.2,3.1-0.2c3.2,0.1,3.2,0.1,21.1,0.7c-0.7,0.1-1.6,0.3-2.3,0.4c10.6,0.1,21.6,0,32.1,0.3c0.6-0.1,1.4-0.1,2-0.2
	c1.3,0.1,3,0.1,4.2,0.2c1.1-0.1,2.6-0.1,3.8-0.2c5.8,0.5,15.2,0.3,21.1,0.8c-0.2,0.1-0.5,0.2-0.7,0.3c12.7,0.1,23.9,0.6,36.1,0.9
	c-0.3-0.1-0.6-0.2-0.8-0.4c13.6-0.3,28-0.2,41.7-0.4c-0.8-0.1-1.8-0.2-2.6-0.3c-6.3,0-7.6-0.1-13-0.3c12.8-0.2,12.8-0.2,17.4-0.6
	c2.5,0,5.7-0.2,7.6-0.3c7.5,0.2,8,0.1,13.3,0c0.4-0.1,0.8-0.3,1.2-0.4c2.7,0,6.3,0.1,9,0.1c2.5-0.3,6.9-0.5,8.4-0.8
	c2.7,0,6.3-0.1,8.6-0.3c-0.7,0.1-1.7,0.2-2.4,0.3c0.4,0,0.9,0.1,1.3,0.2c1.4,0,3.3-0.1,4.7-0.1c4.6,0.4,7.9,0.8,10.8,1
	c0.3-0.1,0.5-0.1,1.2-0.1c0.1,0,0.4,0,0.5,0.1c0.2,0.1-0.1,0.1-1.3,0.1c7.3,0.6,11,0.6,23.7,0.5c-0.2-0.1-0.5-0.2-0.6-0.3
	c6.5-0.1,12.9,0.1,19.3,0l2.4,0.1c7.8-0.2,7.8-0.2,11.2-0.6l55.2,0.7c0.9,0.1,2.2,0.2,3.2,0.2c0.4-0.1,0.8-0.2,1.1-0.3
	c9.7-0.2,20,0.1,29.6-0.2c-0.4-0.1-1-0.2-1.4-0.3c2.2,0.1,5.7,0.2,8.3,0.2c-0.5-0.1-1.2-0.2-1.8-0.3c5.7-0.3,13.6-0.2,18.9-0.6
	c0.7-0.1,1.5-0.2,2.2-0.3c10.6,0,14.2,0.4,15.9,0.6c5.6-0.1,7.5,0,14.9,0.2c14.4-0.6,33.4-0.1,33.6,0c9.5,0,15.9,0.9,26.5,0.5
	c0.6,0.2,0.6,0.2,13.9,0.8c-4,0.1-4,0.1-18.7-0.2c-1.5,0.2-2.5,0.5-2.3,0.7c-2.6,0.1-6.2,0.3-8.9,0.4c0.4,0.1,0.8,0.2,1.2,0.3
	c6.1,0.1,12.3,0.2,18.2,0.4c2.4,0.1,5.2,0.3,6.4,0.5c-0.5,0.1-1.2,0.2-1.8,0.3c0.7,0.1,1.6,0.2,2.2,0.3c5.9-0.1,11.6,0.1,17.4,0.1
	c0.2,0.1,0.5,0.2,0.7,0.3c-1.3,0-3-0.1-4.3-0.1c-1.8,0.2-3.5,0.4-4.1,0.6c1.3,0,3,0.1,4.3,0.1c1-0.1,2.3-0.2,3.2-0.2
	C1998.1,22.2,1999,22.3,2000,22.3z M641.2,10.6c0,0,0.1,0,0.2,0.1c0.5,0.1,1.6,0.1,1.9,0.1c0.3,0,0.6,0,0.8,0
	c0.4-0.2-1.7-0.2-2.8-0.2l0,0C641.4,10.6,641.3,10.6,641.2,10.6z M626.5,8.8c0.8,0.1,2.2,0.1,2.6,0.1c0.1-0.1-1.2-0.2-1.5-0.3
	C625.5,8.6,626.3,8.8,626.5,8.8z M491.2,9.3c-2.3,0-2.6,0.1-2.3,0.3c0,0,0,0,0.1,0c0.1,0,0.2,0,0.3,0C491,9.6,491,9.5,491.2,9.3z
	 M442.2,16c-0.5,0-1.4-0.1-2.3,0l1.7,0.2C443.7,16.1,443.1,16,442.2,16z M453.4,12c0,0,0,0.1,0,0.1c0,0,0.1,0,0.1,0
	c0.2,0,0.5,0,0.7,0c1.6,0,1.4-0.1,0.8-0.2v0C454.8,11.9,454.1,11.9,453.4,12z M457.3,12.7c0.7-0.1,0.8-0.2,0.1-0.3
	c-1.2,0-1.6,0.1-2.2,0.1c-0.3,0-0.6,0-0.9,0l0,0c-1.1,0-1.8-0.1-3.1-0.1c1.2,0.2,1.2,0.2,0.9,0.5c0.1,0,0.2,0,0.3,0c0.7,0,4,0,4.3,0
	C456.7,12.8,456.9,12.8,457.3,12.7z M459.9,13c-0.4,0-1.2,0-2.4,0c0,0,0.1,0,0.1,0c0.5,0,1.1,0.1,1.6,0.1
	C460.3,13.1,460.3,13,459.9,13z M465.8,16.8l-0.1-0.1c-2.6,0-3.7,0-3,0.1c0.3,0,1.2,0.1,2.1,0.1C465.5,16.9,465.7,16.9,465.8,16.8z
	 M473.3,16c-1.3,0-1.4,0-1.6,0.1l0.7,0.1C472.7,16.1,473,16,473.3,16L473.3,16z M570,9.4c0.2,0,0.5,0,0.7,0c0.9,0.1,1.1,0.2,1.3,0.2
	c0.1,0,0.2,0,0.3-0.2v0C571.4,9.4,570.8,9.4,570,9.4z M570.2,10.1c0.4,0.1,0.9,0.1,1.5,0.1c0.2,0,0.3,0,0.5,0
	c0.2-0.1-0.1-0.1-0.8-0.1c-0.6,0-0.8-0.1-0.8-0.1C569.5,9.9,570,10,570.2,10.1z M572,17.1c0-0.2-2.3-0.2-2.4-0.4
	c-7.9-0.1-12.5-0.2-16.2-0.5c-1.5,0.1-1.3,0.2-3,0.3c-0.6,0-1,0-1.7-0.1c-0.8,0.1-1.5,0.3-2.2,0.4c0.2,0,0.4,0,0.6,0
	c3,0.2,6.9,0.3,9.1,0.2c0,0,1.7-0.1,2.7,0.1c2.1-0.4,5.2-0.4,7.2-0.1c0.2,0,0.4,0.1,0.5,0.1c0.2,0,0.4,0,0.6,0c0.2,0,0.4,0,0.6,0
	c0.4,0,0.8,0,1.3,0C570.7,17.2,571.4,17.2,572,17.1z M560.8,12.3c1.6,0,1.7-0.1,0.7-0.2l-0.8,0.2C560.6,12.3,560.7,12.3,560.8,12.3z
	 M572.8,12c-2.8,0-5.6,0-8.2-0.1c0.7-0.1,0.7-0.1,0.5-0.2c-0.3,0-0.6,0-0.9,0c0.1,0,0.2-0.1,0.4-0.1c-1.4-0.1-1.4-0.1-1.6-0.2
	c-0.3,0-0.8,0-1.1,0c-1,0.2-1,0.2-2,0.2c-0.1,0.1-0.1,0.1,1.4,0.2c-0.2,0-0.2,0-0.3,0c0,0,0,0,0,0c0.3,0,0.7,0.1,1,0.1
	C565.4,11.9,569.1,11.9,572.8,12z M580.5,17.2c0.1,0.1,0.2,0.2,0.6,0.2c0.5,0.1,1.2,0.1,1.8,0.1C584,17.4,583,17.2,580.5,17.2z
	 M634.8,17.6c0.1,0,0.2,0,0.6,0c0.7,0,1.3,0,0.2-0.1c0,0-0.1,0-0.1,0C634.8,17.5,634.6,17.6,634.8,17.6z M627.9,16.5
	c-0.4-0.2-1.1-0.2-2.7-0.4c-1.8-0.2-2.6-0.3-2.7-0.4c-0.7,0-1.6,0-2.3-0.1c-0.2,0-0.3,0-0.5,0l0,0c0,0-0.1,0-0.1,0
	c0.2,0.1,0.9,0.2,0.6,0.3c0.1,0,0.3,0,0.4,0c1.5,0.1,2.2,0.2,2.9,0.3c1.1,0.2,2,0.3,4.3,0.3H627.9z M631.6,17.8
	c-0.7-0.1-2.2,0-2.2-0.2c-1.1,0-0.6,0.1-0.3,0.2c0.1,0,0.8,0.1,1.8,0.1C632.1,17.9,632.3,17.8,631.6,17.8z M640.3,18.5
	c-1.5-0.2-1-0.4-0.9-0.4c0,0,0,0,0,0c-0.1-0.2-0.1-0.2-0.7-0.3c-1.1,0-1.6,0-2.7,0.1c-1,0.1-1.6,0.1-3.4,0.1c0.1,0,0.3,0.1,0.8,0.2
	c0.7,0.1,1.8,0.2,2.3,0.3C637.2,18.5,638.8,18.5,640.3,18.5z M666.8,15.1c-0.2,0-0.5-0.1-0.7-0.1c-0.8,0-1.1,0.1-0.6,0.2
	c0.2,0,0.4,0,0.5,0c0.4,0,0.5,0,0.7,0V15.1z M702.8,14.7c-1,0-1.4,0-1.5,0.1l0.7,0.1C702.3,14.8,702.6,14.8,702.8,14.7z M703,13.4
	c-0.8,0-1.1,0-1.6,0.2h0c-0.7,0.1-1.3,0.2-2.2,0.2c1.7,0.2,1.3,0.4,2.5,0.5c0.8,0.1,2,0.1,2.6,0.2C703.3,14.1,706.8,13.7,703,13.4z
	 M712.9,13.9c-0.9,0-2.1,0-3,0h0c-0.1,0.2-0.8,0.4-0.5,0.5c0.1,0.1,1,0.3,1.8,0.4c0.6,0.1,0.8,0.1,1.6,0.1
	C714,14.5,714,14.3,712.9,13.9z M720.1,12.4l1.6,0l0-0.1l-1.6,0L720.1,12.4z M722.5,13.2c0.2,0,0.4,0,0.6,0l0-0.2
	c-0.7,0-1.6,0-2.3,0c0.5,0,0.4,0.1,0.8,0.1C721.8,13.2,722.2,13.2,722.5,13.2z M724.5,19.3c-1.8,0-1.2,0.1-1.2,0.1
	c0.1,0,0.3,0,0.7,0C724.6,19.4,724.7,19.4,724.5,19.3z M724.9,19c-0.7,0-1,0-1.1-0.1c-1.5,0-0.7,0.2-0.6,0.2c0.2,0,0.8,0.1,1.9,0.1
	c0.3,0,0.6,0,1,0C726.3,19,725.8,19,724.9,19z M726.8,14.8c0.7,0.1,1.5,0.1,2.1,0.1c0.2-0.2,0.1-0.3-0.8-0.4c0,0-0.6,0-1.3,0
	c-0.6,0-1.1,0-1.7,0c0,0,0.1,0,0.1,0C725.7,14.7,725.9,14.7,726.8,14.8z M725.1,14.2c0,0,0.1,0,0.1,0c0.3,0,0.6,0,0.9,0
	c1.1,0,1.8,0,2.8,0c0.3-0.1,0.1-0.1-0.7-0.2c-0.5,0-0.7-0.1-0.8-0.1C725.2,13.8,725.1,13.9,725.1,14.2L725.1,14.2z M728.7,18.3
	c0,0,0.3,0,0.8,0.1c0.5,0,0.5-0.1,0.4-0.2C728.1,18.2,728.5,18.3,728.7,18.3z M730.6,18.7c-0.3,0-1.1,0-1.4,0
	c-0.5,0.1,0,0.1-0.1,0.2c0,0,0.1,0,0.1,0h0C730.3,18.9,730.8,18.9,730.6,18.7z M731.1,13.4l-8-0.1C725.8,13.3,728.5,13.4,731.1,13.4
	z M749.1,19.4c-0.4,0-0.6-0.1-0.4-0.1h0c-1.5,0-2,0.1-2.4,0.3l3.1,0C749.6,19.5,749.5,19.5,749.1,19.4z M476.4,23.5
	c0-0.1-2.1-0.1-2.6,0c-0.2,0-0.2,0,0,0.1c0.1,0,0.2,0,0.3,0C474.8,23.5,475.7,23.5,476.4,23.5z M95.9,17.1c-0.2,0-0.6,0-0.8-0.1
	c-0.2,0-0.9,0-0.5,0.1c0.3,0,1.2,0.1,2.2,0.1c0.3,0,0.5,0,0.7,0c0.2-0.1-0.2-0.2-1-0.2c-0.6,0-0.8-0.1-0.9-0.1c-1.2,0-1,0-0.3,0.1v0
	C96,17,96.1,17.1,95.9,17.1z M96.9,17.3c-0.5,0-1.7-0.1-3.1-0.1c-0.6,0.1-0.2,0.2,0.9,0.4c1.1,0.2,1.4,0.2,0.7,0.4
	c0.1,0,0.2,0,0.2,0c0.4,0,0.9,0,1.4,0v0C100.6,18,99.5,17.5,96.9,17.3z M277.7,17.6c0.1,0,0.2,0,0.2,0c0.4,0,0.8,0,0.9,0
	c1,0,1.8-0.1,1-0.2c-0.7,0-1,0-1.1,0C278.3,17.6,278.3,17.6,277.7,17.6z M260.2,18.9c0.9,0.2,0.9,0.2,0.4,0.4c0.1,0,0.2,0,0.3,0
	c0.6,0,1,0,1.5,0c0.7,0,1.4,0,2.8,0c-0.2-0.3-0.3-0.3-1.2-0.4c0,0-1,0-2.1,0v0C261.5,18.9,261.1,18.9,260.2,18.9z M260.2,19.8
	l0.9,0.1c0.2,0,0.4-0.1,0.6-0.2h0C260.4,19.6,260.3,19.7,260.2,19.8z M241.7,18.1l0.1,0.1l1.6,0l-0.1-0.1L241.7,18.1z M236,19.4
	c0.1,0.1,0.2,0.2,0.3,0.4c0,0,0.1,0,0.1,0c0.3,0,0.6,0,0.8,0c0.5,0,1,0,1.7,0c0.7,0,1.1-0.1,1.8-0.1C240.3,19.6,240.3,19.6,236,19.4
	z M220.8,18.9l0.2,0.2l2.3,0l-0.9-0.2L220.8,18.9z M214.4,22c0,0,0,0,0.2,0c0.2,0,0.4,0,0.5,0c0.2,0,0.6,0,1.2-0.1
	C214.5,21.8,214.5,22,214.4,22z M209.7,16c0,0,0,0,0.1,0c0.2,0,0.5,0,1,0c1,0,1.9,0,1.1-0.1C211.1,15.9,210.5,16,209.7,16z
	 M206.9,19.8l0.1,0.1l1.6,0l-0.1-0.1L206.9,19.8z M207.1,17.5c-0.5,0-1.9,0-2.1,0.1c-0.3,0.1,0.8,0.3,1.1,0.4c0.1,0,0.2,0,0.2,0
	C208.6,17.9,208.1,17.8,207.1,17.5z M210,19l-0.1-0.1l-1.6,0l0.1,0.1L210,19z M209.5,20l0.1,0.1l1.6,0L211,20L209.5,20z M202.3,16.6
	c0.3,0,0.8,0.1,1.2,0.1c1,0.1,2,0.2,2.2,0.2c0.3,0.1-1.4,0.1-2.2,0.1l1.7,0.1c0.5-0.1,1.2-0.1,2.5-0.1c1.5,0,2.4,0,2.6-0.2
	c-2,0-2,0-5.7-0.4c-0.7,0-0.8,0-1,0.1h0C203.4,16.5,203.3,16.6,202.3,16.6z M150.6,19.9c0.1,0,0.2,0,0.3,0c0.4,0.1,0.9,0.1,1.4,0.1
	c0.9,0,1.2-0.1,1.3-0.2C149.7,19.7,150.6,19.9,150.6,19.9z M152.8,19c0,0-0.1-0.1-0.3-0.1c0,0,0,0,0,0c-0.8-0.1-2.6-0.1-2.9,0h0
	c-0.1,0,0,0.1,0.1,0.1L152.8,19z M153.2,19.4c-1.9,0.1-2.3,0.1-1.3,0.3c0.1,0,0.1,0,0.2,0v0C153.7,19.6,153.4,19.5,153.2,19.4z
	 M151.5,17.7c-1.3,0.1-1.8,0.1-2,0.3c-0.1,0.1,0,0.2,0,0.2c0,0.1-0.2,0.2-0.1,0.3c0,0,0.1,0.1,0.7,0.1c0.9,0.1,2.2,0.1,3.3,0.1l0,0
	C153,18.3,152.9,18.1,151.5,17.7z M147.4,15.9c0,0,0.1,0,0.1,0c0.3,0,0.6,0,1,0c1.4,0,1.4-0.1,1-0.2
	C147.9,15.7,147.9,15.7,147.4,15.9z M138.2,16.9c1.3,0.1,1.2,0.3,2.7,0.4c-0.2,0-0.5,0-0.7,0c-1.2,0.2-0.6,0.4,0.6,0.4
	c0,0,0.7,0,1.4,0c-0.4-0.1,1.6-0.3-0.4-0.4c2.2-0.1,2.2-0.1,3.9-0.8c1.5,0,1.5,0,1.9,0.4c1-0.1,1-0.1,4.5-0.2
	c-2.1-0.3-2.1-0.3-2-0.4c-1.9-0.1-4.2-0.1-6.1-0.2c-1.1-0.1-1.6-0.1-2-0.2c-1.6,0-2.2,0.1-2.6,0.5C139.1,16.7,138.9,16.7,138.2,16.9
	z M125.9,17l0.1,0.1l1.6,0l-0.1-0.1L125.9,17z M125.7,17.5c0.4,0,1.1,0,1.2,0.1c0.1,0-0.3,0.1-0.6,0.1c-0.9,0.1-0.6,0.2-0.2,0.3
	c0.1,0,0.3,0,0.4,0c0.9,0,1.7,0.1,2.7,0.1c0.3-0.1,0.9-0.2,0.9-0.3c0-0.2-0.6-0.4-0.9-0.5c-1,0-2.2,0-3.2,0
	c-0.2,0.2,0.8,0.3,3.5,0.3c-0.2,0.1-0.6,0.1-1.7,0v0C126.2,17.5,126.2,17.5,125.7,17.5z M108,21.4C108.1,21.4,108.1,21.4,108,21.4
	c0.3,0,0.5,0,0.7,0c0.8,0,0.8,0,0.5-0.2c-0.2-0.1-0.3-0.1-0.2-0.1l0,0C108,21.1,107.7,21.2,108,21.4z M153.8,27.2
	c-0.1,0-0.2,0-0.2,0c-0.7,0-0.8,0.1-0.6,0.1c0.1,0,0.3,0,0.7,0C154.4,27.4,154.7,27.3,153.8,27.2z M307.2,22.6L307.2,22.6
	C248,22.4,169.2,22,110,21.8c-0.4-0.2-0.8-0.3-3.5-0.3c0.7,0.1,0.7,0.1,0.3,0.3C172.1,24,240.4,22.3,307.2,22.6z M350.9,24.7
	c-1.3,0-1.7,0.1-1.3,0.2v0c0,0,0.1,0,0.1,0C350.8,24.9,350.9,24.8,350.9,24.7z M361.5,16.7c4.3,0,8.7,0.1,12.9,0.1L361.5,16.7z
	 M372.7,26.7c-1.8,0-1.8,0-1.9,0.4c0,0,0.1,0,0.1,0C372.5,26.9,373,26.8,372.7,26.7z M373.5,26.6l-0.1-0.1l-1.6,0l0.1,0.1
	L373.5,26.6z M376.2,24.8l-0.1-0.1c-0.4,0-1.7-0.1-1.6,0c0,0,0.1,0,0.3,0.1c0.3,0,0.6,0,0.8,0C375.8,24.8,376,24.8,376.2,24.8z
	 M377,24.5c0.1,0,0.5,0,0.5-0.1v0c0.1-0.1,0.2-0.1-1.8-0.2c-1,0-1.9,0-2.3,0c0.5,0.1,1.8,0.2,1.8,0.3c0,0,0.1,0,0.1,0
	C375.9,24.5,376.5,24.5,377,24.5z M380.1,26.4l-0.1-0.1c-0.2,0-0.5,0-0.8-0.1c-0.7,0-1.2,0.1-0.6,0.1c0.3,0,0.7,0,0.8,0
	C379.7,26.4,379.8,26.4,380.1,26.4z M384.5,25.5c-0.5-0.1-1.2-0.1-2.3-0.1c-1.5,0-2.6,0.1-3.8,0.1c-0.1,0.1,0,0.1,1,0.2h0
	c0.2,0,1,0.1,0.6,0.1c-0.1,0-0.2,0-0.4,0c-0.4,0-0.7,0-1.1-0.1c-0.8,0-1.1,0-1.4,0c0.4,0.1,0.6,0.1,0.6,0.2c0,0.1,0.1,0.1,0.7,0.2
	c0.6,0,1.3,0.1,2.2,0.1c0.3-0.2-0.1-0.3,0.8-0.5C382,25.5,383.1,25.5,384.5,25.5z M384,24.2c-0.3,0-0.6,0-0.9,0
	c-0.4,0-0.8,0-1.2-0.1c-0.7-0.1-1.3-0.1-2.6-0.1c0.4,0.2,0.6,0.3,0.5,0.5c-0.1,0.2-0.1,0.2,0.4,0.4c0,0,0,0,0.1,0
	c3.2,0,3.9-0.1,4.1-0.2C385.5,24.6,383.8,24.4,384,24.2z M388,24.3c-1.4,0-1.8-0.1-2.4-0.2l0,0c-0.7-0.1-1.1-0.1-2.5-0.2
	c0.4-0.2,2.5-0.3,2.5-0.6c-0.9,0-1.2,0-2.6-0.1c-1.3-0.1-2-0.1-2.9,0c-0.1,0.1,0,0.1,1.5,0.2c0.8,0,0.8,0,1.2,0.1
	c-1.4,0.1-1.4,0.1-0.3,0.6c0,0,0,0,0.1,0c1.7,0,2.4,0.1,2.7,0.1c0.7,0.1,1,0.1,1.4,0.1C387,24.3,387.4,24.3,388,24.3z M388,23.1
	c-0.8,0-1.7,0-2.5,0c0.5-0.2,0.7-0.2,1.9-0.3c-0.2-0.1-0.8-0.2-0.9-0.2c-1.6,0-1.6,0-5.3,0.1c0.4,0.1,0.4,0.1,1.9,0.4
	c0.2,0,0.5,0.1,0.7,0.1C385.1,23.2,386.5,23.1,388,23.1z M406.3,24.4c-0.9,0-1.6-0.1-2.6-0.2c-0.9,0-1.1,0-2.1-0.1h0
	c0.2,0.3,0.7,0.7,0.9,1l1.6,0.1c0.7,0,1.9-0.1,2.3-0.2C406.9,24.9,406,24.7,406.3,24.4z M410.4,22.9l1.7,0.1l0.6-0.1L410.4,22.9z
	 M932.5,22.1c0,0,0.1,0,0.2,0.1c0.3,0,0.6,0,0.7,0.1c0.3,0,0.5,0,0.7,0l0.1-0.1c-0.8-0.1-0.8-0.1-1-0.1
	C932.5,22,932.5,22.1,932.5,22.1z M904.2,23.3c0,0,0.1,0,0.2,0c0.7,0,0.9,0,1.3,0c0.5,0,0.9,0,1.6,0c0.7-0.1-1.7-0.2-2.6-0.1
	C903.8,23.2,904.1,23.2,904.2,23.3z M895.3,22.2c0.1,0,0.3,0,0.4,0c5.2,0,3.4-0.3,3-0.3c-0.6,0-1.4-0.1-2.8-0.1
	C894.8,22.1,894.8,22.1,895.3,22.2z M899.2,22.7c-0.2,0-0.5-0.1-0.7-0.1c-1,0-1.5,0.1-1.5,0.1c0,0,0,0,0.1,0c0.1,0,0.3,0,0.4,0
	C898.1,22.7,898.6,22.7,899.2,22.7z M898.3,23.1c-0.7,0-1.5,0-2.2,0c-0.2,0-0.3,0.1-0.1,0.1c0.4,0.1,1.2,0.1,1.5,0.1L898.3,23.1
	L898.3,23.1z M894.1,22.5c-0.5,0-1.1,0-1.5,0c0,0-0.1,0,0,0.1c0.3,0,1,0.1,2.1,0.1L894.1,22.5z M771,22.5c1,0.2,2.6,0.5,25,0.5
	c-0.3,0.1-0.4,0.2-0.4,0.3c1.2,0,2.9,0,4.1,0c-0.7-0.1-1.8-0.2-2.7-0.3c0.6,0,1.4,0,2.1,0c1,0.1,2.5,0.1,3.7,0.2
	c0.3,0,0.6-0.1,0.9-0.2c9.3-0.1,18.2,0.2,27.5,0.2c0.4,0,0.9,0.1,1.4,0.1c-0.1,0-0.2,0.1-0.4,0.1c0.6,0,1.2,0,1.9,0l0-0.1l1.5,0
	l0.7,0.1c2.7,0,5.4,0,8.1,0c-0.5,0-1.1,0.1-1.6,0.1c-0.6,0-1.4,0-2.1,0c1,0,2.7,0.1,3.9,0.1c0.2,0,0.4,0,0.6,0
	c6.1-0.2,6.5-0.3,10.2-0.2c2.3-0.1,5.4-0.1,7.3-0.3c-0.5,0-1.2-0.1-1.7-0.1c-0.6,0-1.3,0.1-1.8,0.1c-1.4-0.1-1.4-0.1-2.4-0.3
	c4.6,0,4.6,0,6.7-0.2c-2.5-0.3-8.4-0.9-8.4-0.9c0.3-0.1,0.2-0.2-0.2-0.3c-0.7,0-1.5,0-2.1,0c-0.4,0-0.9-0.1-1.2-0.1
	c0.5,0,1.1-0.1,1.6-0.1c4.2,0.1,8.8,0,12.9,0.2c0.1,0.1,0.2,0.1,0.3,0.2c2.2-0.1,2.2-0.1,6.7-0.3l0.1-0.2c3.2,0.1,4.3,0.1,5.2,0.2
	c0.7-0.1,0.7-0.1,0-0.1c-1-0.1-2.6-0.1-3.6-0.2c0.6-0.1,0.7-0.1,1.9-0.2c1.6,0,3.2,0,4.8,0c0.4,0.1,1,0.1,1.4,0.2
	c-0.2,0.1-0.5,0.1-2.2,0.1c-1.5,0-1.9,0-2.2,0.1c3.1,0.3,7.4,0.1,11,0.2c-0.1-0.1-0.3-0.1-1.3-0.1c-1.5,0-3.1,0-4.6-0.1
	c-0.2-0.2,0.4-0.2,3.3-0.2c2.4,0,2.9,0,3.5-0.1c0.9,0,1.3,0.1,1,0.1c-0.3,0.1-0.2,0.1,0.3,0.1c2.2-0.1,0.2-0.3,0.1-0.3
	c-0.5,0-0.5,0-8.9-0.1c-2.6,0-3.7-0.1-5.1-0.2c-4.3,0.2-8.9,0-13.3,0.1c0.1,0,0.2,0,0.2,0c0.9,0.1,2.1,0.1,4,0.1
	c3.5,0,4.8,0.1,6.1,0.1c0,0.1-0.1,0.1-1,0.1c-0.9,0.1-0.8,0.1-0.7,0.2c-1.3,0-3-0.1-4-0.1l-37.5-0.2c-0.8,0-2.3,0-3,0l-27.8-0.3
	c9.8,0.1,19.4,0.2,27.8,0.3c0,0.1,0,0.1,0,0.2c1.8,0.1,4,0.1,5.8,0.2c-0.5,0-1.1,0.1-1.6,0.1c-1.2,0-2.8-0.1-4-0.1
	c-0.6,0-1.4,0.1-1.9,0.1c0.5,0.1,1.2,0.1,1.6,0.2c-0.3,0-0.6,0.1-0.8,0.1c3.8,0.2,4.7,0.3,7.8,0.3c0.4,0,0.9-0.1,1.3-0.1
	c-0.2,0-0.4-0.1-0.6-0.2c0.4,0,1-0.1,1.4-0.1c5.1,0.1,5.1,0.1,5.8,0.2c-1.1,0.1-2.8,0.1-4.1,0.1c0.8,0.1,1.8,0.1,2.5,0.2
	c1.3,0,3.1,0,4.5,0c0,0,0,0.1,0,0.2c-5.5,0.2-10.1-0.1-15.2-0.2c0.2,0,0.5,0.1,0.7,0.2c-0.5,0-1.1,0.1-1.6,0.1
	c-2.7-0.3-2.7-0.3-5.4-0.4c0,0,0.1,0.1,0.2,0.2c0.6,0,1.4,0,2,0c-0.2,0-0.5,0.1-0.7,0.2c-1.1,0-2.6-0.1-3.7-0.1c0.4,0,1,0.1,1.4,0.1
	c-0.4,0-1,0.1-1.4,0.2c-2.5,0-4.4,0.2-6.9,0.2c0.2,0,0.5,0.1,0.7,0.2c-14.4,0.4-28.8-0.2-43.2,0c-0.3,0-0.6-0.1-0.9-0.2
	C771.8,22.4,771.3,22.4,771,22.5z M816.6,22.2c0.2,0,0.5,0,0.7,0h0c0.2,0,0.4,0,0.6,0c-0.6-0.1-0.7-0.2-0.7-0.2
	C816.2,22,816.2,22.1,816.6,22.2z M878.6,22.6l1.5,0l0-0.1l-1.5,0L878.6,22.6z M878.8,21.9c-1.7,0-1.5,0.1-1.1,0.2
	c0.1,0,0.2,0,0.4,0C879.8,22.2,879.7,22,878.8,21.9z M879.2,23.2c0,0,0.1,0,0.2,0c0.3,0,0.6,0,0.9,0c1.4,0,1.2-0.1,0.5-0.2
	c0,0-0.1,0-0.1,0h0C879.6,23.1,879.1,23.1,879.2,23.2z M876,22.6L876,22.6c0.6,0,1.1,0,0.7-0.1c-0.3,0-0.6,0-1-0.1
	c-0.2,0-0.8,0-0.6,0.1C875.2,22.6,875.5,22.6,876,22.6z M848.6,26.1c7,0.1,14.1,0,21.2,0.1c-0.1-0.1-0.1-0.1-0.8-0.2
	c-3.3-0.2-3.9-0.2-4.1-0.2c-0.6,0-0.4,0.1-1,0.1c-5.2-0.2-10.9-0.1-16.1-0.2l0.8,0.1c-0.9,0-1.3,0-1.7,0c0.1,0,0.1,0,0.2,0
	c0.4,0,1,0,1.4,0.1C848.6,26,848.6,26.1,848.6,26.1z M870.3,23.1L870.3,23.1c-1.1-0.1-1.7-0.1-1.7,0c0,0,0,0,0.1,0
	c0.2,0,0.4,0,0.4,0C869.3,23.2,869.7,23.2,870.3,23.1z M872.7,22.4c-1.6-0.1-2.5,0-3.9,0c-1.6,0-2.5,0-4.2-0.1
	c0.1,0,0.2,0.1,0.3,0.1c0.5,0.1,1.3,0.1,1.8,0.2C871.1,22.6,872.6,22.6,872.7,22.4z M867.2,22c0.2,0,0.8,0.1,1.5,0.1
	c0.3,0,0.5,0,0.5-0.1c-1.8-0.1-2.2-0.2-2.2-0.1C867,22,867.1,22,867.2,22z M871.9,23.1c0.2,0,0.5,0,1,0c0.8,0,1.8,0,1.2-0.1
	C873.3,23,872.6,23.1,871.9,23.1C871.8,23.1,871.8,23.1,871.9,23.1z M844.9,26.1c0.4,0,1.2-0.1,0.8-0.1c-0.6-0.1-2.1-0.1-2.9-0.2
	c-1.5,0-1.6,0.2-1.4,0.2c0.2,0,0.7,0.1,2.3,0.1C844.9,26,845.1,26,844.9,26.1z M839,25.6c-1.1,0-1.5,0.1-1.5,0.2c-2-0.1-2,0-1.9,0
	c0,0,0.1,0,0.1,0c0.3,0,1.1,0.1,2.1,0.1C839.7,25.9,839.4,25.8,839,25.6z M832.6,25.7c-1,0-2.1,0-3.1,0c-2.4,0-4.5-0.2-7.1-0.1
	c-1.5,0-2.3,0.1-1.6,0.2c1.2,0.1,8.7,0.2,8.7,0.2c1,0,3.4,0,3.6-0.1C833.3,25.7,833,25.7,832.6,25.7z M816,23.2c-2,0.1-2,0.1-5.9,0
	c-0.5,0-1.2,0.1-1.8,0.1c1.6,0.2,1.6,0.2,5.9,0.3c0.2,0,0.5-0.1,0.7-0.2c4.7,0,9.4,0,14.1-0.1C824.8,23.4,820,23.4,816,23.2z
	 M662.9,28.4C662.9,28.4,662.9,28.4,662.9,28.4C662.9,28.4,662.9,28.4,662.9,28.4L662.9,28.4z M671.9,26.7c-0.2,0-0.4,0-0.6,0
	c-1.4,0-1.1-0.1-1.7-0.2c-0.6,0-0.8,0.1-0.4,0.1c0.5,0.1,1.3,0.1,1.8,0.2v0c0.4,0,0.2,0.1,0.2,0.1C671.4,26.8,671.7,26.8,671.9,26.7
	z M675,27.2c0,0,0-0.1-0.1-0.1c-1.3,0-1.3,0-1.5,0.2L675,27.2z M742.2,28.8c0-0.1-0.1-0.2-0.1-0.3c-0.4,0-0.8,0-1.2,0
	c-4.7-0.1-5.5-0.1-5.4,0.1c-0.7-0.1-1.9-0.2-4.6-0.2c0,0,0,0,0,0.1c-1.4,0.1-2.1,0.2-3.5,0.3c0,0,0.1,0,0.1,0c0.5,0.1,1.3,0.1,1.4,0
	h0c1.1,0,1.9-0.1,2.8-0.1C736.8,28.7,737.6,28.7,742.2,28.8z M750,23c-1.3,0-1.7,0-1.4,0.1c0.1,0,0.7,0.1,1.4,0.1
	C750.4,23.1,751.2,23.1,750,23z M754.8,21.4c1.4,0.3,1.4,0.3,0.9,0.4c1.3,0.1,2,0.2,2.5,0.4l0-0.2c2.9-0.3,2.9-0.3,2.2-0.6
	c-0.6,0-1.4,0-2,0c0-0.4-0.1-1-0.1-1.4l-0.1,1.4C757.2,21.3,755.8,21.3,754.8,21.4z M756.3,23.4c1.4,0,1.6-0.1,1.3-0.2l-2.2,0
	c0,0.1,0,0.2,0,0.2c0,0,0.1,0,0.1,0C755.7,23.4,756,23.4,756.3,23.4z M768.6,26.1c-0.1,0-0.3-0.1-0.5-0.1c-0.3,0-0.4,0-0.5,0.1
	c0,0.1,0.1,0.1,0.2,0.2C768.1,26.2,768.4,26.1,768.6,26.1z M817.7,27.3c-0.7,0-1.1,0-1.4,0c0.1,0,0.1,0,0.2,0c0.7,0.1,1.4,0.1,2,0
	c1,0,1.5,0,2.2,0C820.7,27.4,820.8,27.3,817.7,27.3z M849.5,28.3c-0.7,0-0.9-0.1-1-0.1c-1.9,0-1.4,0.2-1.4,0.2c0.4,0.1,1,0,1.5,0
	c0.7,0,1,0,1.3,0C851.2,28.5,850.8,28.4,849.5,28.3z M850.7,27.7c-2.6,0-5-0.1-7.4,0c0,0,0,0,0.3,0.1c0.3,0,1.2,0.1,3.1,0.1
	C847.7,28,850.9,28,850.7,27.7z M955.2,28.1c-49-0.6-95.8-1.1-174.8-1.9c0.5,0,1.3-0.1,1.8-0.1c-2.1-0.2-2.1-0.2-6-0.4
	c4.1-0.1,4.1-0.1,12.6,0.1c0.3,0,0.7-0.1,0.9-0.2c-0.8-0.1-1.7-0.1-2.5-0.2c-2.5,0-3.2,0-11.5-0.1c-1.2-0.3-1.2-0.3-0.3-0.7
	c2.8-0.1,5.9-0.1,8.8-0.1c0.3,0.1,0.6,0.1,0.9,0.2c0.2,0,0.5-0.1,0.8-0.2c9.8,0.3,20.5,0.3,29.9,0.7c1.5-0.1,1.5-0.3,2.6-0.5
	c1.8,0.2,3.8,0.3,10.7,0.4c-0.4-0.2-0.4-0.2-4-0.4c0,0,0-0.1,0-0.2c0.7,0,1.6,0,2.4,0c0.2-0.1,0.4-0.2,0.6-0.2
	c-3.5,0.1-7-0.1-10.4,0c-8.3-0.5-19.3-0.1-27.6-0.6c-0.2-0.3-0.6-0.3-4.2-0.5c-5.1,0.3-5.1,0.3-6,0.3c-0.6-0.2-0.6-0.2-3.7-0.4
	c-4.2,0.1-4.2,0.1-6,0.1c-0.8,0.1-2,0.2-2.9,0.4c-0.4-0.1-0.8-0.2-1-0.3c-1.5,0.3-2.6,0.6-8,0.5l0-0.2c-0.1,0.1-0.1,0.2,0,0.2
	c-0.5,0-1.1,0-1.6,0.1c-0.1,0-0.3,0.1-0.4,0.1c0.5,0,1.1,0,1.6,0.1c0.2,0.6,0.5,1.4,0.7,2l-0.2-2l0.3,0c1.1,0,1.4,0.1,1.9,0.1
	c-0.7,0.1-0.8,0.1-0.7,0.3c3.4,0,6.1,0.3,4.5,0.4c-0.5,0-1.6,0-2.3,0.1c0.3,0.2,1.9,0.4,1.6,0.6c0.7,0,1.5,0,2.2,0
	c-1.2,0-1.6,0.1-1.7,0.2c-0.1,0.1-0.2,0.1-1.3,0.2c0.5,0,1.5,0.1,2.7,0.1c1.8,0,3.1-0.1,4.8-0.2c3.3,0.3,5.9,0.4,7.1,0.4
	c52.5,0.9,124.2,1.4,177.4,2C955,28.1,955.1,28.1,955.2,28.1z M816.9,25.7c-0.2-0.1-2.7-0.2-3.7-0.1c0,0,0.1,0,0.2,0.1
	c0.4,0.1,1.3,0.1,1.6,0.1C815.8,25.8,816.4,25.8,816.9,25.7L816.9,25.7z M787.4,26.2c0.1,0,0.2,0,0.3,0c0.9,0,1.7,0.1,2.1,0.1
	c3.3,0,3.5-0.2,3.6-0.2C790.2,26,788.3,26,787.4,26.2z M970.3,23.4c-0.1,0-0.2,0-0.2,0C970.1,23.4,970.2,23.4,970.3,23.4
	c0.4,0.1,1.4,0.2,1.8,0.2c0.3,0,0.5,0,0.8,0C973.2,23.3,971.4,23.3,970.3,23.4z M1074.9,22.8c-1-0.1-1.6-0.1-1.7,0c0,0,0,0,0.1,0
	c0.1,0,0.3,0,0.5,0C1074.3,22.8,1074.7,22.8,1074.9,22.8z M1086.6,22.1c0.4,0,0.7,0,1.1,0c0.2-0.2-1.7-0.3-3.5-0.2
	c0.1,0,0.2,0.1,0.3,0.1C1085.1,22.1,1085.9,22.1,1086.6,22.1z M1094.3,22.8c-0.4,0-0.7,0-1.3-0.1c-0.7,0-1.5,0-2.2,0
	c-0.6,0-1,0-1.5,0h0c0.1,0,0.1,0.1-0.2,0.1c-0.6,0-1.4,0-2.1,0c0.2,0.1,0.5,0.1,0.7,0.2c0,0,0.1,0,0.2,0c1.6,0.1,2.2,0,3,0
	c0.6,0,1.3-0.1,2.6,0C1092.7,22.9,1092.9,22.8,1094.3,22.8z M1097.2,22.8l-1.3,0l-0.1,0.1l1.3,0L1097.2,22.8z M1113.7,22.9
	c0.1-0.1-0.5-0.1-1.9-0.1c-0.6,0-1.2,0-1.7,0c0,0,0,0,1.1,0.1c0.7,0.1,0.3,0.1-0.6,0.1c0,0,0.1,0,0.1,0c0.1,0,0.3,0,0.9,0
	C1112.5,23,1112.9,23,1113.7,22.9z M1122.4,22.7c-1.2,0-1.7,0-1.4,0.1c0.1,0,0.6,0.1,1.2,0.1C1122.8,22.9,1123.4,22.8,1122.4,22.7z
	 M1614.3,22.8c-0.1,0-0.2,0.1,0,0.1c0.2,0,0.7,0.1,2.2,0.2c0.8,0,1.2,0,1.8,0h0C1618.9,22.8,1616.3,22.7,1614.3,22.8z M1626.3,23.2
	c-0.1-0.1-0.5-0.1-0.7-0.2c-1.3,0-1.7,0.1-2,0.3c0.1,0,0.2,0,0.2,0c0.8,0,1.3,0.1,2.1,0.1C1626,23.4,1626.3,23.3,1626.3,23.2z
	 M1632.9,23.3c-1.1-0.2-1.1-0.2-1.6-0.3c-1.6-0.1-2.1,0-2.3,0c-0.5,0.1,0,0.2-0.1,0.3c0,0,0.1,0,0.1,0c0.3,0,0.5,0,0.8,0
	c0.5,0,0.8,0,1.3,0C1631.7,23.3,1632.3,23.3,1632.9,23.3z M1645.5,23.2c-1.9-0.1-4.6-0.2-7.2-0.2h0c-3.2,0-3.7,0.2-3.6,0.2
	c0,0,0,0,0.1,0c0,0,0.2,0,0.2,0c0.5,0,1.1,0,1.6,0c1.4,0,1.7,0.1,2.8,0.2C1642.8,23.5,1644.6,23.3,1645.5,23.2z M1649.7,23.1
	c-0.8,0-1.8,0-2.5-0.1c-0.2,0-0.6,0.1-0.3,0.2c0.2,0.1,1,0.1,1.3,0.1c0.3,0,0.5,0,0.8,0C1649.3,23.3,1649.7,23.2,1649.7,23.1z
	 M1649.7,22.9L1649.7,22.9c-0.1,0-0.2,0.1,0,0.1c0.3,0.1,1.5,0.1,1.8,0.2C1652.5,23,1651.2,22.9,1649.7,22.9z M1657.7,22.8
	c-0.7,0-1.7,0-2.4-0.1c-0.2,0.1-0.8,0.2-0.5,0.3c0.3,0.1,1.3,0.1,2.4,0.2C1657.8,23.1,1657,23,1657.7,22.8z M1856.6,18
	c-0.2,0-0.9,0-1.9-0.1c0,0,0,0,0,0c0.3,0.1,0.8,0.1,1,0.1C1856.4,18,1856.7,18,1856.6,18z M1883.9,18.2c-0.9,0-1.4,0-1.8,0.1
	c0,0,0.1,0,0.1,0c0.2,0,0.4,0,0.7,0C1884.2,18.4,1884.4,18.3,1883.9,18.2z M1887.2,18c-0.9-0.1-1.7,0-1.7,0.1c0,0,0,0,0,0
	c0.1,0,0.3,0,0.4,0.1c0.2,0,0.4,0,0.6,0C1886.8,18.1,1887,18.1,1887.2,18z M1892.4,18.5c-0.7,0-0.9-0.1-0.9-0.1l0,0
	c-0.7,0.1-1.5,0.2-2.1,0.3c0,0,0,0,0,0c0.3,0,1,0,1.9,0c0.4,0,1-0.1,2,0C1893.7,18.6,1893.2,18.5,1892.4,18.5z M1899.1,18.6
	c-0.8,0-1.2,0-1.9,0c-1,0-1.8-0.1-2.8-0.1c-0.1,0-0.2,0.1-0.1,0.1c0.2,0.1,1.3,0.1,1.7,0.2C1897.5,18.8,1898.4,18.8,1899.1,18.6z
	 M1940.2,19c-0.3,0-0.6,0-0.8,0c-1.1,0-1.7-0.1-2.9-0.2c-1.2,0.1-2.8,0.2-3.8,0.3c-1.5-0.1-2.6-0.2-4.3-0.2c0,0-6.2,0-6.6,0
	c-0.6,0-0.7,0-2,0c-2.6-0.1-4.7-0.3-7.8-0.3l0,0c-4.2,0-5.9,0.2-6.5,0.3c0,0,0.1,0,0.1,0c0.8,0.1,1.8-0.1,2.9,0c0.5,0,0.8,0,1.6,0.1
	c1.3,0.1,2.5-0.1,3.9,0c0.2,0,0.9,0,1.3,0.1c0.1,0,0.1,0,0.2,0c0.3,0,0.6,0,1.6,0c0.4,0,0.8,0,1.2,0c0.2,0,0.5,0,0.7,0c0,0,0,0,0,0
	c0,0,0,0,0,0c0,0,0,0,0,0c0,0,0,0,0,0c0,0,0,0,0,0c0.9,0.1,0.9,0.1,2.7,0c1.5,0,1.8,0.2,3,0.2c0.6,0,1.5-0.1,2.1-0.1
	c0.8,0,1.4,0.1,2,0.1c0.3,0,0.6,0,2.7,0c1.8,0,2.3,0,3.6,0c0.2,0,0.7,0,1.5,0.1C1938.7,19.3,1939.4,19.2,1940.2,19z M1945.3,19.2
	l1.1,0l0.4-0.1l-1.1,0L1945.3,19.2z M1948.6,19.6c-0.6-0.1-1.8-0.1-2.5-0.2c-0.7-0.1-0.7-0.1-0.7-0.1c0,0-0.1,0-0.1,0
	c0,0-0.1,0-0.1,0c-0.3,0-0.7,0.2-0.6,0.3C1946.6,19.6,1946.6,19.6,1948.6,19.6C1948.8,19.6,1948.8,19.6,1948.6,19.6z M284.1,18.9
	L284.1,18.9L284.1,18.9L284.1,18.9z M762.8,24.1c-1.6,0-1.4,0.1-1.1,0.2c0.1,0,0.2,0,0.4,0C763.9,24.3,763.8,24.1,762.8,24.1z
	 M797.8,24.3c-0.7,0-1.6,0-2.2,0v0.2c0,0,0,0,0,0C796.4,24.4,797.9,24.5,797.8,24.3z M780.6,24.5c0.7-0.2,2.2-0.2,5.3-0.2
	c2.6,0,3.8,0,4.4-0.1c-0.7,0-1.6,0-2.4,0c-1.1,0-1.9-0.1-2.9-0.1c-0.8,0.1-1.9,0.1-2.2,0.2c-0.9,0-0.9,0-1.4-0.1
	c-0.2-0.1-0.7-0.1-1.5-0.1C779.9,24.4,779.9,24.4,780.6,24.5z M811,24.8c0.4,0,0.6,0,0.6,0c0,0-0.4-0.1-0.6-0.1c1,0,1.2,0,2.1,0.1
	c0.7,0.1,1.3,0.1,3.2,0.1c0.2-0.1,1-0.2,1-0.3c0-0.1-0.1-0.1-0.9-0.2c-2.5,0-4.8,0.1-7.4,0.1c-2.5,0-4.5-0.1-6.7-0.2
	c0,0,0,0.1,0,0.1c-0.2,0-0.4,0-1.4-0.1c-1.6-0.1-1.6-0.1-1.6,0.2c0,0,0.1,0,0.1,0C801.1,24.4,807.5,24.5,811,24.8z M625.9,18.7
	c-0.5,0-1.1,0-1.4,0h0c0,0,0,0,0,0c0.7,0,1.4,0,2.2,0C626.4,18.7,626.1,18.7,625.9,18.7z M776.9,23.7c-0.1-0.1-0.8-0.1-2.5-0.1
	c-0.4,0-0.7,0-1.1,0c-0.5,0.1-0.5,0.1,0,0.3c0.4,0,1,0,1.4,0h0C776,23.8,775.5,23.6,776.9,23.7z M1969.3,19.4L1969.3,19.4
	c2.2,0.1,3,0.1,3.5-0.1c0.4,0,0.7,0,1.6,0c1.5,0,1.9,0,2.3-0.1c-2.1-0.1-3.2-0.1-4.5,0c-0.3,0-0.7-0.1-0.9-0.1
	c1.2,0,1.9-0.1,2.7-0.4c-0.7,0-1.6-0.1-2.3-0.1c-0.1,0.1-0.6,0.2-1.4,0.2c-0.9,0-1.3,0.1-1.4,0.2c0.1,0,0.2,0,0.2,0c1,0,1.3,0,1.3,0
	c0,0-0.1,0-0.2,0C1970,19.4,1969.6,19.4,1969.3,19.4z M1980.2,20.7c0.1,0,0.4,0.1,0.8,0h0c0.3,0,0.4-0.1,0.5-0.1
	C1980,20.6,1980.2,20.7,1980.2,20.7z M457.8,13.9l0,0.1l1.5,0l0-0.1L457.8,13.9z M1963.8,19.3C1963.8,19.3,1963.8,19.3,1963.8,19.3
	c1.7,0.1,2.9-0.1,4.5,0c0.2,0,0.4-0.1,0.6-0.2c0,0,0.3,0,0-0.1c-0.4,0-1,0.2-1.1,0.2c-0.2,0-0.5-0.1-0.7-0.1c-0.8,0-1.6,0-2.4,0
	c0.2,0.1,0.2,0.1-0.2,0.1C1964.1,19.2,1964,19.2,1963.8,19.3z M455.7,4.9c0.1-0.2-1.5-0.2-1.8-0.2c-0.6,0-0.9,0-1.3,0
	c0,0,0.1,0,0.1,0c0,0,0,0,0.1,0C453.2,4.9,454.1,4.9,455.7,4.9z M932,16.3l-0.1,0.1l2.9,0l-1.3-0.2L932,16.3z M235.1,5.8
	C235.1,5.7,235.1,5.7,235.1,5.8c-1.1-0.1-2.1,0-3.2,0c0,0,0.1,0,0.3,0.1C232.8,5.9,234.7,5.9,235.1,5.8z M0,11.4
	c0.1,0,0.1,0.1,0.2,0.2c1.5,0.1,1.4,0.3,3.3,0.3C2.8,12,2.8,12,4,12.1c1.4,0.1,1.4,0.1,1.7,0.4l2.5,0.2c3.4,0.5,3.4,0.5,4.5,0.6
	c0.8,0.5,5.5,0.9,6.1,1.4l1.7,0.1c0.3,0.1-0.7,0.3,0.5,0.4l2.5,0.2c0,0,8.5,1.6,9.8,1.8c1.1,0.2,1.8,0.2,2.5,0.2
	c4.1,1.2,4.4,1.2,9.6,1.5c-1.8-0.6,4.1-0.7,5.2-0.7c3,0,0.7,0.4,3.4,0.4c-0.4-0.2-0.4-0.2,0.7-0.2c-0.6-0.4-0.6-0.4-1-0.4
	c1.3-0.3,1.5-0.6,4-0.8c1,0.2,1.2,0.3,0.7,0.6c0.4,0,1,0,1.4,0c0.7,0.1,0.6,0.2,1.1,0.3c0.3,0,0.6,0,0.8,0c-0.4,0.3-2.9,0.6-3.3,0.9
	c-0.1,0.1-0.1,0.1,1.8,0.5c0.6,0.1,3.9,1.5,3.9,1.6c0.7,0,1.7,0,2.4,0.1c-0.1,0.2-0.7,0.3-0.8,0.5C46,21.5,23,21.4,0,21.3v-4.5
	c1.9,0.3,4.4,0.4,8.5,0.6c0.2-0.1,0.2-0.1-0.5-1c-5.2-0.3-3.4-0.9-6.1-1.3c0.1,0,0.3,0,0.5,0c3.7,0,4.3,0,13.2,0L5,15
	C5,15,5,15,4.8,14.9c-1.5-0.1-3,0-4.5,0c0-0.1,0.5-0.3,1.7-0.4c0.5,0.1,2,0,2.9,0c-0.7-0.3-0.7-0.3,1.2-1.2c-1.4,0-1.7,0-6-1.3V11.4
	z M2.2,20.5L2,20.3l-1.4,0l0.2,0.1L2.2,20.5z M12.9,17.9c-0.1-0.1-0.3-0.2-0.4-0.3c-1.4,0-2.2,0.2-1.4,0.2
	C11.5,17.9,12.2,17.9,12.9,17.9z M33.5,20.8C33.5,20.8,33.6,20.8,33.5,20.8c0.8,0.1,1.5,0.1,2.4,0.1C36.1,20.8,35.1,20.8,33.5,20.8z
	 M76.8,7.6C76.8,7.6,76.9,7.6,76.8,7.6l-1.4,0.1c0,0,0.1,0,0.2,0C75.9,7.8,76.5,7.7,76.8,7.6z M73.6,21.4L73.6,21.4
	c-0.4-0.2-0.8-0.2-2.1-0.3c-0.1,0-0.2,0-0.3,0c0.2,0,0.6,0.1,0.3,0.2c-0.3,0.1-1.3,0.2-1.8,0.2l4.6,0C74,21.5,73.9,21.5,73.6,21.4z
	 M71.8,20.5L71.8,20.5c0.1,0,0.1,0,0.1,0c1.3,0,2.4-0.1,3.6-0.1c-0.4-0.1-1.7-0.3-2.1-0.4c-0.2,0-0.4,0-0.6,0c-0.8,0-1.5,0-2.3,0.1
	C70.9,20.2,71.9,20.4,71.8,20.5z M79.6,14.2c0.4,0.1,2.2,0.2,2.4,0.3c0.2,0.1,0.2,0.2-1,0.3c-1.2,0.2-1.6,0.2-0.5,0.5l5.8,0
	c-2.6-0.5-1.3-0.6,0.2-0.7c-1-0.2,1.5-0.5-2.2-0.7c1.1-0.6-0.8-1.2,0-1.7c-0.7,0-1.6,0-2.3,0c0-0.1,2.8-0.1,2.8-0.3
	c-0.9,0-0.9,0-1.3,0c0.6-0.2,2.3-0.3,1.8-0.5c-0.6,0-1.3,0-1.9,0c0,0-0.1,0-0.1,0c0.9-0.1,0.9-0.1,0.9-0.2c-1.6,0-2-0.1-3.1-0.1
	c-0.3,0-0.6,0-0.9,0c0.2,0.2,1.3,0.5,1.5,0.7c0.3,0.3-4.1,0.6-0.8,1c-1.6,0.2-1.3,0.4-2.6,0.5C79.2,13.6,78.7,13.9,79.6,14.2z
	 M104.6,12.3L104.6,12.3c-0.5,0-1.1,0-1.4,0c-0.3,0-0.7,0-1,0c0,0,0,0.1,0.4,0.1c0.5,0.1,1.1,0.1,1.4,0.2
	C106.1,12.6,105.7,12.4,104.6,12.3z M81.5,10.3L81.5,10.3c0.6,0.1,1.6,0.2,1.9,0.1c0.1,0,0.1,0,0.1,0c-0.2,0-0.5,0-0.8-0.1
	c-0.7-0.1-1.1-0.1-1.4-0.1C80.9,10.2,81.4,10.3,81.5,10.3z M96.7,13.2l-0.1-0.1l-1.5,0l0.1,0.1L96.7,13.2z M98.4,15.8L98.4,15.8
	c-1.5,0.1,0.8,0.4-1.9,0.4c-0.2,0-0.5,0-0.7,0c0.1-0.1,0.3-0.1-0.2-0.3c-0.6-0.2-0.6-0.3,0.9-0.4c-1.5-0.3-1.3-0.7,0-0.7
	c0.1,0,0.1,0,0.2,0c0.2,0.1,0.3,0.1,0.9,0.2c0.6,0.1,0.7,0.1,0.2,0.3c1.5,0,2,0,3.1,0.2c0.9,0.1,1.4,0.1,3.2,0c0,0.2,1,0.3,0.3,0.5
	c-0.4,0.1-1.2,0.1-2.7,0.1C101,15.6,98.4,15.8,98.4,15.8z M99.9,15.7l-0.1-0.1l-1.6,0l0.1,0.1L99.9,15.7z M851,21.6
	c0.1,0,0.3,0,0.5,0c0.5,0,1.1-0.1,1.5-0.1c-0.2,0-0.4-0.1-0.8-0.1C851.3,21.5,850.6,21.5,851,21.6L851,21.6z M853.2,22.7
	c0.3-0.1,0.3-0.1-0.4-0.1c-1.5,0-1.9,0.2-1.3,0.2c0.5,0.1,1.6,0.1,2,0C852.8,22.8,852.9,22.8,853.2,22.7z M55.9,16.9
	c0,0,0.1,0,0.1,0c1.6,0,1.4-0.1,1.2-0.2c-0.3,0-0.5,0-0.8,0c-0.2,0-0.6,0-0.7,0C55.5,16.8,55.9,16.9,55.9,16.9z M849.2,22.1
	c-1.2,0-1.5,0.1-1.6,0.2c0.7,0,1.6,0,2.2,0L849.2,22.1z M821.4,24.7l-1.4,0v0.1l1.4,0L821.4,24.7z M858.1,21.9c0,0-0.1,0-0.2,0
	c-2,0-2.3,0.1-2.8,0.3c0,0,0.1,0,0.1,0C857.8,22.1,858,22.1,858.1,21.9z M262.5,8.6c0.6,0.1,1.7,0.1,2.1,0.3c1.2,0,1-0.1,0.4-0.2
	c-0.6-0.1-0.8-0.1-0.5-0.2c-0.1,0-0.2,0-0.3,0c-0.8,0-1.3,0.1-2.1,0.1C262.1,8.5,262.1,8.5,262.5,8.6z M627.5,5.4L627.5,5.4
	c0.2,0.1,0.3,0.2,0.3,0.2c0,0-0.5,0-1,0.1c-0.9,0-1.2,0-0.8,0.1c0,0,0,0,0.1,0c3.4,0.1,5-0.4,3.3-0.6c-0.7-0.1-1.6-0.1-2.2-0.1
	c-0.7,0-1.4,0-1.5,0.1c0,0,0,0,0,0c0,0,0.4,0.1,0.8,0.1C626.8,5.3,627.3,5.4,627.5,5.4z M656.1,10c1.4,0,1.6-0.1,1.5-0.2
	c-1.4,0-1.9,0.1-1.6,0.2C656.1,10,656.1,10,656.1,10z M629.1,5.8c-0.6,0-0.8,0-1.3,0.1c-0.4,0-0.7,0.1-2,0c0,0.1,0,0.1,0.2,0.1
	c0,0,0,0,0.1,0c0.2,0,0.4,0,1,0.1c0.9,0,1.2,0,1,0.2C630.7,6.2,630,5.9,629.1,5.8z M704.5,13.1L704.5,13.1l4.6,0
	c-0.8-0.2-1.9-0.2-3.9-0.3c-0.2,0-0.3,0-0.5,0C704.8,13,704.9,13,704.5,13.1z M613,8.7L613,8.7c-0.1,0-0.3-0.1-1.1-0.1
	c-0.2,0-0.4,0-0.6,0c0,0.1,0,0.1,0,0.2c0,0,0.1,0,0.1,0C612.6,8.8,613.1,8.7,613,8.7z M672.9,9c0.3,0,1,0.1,1.2,0c0.1,0,0-0.1,0-0.1
	C672.2,8.9,672.9,9,672.9,9L672.9,9z M491.4,3.6L491.4,3.6c0.1,0,0.1,0,0.2,0c2.8,0,2.9-0.3,2.9-0.3c-1.2,0-1.9,0-2.3-0.1
	c-1,0-1,0.1-0.8,0.3C491.5,3.5,491.5,3.5,491.4,3.6z M603.7,7.3l2.3,0l0-0.1l-2.3-0.1L603.7,7.3z M531.6,13.4c0.1,0,0.3,0,0.5,0.1
	c1.5,0,1.6-0.1,1.1-0.2c0,0,0,0-0.1,0c-0.1,0-0.2,0-0.4,0C531.1,13.2,531.2,13.3,531.6,13.4z M576.2,8c0.3-0.1,0.6-0.1,0.9-0.2
	l-1.6-0.1c-0.5,0-0.8,0-0.5,0.1C575.4,7.9,576.3,7.9,576.2,8z M605.4,6.7c-0.3,0-0.7-0.1-1.1-0.1c-0.7,0-0.9,0.1-0.6,0.1
	C603.9,6.7,604.3,6.8,605.4,6.7z M524.2,11.6l3.8,0c0-0.2,1.3-0.4,0.7-0.6c-0.3,0-0.8,0-1.1-0.1c-1.1-0.1-0.1-0.1,0.4-0.1
	c-0.1,0-0.2,0-0.4,0c-0.1,0-0.3,0-0.4,0c-1.4,0-4.7,0.3-1.5,0.5c-0.4,0-1.3,0-1.5,0c-0.1,0-0.1,0,0,0.1
	C524.2,11.5,524.2,11.5,524.2,11.6z M711.7,8c1.1-0.1-0.3-0.5-2.2-0.5c0.6,0.2,1.3,0.4,2.1,0.6C711.6,8,711.7,8,711.7,8z M591.3,7.5
	c0.2,0,0.7,0.1,1.4,0c0,0,0-0.1,0-0.1L592,7.4c0,0-0.1,0-0.1,0C591.3,7.4,590.7,7.4,591.3,7.5L591.3,7.5z M592.6,8.3
	c0.1,0,0.1,0,0.2,0c2-0.1,2.2-0.1,1.4-0.3c-0.2,0-0.4,0-0.7,0C591.7,8,592.9,8.2,592.6,8.3z M664.3,8c0.1,0,0.5,0,0.7,0.1h0l0.8-0.2
	c-0.2,0-0.3,0-0.4,0C664.1,7.9,664.3,8,664.3,8z M781.6,12.8c1.1,0,1.1-0.2,1.1-0.2c0-0.2-0.9-0.4-1-0.6c-0.9,0.2-0.6,0.6-0.3,0.8
	C781.4,12.8,781.5,12.8,781.6,12.8z M767.8,16.4L767.8,16.4c0.4,0.1,1,0.1,1.6,0.1c0,0,0-0.1-0.4-0.1c-0.4-0.1-0.6-0.1-0.3-0.2
	c-0.1,0-0.2,0-0.3,0C766.9,16.1,767.2,16.3,767.8,16.4z M712.6,9.2L712.6,9.2c0.6,0.1,1.8,0.1,2.4,0.1c0.7-0.2,0.1-0.4-1.1-0.9
	c-0.3,0-0.6,0-0.9,0c-0.1,0-0.3,0-0.4,0c-0.2,0-0.3,0,0.1,0.1c0.4,0.1,0.4,0.1,0.1,0.2c-0.2,0.1-0.5,0.2-0.5,0.3c0,0,0,0,0,0
	C712.2,9.1,712.5,9.1,712.6,9.2z M781.6,14.3c0.2,0,0.6,0.1,1.4,0c0.2-0.1-0.5-0.2-0.8-0.2C781.5,14.1,781.1,14.2,781.6,14.3z
	 M831.1,17.3C831.4,17.3,831.2,17.3,831.1,17.3c3.1,0.1,3.7,0.1,6.8,0.2c0.2-0.1,0-0.1-0.7-0.1c-0.6,0-0.7-0.1-0.7-0.1
	c-0.4,0-0.7,0-1.1,0c-0.6,0-1.2,0-2.3,0c-1.4,0-2,0-2.6-0.1c-0.1,0-0.2,0-0.3,0c-0.1,0-0.1,0-0.2,0c-0.1,0-0.2,0,0,0
	C830.2,17.2,830.8,17.2,831.1,17.3z M801.8,12.8l-0.7-0.1l-1.6,0.1l0.8,0.1L801.8,12.8z M823.1,16.7c0.2,0,0.2,0,2.2,0.1
	c-0.2,0-0.4-0.1-0.7-0.1L823.1,16.7C823,16.6,822.9,16.7,823.1,16.7z M768,16.6c-1.1-0.1-2.6,0-3.8-0.1c0.1,0,0.1,0,0.2,0
	c0.5,0.1,1.1,0.1,1.6,0.1c0.9,0,1.3,0.1,1,0.2C768.8,16.9,767.6,16.7,768,16.6z M716,11.6c3.5,0,3.2-0.2,2.9-0.2
	c-0.4,0-1.1,0-1.5-0.1c-0.3,0-0.1-0.1,0.1-0.1c-0.2,0-0.4,0-0.6,0c-1.1,0-1.1,0.1-1,0.2c0.1,0.1,0.1,0.1-0.1,0.1
	C715.8,11.6,715.9,11.6,716,11.6z M748.4,16.8c0.8,0.1,2.2,0,2.9,0.1c0.2,0,0.5,0,0.7,0l0-0.1l-0.7,0l-2.2-0.1
	C748.6,16.7,748,16.7,748.4,16.8z M763.7,13.9c0.3,0,1,0.1,1.2,0c0.1,0,0-0.1,0-0.1C763.2,13.8,763.5,13.9,763.7,13.9z M713.8,8.3
	L713.8,8.3c0,0,0-0.1,0-0.1L713,8.2c0,0-0.1,0-0.1,0c-0.7,0-1,0.1-0.5,0.2C712.6,8.4,713,8.4,713.8,8.3z M751.1,17.5l2.3,0
	c0,0,0.5-0.3-1.4-0.3c-0.8,0-1.6,0-2.4,0C750.1,17.2,750.7,17.4,751.1,17.5z M765,16.1c0-0.1,0-0.1,0.1-0.2c-0.2,0-0.5,0-0.7,0
	c-0.8,0-1.5,0-2.3,0c0,0,0.1,0,0.2,0.1C762.6,16,763.5,16.1,765,16.1z M243.8,2.6c1.5,0,1.5-0.1,1.4-0.2c-1.4,0-1.9,0.1-1.6,0.2
	C243.7,2.6,243.7,2.6,243.8,2.6z M302.1,14.8l-0.1-0.1l-1.6,0l0.1,0.1L302.1,14.8z M282.8,17.3c1.9,0,0.2-0.3-0.2-0.3
	c-1.8,0-0.1,0.3-0.1,0.3C282.6,17.2,282.7,17.2,282.8,17.3z M305.2,16c0.2-0.1-0.3-0.2-0.1-0.3c-0.2,0-0.4,0-0.6,0
	c-1.7,0-2.1,0.2-1.5,0.3C303.4,16.1,305,16.1,305.2,16z M265.8,8c-0.2,0-0.6-0.1-1.2-0.1c-1.1,0-2.5,0.1-1.9,0.2
	C263.6,8.1,264.8,8.1,265.8,8z M303.1,16.3L303.1,16.3c0,0,0.1,0,0.2,0c1.3,0.1,3.8,0.1,3.7-0.1c0,0-0.1,0-0.1-0.1c-0.3,0-0.7,0-1,0
	C302.1,16.1,303.1,16.3,303.1,16.3z M370.5,10.6c3.2,0,4.6-0.2,4.4-0.4c-1.3,0-2,0-2.5-0.1c-2.4,0-2.4,0.3-2.1,0.6
	C370.3,10.6,370.4,10.6,370.5,10.6z M357.2,11.4c0.1,0,0.2,0,0.3,0c1,0,1-0.1,0.9-0.2c-0.1-0.1,0-0.2,2-0.2
	c-0.3-0.1-0.7-0.1-0.9-0.2l-2.3,0C356,11.1,356.4,11.2,357.2,11.4z M241.4,3L241.4,3c0.7,0,1,0,1.5,0c0.1,0,0.1,0,0.2,0
	c1.7-0.1,1.4-0.2,2.2-0.3c-0.7,0-1.6,0-2.4,0c0.4,0.1,0,0.2-0.7,0.2C241.5,2.9,241.2,2.9,241.4,3C241.4,3,241.4,3,241.4,3z
	 M236.2,4.6c0.1,0,0.2,0,0.2,0h0c1,0,2.3,0,3,0c-1.3-0.1-0.9-0.2,0.5-0.3c0.9-0.1,0.9-0.1,1-0.2c0.2-0.1-0.6-0.3,0.1-0.4
	c1.1-0.2,1.2-0.2,0.5-0.5c-0.2,0-0.4,0-0.6,0c-0.3,0-0.7,0-1,0c-0.1,0.1,0.7,0.1,0.7,0.2c-2.4,0.2-3.4,0.3-3.7,0.5
	c0.9,0,2.2,0.1,3.1,0.1c-1,0.1-2.7,0.2-3.5,0.3C235.9,4.4,236.1,4.5,236.2,4.6z M232.8,5.2c0.6,0.1,1.9,0,2.2,0.1
	c2.2-0.1,1.1-0.4,4.6-0.5c-0.7-0.1-0.9-0.1-1-0.3c-0.1,0-0.2,0-0.3,0c-4.1,0-3.6,0.4-5.7,0.5C232.5,5.2,232.5,5.2,232.8,5.2
	L232.8,5.2z M845.3,19.4L845.3,19.4c0.1,0,0.1,0,0.2,0.1c0.6,0.1,2,0.1,2.8,0.1c0.4-0.1,0-0.1-1.3-0.1
	C846.5,19.4,845.9,19.4,845.3,19.4z M372.3,11.1L372.3,11.1c0.1,0.1-0.1,0.1-0.3,0.2c0.1,0,0.2,0,0.2,0c1-0.1,1.3-0.2,2.6-0.2
	c0.8,0,2.1,0,2.6,0.1c-0.6-0.1-1.6-0.1-2.1-0.2c-0.4-0.1-0.4-0.1-0.4-0.2c-1.4,0-2.4,0.1-3.9,0.1C371.5,10.9,372.1,11,372.3,11.1z
	 M236.5,5.7c1.7-0.1,1-0.1-0.6-0.2c-1.6-0.1-2-0.1-1.8-0.2c-0.2,0-0.3,0-1,0.1c-1.1,0-1.3,0.1-1.3,0.2c0.1,0,0.2,0,0.3,0
	C235.8,5.5,236.3,5.6,236.5,5.7z M248.2,12.2c0.1-0.3-0.3-0.4-1.9-0.7c1.4-0.1,3.5,0,4.6-0.2c-1-0.1-1-0.2,0.7-0.3
	c2-0.1,1.8-0.2,1.3-0.4c0.9,0,2.4,0,3-0.1l2.2-0.8h0c-0.1-0.1-0.4-0.1-1-0.2c1.4,0,2-0.1,2.8-0.2c0.5-0.1,0.8-0.1,1.8-0.1
	c-0.5,0-2-0.3-0.2-0.4c0.1,0,0.3,0,0.5,0c0.7,0.1,0.9,0.1,1,0.3c0.1,0.2,0.2,0.2,1.2,0.3c-1.8,0.2-1.8,0.2-3,0.3c0,0,0,0,0,0.1
	l-1.5,0c0.5,0,1,0,1.4,0c-0.7,0.7-0.7,0.7-6.2,2.8c2.2,0.1,3.2,0.2,1.8,0.3c-0.2,0-0.5,0-0.7,0c-2.2,1.5-2.2,1.5-2.8,1.7
	c1.5,0,1.5,0,6.5,0.4c3.1-0.1,3.1-0.1,4.3-0.1c0.8,0.1-1,0.2-1.1,0.2h0c3.3,0.2,3.3,0.2,2.6,1.1L240,16c0-0.1-0.1-0.5-3.6-0.6
	c2.7-0.5,2.7-0.5,1.1-0.7c0.5,0,0.5,0,1.9,0c0.1,0,0.2,0,0.3,0c-0.4-0.3,2.2-0.6,1.8-0.9c4.7,0,5.2-1.6,5.2-1.6
	C247.2,12.2,247.8,12.2,248.2,12.2z M248.8,15.2c-1.1,0.2-1.4,0.3-3,0.3c0.5,0.2,0.5,0.3,0.3,0.4c-0.1,0.1-0.1,0.1,0.1,0.2
	c0.2,0,0.4,0,0.5,0c1.4,0,2.7,0,4.1,0c-0.3-0.1-0.6-0.2-0.9-0.2c0.8-0.1,0.8-0.1,3.9,0v0c0.2-0.1,0.9-0.2,0.5-0.2
	c-0.5-0.1-1.5-0.1-2.9-0.2C250.4,15.3,248.7,15.3,248.8,15.2z M247.7,14.8c0,0.1,0.6,0.1,0.8,0.1c0,0,0.1,0,0.1,0
	c0.5,0,0.5,0,0.5-0.1c-0.1,0-0.6-0.1-0.7-0.1C248.1,14.7,247.7,14.7,247.7,14.8z M388.3,8l0-0.1l-1.6,0l0,0.1L388.3,8z M426.7,1.6
	c0.1,0,0.1,0,0.2,0c1.8-0.1,2.5-0.3,2.2-0.6c-2.1,0-2.3,0.1-2,0.3C427.3,1.5,427.3,1.5,426.7,1.6z M418.2,16.9c0.5,0.1,1.1,0,1.4,0
	c0,0,0-0.1-0.1-0.1l-0.8-0.1C417.9,16.8,417.8,16.9,418.2,16.9z M418.4,17.5c-0.3-0.1-0.3-0.1,0.1-0.2c0.4-0.1,0.4-0.1,0.4-0.1
	c-1.1,0-1.4-0.1-2.6-0.1c-1,0-1.1,0-1.1,0c0.2,0,1.2,0,2,0c-0.2,0.1-0.5,0.1-1.1,0.1c-2,0.1-0.9,0.2-0.8,0.2
	C416.3,17.5,417.4,17.5,418.4,17.5z M438.8,15c1.5,0,0.9-0.1-0.1-0.2c-0.4,0-1.5,0-0.4,0.2C438.5,14.9,438.7,14.9,438.8,15z
	 M445.6,3.2l0,0.2c0,0,0.1,0,0.1,0c0.8,0,2.7,0,2.3-0.2h0C447.3,3.2,446.3,3.2,445.6,3.2z M445.2,0.6c0.6,0.1,2.1,0,2.2,0
	c0.2-0.1-0.7-0.1-2.3-0.1C445,0.5,444.9,0.5,445.2,0.6z M444,3.5c0.7,0,1.6,0,2.3,0c2,0.2,4.1,0.5,0.7,0.5c-0.2,0-0.6-0.2-2.2-0.1
	c0,0-0.1,0-0.2,0c0.3-0.1,0.2-0.2-0.3-0.3v0C444,3.6,444,3.6,444,3.5z M445.6,3.9l1.5,0V3.8l-1.5,0L445.6,3.9z M414.3,19.6
	c0.2,0,0.4,0,0.5-0.1c0.1-0.1-0.1-0.1-0.3-0.1C414,19.4,414,19.6,414.3,19.6z M474.5,3.9c-0.8,0-1.2,0-1.4-0.1l-0.8,0.2l3.1,0
	C476.1,4,475.7,4,474.5,3.9z M390.7,16.6c-0.7,0-1.3,0.1-0.5,0.2c0.3,0,0.6,0.1,0.7,0.1c2.1,0,4.9,0,7,0c0.1-0.1,0.4-0.1,1.5-0.1
	c0.4,0,0.8,0.1,1.2,0.1c0,0,0.1,0,0.1,0c1.4,0.1,2.6,0.2,4.3,0.2c-0.9-0.1-0.6-0.2,0.4-0.2c-0.7,0-1.5,0-2.3,0c2.5,0,2.6,0,3.3,0
	c-0.9-0.3-1.2-0.5-1.1-0.8c-2.5-0.1-3.1-0.1-4.8-0.2c-0.2-0.1,0.3-0.2-0.1-0.4c-0.1,0-0.5-0.1-1.5-0.1c-0.1,0-0.2-0.1-0.1-0.1
	c0.5,0,1.1,0,1.5,0c0.2,0,0-0.1-0.1-0.1c-0.6,0-1.2,0-1.8,0c-1.5,0-2.8,0.1-4.3,0.1c-0.2,0-0.5,0.1-0.6,0.2
	c-0.7,0.3-0.3,0.5-1.1,0.8C391.8,16.5,390.8,16.6,390.7,16.6z M416.2,18c-0.4,0-1.1,0-1.3,0.1c-0.3,0.1,0.1,0.2,0.1,0.3
	c0,0,0.1,0,0.1,0c1.4-0.1,2-0.1,2.7-0.3C417.4,18,416.7,18,416.2,18z M413.9,19L413.9,19c1.9,0,2.2,0,1.7-0.1c-0.1,0-0.4,0-0.9-0.1
	c-1,0-1,0-0.9,0.2C413.8,19,413.9,19,413.9,19z M414.8,17.9L414.8,17.9c1.1,0,1.9-0.1,3,0c-0.3-0.2-1.2-0.2-3.2-0.3
	C414.7,17.7,414.7,17.8,414.8,17.9C414.8,17.9,414.8,17.9,414.8,17.9z M416,19.9l1.5,0l-0.1-0.1l-1.4,0L416,19.9z"/>
      </clipPath>
    </defs>
</svg>
