<svg class="bg_frontera" xmlns="http://www.w3.org/2000/svg" style="position: absolute; width: 0; height: 0; pointer-events: none; z-index: -9999;" aria-hidden="true">
    <defs>
      <clipPath id="bg_frontera_uno_min">
<path d="M529.4,4.6C529.3,4.5,529.4,4.5,529.4,4.6C529.5,4.5,529.5,4.5,529.4,4.6c1.2-0.1,1.5,0.1,1.1,0.2
	c-0.2,0-0.6,0.1-0.7,0.1c0,0,0,0,0,0c0,0,0-0.1,0.2-0.1c0.2,0,0.2,0,0.1-0.1C529.9,4.6,529.5,4.6,529.4,4.6z M529.6,5.2
	c0.3,0,0.5,0,0.8,0c0.4,0,0.6,0,0.7,0c0.1,0,0.1,0,0.1,0c-0.1,0-0.4,0-0.8,0C529.7,5.1,529.6,5.2,529.6,5.2z M530.5,5
	c0,0,0.3-0.1-0.5-0.1c0,0-0.1,0.1,0,0.1C530.1,5,530.4,5,530.5,5z M525.6,2.4c0.3,0.1,0,0.2,0,0.3c0,0,0.1,0.1,0.4,0.1
	c0.5,0.1,0.7,0.1,0.2,0.2c0.3,0,0.8,0,1.2,0h0c0,0,0.1,0,0.1,0c0,0,0.1-0.1-0.1-0.2c-0.4-0.1-1-0.1-1.4-0.2c0.4,0,0.9-0.1,1.3-0.1
	c-0.1-0.1-0.5-0.2-1.5-0.4c0-0.1,0.3-0.1,0.3-0.1c-0.1,0-0.3,0-0.4,0c-0.1,0-0.1,0-0.2,0C525.2,2.2,525.2,2.3,525.6,2.4z M524.5,1.7
	c0.1-0.1-0.1-0.1-0.6-0.2C523.8,1.6,523.9,1.7,524.5,1.7C524.5,1.7,524.5,1.7,524.5,1.7z M524.8,2c0.2,0,0.3,0,0.6,0h0c0,0,0,0,0,0
	c0.1-0.1-0.1-0.1-0.3-0.1c-0.3,0-0.4-0.1-0.3-0.1c-0.3,0-0.7,0-1,0C524.2,1.8,524.1,1.9,524.8,2C524.8,2,524.8,2,524.8,2z
	 M530.9,5.3c0,0-0.1,0.1,0.9,0.1c0,0,0,0,0,0c0.1-0.1-0.2-0.1-0.8-0.1C531,5.3,530.9,5.3,530.9,5.3z M526.6,3.1
	c0,0.1-0.1,0.1-0.4,0.2c1.4,0,1,0.2,1.9,0.3c0.1-0.1,0.6,0,0.9-0.1c0.1,0,0.1,0,0.1-0.1c-0.9-0.1-0.7-0.3-2.3-0.3
	C526.7,3.1,526.6,3.1,526.6,3.1z M528.4,3.6c0.1,0-0.1,0.1-0.7,0.1c-0.7,0-0.9,0.1-0.3,0.1c0.1-0.1,0.3-0.2,1.8-0.1c0,0,0.1,0,0.1,0
	c0-0.1-0.1-0.1-0.5-0.1C528.5,3.6,528.5,3.6,528.4,3.6z M353.6,5.4c0.1,0,0.2,0,0.3,0c0,0,0.1-0.1-0.4-0.1c-0.1,0-0.1,0-0.2,0
	L353.6,5.4L353.6,5.4z M442.8,0.4C442.9,0.3,442.8,0.3,442.8,0.4c-0.6-0.1-1-0.1-0.9,0C441.9,0.4,442.5,0.4,442.8,0.4z M369.3,4
	C369.4,4,369.4,4,369.3,4c0.1,0,0.1-0.1,0.1-0.1c-0.5,0-0.6,0-0.8,0c-0.2,0-0.3,0-0.5,0c-0.4,0.1-0.6,0.3,0.4,0.3
	c-0.1-0.1,0-0.1,0.4-0.1C369.2,4,369.3,4,369.3,4z M357.2,6.7C357.2,6.7,357.2,6.7,357.2,6.7c0.1-0.1-0.1-0.2-0.6-0.2
	C356.5,6.6,356.6,6.7,357.2,6.7z M690.3,16.6l-0.6,0l-0.1,0.1l0.6,0L690.3,16.6z M531.7,5.6c0-0.1-0.1-0.1-0.9-0.2
	C530.7,5.5,531,5.6,531.7,5.6C531.7,5.6,531.7,5.6,531.7,5.6z M691.1,16.2l-0.6,0l-0.1,0.1l0.6,0L691.1,16.2z M704.1,17.3
	c0.3,0,0.7,0,0.9-0.1c0.1,0,0.2-0.1-0.1-0.1c-0.1,0-0.2,0-0.4,0C704.2,17.2,704.1,17.2,704.1,17.3z M721.9,11.6
	c0.2,0,0.2-0.1,0.2-0.1c-0.8,0-1.6,0-2.3,0.1h0C720.1,11.7,721.4,11.7,721.9,11.6z M704.1,17.1c0.4,0,0.9,0,1.2-0.1c0,0,0,0,0,0
	c-0.3,0-0.5,0-0.8,0C704.2,17,704,17,704.1,17.1L704.1,17.1z M693.1,16.3c-0.1,0-0.3,0.1-0.4,0.1v0c-0.1,0-0.1,0.1-0.1,0.1
	c0.3,0,0.6,0,0.9,0C693.5,16.3,693.4,16.3,693.1,16.3z M375.3,5.9C375.4,5.8,375.4,5.8,375.3,5.9c0,0,0-0.1,0-0.1
	c-0.1,0-0.2,0-0.2,0c-0.3,0-0.4,0-0.4,0.1l0,0C374.6,5.8,374.8,5.9,375.3,5.9z M431.7,2.7l-0.3-0.2c-0.1,0-0.3,0-0.6,0.1
	c-0.5,0-0.7,0-0.4,0.1L431.7,2.7z M455,12.3c0-0.1,0.2-0.1,0.1-0.2c-0.1-0.1-0.4-0.1-0.5-0.1c-0.2,0-0.5,0-0.7,0
	C454.1,12.2,454.4,12.2,455,12.3C455,12.3,455,12.3,455,12.3z M455.1,13c0,0,0.1,0.1,0.2,0c0.2,0,0.1-0.1-0.1-0.1
	C455.1,12.9,455,13,455.1,13z M455.1,11.9L455.1,11.9C455.1,11.9,455.1,11.9,455.1,11.9c0-0.1,0.1-0.1,0.1-0.2
	c-0.8,0-1.2,0.1-1.3,0.2C454.3,11.9,454.7,12,455.1,11.9z M454.6,13.3L454.6,13.3l-0.6-0.1l0,0.1L454.6,13.3z M423.9,2.4
	C424,2.4,424,2.4,423.9,2.4L423.9,2.4c0,0,0-0.1,0.1-0.1c0.1-0.1,0.1-0.2-0.3-0.2c-0.2,0.1-0.4,0.1-0.9,0.1
	C422.8,2.2,422.8,2.4,423.9,2.4z M459.8,11.3c-0.3,0-0.6,0-0.9,0c0.4,0,0.5,0.1,0.2,0.2c0.7,0,1.2-0.1,1.7-0.2c0,0,0,0,0,0
	c0.2,0,0.3-0.1,0.5-0.1c0.5,0,0.6,0,0.6,0.1c0.8,0,2,0,2.8,0c0.1,0,0.2,0,0.3-0.1c0.3-0.1,0.1-0.1-0.2-0.1c0,0-0.4,0-0.7-0.2
	c-0.3-0.2-0.2-0.4-0.5-0.5c0,0-0.2-0.1-0.2-0.1c-0.6,0-1.1-0.1-1.8,0c-0.2,0-0.5,0-0.7,0c0,0-0.1,0,0,0.1c0.2,0,0.4,0,0.6,0
	c0,0,0,0,0,0.1c-0.4,0-0.6,0-0.6,0c-0.2,0.1,0,0.2-0.1,0.2c-0.7,0-0.9,0-2,0.1c0,0.2-0.1,0.3-0.5,0.5
	C458.7,11.3,458.8,11.3,459.8,11.3z M454.8,12.6c-0.2,0-0.1,0.1,0.7,0.1h0c0,0,0,0,0.1,0c0-0.1,0-0.1-0.4-0.1
	C454.9,12.5,454.8,12.6,454.8,12.6z M466.5,5.2l-0.7,0l0,0.1L466.5,5.2L466.5,5.2z M443.1,2.5L443.1,2.5c-0.2,0.1-0.2,0.1-0.1,0.2
	c0,0-0.1,0-0.1,0c-0.7-0.1-0.8,0-0.9,0.1c-1.4-0.1-0.5-0.2,0.3-0.4c0.3,0,0.7,0,1,0C443.3,2.4,443.2,2.4,443.1,2.5z M442.6,2.6
	L442.6,2.6L442,2.5v0.1L442.6,2.6z M916.2,5.2l-0.5,0l-0.1,0.1L916.2,5.2L916.2,5.2z M1016,6.3c0.1-0.1,0.5-0.2,0.5-0.2
	c-0.2,0-0.3,0-0.5,0c-0.1,0-0.2,0-0.3,0C1015.3,6.1,1014.6,6.3,1016,6.3C1015.9,6.3,1016,6.3,1016,6.3z M450.3,1.1
	C450,1,450,1,450.1,0.9c0.1-0.1,0-0.2-0.8-0.2C449.1,0.9,449.4,1,450.3,1.1C450.2,1.1,450.2,1.1,450.3,1.1z M453.7,11.3
	c0.2,0,0.1-0.1-0.2-0.1l-0.3,0c0,0,0,0.1,0,0.1C453.3,11.3,453.5,11.3,453.7,11.3z M453.6,11.6c0.2,0.1,0.2,0.1,0,0.1
	c0.4,0,0.9,0,1.2-0.1c0,0,0.5-0.1-0.3-0.2c-0.3,0-0.4,0-0.5-0.1c0.3,0,0.8,0,0.8,0c0,0,0,0-0.4,0c-0.5,0-0.6,0.1-1.1,0.1
	C453.4,11.5,453.4,11.5,453.6,11.6z M445.3,10c0.1,0,0.1,0,0.2,0c0.4-0.1,0-0.1-0.2-0.1C445,9.9,444.7,10,445.3,10z M442.6,2.3
	C442.6,2.3,442.6,2.3,442.6,2.3l0-0.2c-0.3,0-0.7,0-1,0h0C441.5,2.3,442.2,2.3,442.6,2.3z M390.1,5.2c0.1,0,0,0-0.2,0l-0.6,0
	c0.1,0,0.2,0.1,0.4,0.1C389.6,5.3,389.9,5.3,390.1,5.2z M383.5,5L383.5,5c0.2-0.1,0-0.1-0.2-0.1c0,0,0,0-0.1,0l-0.3,0
	c0,0,0,0.1,0,0.1C383.2,5,383.4,5,383.5,5z M516.1,5.6c0.1,0,0,0.1-0.2,0.1c-0.3,0.1-0.3,0.1,0.1,0.1c0.1-0.1,0.6-0.1,0.8-0.2
	c0.2,0,0.2-0.1,0.2-0.1c-0.3,0-0.5,0-0.8,0C516.2,5.6,516.1,5.6,516.1,5.6z M407.5,8.9c0.1,0,0.2,0,0.2,0c0.2,0,0.2-0.1-0.5-0.1
	c-0.1,0-0.1,0-0.2,0c0,0,0,0,0,0C406.9,8.9,406.9,8.9,407.5,8.9z M382.9,5.5c-0.1-0.1,0.4-0.2-0.4-0.2c-0.1,0-0.2,0-0.3,0
	C382,5.5,382.1,5.5,382.9,5.5C382.9,5.5,382.9,5.5,382.9,5.5z M517.1,5.9c0.1,0,0.1,0,0.2,0c0.7,0,0.2,0.2-0.1,0.2
	c0.4,0,0.5,0,0.7,0.1c0.3,0.1,0.5,0.1,1.1,0.1c-0.3,0.1-0.4,0.1-0.4,0.2h0l0.9,0.5c0.2,0.1,0.9,0,1.2,0.1c-0.2,0.1-0.3,0.2,0.5,0.2
	c0.7,0.1,0.7,0.1,0.3,0.2c0.4,0.1,1.3,0.1,1.9,0.1c-0.6,0.2-0.8,0.3-0.8,0.4c0.2,0,0.4,0,0.6,0c0,0,0.2,1.1,2.1,1.1
	c-0.1,0.2,0.9,0.4,0.7,0.6c0,0,0.1,0,0.1,0c0.6,0,0.6,0,0.8,0c-0.7,0.1-0.7,0.1,0.4,0.5c-1.4,0.1-1.5,0.3-1.4,0.4l-10.2,0.1
	c-0.3-0.6-0.3-0.6,1.1-0.8h0c-0.1-0.1-0.8-0.1-0.4-0.2c0.5,0,0.5,0,1.7,0.1c2-0.2,2-0.2,2.6-0.3c-0.2-0.1-0.2-0.1-1.2-1.1
	c-0.1,0-0.2,0-0.3,0c-0.6,0-0.2-0.1,0.7-0.2c-2.3-1.4-2.3-1.4-2.5-1.9c0.2,0,0.4,0,0.6,0l-0.6,0c0,0,0,0,0,0c-0.5,0-0.5,0-1.2-0.2
	c0.4-0.1,0.5-0.1,0.5-0.2C516.8,6,516.9,6,517.1,5.9z M522.5,9.9C522.5,9.9,522.5,9.9,522.5,9.9c0.1,0,0.3-0.1,0.4-0.1
	c0,0-0.2,0-0.3,0c-0.1,0-0.3,0.1-0.3,0.1C522.3,9.9,522.3,9.9,522.5,9.9z M520.2,10.3c-0.2,0,0.2,0.1,0.2,0.2v0c1.2,0,1.2,0,1.6,0
	c-0.1,0-0.3,0.1-0.4,0.2c0.5,0,1.1,0,1.6,0c0.1,0,0.2,0,0.2,0c0.1,0,0.1-0.1,0-0.1c-0.1-0.1,0-0.2,0.1-0.3c-0.7,0-0.8-0.1-1.2-0.2
	c0,0.1-0.6,0.1-1.1,0.1C520.8,10.3,520.4,10.3,520.2,10.3z M378.5,4.9l0-0.2l-0.9,0.1l0,0.1L378.5,4.9z M378.4,4.5
	c0.1,0,0-0.1-0.2-0.1c-0.2,0-0.3,0-0.5,0C378.2,4.5,378.4,4.5,378.4,4.5z M471.3,7.4c0.5,0,0.7,0.1,1.1,0.1c0,0,0.1,0,0.1,0
	c-0.1,0-0.2-0.1-0.1-0.1h0c0.1-0.1,0.3-0.1,0.5-0.2c-0.6,0-1-0.1-1.6-0.1c0,0,0,0.1-0.1,0.1c-0.2,0.1-0.6,0.1-0.9,0.1
	C470.4,7.4,470.9,7.4,471.3,7.4z M478,7.5c0,0-0.1,0.1,0.4,0.1c0,0,0.1,0,0.1,0c0.3-0.1,0.5-0.2,0.1-0.4l-1,0
	c-0.1,0-0.3,0.1-0.4,0.1C478,7.4,478,7.4,478,7.5z M516,5.3c-0.3,0-0.4,0-0.5,0c0.4,0,0.9,0.1,1.2,0.1C517,5.4,516.5,5.3,516,5.3z
	 M500.3,10.9C500.3,10.9,500.4,10.9,500.3,10.9L500.3,10.9c0.1,0,0.5-0.1-1-0.1c-0.1,0-0.3,0-0.4,0c0,0,0,0-0.1,0
	C498.8,10.9,499.8,10.9,500.3,10.9z M409.2,7.7l1.5,0c0,0,0-0.1,0-0.1c0,0,0-0.1,0-0.1c-0.1,0-0.5,0-0.6,0c1.3-0.1-0.1-0.3-0.6-0.3
	c0,0-0.1,0-0.2,0c-0.1,0-0.1,0-0.1,0c0.2,0,0.6,0,0.2,0.1c-0.1,0-0.3,0-0.4,0C408.7,7.4,409.2,7.6,409.2,7.7z M508.6,11.5
	c0.1,0,0.1,0,0.1,0c0,0,0.7-0.2,0-0.2C508.5,11.3,507.9,11.5,508.6,11.5z M501.5,9.8l-0.6,0l0,0.1L501.5,9.8L501.5,9.8z M500.5,10.7
	c0.2-0.1,0.1-0.2-0.6-0.2c-0.1,0-0.2,0-0.3,0c0.1,0.1-0.1,0.1-0.1,0.2C499.6,10.7,500.3,10.7,500.5,10.7z M473.2,7.1
	c0.1-0.2,0.1-0.4-0.9-0.4c-0.2,0.1-0.5,0.1-1,0.1C471.2,7,471.8,7.1,473.2,7.1C473.1,7.1,473.1,7.1,473.2,7.1z M630.7,9.1L630.7,9.1
	C630.7,9.1,630.7,9.1,630.7,9.1c0.2-0.1,0-0.1-0.5-0.2c-0.1,0-0.1,0-0.2,0C629.7,9,629.9,9.1,630.7,9.1z M594.5,14.1
	c0,0-0.1,0-0.1,0c-0.5,0-0.7,0.1-0.8,0.2h0c-0.1,0.1-0.1,0.1-0.3,0.1l1.9,0c-0.2-0.1-0.6-0.1-0.7-0.2
	C594.2,14.2,594.4,14.1,594.5,14.1z M600.7,11.3c0,0,0.1-0.1,0.1-0.1c0,0-0.2,0-0.3,0c-0.1,0-0.2,0-0.3,0
	C600.1,11.2,600,11.3,600.7,11.3C600.7,11.3,600.7,11.3,600.7,11.3z M626.7,6.6C626.8,6.6,626.8,6.6,626.7,6.6
	C626.7,6.6,626.7,6.6,626.7,6.6c-0.2-0.1-0.3-0.1-0.4-0.1c-0.4,0-0.8,0.1-0.2,0.2C626.1,6.7,626.5,6.7,626.7,6.6z M658,14l-0.6,0
	l-0.1,0.1L658,14L658,14z M652.4,5.5C652.5,5.5,652.5,5.5,652.4,5.5c0-0.1,0.1-0.1,0.5-0.2c0.3-0.1,0.4-0.1,0.1-0.1
	C652.2,5.2,651.6,5.4,652.4,5.5z M655.5,4.7c-0.1,0-0.3,0-0.5,0c-0.4,0-0.8,0-0.8,0.1C654.6,4.8,655.2,4.8,655.5,4.7
	C655.5,4.7,655.5,4.7,655.5,4.7z M594.2,13.7C594.2,13.7,594.2,13.7,594.2,13.7c0-0.1,0.4-0.2,0.6-0.3c-0.3,0-0.6,0-0.9,0
	c-0.1,0-0.2,0-0.2,0c-0.1,0.1-0.7,0.2-0.9,0.3C593.2,13.6,593.6,13.7,594.2,13.7z M584.5,10.8c-0.1,0-0.2,0-0.3,0
	c-1.1,0-0.2-0.2-0.8-0.3h0c0,0-1.1-0.1-1.4,0.2c-0.6,0-1,0-1.1,0c-0.3-0.1,0.1-0.2,0.1-0.3c0.7,0.1,0.9,0.1,1.3,0
	c0.5-0.1,0.7-0.1,1.3-0.1c-0.2-0.1-0.2-0.1,0.1-0.2c0.3-0.1,0.3-0.1,0.4-0.1c0,0,0.1,0,0.1,0c0.5,0,0.6,0.3,0,0.4
	c0.6,0.1,0.6,0.1,0.4,0.3C584.4,10.7,584.4,10.8,584.5,10.8z M583.5,10.4l-0.6,0l-0.1,0.1L583.5,10.4L583.5,10.4z M588.3,9.8
	c0.6,0.1,1.1,0.1,0.1,0.5l2.3,0c0.5-0.2,0.3-0.2-0.2-0.3c-0.5-0.1-0.5-0.2-0.4-0.2c0.1-0.1,0.8-0.1,1-0.2c0.4-0.2,0.1-0.4,0.5-0.5
	c-0.5-0.1-0.4-0.2-1-0.3c1.3-0.2-0.4-0.4-0.3-0.6c0.1-0.2,0.5-0.3,0.6-0.5c-0.1,0-0.2,0-0.4,0c-0.5,0-0.6,0.1-1.3,0.1
	c0,0,0,0.1,0.4,0.1c0,0,0,0,0,0c-0.2,0-0.5,0-0.8,0c-0.2,0.1,0.5,0.2,0.7,0.3c-0.2,0-0.2,0-0.5,0c0,0.1,1.1,0.1,1.1,0.2
	c-0.3,0-0.7,0-0.9,0c0.3,0.4-0.4,0.8,0,1.2C587.7,9.4,588.7,9.6,588.3,9.8z M581.7,8.3c0.2,0,0.2-0.1,0.2-0.1c-0.1,0-0.3,0-0.4,0
	c-0.1,0-0.3,0-0.6,0h0c-0.4,0-0.6,0.2,0.2,0.2C581.3,8.4,581.5,8.3,581.7,8.3z M658.4,4.8L658.4,4.8c0.2,0,0.2-0.1-0.2-0.1
	c-0.1,0-0.2,0-0.2,0c0,0,0,0.1-0.1,0.1C658.1,4.8,658.3,4.8,658.4,4.8z M590.3,6.9L590.3,6.9C590.3,6.9,590.6,6.8,590.3,6.9
	c0-0.1-0.2,0-0.5,0c-0.1,0-0.2,0-0.3,0c0,0,0,0,0,0C589.6,7,590,6.9,590.3,6.9z M592.7,5.2C592.8,5.2,592.8,5.2,592.7,5.2L592.2,5
	c0,0,0,0,0,0.1C592.3,5.1,592.6,5.2,592.7,5.2z M584.7,8.7l-0.6,0l0,0.1L584.7,8.7L584.7,8.7z M675.9,16.9c-0.3,0-0.6,0-0.7,0.1
	c0.4,0,0.9,0,1.3-0.1C676.3,16.9,676.2,16.9,675.9,16.9z M676.4,17.4C676.4,17.4,676.4,17.4,676.4,17.4c0-0.1,0-0.2-0.7-0.2
	c-0.1,0-0.2,0-0.3,0l0.1,0.1c-0.2,0-0.5,0.1-0.7,0.1C675.5,17.5,675.9,17.4,676.4,17.4z M678.8,15.9c0,0,0.4-0.1-0.3-0.1
	c-0.2,0-0.5,0.1-0.7,0.1C678.1,16,678.6,16,678.8,15.9z M676.1,17.1C676.1,17.1,676.1,17.1,676.1,17.1c-0.1,0-0.1,0-0.1,0v0
	c0,0,0.4,0,0.5,0c0.1,0,0.1,0-0.2-0.1C676.3,17,676.2,17,676.1,17.1z M673.2,16.4L673.2,16.4c0.1,0.1,0.6,0.1,0.8,0
	c0.1,0,0.1,0,0.1,0c0,0-0.1,0-0.1,0c0,0,0,0,0,0c-0.2,0-0.1-0.1-0.5-0.1C673.1,16.4,673.2,16.4,673.2,16.4z M350.4,6L350.4,6
	c0,0,0.3-0.1-0.5-0.1c0,0-0.1,0.1,0,0.1C350,6,350.2,6,350.4,6z M679.9,15.1c-0.1-0.1,0-0.1-0.2-0.2c-0.2,0-0.4,0-0.7,0
	c-0.1,0-0.2,0-0.3,0C678.4,15,678.9,15.1,679.9,15.1C679.8,15.1,679.9,15.1,679.9,15.1z M685.6,16.3
	C685.7,16.3,685.7,16.3,685.6,16.3c0.1-0.1,0-0.1-0.4-0.1c-0.3,0-0.6,0-0.9,0C684.1,16.3,684.1,16.3,685.6,16.3z M673.5,16.2
	c0.2,0,0.2-0.1,0.2-0.1l-0.8,0c-0.2,0.1-0.5,0.1-0.5,0.2C672.7,16.2,673.2,16.2,673.5,16.2z M685.8,16.1c0.3-0.1,0-0.1-0.4-0.1
	c-0.2,0-0.5,0-0.5,0l0.2,0C685.3,16.1,685.6,16.1,685.8,16.1C685.8,16.1,685.8,16.1,685.8,16.1z M685.2,16.5c0.2,0,0.5-0.1,0.8-0.1
	c-0.1,0-0.3,0-0.5,0c-0.1,0-0.2,0-0.4,0C684.7,16.4,684.4,16.5,685.2,16.5z M663,14.3C663,14.3,663,14.3,663,14.3
	c0.2,0,0.2-0.1-0.2-0.1c-0.1,0-0.2,0-0.2,0c0,0-0.1,0.1-0.1,0.1C662.5,14.3,662.7,14.4,663,14.3z M679.1,15.8L679.1,15.8
	c0-0.1,0-0.2,0.2-0.2c0.2-0.1,0.6-0.3,0.9-0.4c-0.4,0-0.8,0-1,0c-0.3-0.1-0.4-0.1-0.7-0.1c-1,0.2-1,0.3-1.2,0.8
	C678,15.9,678.3,15.7,679.1,15.8C679.1,15.8,679.1,15.8,679.1,15.8z M569.7,7.8c0.1,0,0.4,0,0.5,0C570.2,7.8,570.5,7.7,569.7,7.8
	C569.7,7.7,569.7,7.7,569.7,7.8z M534.5,9.3c0.2,0.2,0.2,0.3,0,0.6c0.5,0,0.9-0.1,1.4,0c0.1,0,0.1,0,0.1,0c0,0-0.2,0.1-0.2,0.1
	c-0.1,0-0.1,0-0.8,0c0.2,0.4,0.2,0.4,1,0.5c0,0-0.1,0.1-0.1,0.1c0.6,0,1.5,0,2.1,0c-0.7,0-0.4-0.1-0.2-0.1c0.2,0,0.5,0,0.7,0
	c0.1,0,0.5-0.1-0.7-0.1c-0.6,0-0.6,0-0.7-0.1c0.9,0,0.5-0.2,1.4-0.2c0.1,0,0.2,0.1,0.2,0.1c0.4,0,0.7,0,1,0
	c-0.3-0.1-0.3-0.1,0.2-0.2c0.4-0.1,0.4-0.1,0-0.4c-0.2-0.1,0.1-0.2,0-0.3c0,0,0,0,0,0c-0.1-0.1-0.8-0.1-0.9-0.2
	c-0.1-0.1,0.6-0.2,0.1-0.2c-0.2,0-0.4,0-0.6,0.1c-0.2,0-0.5,0.1-0.4,0.1c0.1,0.1,0.7,0.2,0.9,0.3c-1.2-0.1-0.5,0.2-1.4,0.3
	c-1-0.1-0.7-0.2-1.1-0.3C535.8,9.3,535.2,9.3,534.5,9.3z M539.2,10.6C539.2,10.6,539.2,10.6,539.2,10.6c0,0-0.1,0-0.1,0l0,0
	C539.1,10.6,539.1,10.6,539.2,10.6z M539,10.6L539,10.6h-0.2C538.9,10.6,539,10.6,539,10.6z M534.9,9.1c-0.2,0.1-1.5,0-1.3,0.1
	C533.8,9.3,534.6,9.2,534.9,9.1C535.2,9.1,535,9.1,534.9,9.1z M538.9,8.7c0-0.1-0.3-0.2-1.2-0.2v0C537.8,8.6,538,8.7,538.9,8.7
	C538.8,8.7,538.9,8.7,538.9,8.7z M555.5,9.7c0.3,0,0.5,0,0.6,0c0.2,0,0.2-0.1-0.2-0.1L555.5,9.7C555.5,9.7,555.5,9.7,555.5,9.7z
	 M684.7,15.9c0.9,0,1.3,0,1.5-0.1c0,0,0,0,0,0c0,0,0,0-0.2,0c-0.3,0-0.6,0.1-1.2,0.1c-0.7,0-0.9,0-1,0.1
	C684.2,15.9,684.5,15.9,684.7,15.9L684.7,15.9z M530.5,10.6C530.5,10.6,530.4,10.6,530.5,10.6c-0.7,0-0.9,0.1-1.3,0.1
	c0.8,0,1.1,0,1.2-0.1C530.5,10.6,530.5,10.6,530.5,10.6z M531.6,6c-0.8,0.1-0.8,0.1-1.1,0.4c0.2,0,0.4,0,0.6,0
	c-0.2,0.2-0.3,0.2,0.2,0.4c0.4,0.2,0.5,0.2,0.2,0.3c0.3,0,0.7,0,1,0.1c-0.3,0.5,1,1,1.3,1.5c0.7,0,1.1,0.1,1.8,0.1h0c0,0,0,0,0,0
	c0.1-0.5-0.2-0.8-1.3-1.5c-0.6,0-0.6,0-1.6-0.1c0.8-0.1-0.4-0.2-0.5-0.4c-0.1-0.1,0.1-0.2,0-0.3c-0.1-0.1-0.4-0.1-0.8-0.1
	c0.7-0.1,0.6-0.2,1.7-0.3C532.6,6.1,532.2,6,531.6,6z M549.9,10.2c0.3,0,1.1,0.1-0.6,0.3c2.2,0,5.1,0,7.3-0.1c0,0,0.1,0,0.2,0
	c0.4,0,1.1,0,1.5-0.1c0.3,0,0.4-0.1,0.5-0.1c-0.9-0.1-1-0.1-0.4-0.3c0.6-0.2,0.7-0.2,0-0.3c0,0,0.1,0,0,0.1c0,0-0.1,0-0.1,0
	c-0.2,0.1-1.1,0.1-1.3,0.2c-0.1,0.1-0.1,0.1,0.3,0.1c0.4,0,0.4,0,0.3,0.1c-1.2,0.1-1.2,0.1-1.3,0c0.7-0.1,0.7-0.1-0.2-0.3
	c-1,0.1-1.6,0.2-2.9,0.2c1.1-0.2,1.1-0.2,1.1-0.3c0.7,0,0.9-0.1,1.3-0.1c0.1,0,0.1,0,0-0.1c-0.2,0-0.3,0-0.6,0c-0.1,0-0.1,0,0-0.1
	c0.5,0,1.1,0,1.6,0.1c0.3,0,0.4,0,0.6,0.1c0-0.1,0.7-0.1,0.9-0.2c-0.2,0-0.2,0-0.7,0c-0.9,0-1.5,0.1-2.3,0.1c-0.7,0-0.9,0-1.1-0.1
	c-0.2,0-0.4-0.1-0.8-0.1c-0.7,0-1.5,0.1-1.5,0.3c0.3,0,0.7,0,0.9,0c-0.4,0.1-0.5,0.1-0.9,0.3c-0.4,0.2-0.5,0.2-0.9,0.2
	c0.3-0.1-0.5-0.1-0.7-0.1C550,10.2,549.9,10.2,549.9,10.2L549.9,10.2z M580.5,7.8c0.2,0,0.5-0.1,0.7-0.1c0,0,0,0-0.8,0
	c-0.6,0-0.7,0-0.4-0.1c0.1,0,0.5,0,0.9,0c0.1,0,0.2,0,0.3,0c0.1,0,0.1,0,0.2-0.1c0,0,0,0,0,0c2.4,0.1,3.7,0.3,2.9,0.5v0
	c0,0,0,0-0.1,0c-0.1,0-0.1,0-0.2,0c-0.4,0-1.2,0-1.1,0.2c-2-0.1-2.1-0.1-2.5,0c-0.5,0-0.9,0-1.4,0c-0.3,0-0.3,0-0.5-0.1
	c0.8-0.2,0.8-0.2,1.3-0.2c-0.1,0-0.2-0.1-0.3-0.1c-0.2,0-0.2,0-0.4,0.1c-0.2,0.1-0.5,0.1-0.9,0c0,0,0-0.1,0.4-0.1
	c0.4,0,0.5,0,0.4-0.1c0.1,0,0.3,0,0.8,0C580.3,7.7,580.4,7.7,580.5,7.8z M579.7,8.1c0.3,0,0.9,0,1.3-0.1c0.3-0.1,0.3-0.1,0.4-0.2
	C580.8,7.8,579.7,7.9,579.7,8.1z M529.3,3.8c-0.5,0-0.9,0-1.3,0c0,0,0,0,0,0c0.1,0.1,0.9,0.1,1.2,0C529.3,3.9,529.3,3.8,529.3,3.8z
	 M530.5,5.7c0.5,0,1.1,0.1,1.4,0c0.1,0,0.1,0,0.1,0c-0.1,0-0.6,0-1.1,0C530.6,5.6,530.5,5.6,530.5,5.7z M527.9,4.1
	C527.9,4.1,527.9,4.1,527.9,4.1c0.3,0.1,0.5,0.1,0.6,0.1c0.2,0,0.1-0.1-0.2-0.1L527.9,4.1z M571.1,7.5l-1,0l-0.1,0.1l0.7,0
	L571.1,7.5z M687.2,16.7C687.2,16.7,687.2,16.7,687.2,16.7l0.2-0.1c-0.3,0-0.6,0-0.9,0C686.3,16.7,686.8,16.7,687.2,16.7z
	 M569.8,7.2c0,0,0.3-0.1-0.4-0.1c0,0-0.1,0.1-0.1,0.1C569.4,7.2,569.7,7.2,569.8,7.2z M578.8,7.5c0.1,0,0.4,0,0.6,0h0
	c0.3-0.1-0.2-0.2-1-0.2c-0.1,0-0.1,0-0.2,0C578.1,7.3,578.3,7.4,578.8,7.5C579.1,7.4,579.2,7.4,578.8,7.5z M571.2,7.4
	c0.1,0,0,0-0.3-0.1c-0.1,0-0.3,0-0.3,0.1C570.7,7.4,571.1,7.4,571.2,7.4z M566.6,5.2c-0.1-0.1,0-0.1,0.4-0.2h0
	c0.3-0.1,0.4-0.1,0-0.1C566.1,4.9,565.8,5.1,566.6,5.2C566.6,5.2,566.6,5.2,566.6,5.2z M559.9,9.1C559.9,9.1,559.9,9.1,559.9,9.1
	c-0.1,0-0.2,0-0.4,0c-0.8,0-1.7,0.1-2.1,0.2C558.5,9.3,559.3,9.2,559.9,9.1z M555.4,9.3c0.3,0,0.4,0,0.6,0c0.3,0,0.5,0,0.9,0
	c0,0,0,0,0,0c0.1-0.1-0.3-0.1-0.6-0.1C555.9,9.2,555.2,9.2,555.4,9.3z M550.7,6.2c0.1,0.1,0,0.1-0.2,0.2c-0.2,0.1-0.3,0.1-0.2,0.1
	c0.2,0,0.6,0,0.8-0.1C551.4,6.3,551.3,6.2,550.7,6.2z M562.6,5.7c0-0.1,0.5-0.1,0.7-0.2c0.5,0,0.7,0,0.8,0c0,0,0,0,0,0.1
	c-0.1,0-0.2,0.1-0.2,0.1c1,0,1-0.2,2.3-0.2c-0.1,0-0.3,0-0.5-0.1c0,0,0,0,0.1,0c0.1,0,0.1,0,0.2,0c1.2,0,1.3,0.1,1,0.3
	c-0.3,0.2-0.3,0.3,0.4,0.3c-0.1,0-0.2,0.1-0.3,0.1l-2.1,0c-0.1,0-0.2,0-0.4,0c0,0,0,0,0,0l0,0c-0.2,0-0.3,0-0.5,0
	c-0.1,0-0.1,0-0.1,0c-0.4,0-0.4,0-0.4,0.1c0,0.1-0.1,0.1-0.6,0.1c0.1,0,0.2-0.1,0.2-0.2C563.2,6,562.6,5.9,562.6,5.7z M563.5,5.9
	l0.6,0l0-0.1L563.5,5.9L563.5,5.9z M557,8.3C557,8.3,557.1,8.3,557,8.3c-0.1-0.1-0.1-0.1-0.4-0.2c-0.2,0-0.4,0-0.7-0.1
	c0,0,0,0.1,0.1,0.1c0,0,0.1,0.1,0,0.1c-0.1,0-0.2,0-1.1,0h0C554.8,8.4,556.5,8.4,557,8.3z M560.4,8c-2-0.1,0-0.4-0.4-0.6
	c1.3-0.1,1.3-0.1,2.1-0.4c0.7,0,1.3,0,1.7,0c0.5,0,0-0.1,0.2-0.2c0.5,0,0.5,0,1.4-0.4c0-0.1-0.1-0.2-0.9-0.2c0.3,0,0.7,0,1,0
	c-0.2-0.1-0.2-0.1-0.6-0.1c0.6,0,1.4,0,2.1,0c-0.1,0.2,0.6,0.5,0.2,0.7c0,0,0,0-0.1,0c-0.2,0.1-0.8,0.1-1,0.1
	c-0.2,0.1,0.2,0.1,0,0.2c0,0-0.1,0-0.1,0c-0.1,0-0.4,0-0.6,0.1c0.4,0.1,1.1,0.2,0.4,0.4c-0.1,0-0.3,0-0.3,0.1c0,0.1,0.2,0.2,0.2,0.2
	c0,0,0,0.1,0,0.1c0,0.2-0.9,0.3-1,0.5c-0.1,0.2,0.5,0.4,0.4,0.6c-0.1,0.4-0.1,0.4,0.3,0.6c-0.6,0-0.7,0.1-0.8,0.2
	c0.1,0,0.3,0.1,0.5,0.1c0.8,0,1.5-0.1,2.3-0.1c0.9,0,0.9,0.2,2,0.2c0,0,0,0,0-0.1c0,0,0.1,0,0.1,0c0.2,0,0.5,0,0.7,0
	c-0.2,0-0.8-0.3,0.5-0.3c-0.3,0.2-0.3,0.4,0.2,0.6l-1.5,0c0,0,0.1,0,0.1,0l0,0c0.4,0,0.6,0,0.6-0.1c-0.6,0-1.4,0-2,0.1
	c0,0,0,0.1,0.1,0.1c-2.3,0-5.4,0-7.7,0.1c1.3-0.4,1.6-0.5,1.3-0.8c1.1-0.1,1.1-0.2,0.9-0.3c-1.1,0-1.9-0.1-3-0.1c0-0.1,1-0.2,1-0.3
	c-0.9,0-0.9,0-1.1-0.1C559.5,9,559,9,557.7,9c-0.6-0.2-0.8-0.2-1.2-0.2c-0.2,0-0.2,0-0.3,0.1c-0.6-0.1,0.1-0.2,0-0.3
	c-0.1,0-0.1,0-0.2,0c0.2,0,0.2,0,1,0c0,0,0-0.1,0-0.1C558.3,8.3,559,8.1,560.4,8z M558.5,8.7c-0.6,0-1.1,0-1,0.1
	C557.9,8.8,558.2,8.8,558.5,8.7C558.5,8.7,558.5,8.7,558.5,8.7z M561.3,7.6c0.6,0.3-0.5,0.6,0.5,1c0.8,0,1.3,0,1.5-0.1
	c0.1,0,0.3,0,0.4-0.1c0.1-0.1-0.1-0.2,0-0.3c0.1-0.1,0.3-0.3,0.3-0.4c0.1-0.2,0.1-0.3,0-0.4v0c-0.3,0-0.7,0-1,0
	c0,0.1,0.1,0.1,0.4,0.1c0.1,0,0.2,0,0.3,0C563.1,7.4,562.6,7.5,561.3,7.6z M562.9,6.5c0.2,0,0.1-0.1-0.2-0.1c0,0,0,0-0.1,0l-0.4,0
	c0,0,0,0.1,0,0.1C562.4,6.5,562.7,6.6,562.9,6.5z M369.4,3.8C369.4,3.8,369.4,3.8,369.4,3.8c0.2-0.1,0.1-0.1-0.3-0.1
	c-0.2,0-0.4,0-0.4,0c0,0,0-0.1,0.1-0.1l0,0c0.1,0,0.3-0.1,0.4-0.1c0.2,0,0.3-0.1,0.3-0.1c0,0,0,0,0,0c-0.1,0-0.3,0-0.6,0
	c-0.2,0-0.6,0-0.9,0.1C367.4,3.6,368,3.9,369.4,3.8z M149,11.3c0,0-0.1,0-0.1,0c-0.2,0.1-0.1,0.2,0.8,0.2c0,0,0,0,0,0
	C149.9,11.3,149.9,11.3,149,11.3z M157.3,10.5L157.3,10.5l-0.6-0.1l0.1,0.1L157.3,10.5z M123.3,8.9c0,0,0,0.1,0.2,0.1
	c1.2,0,2.1-0.1,2.8,0c0,0,0.1,0,0.1,0c-0.2,0-0.4-0.1-0.4-0.1l0,0c0,0,0.1,0,0.1,0c0.3,0,0.4-0.1,0.4-0.1c-0.8,0-1.5,0-2.2,0
	c-0.7,0-1,0-1.2,0.1C123.3,8.9,123.3,8.9,123.3,8.9z M126.5,10.1c0,0-1,0-0.7,0.1h0c0.2,0.1,1.4,0,1.6-0.1c0.1,0-0.1,0-0.2-0.1
	C127.2,10.1,127.2,10.1,126.5,10.1z M150.1,10.8c-0.1,0-0.1,0-0.2,0c-0.1,0-0.3,0-0.4,0.1c0,0,0,0,0,0c-0.1,0-0.2,0-0.7,0
	c0.1,0,0.3,0.1,0.4,0.2c-0.1-0.1,0.1-0.1,0.5-0.1C149.8,10.9,150,10.8,150.1,10.8C150.2,10.8,150.1,10.8,150.1,10.8z M153.4,10.5
	c-0.8,0.1-0.8,0.1-1.2,0c-0.8,0.1-1.8,0-2.8,0.1h0c-0.4,0-0.6,0-1,0.1l0.5,0c0.1,0,0.3,0.1,0.4,0.1c0.5,0,0.7,0,1.1,0
	c0.4,0,0.6,0,0.6,0c0.2,0,0.3,0.1,0.3,0.1c0.1,0.1,0.1,0.1,0.4,0.1c0.2-0.1,0.4-0.1,0.9-0.1c0.2,0,0.4,0,0.5-0.1
	C153.4,10.5,153.4,10.5,153.4,10.5z M152.2,10.9c-0.4,0-0.7,0-1.1,0c-0.3,0.1-0.3,0.1-0.1,0.2c0.5,0,0.8,0,1.3-0.1
	c0.4,0,0.7,0,0.9-0.1c0,0,0.1,0,0.1,0C152.9,10.9,152.6,10.9,152.2,10.9z M147.4,10.3c0.2,0,0.4,0,0.5,0c0.1,0,0-0.1-0.3-0.1
	L147.4,10.3C147.4,10.3,147.4,10.3,147.4,10.3L147.4,10.3z M109.9,9c0.1,0,0.4,0,1,0c0,0,0,0,0,0v0C111,8.9,110.7,8.9,109.9,9
	c-0.5-0.1-1.1,0-1.1,0C109.4,9,109.6,9,109.9,9z M109.3,10.3c0.4,0,0.8,0,1.3,0c0,0,0.1,0,0.1,0c0-0.1-0.4-0.1-0.4-0.1h0
	c-0.1,0-0.2,0-0.3,0c-0.8,0-1.2,0.1-1.3,0.1C108.8,10.3,109,10.3,109.3,10.3z M108.7,10.7c-0.1-0.1-0.3-0.1-0.7-0.1
	c-0.1,0-0.1,0.1-0.2,0.1C108.2,10.7,108.4,10.8,108.7,10.7C108.7,10.7,108.7,10.7,108.7,10.7z M111.2,9c0.6,0,0.6,0,1.3,0.1
	c4.5-0.1,4.5-0.1,5.5,0h0c0.1,0,0.3,0,0.4,0c0-0.1,0.2-0.2,0.3-0.3c-5.2-0.1-5.2-0.1-6.6,0c-0.4,0-0.7,0-1.1,0c0.7,0,1,0,1.3,0.1
	C111.6,8.9,111.5,8.9,111.2,9z M116.4,10.2c0,0,0.1,0.1,0.1,0.1c0.8,0,1.3,0.1,2.1,0.1c0.6-0.1,1-0.1,2-0.1c1.1,0,1.6,0,2.2-0.1
	c0,0,0,0,0.2,0.1c0.1,0,0.4,0,0.5,0c0.8,0,1.4-0.1,1.8-0.1h0c0,0,0.1,0,0.1,0c-1.5,0-2.1,0-2.8-0.1c-1.4,0.1-2.9,0.1-4.4,0.1
	C117.4,10.1,117,10.1,116.4,10.2z M120.2,9C120.3,9,120.3,9,120.2,9c0-0.1-0.2-0.2-0.8-0.1c-0.2,0-0.2,0-0.3,0
	C119,9,119.5,9,120.2,9z M112.3,10.3c-0.1,0,0,0.1,0.3,0.1c0.3,0,0.6,0,1-0.1c0.6-0.1,0.6-0.1,1.3,0c0.2,0,0.4,0,0.6-0.1
	c0.1,0,0.1-0.1,0.1-0.1c0-0.1,0.1-0.1,0.2-0.1c-0.8,0-1.7,0-2.5,0.1h0C112.6,10.2,112.4,10.2,112.3,10.3
	C112.3,10.3,112.3,10.3,112.3,10.3z M157.2,9.2c0.1,0,0.4,0,0.7,0c0.4,0,0.6-0.1,1-0.1c0.5,0-0.3,0.2,0.4,0.2c0.3,0,0.6,0,0.9,0
	c0-0.1-0.7-0.2-0.8-0.3c3-0.1,3-0.1,3.5-0.1c1.1,0.1,3.4,0,4.1-0.1c0.1,0.2,1.4,0.1,1.6,0h0c0.3-0.1,0.6-0.1,1-0.1c0,0,0,0,0.1,0
	c0-0.1,0-0.1-0.4-0.1c-0.6,0-1.1,0.1-1.7,0c0,0-0.1-0.1-0.1-0.1c-0.3,0-0.5,0-0.7,0c-0.5,0-0.8,0.1-1.3,0.1c0-0.1-0.5-0.1-1.1,0
	c-0.3,0.1-0.5,0.1-0.9,0.1c-0.2-0.1-0.2-0.1,0-0.1c0.2-0.1,0.7-0.1,1-0.1c-1.3-0.1-2.6,0-3.9,0c-0.2,0.3-3.1,0.3-4.1,0.1
	c-1.1,0.1-2.4,0.1-3.3,0.3c1,0,1,0,5.1,0C158.2,9.1,157.2,9.1,157.2,9.2z M154.5,9.5c-0.1-0.1-0.5-0.1-1.3-0.1
	C153.2,9.5,153.4,9.6,154.5,9.5C154.4,9.5,154.5,9.5,154.5,9.5z M170.4,9.8C170.5,9.8,170.4,9.7,170.4,9.8c-0.1-0.1-0.1-0.1-0.2-0.1
	c-0.6,0-0.9,0-0.9,0.1C169.7,9.9,170.2,9.8,170.4,9.8z M171.6,9.8C171.6,9.8,171.7,9.8,171.6,9.8l-0.6,0c-0.1,0-0.3,0-0.2,0.1h0
	C170.9,9.9,171.5,9.9,171.6,9.8z M171,8.8c-0.1-0.1-0.2-0.1-0.7-0.1C170.3,8.8,170.4,8.8,171,8.8C170.9,8.8,171,8.8,171,8.8z
	 M172.4,8.8c0.1,0,0.8,0,0.9,0c0,0,0,0,0,0c-0.3,0-0.5,0-0.8,0C172.5,8.8,172.5,8.8,172.4,8.8C172.4,8.8,172.3,8.8,172.4,8.8
	L172.4,8.8z M171.5,6.1L171.5,6.1c0.2-0.1-0.2-0.1-0.5-0.1l-0.2,0.1c0.2,0,0.4,0,0.6,0C171.4,6.2,171.5,6.1,171.5,6.1z M154.8,10.5
	c-0.1,0-0.4,0-0.4,0.1L154.8,10.5c0.1,0.1,0.4,0.1,0.5,0.1c0,0,0,0,0,0C155.5,10.5,155.1,10.5,154.8,10.5z M159.4,10.6
	C159.4,10.6,159.4,10.6,159.4,10.6l-0.1-0.1c-0.3,0-0.6,0-0.9,0C158.5,10.5,158.6,10.6,159.4,10.6z M156.9,11c-0.4,0-0.5,0-0.5,0
	l-0.4-0.1c-0.3,0.1-0.9,0.2-1,0.3c0.2,0,0.5,0,0.8-0.1c0.5,0,0.9,0,1.4,0c0,0,0.1,0,0.1,0v0C157.6,11,157.3,11,156.9,11z
	 M180.2,13.5c0.2,0,0.2-0.1,0-0.2c-0.2-0.1-0.1-0.1,0-0.2c-1.1,0-2.2-0.1-3.3,0c-0.4,0-0.7,0-1.1,0.1c0.3,0,0.5,0.1,0.2,0.2
	c-0.3,0.1-0.3,0.1,0,0.1c0.3-0.1,0.4-0.1,0.6-0.1c0,0,0,0,0.1,0c0,0,0.1,0,0.1-0.1c0.1,0,0.1,0,1,0c0.4,0,0.5,0,0.5,0
	c0,0-0.3,0.1-0.4,0.1c0,0,0.1,0.1,0.5,0.1c0.4,0,0.4-0.1,0.8-0.1c0.2,0,0.5,0.1,0.6,0.1c0.1,0-0.1,0.1-0.2,0.1
	C179.9,13.5,180.1,13.5,180.2,13.5z M174.8,12C174.9,12,174.9,12,174.8,12c-0.2,0-0.5,0-1.2,0c-0.9,0-1.2,0-1.3,0.2
	c0.6,0,1.3,0,1.9-0.1C174.4,12.1,174.7,12.1,174.8,12z M172.5,12c0.2,0,0.4,0,0.6,0c0.2,0,0.5,0,0.6,0c0.1,0-0.1-0.1-0.2-0.1
	C173.2,11.8,172.9,11.9,172.5,12c-0.2-0.1-0.5-0.1-0.9-0.1l-0.5,0.2L172.5,12C172.5,12,172.5,12,172.5,12z M170.9,11.9
	c0.3,0,0.6,0,0.8-0.1c0,0,0,0,0,0c-0.1,0-0.1,0-0.2,0v0C171.1,11.8,170.8,11.8,170.9,11.9z M148.3,10.2c0.4-0.1,0.4-0.1,0.4-0.1
	c1.7,0,1.7,0,2,0c1.1-0.1,1.1-0.1,1.8,0c1.4-0.1,1.4-0.1,1.7-0.1c0.3-0.1,0.9-0.2,0.9-0.4c1.2,0,2.6,0,4.4-0.1
	c0.1,0.1-0.2,0.1-0.8,0.1c0.9,0.1,0.9,0.1,1.3,0.1c-0.4-0.2,0.2-0.3,1.5-0.3c-0.1-0.1-0.7-0.1-0.8-0.2c0.9-0.1,1.9,0,2.8-0.1
	c0,0,0.1,0,0.1,0c2,0.3,2.6,0.5,5,0.4c-0.3,0.2,0.7,0.4,0.1,0.6c4,0.1,4.2,0,4.3-0.1c0.2-0.1,0.3-0.1,1-0.1c0.1,0.1-0.5,0.1-0.5,0.2
	c0.1,0,0.2,0,0.4,0.1c0.9,0,1.1-0.1,1.4-0.1c0.8,0,0.8,0,2.8,0.1c1,0.1,2.1,0,3.1,0c0.2,0,0.5,0,0.6,0.1c0,0,2.8-0.2,3.6,0
	c-0.2,0-0.5,0-0.7,0c-1.4,0-2.8-0.1-4.2,0l0,0c-1,0-1.9,0.1-2.6,0.1c-0.8,0-1.7,0-2.5,0c-0.8,0-2,0-3,0c-1,0-0.8,0.2-1.6,0.2
	c0,0,0.1,0.1,0.1,0.1c0.3,0,0.5,0,0.8,0c-0.4,0.1-1.3,0.2-1.9,0.3c-2.2-0.2-6.3,0.1-6.5,0.1c-0.1-0.1-0.1-0.1,0.3-0.1
	c0.5-0.1-0.4-0.3-3.9-0.3c0.2-0.2,1.6-0.1,2.2-0.2c-0.2,0-0.6-0.1-0.8-0.1c-0.3,0-0.6,0-1.1,0c-1.1,0-2.2-0.1-3.3-0.1
	c-0.9,0-1.6,0.1-2.5,0.1c-1,0-1.9-0.1-2.8,0c-0.7,0-1.4,0.1-2.1,0C148.5,10.3,148.3,10.2,148.3,10.2z M167.8,10.3L167.8,10.3
	l0.6,0.1l0-0.1L167.8,10.3z M162.2,9.8C162.2,9.8,162.2,9.8,162.2,9.8c0.8,0,1.3-0.1,1.4-0.2c0.1,0,0.2-0.1-0.4-0.1
	c-0.4,0.1-0.6,0.1-0.9,0.2C162.3,9.8,162.2,9.8,162.2,9.8C162.2,9.8,162.2,9.8,162.2,9.8z M158.1,10c0,0,0.1,0.1,0.1,0.2
	c0.9-0.1,1.6-0.1,2.7,0c0.8,0,1.4,0,2.1-0.1c0,0,0.1,0,0.1,0c-0.2-0.1-0.5-0.1-1.2-0.1c-1.1,0-1.9,0.1-2.9,0.1
	C158.7,10,158.5,10,158.1,10z M155.8,10.1c0.3,0,0.6,0,1,0c0.2,0,0.3,0,0.4,0c0.2-0.1-0.5-0.1,0-0.2c-0.2,0-0.5,0-0.8,0.1
	C156.1,10,156,10.1,155.8,10.1z M152.9,10.1c0.8,0,1.2,0,1.8,0c0.2,0,0.4,0,0.8,0c0,0,0.1,0,0.1,0C155.4,9.9,153.2,10.1,152.9,10.1z
	 M244.1,11l1.2,0l0-0.1l-0.6,0L244.1,11z M277.5,12c-0.4,0-0.5,0-0.3,0c0.6,0,0.7,0,0.9,0c0.1,0,0.2,0,0.3,0c0.1,0,0.2,0,0.3,0
	C278.9,12,278.1,12,277.5,12z M1021.1,6.7c0.2-0.1,1-0.1,1.3-0.1c-0.8,0-1.7-0.1-2.3,0c-1,0.2-1,0.2-2.1,0.2c-1.4,0-2.7,0-4.1,0
	l-3.2,0.1c-0.3,0-0.4,0-0.5,0.1c1.4,0,2,0.1,5.1,0c3.8,0,6.5-0.1,7.9,0.1c-0.9,0.1-2,0.1-2.8,0.1c0.1,0.1,0.7,0.2,0.9,0.3
	c1,0,1.8-0.1,2.8-0.1v0.2c-1.8,0-3.7,0-5.5,0c0-0.1,0-0.1-0.5-0.2c-1.8,0.1-1.8,0.1-2.2,0.1c0.1,0,0.3,0.1,0.3,0.1
	c-1.6,0.1-5.1,0.2-6.7,0.2c-5.5,0-5.7,0.1-6.2,0.2c0.4,0.2,1.6,0.1,2.4,0c0.2,0,0.2,0,2.7,0.1c0.3,0,0.8-0.1,1.5-0.1
	c0.7,0,1.4,0,2.2,0c1.2,0,2.4-0.1,3.7-0.1c2.7,0,5.5,0,8.2,0v12v2980H0V20v-7.9c0.2,0,0.5,0.1,0.7,0.1c4.3-0.2,8.7-0.1,13-0.2
	c-0.3-0.1-0.6-0.2-0.9-0.3c7.2-0.3,7.2-0.3,8.5-0.4c0.4,0,0.9,0.1,1.3,0.2c0.3-0.1,0.8-0.1,1.1-0.2c0.1,0.1,0.7,0.3,1.4,0.4
	c-3.4,0.1-7.5-0.1-10.5,0.3c1.1,0,2.6,0,3.8,0c0.1,0,0.3,0,0.5-0.1c0,0,5,0,10.1,0c1.8,0.1,3.7,0,5.6,0c0.2,0.1,0.6,0.2,0.8,0.2
	c0.3-0.1,0.6-0.1,0.9-0.2c0.5,0,1.2,0.1,1.8,0.1c-0.3,0.1-0.7,0.1-0.9,0.2c0.6,0,1.3,0,1.8,0c0.2-0.1,0.5-0.1,0.7-0.2
	c1.1,0,2.5-0.1,3.6-0.1c1,0.1,2.3,0.2,3.2,0.3c0.1,0,0.3-0.1,0.4-0.1c-0.3-0.1-0.7-0.1-1-0.2c4.7-0.1,9.3-0.3,14-0.4
	c0.3,0,0.6,0.1,0.9,0.1c0.5,0,1.2-0.1,1.7-0.1c-0.5,0-1.1-0.1-1.6-0.1c-3.1,0.1-6.3,0-9.4,0c0-0.1,0-0.2,0-0.2
	c-0.8,0.1-2.1,0.2-3.1,0.2c-0.1-0.1-0.3-0.3-0.4-0.5c-0.4,0-1,0.1-1.5,0.1c0.2,0.1,0.4,0.2,0.6,0.3c-0.5,0-1.1-0.1-1.5-0.1
	c0.3-0.1,0.7-0.2,1-0.2c-0.4-0.1-0.9-0.1-1.2-0.2c0.5,0,1.3,0,1.8,0c0.3-0.1,0.8-0.1,1.2-0.2c-0.1-0.1-0.2-0.2-0.2-0.2
	c1.1,0,2.6,0,3.7,0c0.2-0.1,0.6-0.2,0.8-0.2c-1.2,0-2.7,0-3.9,0.1c0.1-0.1,0.3-0.2,0.5-0.2c0.6,0,1.3,0,1.9,0
	c0.4-0.1,0.8-0.1,1.2-0.2c2.1,0,2.1,0,7,0.3c-1.1,0-2.6,0-3.7,0c-0.1,0.1-0.3,0.1-0.5,0.2c9.9,0.3,10.2,0.3,12.5,0.4
	c-0.4,0.1-1.6,0.3-2.5,0.4c-0.2,0.1-0.8,0.3-1.4,0.5c0.3,0,0.8,0,1.1,0c0.3-0.1,0.7-0.2,0.9-0.2c0.6,0,1.4,0,2,0
	c-0.4,0-0.9,0.1-1.3,0.2c-0.1,0-0.3,0.1-0.4,0.1c1.1,0,2.6,0,3.5-0.1c0.1-0.1,0.2-0.2,0.3-0.2c11.2-0.1,11.2-0.1,12.7-0.4
	c-1.1,0-2.5-0.2-3.3-0.3c-0.8,0.1-2.1,0.2-3.2,0.2c-0.4-0.1-0.8-0.1-1.2-0.2c0.3-0.1,0.6-0.2,0.8-0.2c7.1,0,7.1,0,8.7-0.2
	c0.1,0,0.1,0.1,0.2,0.1c3.4-0.2,11.5-0.5,15.3,0c0.2-0.1,0.5-0.2,0.7-0.2c0.4,0.1,1.1,0.3,1.6,0.4c3.4-0.1,5.3,0.3,8.3,0.4
	c0.3,0.1,0.7,0.2,0.9,0.2c0.5,0,1.2-0.1,1.7-0.1c0,0.1-0.1,0.2-0.2,0.2c0.6,0,1.4,0,1.9,0c0.2-0.1,0.6-0.1,0.8-0.2
	c0.5,0,1.3,0,1.8,0c-0.1,0.1-0.2,0.2-0.3,0.2c0.8,0,0.8,0,4.7-0.2c-0.1,0.1-0.1,0.2-0.2,0.2c0.6,0,1.4,0,2,0
	c0.2-0.1,0.4-0.2,0.5-0.2c0.5,0,1.3,0,1.8,0c0.3,0.1,0.6,0.1,0.9,0.2c0.5,0,1.1-0.1,1.6-0.1c0.5,0,1.3,0.1,1.8,0.1
	c1-0.1,2.4-0.1,3.4-0.2c-0.2,0.1-0.4,0.2-0.5,0.2c1.1-0.1,2.4-0.2,3.3-0.3c0.4,0,1,0.1,1.4,0.2c0.5,0,0.5,0,0.7-0.1
	c-0.1,0-0.1,0-0.2,0c0.1,0,0.3,0,0.4,0c1.4,0,2.9,0.1,4.1,0c0.2,0.1,0.4,0.2,1.1,0.3c0.9,0,1.5-0.1,2.5-0.1c0.9-0.2,0.9-0.2,1.3-0.2
	c-0.1,0.1-0.2,0.1-1,0.2c1.2,0.1,2,0.2,3.3,0.3c0.6,0,0.4-0.1,1-0.1c0.2,0.1,1.4,0.2,1.8,0.3c0.7,0,1.5,0.1,2.3,0
	c0,0,2.3-0.2,2.9-0.5c0.6,0,1.1-0.1,1.7-0.1c0-0.1,0.1-0.1-0.3-0.2c-1.1,0-1.1,0-1.4,0c0.2-0.2,2.3-0.1,3.2-0.2
	c0.6,0,0.6,0.1,1.3,0.1c-0.7,0.2-0.8,0.2-1.6,0.2c0.1,0.1,1.5,0.1,1.7,0.2c0.4,0,0.9-0.1,1.3-0.2c0.6,0,0.4,0.1,1,0.1
	c-0.7,0.1-0.5,0.2-1,0.3c1.5,0.1,3.4,0,4.8,0.2c0.3-0.1,1,0,1.1-0.1c0.3,0,0.3,0,0.2,0.1c0.1,0,0.3,0,0.7,0c0,0,0,0,0,0
	c-0.1,0-0.2,0-0.2,0c0.2,0,0.3,0,0.5,0c0.2,0.1,0.2,0.1,0,0.2l-7.4,0.2c-1.7,0-3.4,0-5.1,0c-0.3-0.1-0.4-0.1-0.9-0.1l-0.5,0.2
	l-2.5,0.1l2.5-0.1c0,0,0,0,0,0c4.3,0.1,5.9,0.1,8.1,0c0.1,0,0.2-0.1,0.3-0.1c-0.6,0-1.4,0-2,0c2.1,0,5-0.1,7.1-0.1
	c-0.2,0.1-0.2,0.2,0,0.2c1.8,0,1.8,0,2.7,0.1c0.3,0,0.9-0.1,1.4-0.1c1.1,0.1,2.1,0.2,5.1,0.1c0.3,0.1,0.6,0.1,0.8,0.2
	c-0.9,0.1-0.9,0.1-3.5,0.2c-0.3,0-0.7-0.1-1-0.1c-0.6,0.1-1.1,0.2-1.9,0.2c0.1,0.2,0.1,0.2,1.4,0.3c-0.3,0.1-1.2,0.3-1,0.4
	c0.6,0,1.5,0.1,2,0.1c1.7-0.1,1.7-0.1,3.1-0.1c0.2,0,0.4,0.1,0.6,0.1c1,0,1.8-0.1,2.8-0.1c0.2,0,0.5,0.1,0.6,0.1c1,0,1.9,0,2.9,0
	c-0.1-0.1-0.1-0.1,0.3-0.4c-2.2,0-2.2,0-2.5,0c0,0,0.1-0.1,0.1-0.1c1.7,0,1.7,0,2.4-0.1c0.7,0,1.7,0,2.2-0.1c0,0,0,0,0,0
	c0-0.1,0-0.2,0-0.2c-0.4,0-0.9,0.1-1.2,0.2c-0.3,0-0.6,0-0.9,0c0.3-0.1,0.5-0.1,0.5-0.2c-1.1-0.1-2.3-0.1-3.4-0.1
	c-0.2,0-0.5,0.1-0.7,0.1c-0.1,0-0.3-0.1-0.5-0.1c-0.5,0-1.2,0-1.7,0c2.3-0.4,6.2,0.1,8.7-0.2c0.8,0,1.7,0,2.5,0c0.4,0,1-0.1,1.3-0.2
	c-0.1,0-0.2-0.1-0.3-0.1c0.2,0,0.5,0,0.7-0.1c0,0.1,0.1,0.2,0.1,0.2c0.3,0,0.6-0.1,0.6-0.2c0.9-0.1,1.8-0.2,2.7-0.2
	c0.1,0.1,0.4,0.2,0.6,0.2c0.2,0,0.6,0,0.8,0c0.1-0.1,0.4-0.1,0.8-0.2c0.3,0.1,0.5,0.2,0.5,0.2c0.3-0.1,0.6-0.2,0.8-0.3
	c1.2,0,1.3,0,2.8,0c0.2-0.1,0.4-0.1,0.4-0.2c0.4,0.2,0.4,0.2,12.4-0.1c0.4,0.1,0.9,0.1,1.3,0.2c0.4-0.1,0.9-0.1,1.4-0.1
	c0.4,0,0.8,0.1,1,0.2c0.6-0.2,2.3-0.2,3.3-0.4c2.5,0,2.5,0,3,0c-1.5-0.2-1.5-0.2-2.3-0.3c-0.2,0-0.4,0.1-0.6,0.1
	c-0.3-0.1-0.8-0.1-1.2-0.2l2.4-0.1l0,0l1.2,0l0,0c20.6-0.4,21.1-0.4,22.3-0.3c-0.6,0.2-0.6,0.2-3.7,0.2c-0.3,0.1-0.7,0.2-1,0.2
	c1.1,0.4,5.3,0,6.6,0.4c1.2-0.1,2.9,0,3.8-0.2c0.2,0.3-0.9,0.4-2.9,0.4c0.1,0,0.3,0.1,0.4,0.1c2.2,0.1,2.2,0.1,2.6,0.1
	c0.4,0,1.1-0.1,1.6-0.1c0.1,0.1-0.2,0.2-0.1,0.3c0.6,0,1.4,0.1,1.8,0.1c1.3-0.1,2.9-0.1,4.2-0.2c3.4,0.1,3.4,0.1,4.3,0.1
	c0.3-0.1,0.8-0.1,1.3-0.1c0.2,0.1,0.3,0.1,0.3,0.2c0.2,0,0.4-0.1,0.6-0.1l0.8,0.1c3.6-0.2,3.5-0.4,2.9-0.5c0.6,0,0.6,0,3.5-0.1
	c0.2,0,0.4-0.1,0.5-0.1c-2.1,0-2.1,0-2.5-0.1c0.2,0,0.4-0.1,0.5-0.1c2.7,0,2.7,0,3.7,0c-0.3,0.1-0.7,0.1-0.8,0.2c1,0,2.1,0.1,3,0.1
	c-0.3,0.1-0.7,0.1-0.9,0.2c-2.3,0-2.1,0.4-3.6,0.5c-1.1,0.1-2.4,0-3.5,0.1c0.3,0.1,0.9,0.1,1.4,0.1c-0.5,0.1-1.4,0.1-2,0.2
	c0.2,0,0.5,0.1,0.7,0.1c1-0.1,1.2-0.1,2.5,0c0.8,0,1.7,0,2.6-0.1c0.2,0.1,0.6,0.2,1,0.2c-0.2,0.1-0.6,0.2-0.9,0.3
	c-0.8,0-2.2,0.1-4.3,0c0,0.1,0.2,0.2,0.5,0.3c0.4,0,1.1,0,1.6,0c-0.2,0-0.6,0-0.8,0c1.6,0.1,3.8,0,5.2,0.2c0.2,0,0.6,0,0.8,0
	c0.1,0,0.2,0.1,0.3,0.1c1.5-0.1,1.5-0.1,3.1-0.4c2.2-0.1,4.4-0.1,6.6-0.1c0.2,0,0.4,0,0.5,0c0.9-0.1,0.9-0.1,3.3-0.1
	c0.1,0,0.3,0.1,0.5,0.1c2.1-0.3,2.1-0.3,3.8-0.2c0.2,0,0.5,0,0.6-0.1c-0.7,0-0.7,0-2.5-0.1c-0.3,0-0.8-0.1-1.1-0.2
	c-2.5,0-2.5,0-4.4,0.2c-0.2,0-0.6,0-0.8,0c-0.1,0-0.4,0.1-0.5,0.1c-4.1-0.1-2.9-0.4-0.7-0.7c2.2,0.1,2.4,0.1,4,0
	c0.2-0.1,0.5-0.2,0.6-0.2c-0.3,0-0.6,0-0.9,0c-0.7,0.1-1.6,0.1-2.3,0.1c-0.1,0-0.3-0.1-0.5-0.1c0.5,0,1.1-0.1,1.5-0.1
	c1.5,0.1,3.3,0,4.6,0.1c-0.2,0.1-0.4,0.1-0.6,0.2c1.6-0.1,3-0.3,4.5-0.4c0.2-0.3-0.9-0.4-1.7-0.4c0.6-0.2,0.4-0.2-0.5-0.4
	c-0.3,0-0.6,0-0.9,0c-1.4,0.2-1.4,0.2-3,0.3c-0.1,0-0.2-0.1-0.2-0.1c-0.7,0-1.6-0.1-2.2-0.1c0,0-0.1-0.1-0.1-0.1c0,0,0,0,0,0
	c0.2-0.4,0.2-0.4,1.1-0.5c0.2,0,0.5,0.1,0.7,0.1c0.5,0,0.9-0.1,1.1-0.2c0.6,0,0.6,0,2.5-0.3c0.5,0,1.2,0,1.7,0
	c0.3-0.4,0.3-0.5,0.1-0.6c-0.5,0-1.2,0-1.7,0c-0.2,0-0.3,0.1-0.5,0.1c-0.1,0-0.3-0.1-0.4-0.1c0,0,0,0,0,0c-0.1-0.1,0.1-0.2,0.7-0.3
	c0.9,0,1.9,0.1,3,0c0.4,0,0.6-0.1,0.6-0.1c0.2-0.1,0.1-0.1,0.2-0.2c0,0,0,0,0.1,0c0.4,0,0.9,0.1,1.1,0.2c0.3,0.1,0.1,0.3,0.2,0.4
	l-2.4,0c0.8,0,1.6,0,2.3,0c0.3,0.2,0.3,0.2,1.3,0.3c0.2-0.1,0.8-0.1,1.3-0.1c0.1,0.1,0.1,0.2,0.2,0.2c-0.2,0-0.4,0.1-0.6,0.1
	c0.3,0,0.6,0.1,0.9,0.1c-0.2,0-0.4,0.1-0.5,0.1c0.2,0.1,0.5,0.3,0.7,0.4c0,0-0.6,0.8-0.7,1c-0.5,0-1.1,0.1-1.4,0.1
	c-0.3,0-0.6,0-0.9,0c-0.2,0-0.5,0-0.7,0.1c0.1,0,0.2,0.1,0.3,0.1c1.5,0,1.5,0,3,0c0.1,0,0.3-0.1,0.4-0.1c-0.3,0-0.6,0-0.9,0
	c0.4,0,1.1-0.1,1.6-0.1c0.9-0.6-0.5-1.3,1.4-1.9c0.2,0.1,0.7,0.1,1.1,0.2c-0.1,0-0.1,0.1-0.2,0.1c0.2,0,0.5,0,0.6,0.1
	c0.3-0.2,0.4-0.2,1.6-0.3c0,0,0.1,0,0.1-0.1c0.1,0.1,0.1,0.1-0.3,0.4l1.2,1.3c0.4,0,0.9,0.1,1.2,0.2c0.3,0,0.6,0,0.9,0
	c-0.1,0-0.1,0.1-0.2,0.1c-3.7,0.2,0.1,0.7-2.2,1c-0.3,0-0.7,0-1,0c-0.6-0.4-0.6-0.5-0.5-0.7c-2,0.1-2,0.1-6,0c0,0.1,0,0.2,0.1,0.2
	c-0.5,0-1.2,0-1.6,0.1c0.2,0,0.5,0.1,0.7,0.1c1.4-0.1,1.5-0.1,5.8,0.1c0.2,0.1,0.1,0.2,0,0.3c-1.4,0.1-1.5,0.1-1.6,0.2
	c0.6,0,1.3,0,1.9,0c1,0.2,1,0.2,3.1,0.2c0.5,0.1,0.5,0.1,0.6,0.4c-0.3,0.5-0.3,0.5,1.5,0.6c0.6-0.4,0.5-0.5,0.4-0.6
	c-0.3-0.1-0.3-0.2-1.1-0.1c0.1-0.1,1-0.2,0.9-0.3c0,0-0.3,0-0.3-0.1c-0.2-0.1-0.2-0.1-0.3-0.2c-0.2-0.1-0.9-0.1-0.9-0.1
	c0.3-0.1,1.3-0.2,1.7-0.3c0,0,0.1,0,0.1-0.1c2.2,0.1,0,0.4,1.9,0.6l0,0.6c0,0,1.4-0.8,2-1c-0.2,0-0.4,0-0.6,0c0.2-0.1,0-0.2,0.1-0.4
	c0.2,0,0.6,0,0.8,0l-0.3,0.2c0.2,0,0.5,0.1,0.6,0.1c0,0-0.1,0.1-0.1,0.1c0.3,0,0.6,0.1,0.9,0.1c-0.1,0,0,0.1,0.1,0.2
	c0.6,0,0.9-0.1,1.2-0.2c-0.1,0-0.3,0-0.5-0.1c-0.2,0-0.4,0-0.6,0c-0.1-0.1,0-0.1,0-0.2c-0.3,0-0.6-0.1-0.7-0.1
	c0.3,0,0.8-0.1,1.2-0.1c1.4-1.1,1.4-1.1,1.9-1.1c0.2,0,0.5,0,0.8,0c-0.1,0.1-0.2,0.1-0.2,0.2c0.2,0,0.5-0.1,0.8-0.1
	c-0.1-0.2,0.6-0.5-0.1-0.7c-0.1,0-0.1,0-0.6,0c-0.1,0-0.1-0.1-0.2-0.1c1.8-0.2,1-0.5,2.7-0.6c-0.3-0.1-0.3-0.1,0.4-0.4
	c0.3,0,0.6,0,0.9,0l-0.9,0c0,0-0.1-0.1-0.2-0.1c0-0.1,0.6-0.1,0.9-0.1c0.7,0,0.8,0,1-0.1c0.1,0,0.1,0,0.1,0.1c0,0,0.2,0,0.2,0
	c1.6-0.2,0.9-0.4,1.5-0.7c1.6,0.1,1.6,0.1,1.9,0.1c0.2,0,0.2,0,0.3-0.1c0.1,0,0.2-0.1,0.9-0.1c-0.1-0.1,0.1-0.2,0.7-0.2
	c0.3,0,0.5,0,0.8,0c-0.3,0.1,0,0.2-0.2,0.3c0.3,0,0.7,0.1,0.7,0.2c0,0.2-0.4,0.3-0.7,0.5h0c-0.1,0.2,0.1,0.3,1.7,0.4
	c0.1,0,0.1,0,0.9-0.4c0.6,0,1.4,0,2,0c0.1,0,0.3,0,0.4,0.1c0.3,0,0.6-0.1,0.8-0.1c2.6,0,6-0.1,8.5-0.1c0,0.1,0.1,0.1,0.2,0.2
	c-0.8,0.1-0.9,0.3-1.5,0.4c3.3-0.3,3.5-0.3,4.8-0.6c0.2,0,0.4,0,0.6,0c0.4,0,1,0,1.5,0c-3.3,0.4-4.4,0.5-5.3,0.8
	c3.7-0.1,5.3-0.6,8.1-0.9c0.1,0,0.2,0,0.3,0c-0.1,0-0.2,0-0.3,0c6-0.5,6-0.5,6.3-0.6c3.4-0.2,7.1-0.3,10.5-0.4c-4-0.2-4.7,0-5,0
	c-6.2-0.1-12.1,0.6-12.2,0.6c-0.3,0.1-0.3,0.1-2.4,0.4c-0.4,0-0.9,0-1.4,0c0.1,0,0.2,0,0.4-0.1c-0.1-0.1-0.2-0.1-0.7-0.1
	c-1.3,0.1-2.2,0.2-3.8,0.3c-2.6,0-6.1,0.1-8.7,0.1c3.3-0.8,3.3-0.8,4.7-0.9c-0.1-0.2,2.1-0.3,2.6-0.3c1.3,0,1.3,0,2-0.5l0.6,0
	c0-0.2,0-0.2,1-0.4c0,0-0.1,0-0.1-0.1c1.2,0.1,1.5,0.2,0.7,0.3c1.3,0,1.3,0,2.6-0.4c2.1,0,1.9,0.2,1.4,0.3c-0.1,0-0.2,0-0.3,0
	c-0.1,0-0.2,0-0.3,0c-0.3,0.2,0.2,0.3,0.1,0.5c0.6,0,1.3-0.1,1.9-0.1c-0.1-0.2,0.4-0.3,0-0.5c1.2,0,1.2,0,1.7,0.3
	c1.1,0,1.4-0.1,1.7-0.2c0.5,0,0.5,0,2.2-0.5c0.4,0.1,0.7,0.1,1.9,0c0.4,0.4,0.4,0.4,0.5,0.5c0.6,0,0.3-0.2,1.1-0.2
	c0.9-0.7,1-1.4,1.9-2c0.1-0.1,0.3-0.1,1-0.1c-0.3-0.1-0.4-0.1-0.4-0.2c0.6,0,1.3-0.1,1.9-0.1c0.8,0.2,0.8,0.2,1,0.2
	c0.4-0.1,0.3-0.2-0.1-0.2c0.1,0,0.2,0,0.3,0c0,0,0,0,0,0c0.6,0.1,0.7,0.2,1,0.3c-0.2,0-0.2,0-1.3,0.2c0.8,0.2,0.8,0.2,1.3,0.2
	c-0.1,0-0.5,0.2,0.1,1.2c-0.3,0.1-0.6,0.2-0.6,0.3c0,0,0.2,0.8,0.2,0.8c0,0,0.2,0.1,0.2,0.1c1.8-0.1,2.3-0.2,2.8-0.6
	c0.7-0.2,0.2-0.4,0.7-0.7c0.3-0.1,1.4-0.2,1.7-0.4c0.1-0.1,0.1-0.1,0-0.2c0,0-0.5-0.6,1.7-0.5c-0.1,0.1-0.2,0.1-0.8,0.2l0,0
	c0.8,0.2,0.8,0.2,0.5,0.4c-0.3,0.2-0.2,0.3,0.1,0.9c0.2,0.3-0.7,0.6,0.5,0.9c0.6,0.2,1.5-0.2,2.4-0.2c-0.7-0.3,1-0.6-0.1-1
	c0.7-0.2-0.4-0.5,1.5-0.6c0,0.1,0,0.1,0,0.2c0.1,0,0.2-0.1,0.3-0.1c1,0.2,1.1,0.3,0.3,0.6c0.4,0.1,0.4,0.1,0.6,0.9
	c0.1,0.3,1.4,0.5,2.6,0.4c-0.1-0.1-0.4-0.1-0.5-0.2c0.1,0,0.2,0,0.3,0c0.2,0,0.4,0,0.6,0c0.1,0.1,0.1,0.1,0.4,0.2
	c1.2-0.1,0.3-0.3,1.5-0.4c-0.4-0.1-0.5-0.2-1.1-0.3c-0.2,0-0.4,0-0.5,0c1.1-0.3,1.6-0.6,2.1-1c1.3,0,1.5,0,3.5,0
	c-0.5,0.2-0.5,0.2-0.9,0.2c-0.1,0-0.2,0-0.3,0c0,0-0.1,0-0.1,0c0.3,0.1,0.5,0.1,1,0.1c-0.1,0.1,0.9,0.2,0.3,0.3c0.3,0,0.3,0,1.6,0.1
	c-0.3,0.2,0.1,0.5-0.3,0.7c0.1,0,0.3-0.1,0.4-0.1c0.6,0.1,0.6,0.1,0.4,0.3c0.4,0,0.8,0,1.2,0c0.4-0.1,0.3-0.2-0.2-0.3
	c-0.1,0-0.1,0-0.2,0c-0.1,0-0.2,0-0.3,0c2.6-0.3-0.9-0.8,1.7-1.1c0.1,0,0.3,0,0.5,0c0,0.2,0,0.2-0.3,0.2c2.1,0.3,0.3,0.8,3.5,1
	c0.8-0.1,0.8-0.1,0.6-0.7c1-0.1,1-0.1,1.7-0.1c-0.6-0.1-0.6-0.1-0.3-0.2c0.6,0,1.9,0,1.5,0.4c-1.7,0.4,0.6,0.7,0.2,1.1l-8.1,0.1
	c2.5,0,5.7-0.1,8.1-0.1c-0.1,0-0.1,0.1-0.2,0.1c0.8,0.2,0.5,0.4,1.2,0.6c-0.1,0-0.2,0.1-0.3,0.1c0.2,0,0.4,0,0.5,0
	c-0.3,0-0.7,0.1-0.9,0.1c0.1,0,0.3,0.1,0.4,0.1c0.3,0,0.8,0,1.2,0c-0.2,0.2,1,0.3,1.1,0.5c0.2,0,0.7-0.1,1-0.1
	c0.5-0.5,0.6-0.7,0.8-1.4v0c0.5,0,1.1,0,1.5,0C411,7.9,412,8,412,8.2c0.4,0,0.9,0,1.3,0c0.8,0.2,0.6,0.4,1.1,0.5c0.2,0,0.5,0,0.7,0
	c1.5-0.2,1.9-0.2,3.4-0.2c-1.1-0.8-1.1-0.8-1.5-0.9h0l3.2-1.4c0,0,0-0.1-0.2-0.2c-0.1,0-0.2,0-0.3,0c0.2-0.1,0.2-0.1,1-0.2
	c-0.3-0.2-0.3-0.3,0.4-0.4c-0.7-0.2-0.9-0.3-1-0.7c0.9-0.1,0.1-0.3,1.3-0.5c-0.5-0.4,0.5-0.9,0.6-1.3c0.5,0,0.5,0,1.2-0.4
	c0.8,0.1,0.8,0.1,1.6,0c-0.1,0.1-0.1,0.1,0.7,0.3c-0.1,0-0.2,0-0.3,0c-0.1,0-0.2,0-0.3,0c0,0,0,0-0.1,0c-0.1,0-2.5,0.4-0.3,0.6
	c-0.3,0.1-0.3,0.1-0.6,0.4c-0.4,0.3-0.2,0.6-0.3,0.8c-0.1,0.3,1.3,0.5,1.3,0.8c1.2-0.1,2-0.3,3.2-0.4c0.2-0.2,1.4-0.4,1.9-0.7
	c0.2,0,0.3,0.1,0.7,0.1c1.5-0.1,1.7-0.2,2.5-0.7c1.1-0.2-0.7-0.5,1.3-0.7c-0.7,0-1-0.2-1.9-0.1c0.5-0.1,0.9-0.2,1.5-0.3
	c-1.7-0.1-0.3-0.3-0.6-0.5c0.7,0,0.7,0,1.3-0.4c1,0,0.8-0.2,1.5-0.3c-0.4-0.4,1.9-0.7,2.4-1.1c-0.1,0-0.2,0-0.2,0
	c-0.1,0-0.2,0-0.3,0c0.5-0.1,1.4-0.1,1.8-0.2c0,0,0.1,0,0.1-0.1c0.7,0.4,0.7,0.4,0.4,0.4c0.3,0,0.3,0,2.6,0
	c-0.3,0.7-0.3,0.7-0.6,0.9c-1.3-0.2-1.3-0.2-1.3-0.3c0.3,0,0.7,0,1,0c0-0.2,0-0.2-0.1-0.2C440,0.9,440,1,440,1.5
	c-2.5,0.2-2.5,0.2-2.8,0.8c0.2,0,0.4,0.1,0.6,0.1c-0.5,0.2-0.5,0.2,0,0.2c1-0.1,0.5-0.3,0.9-0.4c0.2,0,0.4,0,0.6,0
	c0.6,0.1,1.2,0.3,0.2,0.3c-0.7,0.2-0.7,0.2-1.3,0.2c0.6,0.2-0.6,0.4-0.9,0.6c0.1,0,0.2,0,0.2,0c0.1,0,0.3,0,0.4,0
	c-0.8,0.1-1.2,0.2-1.6,0.3c1.1,0.1,1.1,0.1,1,0.3c0.6,0,0.6-0.1,1.3-0.1c0,0.1,0,0.2,0,0.3c0.4,0,0.4,0,1-0.1c0.1,0,0.7-0.2-0.7-0.2
	c0.8-0.1,0.8-0.2,0.3-0.4c1.2,0.1,1.6-0.2,2.6-0.2c0,0,0,0,0-0.1c-0.3,0-0.6,0-1-0.1c0.7-0.1,0.4-0.2,1-0.3c1.1,0.2,1.6,1.2,1.6,1.2
	l0,0.2c-1.4,0.3-0.3,0.8,0,0.8c-0.9,0.2,0.3,0.3,0,0.5c-0.1,0.1-0.9,0.1-1,0.1c-0.1,0,0.8,0.2,2,0c-0.2,0-0.5,0-0.7,0
	c0.5-0.1,0.8-0.1,1.6-0.1c-0.6,0.2,0.1,0.3-0.4,0.5c-0.5,0-1,0-1.5-0.1c-0.3,0-0.7,0.1-1,0.1c0.3,0.2,0,0.5,0.2,0.8
	c0.8,0.2,0.8,0.2,0.5,0.6l-25.8,0.3c7.7-0.1,18-0.2,25.7-0.2c-0.2,0.3-0.3,0.3-0.2,0.5c0.2,0,0.4,0,0.6,0c-1,0.3-0.6,0.3-0.1,0.4
	c-0.8,0.2-0.6,0.4-1,0.6c0.7,0.1,0.9,0.3,1.5,0.4c-1.1,0.2-0.2,0.5-1.1,0.7c0.3,0,0.6,0.1,0.9,0.1c-0.3,0.1-1,0.3-0.7,0.4
	c0,0,1.6,0.3,2.9-0.2c1.3,0.4,0.3,0.5-0.4,0.6c-0.3,0-0.6-0.1-0.9-0.1c-1,0.1-1,0.1-0.3,0.5c-0.2,0-0.4,0-0.5,0.1
	c0,0,0.2,0.1,0.4,0.2l-2.1,0c0,0,0.1,0,0,0l0,0c0,0-0.1-0.1-0.1-0.1c-0.2,0-0.5,0-0.7,0c0,0-0.1-0.1-0.1-0.1c0.2,0,0.4,0,0.6,0
	c-1.6-0.3-0.2-0.6-0.7-0.8l0.4-0.2c-0.9-0.2-1.1-0.4-1.9-0.6c-0.6,0-1.2,0-1.8,0.1c0,0,0.1-0.1,0.1-0.1c0.2,0,0.4,0,0.6-0.1
	c0.1,0,0.3,0,0.5,0.1c0.2,0,0.5,0,0.8,0c0,0-0.1-0.1-0.1-0.1c0.1,0,0.3,0,0.4-0.1c0.2,0,0.5,0,0.7,0c-0.2-0.1-0.7-0.1-1.1-0.1
	c-0.3-0.2,0.1-0.5,0.1-0.7c-0.2,0-0.4,0-0.6-0.1c0,0-2.6,0.5-3.2,0.7c0.2,0,0.4,0.1,0.7,0.1c-0.1,0-0.5,0.1-0.8,0.1
	c0,0,0.2,0.4,1.3,1.1c-0.8,0.1-0.6,0.2,0.4,0.4c-0.8,0.1-1.1,0.2-1.1,0.5c-14.8,0.2-34.6,0.4-49.5,0.6c-0.1,0-0.2,0-0.3-0.1
	c-0.4,0-0.9,0.1-1.1,0.1l-69.5,1v0c15.8-0.2,35.7-0.5,53.4-0.7c-0.9,0.1-2.8,0.5-2.8,0.5c-0.4,0.1-0.4,0.1-0.3,0.2
	c-0.7,0-0.8,0.1-1.5,0.1c-0.1,0.1-0.8,0.2-0.4,0.3c1.3,0,1.8-0.1,2.9-0.3c0.3-0.1,0.7-0.1,1.2-0.2c0.1,0,0.2,0,0.3,0
	c0-0.1,0-0.1,0.4-0.2c0.1,0,0.4-0.1,0.4-0.1c0,0-0.1,0,0-0.1c0.2-0.1,0.7-0.1,0.9-0.2c0,0,0,0,0,0c5.2-0.1,10.2-0.1,14.9-0.2
	c-0.5,0.1-0.6,0.1-1.5,0.2c0,0,0,0-2.9,0.7c1.5,0,1.7-0.2,2.8-0.3c-0.1,0-0.2-0.1-0.3-0.1c0.3,0,0.8,0,1.1,0
	c0.9-0.2,1.6-0.4,2.5-0.6c14.9-0.2,34.7-0.4,49.6-0.6c0.1,0.3,0.4,1.2,0.9,1.4c0.3,0,0.6,0,0.9,0c0.8,0.4,0.8,0.4,2,0.4
	c0.8-0.2,1.1-0.4,1.8-0.6c0,0-0.1-0.1-0.1-0.1c0.1,0,0.3,0,0.4-0.1c-0.5-0.4-0.5-0.6-0.2-1.2c0.6,0,1.5,0,2.1,0c0,0.2,0,0.2,1.5,1
	c-0.2,0-0.4,0-0.6,0.1l0.5,0.2l-0.3,0.1c2,0.5-3.4,1.2,1.9,1.7c-0.3,0-0.7,0.1-1,0.1c1.7,0.5,1.2,0.9,1,1
	c-14.2,0.2-31.3,0.4-47.7,0.6c16.5-0.2,33.5-0.4,47.7-0.5c-0.1,0.1,0,0.1,0.1,0.2c0.4,0,0.9,0,1.3,0.1c0.1,0.1,0.4,0.1,0.7,0.2
	c-0.1,0-0.2,0.1-0.2,0.1c0.4,0,0.8,0.1,1,0.1c0.4,0,0.9,0,1.3-0.1c-1.5,0.3,0.6,0.5,1.3,0.6c0.2,0,0.4,0,0.6,0c0.2,0,0.4,0,0.6,0
	c-0.1,0.2-0.1,0.2,1.2,0.5c1.8-0.1,1.8-0.1,0.2-0.9c-0.2,0-0.6,0-0.8,0c0,0,0.1-0.1,0.1-0.1c0.2,0,0.5,0,0.7,0
	c-0.1,0-0.2-0.1-0.3-0.1c-0.8,0-1.8-0.1-2.6-0.1c0.2,0,0.5,0,0.7,0c0.4,0,0.9,0,1.3,0c-0.1,0-0.2-0.1-0.3-0.1
	c0.8-0.1,1.7-0.3,0.5-0.6c0-0.1,0.7-0.1,0.7-0.2c0.1-0.1-0.3-0.2-0.2-0.3c0,0,0.2,0,0.3-0.1c0.5-0.1,0.8-0.2-0.4-0.3
	c0.1-0.2,0.1-0.2-0.5-0.2c0-0.1,0.8-0.1,0.7-0.2c-0.1-0.1-0.3-0.1-1.1-0.2c0.7-0.2,0.5-0.4,1.8-0.6c0.1,0.1,1,0.9,1,0.9
	c0,0,0.3,0.1,0.5,0.1c-0.1,0.1-0.4,0.1-1,0.2c2.1,0.3,0.6,0.4,0.1,0.4c0.3,0,0.7,0,1,0.1c0.3,0,0.3-0.1,0.4-0.1c0.2,0,0.4,0,0.5,0
	c0.1,0.1-0.9,0.2-0.7,0.3c0.2,0.1,1,0.1,1.4,0.2c0.2-0.1,1.9-0.5-0.3-0.7c0.9-0.1,0.3-1.2-0.4-1.3c0.7-0.1,1.1-0.2,2-0.3
	c-0.1-0.1-0.1-0.1,0.7-0.3c-0.9-0.1-0.9-0.1-0.8-0.1c0.3,0,0.7,0,0.9,0c-0.4-0.1-0.2-0.2-0.6-0.2c-0.1,0-0.2,0-0.3,0
	c1.3-0.1,1.3-0.1,1.7-0.2c0.6,0,1,0,1.5-0.1c-0.3,0-0.6,0-0.9,0c0.5-0.3-0.8-0.6-0.6-0.8c0.8,0,2,0,2.8,0c0,0,0.1,0,0.2,0
	c0.2,0,0.3,0,0.5,0c0,0,0.5-0.5,0.5-0.6c0-0.1-0.4-0.1-0.5-0.2c-0.4-0.2,0.4-0.5,0.2-0.7c0-0.1-0.4-0.1-0.7-0.2
	c0.4-0.2,0.4-0.2,0.7-0.2c-0.6-0.2-0.6-0.3-0.5-0.5c0.1-0.2-0.1-0.2-0.6-0.2c0.4-0.1,0.4-0.1,0.1-0.3c0.2,0,0.5-0.1,0.7-0.1
	c-0.6-0.3-0.7-0.5-0.7-1.2h0c0-0.4,0-0.4-0.5-0.9c0.7,0,0.5-0.1,0.9-0.1c-0.2-0.1-0.5-0.3,0.5-0.6c0.1,0,0.2,0,0.2-0.1
	c1.2,0.2,1.4,0.2,1.7,0.3c0.3,0.1-0.1,0.2,0.1,0.3c0.2,0.1,0.8,0.1,0.9,0.2c0,0-0.1,0-0.1,0c0,0-0.8,0.6,1.5,0.7c0,0,0,0,0,0
	c-0.1,0-0.2,0-0.3,0c-0.1,0-0.2,0-0.4,0c0.1,0,0.3,0,0.4,0c-0.5,0.1,0.5,0.2,0.5,0.3c0,0.1-0.5,0.1-0.5,0.2c0,0,0.1,0.1,0.1,0.1
	c0.6,0.5,1.1,0.5,1.3,0.5c0.5,0,0.6,0,0.5,0.1c0.1,0,0.1,0,0.7-0.2c0.1,0,0.2,0,0.3,0c0-0.1-1.2-0.2-0.7-0.3c0.8,0,1.7,0,3.2,0.2
	c0.5,0.1-0.8,0.1-0.8,0.2c0.1,0,0.1,0,0.2,0c0,0,0.1,0,0.2,0c1,0,1.2-0.1,1.5-0.2c1,0,1.9-0.1,2.9-0.1c0.4,0.1,0.4,0.3,0.9,0.4
	c0.4,0.1,0.6,0.1,1.1,0.2c-0.4,0.1,0.2,0.3,0.1,0.4c0,0-0.5,0.1-0.5,0.1c0,0,0,0,0,0c0,0,0.3,0.1,0.5,0.1c0.5,0,0.4,0.1,0.4,0.1
	c0.8,0,1.4-0.1,2.2-0.1c0.2-0.3-0.4-0.7-0.3-1c0-0.2,0.7-0.3,0.7-0.4c0-0.1-0.1-0.1-0.5-0.1c0.6,0,1.4,0,1.9-0.1c0.1,0,0.1,0,0.2,0
	c0.3,0.1-0.2,0.3,0,0.4c0.2,0.1,1,0.1,1.2,0.2c0,0,0.1,0,0.1,0.1c0.1,0,0,0.1-0.1,0.1c1.5,0.3,2.3,0.6,3.5,0.9
	c0.2,0,0.5,0.1,0.6,0.1c0.2,0.1-0.8,0.1-0.7,0.2c0.2,0.2,1.6,0.4,1,0.7c1,0.2,0.7,0.5,1.7,0.8c0.4,0.1,0.5,0.1,1.1,0.1c0,0,0,0,0,0
	c-0.3,0-0.3,0-0.9,0c0.2,0.1,0.3,0.2,1.2,0.2c-0.7,0.2-0.7,0.2,0.7,0.5c0.5,0.1-0.3,0.3-0.2,0.4c0,0.1,0.2,0.1,0.4,0.2
	c0.3,0.1,0.8,0.2,1.1,0.4c0.1,0.1-0.2,0.2,0.1,0.2c0.7,0.1,2,0.2,3,0.3c-0.1,0-0.1,0.1-0.2,0.1c0.2,0,0.4,0,0.6,0l-0.9,1.6
	c0.3-0.5,0.7-1.1,1-1.6c0.3,0,0.8,0,1.2,0c0.1,0,0.1,0,0.2-0.1c-2.1-0.2,0.1-0.5-1.2-0.6c0,0,0,0,0,0c-0.2,0-0.1-0.1,0-0.1l0,0l0,0
	c0,0,0,0,0,0c-0.1,0-0.2,0-0.2,0c-0.9-0.1,0-0.2-0.2-0.3c-0.7-0.3-0.7-0.3-0.9-0.4c0,0-0.1-0.1-0.1-0.1c-0.1-0.3,0.3-0.3,0.8-0.3
	c1.2-0.1,0.7-0.2,0.7-0.2c-0.2,0-0.9,0-0.9,0.1c-0.2,0-0.2,0-0.1-0.1c0.1-0.1,0-0.1-0.7-0.1c0.2-0.1,0.3-0.1,1.2-0.2
	c0.1,0,0.1,0,0.2,0c0.6,0,1.2,0.1,0.5,0.3c0.2,0,0.3,0,0.5,0c-0.2,0.4-0.5,1-0.6,1.4c0.2-0.4,0.6-1,0.8-1.4c0.1,0,0.3,0,0.4,0
	c-0.5,0.1-0.4,0.1,0,0.2c0.8-0.1,1.3-0.2,2.3-0.2c0.1,0.1,0.7,0.3,0.5,0.4c-0.2,0-0.5,0-0.7,0c-0.2,0-0.4,0-0.5,0
	c-0.2,0-0.5,0.1-0.6,0.1c0.1,0,0.3,0,0.4,0c0.6,0,1.1-0.1,1.6-0.1c0.1,0.1,0.4,0.2,0.5,0.3c1.7,0,1.7,0,2.2,0.1
	c-0.5,0.2-0.5,0.2,0,0.3c0.3,0,0.8,0,1.1,0c-0.4,0.2-0.4,0.2,0.2,0.3c0.2,0,0.4,0,0.6-0.1c-0.2,0-0.6-0.1-0.8-0.1
	c2.3-0.3,0-0.7,0.5-1.1c1.6-0.1,1.7-0.1,2.9-0.1c0.7,0.3,1.3,0.6,2,0.9c1.8,0,1.8,0,2,0c-0.2,0-0.5,0.1-0.6,0.1c0.1,0,0.2,0,0.4,0
	c1.8,0.1,2.7,0,2.6-0.3c-0.3,0-0.6-0.1-0.9-0.1l0.3-0.1c-1.6-0.3-1.4-1.2-1.4-1.2c3.1,0,7.2,0,10.3,0c0.2,0,0.5,0.1,0.8,0.1
	c0.2,0.2,0.2,0.2,1.4,0.7c0,0,0.8-0.2,1.2-0.5c-0.2,0-0.4,0-0.5,0c1.2-0.1,1.2-0.1,1.8-0.1c0,0-0.1,0.1-0.2,0.1
	c1.3,0.1,1.7,0.2,1.6,0.5c0.3,0,0.6,0.1,0.9,0.1c-0.2,0.2,1.3,0.3,0.7,0.5c0.7,0.1,1.3,0.2,2,0.2c0.4,0,1-0.1,1-0.2
	c-0.1-0.5-1.3-1.1-0.7-1.6c0.8,0,1.9,0,2.7,0h0.1c0.3,0,0.8,0,1.1,0c-0.7,0.2-0.7,0.2-0.2,0.3c1.4-0.1,1.6-0.2,2-0.4
	c0.4-0.2,0.7-0.3,1.8-0.3c-0.5-0.3,1.2-0.5,1.6-0.7c0.1-0.1-0.1-0.2,0.1-0.2c0.2-0.1,0.9-0.2,1.1-0.2c0.2-0.1-0.1-0.2,0.1-0.3
	c0.1-0.1,0.5-0.1,0.7-0.1c0.5-0.2,0-0.4,0.7-0.5c0.2,0,0.8-0.1,0.9-0.1c0.1-0.1-0.4-0.1-0.6-0.1c0,0,0.4-0.4,1.3-0.6
	c0.2,0,0.4,0,0.6-0.1c0.3,0.3-1,0.6-1.1,0.9c0,0.1,0.7,0.2,0.6,0.3c-0.1,0.1-0.6,0.1-0.7,0.1c0.4,0.1,0.5,0.1,0.6,0.2
	c-0.1,0-0.4,0.1-0.4,0.1c0,0.1,0.5,0.1,0.5,0.2c0.4,0.3-1.1,0.5-1.3,0.7c0,0.1,0,0.1,0.5,0.3c0.2,0.1-0.4,0.1-0.4,0.2
	c0,0.1,0.6,0.1,0.6,0.1c-0.1,0.1-0.9,0.1-0.7,0.2l0.4,0c0.1,0,0.2,0,0.3,0c0.1,0,0.3,0,0.5,0c2.2,0,5.1,0,7.2,0
	c0.4,0.2,0.4,0.2,0,0.3c0.3,0,0.6,0,0.9,0.1c-0.3,0.1-0.8,0.1-1,0.2c1.1,0.5,0.3,1,2.3,1.4c1.3-0.1,1.3-0.1,1.6-0.1
	c-0.8-0.5,0.7-1-0.4-1.4c0.8-0.1,0.5-0.3,0.9-0.5c2.3,0,5.4,0,7.8,0c0.4,0.1,0.4,0.1-0.3,0.4c0.2,0,0.4,0,0.5,0
	c0.7-0.1,0.7-0.1,0.9-0.4c0.5,0,1.1,0,1.5,0c0.4,0.1,0.4,0.1,0.9,0.2c0.4-0.1,0.6-0.2,2-0.3c-0.2,0.1-0.5,0.1-0.7,0.2
	c0.3,0.1,0.8,0.1,1.2,0.1c-0.1,0.2,0.3,0.4,0.2,0.7c0.5,0,0.5,0,2.1-0.2c0.1,0,0.3,0,0.5,0c0,0.2,1.1,0.3,1.1,0.4
	c0,0.1-1,0.2-0.9,0.4c0,0,0.2,0,0.3,0.1c0.3,0,0.6-0.1,0.9-0.1c0.1,0,0.3,0,0.5,0c-1.7,0.2,0.1,0.6-1.2,0.8c1.5,0.4,0.2,0.8,0.8,1.1
	c0.6,0,1.1-0.1,1.8-0.1c0-0.2-1-0.5-1-0.7c0-0.2,0.9-0.3,1-0.4l-0.2-0.2l-0.6-0.1c2-0.3-0.6-0.9,3-1.1c-0.6-0.1-0.7-0.1-0.5-0.3
	c1.2-0.1,1.2-0.1,1.7-0.1c0.2,0.1,0.4,0.1,0.6,0.2c0.8,0,0.8,0,3.8-0.9c0.7,0,1.6,0,2.2,0c-0.5,0.3,0.7,0.5,0,0.8
	c0.3,0,0.6,0,0.9,0.1c0,0-1.1,0.8,0.4,1.1c-1.2,0.4-0.8,0.5,0.8,0.6c0,0.1,0,0.1-0.7,0.2c0.3,0.1,0.3,0.1-0.7,0.5c0.3,0,0.8,0,1.1,0
	c-0.2,0-0.6,0.1-0.9,0.1c3.4,0.1,3.4,0.1,2.8,0.3c-0.6,0-0.7,0-1.5-0.1c0,0,0,0.1,0,0.1c0.3,0,0.8,0.1,1,0.1c-0.2,0-0.4,0-0.6,0.1
	c-0.2,0-0.5-0.1-0.6-0.1c-0.8,0-1.4,0.3-1.3,0.3c0.4,0,0.8,0,1.2,0l0.6,0c0.5,0,1.3,0,1.8,0.1c0,0-0.1,0.1-0.1,0.1
	c0.3,0,0.6,0,0.9,0.1c0.4-0.1,0.7-0.2,0.8-0.3c15.8-0.1,36.8-0.2,52.5-0.3c-0.3,0.1-0.5,0.2-0.6,0.2c0.3,0,0.6,0,0.9,0.1
	c0.4-0.1,0.5-0.2,0.5-0.4h0c-0.1-0.1-0.1-0.1-0.4-0.1c-0.1,0-0.2,0-0.3,0c0.1,0,0.3,0.1,0.4,0.1c-0.1,0-0.2,0-0.2,0
	c-15.9,0.1-37,0.2-52.9,0.3c0-0.1-0.3-0.2-0.3-0.3c0.3,0,0.7,0,1,0c0,0,1.4-1,1.6-1c0.8-0.3,0.8-0.3,0.7-0.4
	c-0.1-0.2-1.2-0.4-1.3-0.6c0.1,0,0.2,0,0.3,0c0.2-0.1,0.2-0.1,0.5-0.2c0.2,0,0.4,0,0.6,0c-0.2-0.2-0.1-0.2,0.3-0.4
	c1,0.2,1.1,0.4,1.6,0.6c-0.2,0-0.2,0-0.4,0.3c0.4,0,0.4,0,0.3,0.2c1.1,0,0.2-0.3,1.4-0.3c0.4,0,2.8,0.1,2.1,0.5
	c2.1-0.2,2.2-0.2,3.9-1c0.3,0,0.6,0,1-0.1c0.5-0.1,4-1.2,4-1.2l1-0.2c0.5-0.1,0.1-0.2,0.2-0.2l0.7-0.1c0.2-0.3,2.1-0.6,2.5-0.9
	c0.4,0,0.4,0,1.8-0.4l1-0.1c0.1-0.2,0.1-0.2,0.7-0.2c0.5-0.1,0.5-0.1,0.2-0.2c0.8,0,0.7-0.2,1.3-0.2c0.1-0.1,0.2-0.2,0.1-0.2
	c1.5-0.2,1.6-0.4,2.6-0.6c0.2,0,0.4,0,0.6-0.1c-0.1,0.1-0.3,0.2-0.5,0.3c-0.4,0.1-1,0.3-1.3,0.4c-0.1,0.1,0.1,0.2-0.1,0.2
	c-0.3,0.1-0.7,0.1-1,0.1c-2.2,1.1-2.3,1.1-2.9,1.1c0.8,0.6,0.8,0.6,0.5,0.8c0.4,0.1,1,0.1,1.2,0c0.5,0.1,0.7,0.2,0.7,0.3
	c-0.6,0-1.2,0-1.8,0c-0.1,0-0.1,0-0.1,0.1l-4.3,0c3.6,0,3.9,0,5.4,0c0.1,0,0.1,0,0.2,0c-1.1,0.3-0.4,0.6-2.5,0.8
	c-0.3,0.6-0.3,0.6-0.2,0.7c2.5-0.2,3.5-0.3,4.4-0.7c0.8-0.4,1.1-0.4,1.6-0.4c-0.9-0.2,1-0.4,1.1-0.6c0-0.2,0-0.2,0.1-0.2l0.7,0
	c-0.1,0-0.2,0-0.3,0c0.4-0.1,0.9-0.1,1.3-0.1c0-0.1,0.4-0.2,0.5-0.2c0.2,0,0.5,0,0.7,0c0,0,3.6-0.3,0.8-0.4c0.7-0.1-0.1-0.3,0.4-0.4
	c0.6,0,1.1,0,1.5,0c0.3,0,0.6-0.1-0.2-0.2c0.2,0,0.5,0,0.6-0.1c0.4-0.1-0.2-0.2,0-0.4c0.2-0.1,0.9-0.1,1-0.1c0,0-0.1,0-0.2,0
	c-0.1,0-0.1,0-0.2,0c0,0-0.1,0-0.1,0c0.5-0.1,1.5-0.1,2.2-0.2c0,0-0.1,0-0.1,0c-0.3,0-0.4,0-0.9,0.1c-0.1,0-0.2,0-0.3,0
	c-0.1-0.1,0-0.3,2-0.2c0.1-0.1,0.1-0.1-0.1-0.1c-1.1,0-1.1,0-1-0.1l2-0.9c0.1,0,0.2-0.1,0.3-0.1c0.1,0,0.2,0,0.3-0.1
	c0.5,0.1,1.2,0.2,1.7,0.3c-0.2,0.1-0.6,0.3-0.8,0.4c-0.2,0.1,0.7,0.1,0.8,0.2c0.1,0-0.1,0.1-0.2,0.1c0,0-0.6,0.2-2.3,0.3
	c0.8,0.2-0.4,0.4-0.5,0.5c0,0,0.1,0.1,0.1,0.1c-0.1,0.1-0.2,0.1-0.5,0.2c-0.4,0.1-0.4,0.1-0.2,0.2c0,0,2.5-0.1,3.1-0.1
	c0.6-0.1,0-0.1,0.1-0.2c1.1,0,1.5-0.1,1.8-0.4c0.9-0.1,1.1-0.1,2.1-0.3c0.9,0.2-0.3,0.4,0.5,0.6c-0.6,0.1-0.9,0.5-0.9,0.5
	c0.9,0.1,0.9,0.1,0.8,0.1c2.2-0.2,2.5-0.6,4-0.9c1,0.1,1.4,0.2,1.1,0.6c2.6-0.2,2.1-0.7,4-0.9c-0.2,0,1.1-0.7,1.2-0.8
	c0.3-0.1,0.8-0.1,1.4-0.2c-0.2-0.2-0.1-0.2,1.1-0.2c0.6,0.1-0.3,0.2-0.5,0.3c0.4,0.1,0.6,0.1,0.8,0.1c0,0,0,0,0,0
	c0.5,0.1,0.2,0.1-1.1,0.2c0,0.2,0.3,0.4,0.2,0.6c-0.6,0-1.9-0.1-1.9,0c0,0.1,0.9,0.2,1.5,0.1c0.5,0.3-1.3,0.4-1.9,0.6
	c0.2,0.3-0.8,0.6-0.4,1c0,0,0.2,0.1,1.7,0.1c0.1,0.3-0.2,0.6-0.3,0.8c0,0.4,0,0.4-0.1,0.5c-0.3,0.1-1.2,0.2-1.6,0.4
	c-0.1,0-0.2,0-0.2,0c-0.9,0-3.5,0.2-1.8,0.5c0.3,0,1.1-0.1,0.6-0.2c-0.1,0-0.3,0-0.4,0c2-0.2,2-0.2,2-0.3c0.4,0,0.8,0,1.2,0
	c0,0,0-0.1,0-0.1c0.2,0,0.4,0,0.6,0c0.2-0.2,0.3-0.2,1.2-0.2c0.2,0.1,0.3,0.2-1.4,0.2c0.9,0.1,0.3,0.2,0.4,0.3c0,0,0,0,0,0.1
	c0.1,0.1-0.1,0.2-0.1,0.3l-0.7,0.1c0.4,0.2-1.6,0.4-0.9,0.6c0.7,0,0.7,0,1.2,0.1c0.2,0.3,0.1,0.4-0.7,0.5c0.4,0.4-0.5,0.8-0.2,1.1
	c-1.2,0.2-1.2,0.2-1.2,0.3c0,0,0,0,0,0c0.7,0.2-2.2,1.5-3.5,2.1c0.1,0,0.3,0.1,0.4,0.1l4.7-1.2c2-0.9,2-0.9,4.1-0.8
	c-0.4,0.4,1.5,0.8,0,1.2c-0.3,0-0.6,0-0.9,0c0.2-0.1,0.4-0.2,0.5-0.2c-0.3,0-0.6,0-0.9,0c-0.4,0.2-4.2,1.5-3.6,1.9
	c0.1,0.1-0.5,0.2-0.9,0.2c0.5,0,1.3,0,1.7,0c0-0.1,0.4-0.9,3.6-1.3c0.1,0.1,0.1,0.2,0,0.3c0.3,0,0.6,0,0.9,0c1-0.4,1.8-0.8,2.9-1.2
	c-0.1,0-0.3-0.1-0.5-0.1c0.8-0.3,0.8-0.3,1.7-0.3c0,0-0.1,0.1-0.1,0.2c0.2,0,0.5,0.1,0.7,0.1c0.9-0.1,1.2-0.1,1.1-0.3
	c0.3,0,0.6,0,0.9,0c-0.5-0.2,0.7-0.5,0.7-0.5c0,0,0,0,0,0c0.3-0.1,0.6-0.1,1-0.3c0,0,0,0,0.1,0c1.2,0,1.5,0.1,1.8,0.3c0,0,0,0-0.1,0
	c-0.1,0-0.2,0-0.3,0.1c-0.8,0-1.8,0-2.6,0c0.7,0,1.6,0,2.3,0c0,0-1.1,0.7-0.3,0.9c-0.4,0.1-0.4,0.1-0.7,1.4
	c-1.4,0.1-2.1,0.2-0.5,0.4c-0.1,0-0.3,0.1-0.4,0.1c1.3,0.2-0.2,0.5,0.9,0.8c0,0,1.4-0.5,2.1-0.8c0.6,0,1.3-0.1,1.7-0.2
	c0.2,0.1,0.5,0.1,0.8,0.2c-0.3,0-0.6,0.1-0.9,0.1c0,0-0.1,0.1-0.2,0.1c-0.2,0-0.5,0-0.7,0.1c0.4,0,1,0.1,1.5,0.2
	c0.6-0.2,0.6-0.2,0.4-0.3c0.5,0,1.2-0.1,1.7-0.1c-1.3,0.8-1.3,0.8-0.8,0.9c1-0.1,1.5-0.2,2.8-0.3c-0.2,0.2,0.4,0.3,0.2,0.5L659,18.1
	c0,0-0.5-0.1-0.9-0.1c-0.1,0-0.2,0.1-0.3,0.1c-1.8,0-4.2,0-5.9,0c0.1-0.1,0.1-0.2,0.2-0.3c-0.2,0-0.5-0.1-0.8-0.1
	c-1.1,0.1-1.3,0.2-1.7,0.4c-1,0-2.3,0-3.2,0c0,0,0-0.1,0-0.1c-0.3,0-0.6,0-0.9,0c-0.1,0-0.3,0.1-0.5,0.1c-35.8,0.2-49.1,0.3-77,0.5
	c21.6-0.1,46.6-0.3,77-0.5c-1.6,0.6-2.4,1.2-3.6,1.8h0.5c2.2-0.5,4.4-1.8,4.4-1.8c1.6,0,3.8,0.2,4.9,0.3c0.1-0.1,0.4-0.2,0.5-0.3
	l7.2,0c1.9,0,4.1,0,6.4,0.1c-0.1,0-0.1,0-0.2,0c-0.1,0,0,0.1,0.1,0.1l0.9,0c0.1,0,0.1-0.1,0.1-0.1c4.3,0,8.8,0.1,12-0.2
	c0.4-0.1,0.8-0.2,1.2-0.3c-0.1,0-0.2,0-0.3,0c-0.4-0.1,0.7-0.3-0.5-0.3c0.7-0.2,0.7-0.4,1.9-0.5c0,0,0.4,0,0.8,0.1
	c0.2,0,0.3,0.1,0.8,0.1c-0.7,0.1-1,0.2-0.7,0.4c0.2,0.2,0.2,0.2,0,0.3c0.7,0,1.2,0,1.8,0c-0.2-0.1-0.6-0.1-0.7-0.2
	c0,0,0.2-0.1,0.3-0.1c0.1,0,0.1,0,0.2,0c0.8-0.1,0.8-0.1,0.9-0.2c0.1,0,0.4,0,0.5,0c0.1,0,0.2,0.1,0.8,0c0.1,0,0.1,0,0.1-0.1
	c-0.2,0-0.4,0-0.5,0c0,0,0,0,0.1-0.1c0.7,0,0.9-0.1,1.3-0.2c0,0,0.1,0,0.1,0c0.1,0,0.2,0,0.3,0c0.6,0.1,0.3,0.2,0.6,0.4
	c0.5-0.1,0.9-0.1,1.8-0.3c0.6-0.1,0.6-0.1,1-0.1c0.1,0,0,0.1,0,0.1c0,0,0.4,0.1,1.5-0.2c0.3-0.1,0.4-0.1,0.9-0.2c0.2,0,0.4,0,0.5,0
	c0.3,0.5,0.4,0.7-0.7,1l0.1,0.2l0.5,0.1c-0.1,0-0.3,0.1-0.5,0.1c0.3,0.1,1.1,0,1.3,0.1l1,0c0,0,0,0,0,0c0.6-0.1,0.9-0.1,1.5-0.3
	c0.6-0.2,1.1-0.3,2-0.3h0c0.1,0,0.1,0,0.2,0c-0.1,0.1-0.1,0.1-1.4,0.1c0.1,0,0.3,0,0.4,0.1c-0.1,0-0.3,0-0.5,0.1
	c0,0.1,0.2,0.1,0.5,0c0.4,0,0.7,0,0.9,0c0,0.1,0,0.2-0.2,0.3l-3.4,0c1,0,2.3,0.1,3.2,0.1c-2.8,1.5-3.1,1.7-2.2,2h1
	c1.1-0.2,1.3-0.3,2.3-0.7c0,0,0,0,0.2-0.1c0.8-0.2,0.8-0.2,2.3-0.8l0.7-0.3l1.3-0.4c0.1-0.1,0.1-0.2,0.2-0.3c0.5,0,1.2,0.1,1.7,0.1
	c0.2-0.1,0.4-0.2,0.5-0.2l0.1-0.1l30.6-5.6c4.7,0.1,7.3-0.1,13.6-0.7l3.1-0.1c0,0,0.1-0.1,0.1-0.1c19.2-1.2,19.2-1.2,43.4-1.7
	c31.7-1.8,35.1-1.3,36.9-1.1c0.9-0.1,2-0.2,2.3-0.4c18.2-0.7,37.4-0.3,55.6-0.9c11.4,0,11.4,0,12.8,0.2c0.3-0.1,0.8-0.1,1.1-0.2
	c3.9-0.1,3.9-0.1,5.8,0c0.2,0.2,0.8,0.4,1.5,0.5c7.2-1,33-0.6,36.4-0.2c0.6,0,1.3-0.1,1.9-0.1c-0.1-0.1-0.2-0.2-0.3-0.3
	c1.3,0,1.3,0,6.2,0c0.6,0.1,1.1,0.3,1,0.5c0.6,0,1.5,0.1,2.1,0.1c0.5,0,1.1-0.1,1.5-0.2c-0.5-0.1-1.1-0.1-1.5-0.2
	c0.1-0.1,0.3-0.2,0.4-0.3c1.4,0,1.4,0,39.9-0.2c0.3,0.1,0.7,0.2,0.9,0.2c-2,0.2-4.8,0.2-7,0.4c0.4,0.1,1,0.1,1.5,0.2
	c8.7-0.2,8.7-0.2,10.5-0.2c0.3-0.1,0.7-0.1,1-0.2c-0.5,0-1.2-0.1-1.7-0.2c0.2-0.1,0.4-0.2,0.6-0.2c5.8-0.1,11.8-0.1,17.8-0.1v0.2
	c-0.2,0-0.5,0-0.7,0c-0.6,0-0.9,0.1-1.6,0.1C1021.6,6.8,1020.8,6.8,1021.1,6.7z M696.9,17.8c0.4,0,0.7,0,0.9-0.1c0,0,0.1,0,0.1,0
	C697.1,17.7,696.9,17.7,696.9,17.8z M690.5,18.6c0.2,0,0.3,0,0.4,0c0.5,0,1-0.1,1.5-0.2c0,0,0,0,0,0
	C691.5,18.4,690.8,18.5,690.5,18.6z M691.8,17.9C691.8,17.9,691.8,17.9,691.8,17.9c0.1,0,0.6-0.1,0.2-0.1c-0.1,0-0.3,0-0.4,0.1
	C691.6,17.8,691.6,17.8,691.8,17.9z M689.3,17.6c0.3,0,0.6,0,1,0v0c0.1,0,0.2,0,0.4,0c0,0,0.1,0,0.1,0c-0.3-0.1-0.3-0.1,0.3-0.2
	c-0.8,0-0.8,0-0.4-0.2c-0.3,0-0.6,0-0.9,0C689.7,17.3,689.5,17.4,689.3,17.6z M688.2,18.4c0.1,0,0.3-0.1,0.8,0c0.2,0,0.3,0.1,0.5,0
	c0,0,0.1,0,0.1,0c-0.4,0-0.3,0,0-0.1c0.4,0,0.4,0,0.4-0.1c-0.6,0-0.7,0-0.8-0.1c0.6,0,0.9-0.1,1.4-0.2c-0.1,0-0.1,0-0.2,0
	C689.7,18,687.6,18.2,688.2,18.4z M687.7,18.8c-0.2,0-0.3,0-0.4,0c-0.2,0-0.4,0-0.5,0.1C687.1,18.9,687.4,18.9,687.7,18.8
	c0,0.1,0.1,0.1,0.2,0.1c0.1,0,0.1,0,0.1,0C687.9,18.9,687.8,18.9,687.7,18.8z M686.2,17.7c0.4,0,0.7,0,1,0c0,0,0.1,0,0.1,0
	c0,0,0,0,0,0c-0.2-0.1-0.1-0.2,0.4-0.3C686.9,17.5,686.5,17.6,686.2,17.7z M665.8,18.5c0.1,0,0.3,0,0.4,0c0,0,0.1,0,0.1,0
	c-0.2,0-0.3,0-0.4,0c-0.2-0.1-0.7,0-0.7,0C665,18.4,665.1,18.5,665.8,18.5z M663.9,19.1l0.9,0l0.1-0.1l-0.9,0L663.9,19.1z
	 M660.3,18.7c0.2,0,0.4,0,0.7,0c0.1,0,0.1,0,0.1,0c0,0,0.1,0,0.1,0c-0.1,0,0,0,0.1-0.1c0.1,0,0.2-0.1,0.2-0.1c0,0-0.6-0.1-1,0
	c0,0,0,0,0,0c-0.1,0-0.1,0,0,0.1C660.5,18.6,660.5,18.7,660.3,18.7z M659.8,19.1c-0.1,0-0.1,0-0.1,0c0,0,0.3,0,0.4,0
	c0.1,0,0.1,0,0.2,0c0,0,0,0,0.1,0c0,0,0.7-0.1-0.3-0.1C659.9,19,659.8,19,659.8,19.1L659.8,19.1z M664.4,16.4l0.6,0l0.1-0.1
	L664.4,16.4L664.4,16.4z M661.7,15c0.3,0,0.5,0,0.8,0c0.1,0,0.2,0,0.3,0c0.1,0,0.2-0.1,0.2-0.1C662.3,14.9,661.9,14.9,661.7,15z
	 M659,17.5c0.5,0,0.5,0,0.4,0.1c-0.1,0.1-0.1,0.1,0.2,0.1c0.3-0.1,0.4-0.1,0.4-0.2c0-0.1,0.1-0.1,0.3-0.1
	C659.9,17.5,659.4,17.5,659,17.5z M609.8,13.8c-0.6,0-1,0-1,0.1C609.1,13.9,609.4,13.9,609.8,13.8C609.7,13.8,609.8,13.8,609.8,13.8
	z M618.3,11.7c-0.1,0.1-0.1,0.1-0.2,0.2c0.3,0,0.6,0,0.8,0C619.2,11.9,618.8,11.8,618.3,11.7z M623.1,13.6l-0.6,0l-0.1,0.1
	L623.1,13.6L623.1,13.6z M625.2,12.6l-0.6,0l-0.1,0.1L625.2,12.6L625.2,12.6z M625.3,12c-0.5,0-1,0-1.5,0c0,0-0.1,0.1-0.1,0.1
	c0.1,0,0.3,0,0.4,0c0.3,0,0.6,0,0.8-0.1C625.1,12.1,625.2,12.1,625.3,12z M634.1,8c0.2,0,0.5,0,1,0c0.1,0,0.1,0,0.2,0
	c0.3-0.1,0.3-0.1,0.3-0.2h0c-1.2,0-1.6,0-1.6,0C634,7.9,633.9,7.9,634.1,8z M633.3,8.7c0.1,0,0.1,0,0.2,0c0,0,0,0,0,0
	c0,0,0.1-0.1,0.1-0.2c-0.4,0-0.6,0-0.8,0C632.5,8.6,632.5,8.7,633.3,8.7z M637.8,8.6c-1.1-0.1,0-0.3-0.7-0.4c0.1,0,0.1,0.1,0,0.1
	c-0.3,0-0.7,0-1.1,0c-0.1,0.1-0.8,0.2-1.1,0.3c-0.2,0-0.5,0-0.7,0.1C634,9,634,9,633.9,9c-0.7,0-0.7,0-1.4,0.6
	c-0.9,0.1-1.1,0.1-1,0.3c0.1,0.2,0.1,0.2,0,0.3c0.4,0,0.9,0,2-0.3c0.3-0.1,0.5-0.2,0.8-0.2c1.3-0.3,1.6-0.7,3.2-1c0.1,0,0.1,0,0.2,0
	C637.7,8.7,637.8,8.7,637.8,8.6z M652.7,12.4l0.9,0l0.1-0.1c-0.1,0-0.3,0-0.6,0C652.7,12.3,652.1,12.4,652.7,12.4z M653,11.1
	C653,11.1,653.1,11.1,653,11.1c0.1,0,0.2,0,0.2,0c0.3-0.1,0.6-0.1,0.9-0.1c0.1,0,0.2,0,0.2-0.1c-0.4,0-0.8,0-1.2-0.1l0.2,0.1
	c0.1,0,0,0-0.3,0.1C653,11.1,652.9,11.1,653,11.1z M651.9,11.3c0.6,0,0.9,0,1.2-0.1c0.1,0,0.1,0,0.1,0
	C652.7,11.2,651.8,11.2,651.9,11.3z M650.4,12.6c0.7,0,1.4,0.1,2,0c0.1,0,0.2,0,0.2-0.1c-1.1,0-1.7-0.1-2.6-0.1
	c0.8-0.2,1.5-0.5,2.4-0.7c-0.2,0-0.6-0.1-0.8-0.1c0.9-0.1,0.6-0.2-1.5-0.4h0c-2.5,0.8-2.5,0.8-2.7,1c0,0,0,0,0.4,0.1
	c0.2,0.1-0.4,0.1-0.3,0.2c0,0,0.1,0,0.4,0c-1.7,0.1-1.7,0.1-1.9,0.1c0.9,0,1.1,0.1,1.6,0.2c0.2,0,0.4,0,0.6,0c0.8,0,1,0,1.4-0.1
	C650.2,12.8,650.1,12.7,650.4,12.6z M650.5,13.4l0.2,0l0.1,0c1-0.2,1.4-0.5,1.8-0.7c-0.5,0-0.9,0-1.4,0.1c-0.1,0-0.1,0-0.2,0
	c0.2,0.1,0.2,0.1-0.6,0.4c0.2,0,0.4,0,0.5,0c-0.3,0-0.3,0-1.1,0.2C650.1,13.4,650.3,13.4,650.5,13.4z M646.8,17.8
	c-0.2-0.1-0.5,0-0.6,0c-0.2,0-0.5,0.1,0.2,0.1c0.1,0,0.2,0,0.3,0C646.6,17.9,646.7,17.9,646.8,17.8
	C646.7,17.9,646.7,17.9,646.8,17.8z M648.5,17c0,0-0.1,0-0.4,0c0,0,0,0,0,0c0,0,0,0,0,0c0.1,0,0.1,0,0.2,0.1c0,0,0.1,0,0.1,0
	C648.5,17,648.6,17,648.5,17z M648.2,16.4l0.6,0l0.1-0.1L648.2,16.4L648.2,16.4z M647.8,16.7l0.1,0.1l0.7-0.1L647.8,16.7z
	 M645.9,17.8l0.9,0c0.1-0.1-0.1-0.1-0.5-0.1C646.2,17.7,646.1,17.7,645.9,17.8z M641.8,17.7c0.1,0,0.3,0,0.4-0.1
	c0.5-0.1,0.1-0.1-0.4-0.2C641.2,17.6,641.3,17.7,641.8,17.7z M640.9,18.2L640.9,18.2c0,0,0.1,0,0.1,0c-0.1-0.1,0-0.1,0.6-0.2
	c0.5-0.1,0.6-0.1-0.4-0.2c0.3,0.1,0.2,0.1-0.3,0.2C640.6,18.1,640.3,18.1,640.9,18.2z M583.8,11.5c0.1,0,0.2,0,0.3,0
	c0.4,0,0.8,0,0.9-0.1c0.2,0-0.1,0-0.2,0c-0.1,0-0.2,0-0.3,0c-0.1,0,0,0,0.2-0.1c0.3,0,0.3-0.1-0.1-0.1c-0.1,0-0.1,0-0.4,0.1
	C583.9,11.4,583.7,11.4,583.8,11.5z M584,12c0.2,0,0.4,0,0.6,0c0,0,0.1,0,0.1,0c-0.3-0.1-0.1-0.1,0.3-0.2c0.4-0.1,0.6-0.2,0.4-0.3
	c-0.6,0-1.1,0-1.3,0.1C583,11.7,582.5,12,584,12z M430.1,15.7c0.3,0,0.6,0,0.9,0c0.1,0,0.1,0,0.1,0c0.1,0,0.1,0,0,0
	C430.9,15.6,430.1,15.6,430.1,15.7z M444.2,10.8l0.7-0.1c-0.4,0-0.7,0-0.9,0C443.6,10.7,443.3,10.8,444.2,10.8z M439.1,8.1
	c0.1,0,0.2,0,0.3,0c0,0,0,0,0.1,0c0,0,0-0.1,0-0.1c-0.3-0.1-0.6,0-0.7,0C438.5,8,438.4,8.1,439.1,8.1z M437.8,8.5
	c0.2,0,0.2,0.1,0.3,0.1c0.1,0,1.5,0,1.8,0c0,0,0.1,0,0.1,0c-0.1-0.2-0.1-0.2,0.4-0.3c-0.5,0-0.8,0-1.3,0l0,0c-0.1,0-0.2,0-0.4,0
	c-0.2,0-0.4,0-0.9,0C437.5,8.3,437.6,8.4,437.8,8.5z M437,8.7c0.2,0,0.4,0,0.7,0c0,0,0,0,0,0c-0.5,0-0.8,0-1,0v0
	C436.6,8.7,436.6,8.7,437,8.7z M424.1,6.2c0.1,0.1,0.1,0.2,0.8,0.2c0,0,0.1,0,0.1,0c0,0,0,0,0,0C425.2,6.2,425,6.2,424.1,6.2z
	 M434.4,11.2c0.1,0,0.1,0,0.4,0c0.4,0,0.7,0,0.9-0.1C435.9,11.1,435.4,11.1,434.4,11.2L434.4,11.2z M431.4,10.6L431.4,10.6
	c0.1,0,0.2,0.1,0.3,0.1l0.3,0C431.9,10.7,431.9,10.6,431.4,10.6z M392.3,11.2c0,0.1-1,0.1-1,0.2c0.3,0,0.5,0,1.1,0
	c0.2,0,0.3,0,0.5,0c0.1,0,0.2,0,0.3,0c0.1,0,0.2,0,0.3,0c0.1,0,0.1-0.1,0.2-0.1c0.8-0.2,2.1-0.2,2.9,0c0.4-0.1,1.1-0.1,1.1-0.1
	c0.9,0.1,2.5,0,3.7-0.1c0.1,0,0.2,0,0.2,0c-0.3-0.1-0.6-0.2-0.9-0.3c-0.3,0.1-0.5,0.1-0.7,0.1c-0.7,0-0.6-0.1-1.2-0.2
	C397.3,11,395.5,11.1,392.3,11.2z M395.9,8.2C395.9,8.2,395.9,8.2,395.9,8.2L395.6,8C395.2,8.1,395.2,8.2,395.9,8.2z M391.2,6.3
	c0,0.1,0.1,0.1,0.1,0.1c0.1,0,0.2,0,0.5-0.1c0.1,0,0.2,0,0.3,0C391.8,6.3,391.5,6.3,391.2,6.3L391.2,6.3z M391.2,6.8
	c0.1,0,0.1,0,0.2,0c0.3,0,0.5,0,0.6-0.1c0.1,0,0.3-0.1-0.2-0.1c0,0-0.1,0-0.3,0.1C391.2,6.7,391.1,6.7,391.2,6.8z M391,8
	c1.5,0,3,0,4.4,0c0.1,0,0.3,0,0.4-0.1c0,0,0,0,0,0c0,0-0.1,0-0.1,0c0.6-0.1,0.6-0.1,0.6-0.1c-0.4,0-0.4,0-0.8-0.1
	c-0.1,0-0.3,0-0.4,0c-0.1,0-0.1,0-0.6,0.1c0.1,0,0.1,0.1,0.2,0.1c-0.1,0-0.3,0-0.4,0c-0.1,0-0.1,0,0.2,0.1C393.3,7.9,392.1,8,391,8z
	 M386.9,11.7c0.2,0,0.5,0,0.7-0.1c0.2,0,0.2-0.1,0.2-0.2C386.9,11.5,386.5,11.6,386.9,11.7z M363.2,7.1
	C363.2,7.1,363.2,7.1,363.2,7.1L363.2,7.1c-0.5,0-1.4,0-1.2,0.1c0.1,0,0.2,0,0.3,0C362.5,7.2,363,7.1,363.2,7.1
	C363.2,7.1,363.2,7.1,363.2,7.1z M368.8,5.7c-0.1,0.1-0.7,0.1-0.6,0.2c0.2,0,0.7,0,1.1-0.1C369.3,5.8,369.6,5.8,368.8,5.7z
	 M368.6,11L368.6,11c1,0,1.3-0.1,1.8-0.2c0.3-0.1,0.6-0.2,1.2-0.2c0,0,0.1,0,0.1,0c-0.1-0.1,0.2-0.1,0.3-0.2c0,0,0,0,0,0l0,0
	c-0.1,0-0.1,0-0.2,0c-0.3,0-0.7,0-0.9,0.1c-0.1,0.1-0.4,0.2-1.1,0.3C369.1,10.9,368.8,10.9,368.6,11z M367.4,11.9
	c0.4,0,0.7-0.1,0.7-0.1c0.1,0,0.3-0.1-0.1-0.1c0,0.1-0.6,0.1-0.9,0.1C366.9,11.9,366.9,11.9,367.4,11.9z M365.6,11.8
	c0.2,0,0.2,0,0.3,0C365.9,11.7,365.8,11.7,365.6,11.8C365.5,11.7,365.5,11.7,365.6,11.8C365.1,11.7,365.3,11.8,365.6,11.8z
	 M363.6,12.3c0.6,0,1.3,0,1.9,0c0.2-0.1,0.6-0.1,0.9-0.2c0.2,0,0.3-0.1,0.3-0.1c-0.7,0-1,0-1.4,0c-0.5,0-0.6-0.1-1.1-0.1
	c-0.3,0.1-0.3,0.1-0.3,0.2c0,0,0,0,0,0C364,12.1,364.2,12.2,363.6,12.3z M352.8,10.2c0.1,0,0.1,0,0.3,0c0.1,0,0.1,0,0.2,0
	c0.2-0.1,0.1-0.1-0.2-0.1C353,10.1,352.9,10.1,352.8,10.2L352.8,10.2z M338.8,9.9c0-0.1-0.2-0.1-0.6-0.1c0.1,0,0.2,0.1,0.3,0.1
	L338.8,9.9z M337.6,9.7c0.3,0,0.7,0,1.1-0.1c0.5-0.1,0.3-0.3,1-0.4c-0.4,0-0.6,0-0.9-0.1h0c-0.2-0.1-0.3-0.1-0.6-0.1
	C336.6,9.2,338,9.4,337.6,9.7z M334.2,9.9c0.3,0,0.4,0,0.6-0.1c0.3-0.1,0.7-0.2,0.7-0.3c0.1-0.1-0.2-0.2-0.2-0.4h0
	c-0.4,0-0.9,0-1.2,0C333.7,9.5,333.7,9.7,334.2,9.9z M327.6,12.5c-0.1,0-0.4,0-0.6,0c-0.1,0.1,0.1,0.1,0.6,0.1h0c0,0,0,0,0.1,0
	C327.6,12.6,327.8,12.5,327.6,12.5z M327.3,12.1c-0.1,0.1-0.1,0.1,0.2,0.1c0.2,0,0.3,0,0.3,0C327.8,12.2,328,12.1,327.3,12.1z
	 M327.6,9.5c0.4,0,0.7,0,1.1,0c0.1,0,0.3,0,0.4,0c0,0,0,0,0.1,0h0c0-0.2,0-0.3-1-0.2c-0.1,0-0.1,0-0.3,0.1
	C327.6,9.4,327.5,9.4,327.6,9.5z M328.5,9.9c0.3,0,0.4-0.1,0.7-0.2c0,0,0,0,0,0c-0.2,0-0.4,0-0.7,0c-0.3,0-0.5,0-0.5,0
	c-0.4,0-0.4,0.1-0.3,0.2C327.9,9.9,328.3,9.9,328.5,9.9z M329.5,12.9c-0.1,0.1,0,0.1,0.2,0.1c0.1,0,0.2,0,0.3,0
	C330,12.9,330.2,12.9,329.5,12.9z M329.7,12.6c0,0-0.2,0-0.4,0.1c-0.4,0-0.6,0-0.5,0.1c0.1,0,0.3,0,0.4,0c0.4,0,0.7,0,0.8-0.1
	C330,12.7,330.3,12.6,329.7,12.6z M330.6,8.2L330.6,8.2l0.6,0.1l0-0.1L330.6,8.2z M330,8.7l0,0.1c0.1,0,0.2,0,0.2,0
	c0.1,0,0.3,0,0.4,0c0.1,0,0.1-0.1,0.3-0.1C330.7,8.7,330.3,8.7,330,8.7z M326.8,8.9c1,0,2.2,0,3.2-0.1L326.8,8.9z M319.4,13.1l1.2,0
	c-0.2-0.1-0.4-0.2-1-0.2h0c0.1,0,0,0.1-0.2,0.1C319.3,13,319.3,13,319.4,13.1z M279.8,18.6c0.8,0,1.1-0.1,1.3-0.1
	c0.1,0,0.1,0,0.1-0.1c-1,0-1.9,0-3,0C278.2,18.6,279.4,18.6,279.8,18.6z M279.1,18.8c0,0-0.1,0-0.4,0.1c-0.5,0.1-0.7,0.1-0.1,0.1
	c0.1,0,0.2,0,0.5,0c0.2,0,0.4,0,0.6,0C279.7,18.9,279.9,18.9,279.1,18.8z M290.4,18.3c0.3,0,0.5,0,0.9,0c0.3,0,0.5,0,0.8,0
	c0,0,0,0,0.1,0c-0.1,0-0.3,0-0.6,0C290.4,18.2,290.4,18.2,290.4,18.3z M311.9,17.5c0,0,0-0.1,0.1-0.1c0,0-0.1,0-0.2-0.1
	c-0.1,0-0.1,0-0.2,0.1C311.6,17.4,311.8,17.5,311.9,17.5z M316.9,15.6C316.9,15.6,316.9,15.6,316.9,15.6c0-0.1,0-0.1,0.1-0.2l-0.9,0
	c-0.1,0.1-0.1,0.2,0.5,0.2C316.7,15.6,316.8,15.6,316.9,15.6z M469.5,17.6c0,0,0.2,0,0.3,0c0.3-0.1,0-0.1-0.2-0.1
	c-0.1,0-0.2,0-0.3,0l-0.1,0.1C469.3,17.6,469.3,17.6,469.5,17.6z M471,16.5c0.1,0,0.2,0,0.3,0c0.1,0,0.1,0,0.1,0c0-0.1-0.5,0-0.7,0
	l0,0.1C470.8,16.5,470.9,16.5,471,16.5z M472.5,17.7l-0.6,0l-0.1,0.1L472.5,17.7L472.5,17.7z M472.2,17.8c-0.1,0.1,0.1,0.2,0.7,0.3
	c0,0,0,0,0,0C472.9,17.8,472.9,17.8,472.2,17.8z M561,18.2c0.2,0,0.2,0,0.3,0C561.4,18.2,561.3,18.2,561,18.2
	C561.1,18.2,561,18.2,561,18.2C560.6,18.2,560.7,18.2,561,18.2z M579.2,14.2c0.1,0,0.2,0,0.3,0c0,0,0,0,0,0c0.1-0.1,0-0.2-0.4-0.2v0
	c0,0,0,0-0.1,0.1C578.9,14.2,578.9,14.2,579.2,14.2z M571.6,11.4l0.6,0l0-0.1L571.6,11.4L571.6,11.4z M570.6,11.8
	c0,0.1,0.2,0.2,0.3,0.2c0.4,0,0.7,0,1.1-0.1c0.1,0,0.1,0,0.2,0c0.2-0.1,0.3-0.1-0.1-0.2c-0.1,0-0.3,0-0.2-0.1c0.1,0,0.3,0,0.5-0.1
	c-0.2,0-0.2,0-0.9,0c-0.4,0-0.6,0-0.7,0c1.1,0,1.5-0.1,1.4-0.2c-0.4,0-0.9,0-1.3,0C570.8,11.6,570.6,11.7,570.6,11.8z M563.1,10.6
	c0.1,0,0.3,0,0.4,0c0,0,0,0,0.1,0c-0.2-0.2-0.2-0.2-0.9-0.2C562.5,10.5,562.6,10.6,563.1,10.6z M561.7,11.1c1.4,0.1,1.4,0.1,1.8,0.1
	c0.2-0.2,0.2-0.2,0.8-0.2c0.7,0.4,0.7,0.4,1.6,0.5c-0.8,0.1,0,0.2-0.2,0.3c0.3,0,0.6,0,0.6,0c0.5,0,0.7-0.2,0.3-0.3
	c-0.1,0-0.2,0-0.3,0c0.6-0.1,0.6-0.2,1.1-0.2c-0.3-0.1-0.4-0.1-0.5-0.3c-0.2-0.3-0.4-0.3-1-0.3c-0.1,0-0.4,0.1-0.8,0.1
	c-0.8,0.1-1.7,0.1-2.5,0.1C562.5,10.9,562.5,10.9,561.7,11.1z M561.2,12.6c0.5,0,1,0,1.3-0.1c0.3,0,0.3-0.1,0.3-0.1
	c0-0.1-0.1-0.1-0.1-0.2c0-0.1,0-0.1,0-0.2c-0.1-0.1-0.3-0.1-0.8-0.2C561.3,12.1,561.3,12.2,561.2,12.6z M562.7,12.6
	c-0.1-0.1-0.8-0.1-1.2,0c0,0,0,0,0,0c-0.1,0-0.1,0-0.1,0.1L562.7,12.6C562.7,12.6,562.7,12.6,562.7,12.6z M561.7,13.1
	C561.7,13.1,561.7,13.1,561.7,13.1c0.5-0.1,0.3-0.1-0.4-0.2C561.1,13,561,13.1,561.7,13.1z M561,13.2c0.1,0.1,0.2,0.1,0.5,0.1
	c0.2,0,0.4,0,0.6-0.1c0.1,0,0.1,0,0.1,0C562.3,13.3,562.6,13.1,561,13.2z M538,11.2c0.1,0.1,0.4,0.1,1,0.1c0.5,0,0.8,0,1,0.1
	l0.7-0.1c-0.3,0-1,0-0.9-0.1c0.1,0,0.5-0.1,0.9-0.1c0.2,0,0.4,0,0.5-0.1c-0.4,0-0.5,0-0.5-0.1h0c-0.1,0-0.1,0-0.4-0.1
	C538.9,11.2,538.9,11.2,538,11.2z M538.8,12.6L538.8,12.6l-0.6-0.1l0,0.1L538.8,12.6z M537.8,13.3L537.8,13.3l0.6,0.1l0.1-0.1
	L537.8,13.3z M538.7,13.3l0.6,0l0-0.1L538.7,13.3L538.7,13.3z M539.7,12c0,0,0.1,0,0.1,0c0.1-0.1,0.6-0.2,0.4-0.3
	c-0.1-0.1-0.6-0.1-0.9-0.1C538.9,11.9,538.8,12,539.7,12z M537.8,10.7c0.2,0,0.3,0,0.4,0c0,0,0,0,0,0c-0.3,0-0.6,0-0.9,0
	C537.1,10.7,537.5,10.7,537.8,10.7z M535.6,14.7c0.2,0,0.4,0,0.5,0c0,0,0.1,0,0.2,0c0.1,0,0.1,0,0.1,0
	C536.4,14.6,536.3,14.6,535.6,14.7z M532.8,12.7l0.9,0l0.1-0.1l-0.6,0L532.8,12.7z M525.7,13.1c0.3,0,0.4,0.1,0.7,0.1
	c0.3,0,0.5,0,0.7,0c0.1,0,0.2,0,0.3,0c0,0,0,0,0.1,0c0-0.1,0.1-0.2,0.1-0.2C525.9,13.1,525.9,13.1,525.7,13.1z M524.6,12.2l0.6,0
	l0-0.1L524.6,12.2L524.6,12.2z M515.8,12.9c0.6,0,0.9,0,1.1,0c0.2,0,0.4,0,0.6,0c0,0,0.1,0,0.1,0c-0.2-0.1-0.2-0.2,0.1-0.3
	c-0.3,0-0.5,0-0.7,0v0c-0.4,0-0.8,0-0.8,0C515.9,12.6,515.9,12.7,515.8,12.9z M517.2,13.1L517.2,13.1c0.1,0,0.2,0.1,0.2,0.1l0.4,0
	C517.8,13.1,517.7,13.1,517.2,13.1z M510.2,11.8c0.1,0,0.2,0,0.4,0c0,0,0.1,0,0.1,0c-0.2,0-0.2,0-0.4-0.1c-0.1,0-0.1,0-0.4,0
	C509.5,11.7,509.8,11.8,510.2,11.8z M498.7,15.1c27.1-0.2,54.8,0.9,81.3-0.6c-0.2-0.2-0.2-0.2,0.1-0.2c-1.1,0-1.3,0.1-1.4,0.2
	C554.7,14.7,522.7,14.9,498.7,15.1L498.7,15.1z M481,16.5c0,0.1,0.1,0.1,0.5,0.1c0,0,0,0,0,0C481.7,16.5,481.5,16.5,481,16.5z
	 M471.5,11.2c1.7,0,3.4,0,5.2-0.1L471.5,11.2z M470.2,16.3c0,0,0.2,0,0.2,0c0.2,0,0.4,0,0.7,0c0,0,0,0,0,0c0-0.1,0.6-0.1,0.7-0.2
	c-0.2,0-0.5,0-0.9,0C470.2,16.2,470.2,16.2,470.2,16.3z M468.3,16.9c-0.5,0-0.8,0.1-0.9,0.1c0.6,0,1,0.1,1.3,0.1
	c0.4,0.1,0.2,0.2,0.3,0.3c0.4,0,0.7,0,0.9,0c0.2,0,0.3-0.1,0.3-0.1c0-0.1,0.1-0.1,0.2-0.1c-0.1,0-0.2,0-0.6,0c-0.2,0-0.3,0-0.4,0
	c-0.1,0-0.1,0-0.2,0c-0.2,0,0.1-0.1,0.2-0.1h0c0.4,0,0.4,0,0.4-0.1C469.3,16.9,468.9,16.9,468.3,16.9z M468.4,16.1
	c-0.2,0-0.3,0-0.5,0c-0.1,0-0.3,0-0.4,0c0.1,0.1-0.6,0.3-0.2,0.4c0.1,0,0.4,0.1,1.7,0.1c0,0,0,0,0,0c0.2-0.1,0.2-0.2,0.2-0.3
	c0-0.1,0-0.2,0.2-0.4C468.9,16,468.7,16,468.4,16.1z M469.2,15.5c-0.4,0-0.7,0-1.2,0c-0.6,0-0.7,0.1-1,0.1c0,0.1,0.9,0.2,1,0.4
	c-0.6,0-0.8,0.1-1,0.1l0,0c-0.2,0.1-0.4,0.1-1,0.1c0.2,0,0.4,0,0.6,0c0.2,0,0.3,0,0.6-0.1c0.1,0,0.4-0.1,1.1-0.1c0,0,0,0,0,0
	c0.4-0.3,0.4-0.3-0.1-0.4c0.1,0,0.2,0,0.5-0.1C469.2,15.6,469.2,15.6,469.2,15.5z M467,15.4c-0.3,0-0.7,0-1,0c0.6,0,1.2,0,1.7,0.1
	c0.1,0,0.2-0.1,0.3-0.1c0.6-0.2,0.6-0.2,0.8-0.3c-1.5-0.1-1.5-0.1-2.2-0.1c0,0.1-0.3,0.1-0.4,0.2C466.7,15.2,466.8,15.2,467,15.4z
	 M458.5,16.7c0.1,0.1,0.6,0.1,0.9,0.1l0.7,0c0.1-0.2,0.3-0.4,0.4-0.7h0c-0.4,0-0.5,0-0.9,0c-0.4,0-0.7,0.1-1.1,0.1
	C458.6,16.4,458.3,16.6,458.5,16.7z M456.9,15.2l-0.9,0l0.3,0.1L456.9,15.2z M350.8,17.8c0.1,0,0.2,0.1,0.3,0.1c0,0-0.1,0,0.1-0.1v0
	c0.2,0,0.5-0.1,0.7-0.1c0.2,0,0.1-0.1-0.2-0.1c-0.3,0-0.1,0.1-0.7,0.1C351,17.8,350.9,17.8,350.8,17.8z M349.5,18.2l0.6,0
	C350.1,18.1,350.1,18.1,349.5,18.2C349.5,18.1,349.5,18.1,349.5,18.2z M322.2,19.2c1.9,0,2.2-0.1,4.2-0.1c0.4,0,0.7,0.1,1.1,0.1h0
	c0.1,0,0.4,0,0.6,0c0,0,0,0,0.1,0c-0.6,0-0.8-0.1-1.4-0.2c0,0,0,0,0,0c-1.1,0-1.6,0.1-1.9,0.1c0-0.1-0.3-0.1-2.2-0.1
	c-0.2,0-0.3,0-0.5,0C322.3,19.1,322.3,19.1,322.2,19.2z M319.1,15.4c0.3,0,0.5,0,0.5,0C319.8,15.4,319.6,15.3,319.1,15.4
	C318.6,15.4,318.9,15.4,319.1,15.4z M315.8,14.6l0,0.1c0.2-0.1,0.5-0.2,1-0.2c-0.2-0.1-0.2-0.1,0.4-0.3c-0.4,0-1,0-1.4,0l0-0.9
	c0,0.3,0,0.6,0,0.9c-0.3,0-0.6,0-0.8,0C314.6,14.4,314.6,14.4,315.8,14.6z M261.6,13.9c0.2,0,0.2,0,0.1-0.1c-0.1,0,0.1,0,0.4-0.1
	c0.2,0,0.4,0.1,1.4,0c1.2,0,1.4,0,1.3,0.1c-0.6,0-1.3,0-1.8,0c-0.4,0-0.5,0-0.5,0.1c1.5,0,3.2,0.1,4.5-0.1c-0.1,0-0.3-0.1-0.9,0
	c-0.7,0-0.8,0-0.9,0c0.2,0,0.4-0.1,0.6-0.1c0.6,0,1.3,0,2,0c0.5,0,0.5,0,0.8,0.1c-0.4,0.1-1.1,0.1-1.5,0.2c-0.3,0-0.3,0,0,0.1
	c0.3-0.1,0.8-0.1,2.1-0.2l0,0.1c1.8,0.2,1.8,0.2,2.7,0.2c0,0,0.1-0.1,0.1-0.1c1.6-0.1,3.5-0.1,5.2-0.1c0.2,0,0.4,0.1,0.6,0.1
	c-0.2,0-0.4,0.1-0.5,0.1c-0.3,0-0.6,0-0.9,0c-0.2,0.1-0.2,0.1-0.1,0.2c0,0-2.4,0.4-3.4,0.6c0.9,0.1,0.9,0.1,2.7,0.1
	c-0.4,0.1-0.4,0.1-1,0.2c-0.2,0-0.5,0-0.7-0.1c-0.2,0-0.5,0-0.7,0.1c0.8,0.1,2,0.1,3,0.2c1.5-0.1,1.7-0.1,4.1,0.1c0.1,0,0.2,0,0.2,0
	c0.5,0,1.2,0,1.6-0.1c-0.3,0-0.6,0-0.8,0c-0.2,0-0.4,0-0.6-0.1c1.1,0,2.2,0,3.3,0l0.3-0.1l0.6,0l0,0.1c0.3,0,0.5,0,0.8,0
	c0,0-0.1-0.1-0.1-0.1c0.2,0,0.4-0.1,0.5-0.1c3.8,0,7.4-0.2,11.2-0.1c0.1,0,0.3,0.1,0.4,0.1c0.5,0,1.1-0.1,1.5-0.1c0.3,0,0.6,0,0.8,0
	c-0.4,0.1-0.8,0.1-1.1,0.2c0.5,0,1.2,0,1.7,0c0-0.1-0.1-0.2-0.2-0.2c9.1,0,9.7-0.2,10.1-0.4c-0.1,0-0.3-0.1-0.5-0.1
	c-0.1,0-0.2,0.1-0.3,0.1c-5.8-0.1-11.7,0.2-17.5,0c0.1,0,0.2-0.1,0.3-0.1c-1,0-1.8-0.1-2.8-0.1c-0.2,0-0.4-0.1-0.6-0.1
	c0.2,0,0.4,0,0.6-0.1c-0.5,0-1.1,0.1-1.5,0.1c-0.1,0-0.2-0.1-0.3-0.1c0.2,0,0.6,0,0.8,0c0,0,0-0.1,0.1-0.1c-1.1,0-1.1,0-2.2,0.3
	c-0.2,0-0.5-0.1-0.6-0.1c0.1,0,0.2-0.1,0.3-0.1c-2.1,0-4,0.2-6.2,0.1c0,0,0-0.1,0-0.1c0.5,0,1.3,0,1.8,0c0.3,0,0.7-0.1,1-0.1
	c-0.5,0-1.2,0-1.7-0.1c0.3,0,0.3,0,2.4-0.1c0.2,0,0.4,0.1,0.5,0.1c-0.1,0-0.2,0.1-0.2,0.1c0.2,0,0.4,0.1,0.5,0.1
	c1.3,0,1.6-0.1,3.1-0.2c-0.1,0-0.2-0.1-0.3-0.1c0.2,0,0.5-0.1,0.7-0.1c-0.2,0-0.6,0-0.8-0.1c-0.5,0-1.1,0-1.6,0.1
	c-0.2,0-0.5-0.1-0.7-0.1c0.7-0.1,1.6-0.1,2.4-0.2c0,0,0-0.1,0-0.1c3.4-0.1,7.3-0.1,11.3-0.2l-11.3,0.2c-0.3,0-0.9,0-1.2,0l-15.2,0.1
	c-0.4,0-1.1,0.1-1.6,0.1c0.1-0.1,0.1-0.1-0.3-0.1c-0.4,0-0.4,0-0.4-0.1c0.5-0.1,1-0.1,2.5-0.1c0.8,0,1.3,0,1.6-0.1c0,0,0.1,0,0.1,0
	c-1.8,0-3.7,0.1-5.4-0.1c-0.6,0.1-1,0.1-2.1,0.1c-3.4,0.1-3.4,0.1-3.6,0.1C261.5,13.7,260.7,13.8,261.6,13.9z M291.8,14.6
	c0,0.1,0,0.1-0.3,0.2c0.1,0,0.2,0,0.2,0h0c0.1,0,0.2,0,0.3,0C292.2,14.8,292.2,14.6,291.8,14.6z M294.7,15.5c-1.6,0-1.6,0-2.4,0
	c-1.6,0.1-3.6,0.1-5.3,0.1c1.9,0,3.8,0.1,5.7,0c0.1,0,0.2,0.1,0.3,0.1c1.7-0.1,1.7-0.1,2.4-0.2C295.2,15.6,294.9,15.6,294.7,15.5z
	 M285.6,17.1c-0.2,0-0.3,0-0.2,0.1c0.1,0.1,1,0.1,1.4,0c0,0,3.1-0.1,3.5-0.1c0.3,0,0-0.1-0.6-0.1c-1,0-1.9,0.1-2.9,0.1
	C286.4,17.1,286,17.1,285.6,17.1z M283.6,17.2c0-0.1-0.2-0.1-0.6-0.1c-0.2,0.1-0.3,0.2,0.5,0.2c0.4,0,0.7,0,0.9-0.1c0,0,0,0,0,0
	C284.4,17.2,284.4,17.2,283.6,17.2z M281.1,17.3c0.7,0,0.9,0,0.9,0c0.1,0,0-0.1-0.6-0.2c-0.4,0.1-1,0.1-1.2,0.2
	c-0.2,0.1,0.2,0.1,0.3,0.1C280.5,17.3,280.6,17.3,281.1,17.3z M279.2,17.3c0.1,0,0.4,0,0.5-0.1c0,0,0.1,0,0.1,0
	C279.6,17.2,279.5,17.2,279.2,17.3l0.3-0.2c-2.1,0.1-4.5,0-6.5,0.2c-0.2,0-0.2-0.1-0.4-0.1c-0.1,0-0.3,0-1.7,0.1
	c-0.3,0-0.3,0.1-0.3,0.1C273.4,17.4,276.3,17.4,279.2,17.3C279.1,17.4,279.1,17.3,279.2,17.3z M271.7,15.1c0.2,0,0.6-0.1,0.7-0.1
	c0.1,0,0.1,0,0.1-0.1c-0.7,0.1-1,0.1-1.7,0.1c-0.6,0-1,0-1.6,0C269.4,15.1,270,15.1,271.7,15.1z M268.8,15.4
	c-0.3,0.1,0.2,0.1,0.5,0.1c0.2,0,0.3,0,0.4,0c0,0,0,0,0,0C269.4,15.4,269.1,15.4,268.8,15.4z M270.9,14.8c0.3,0,0.5-0.1,0.6-0.1
	c0.1,0,0.1,0,0.1,0c0,0-0.2,0-0.9,0.1C270.8,14.7,270.8,14.8,270.9,14.8z M270.3,15.4c0.2,0,0.4,0,0.5,0c0,0,0.1,0,0.2,0
	c0,0,0.1,0,0,0C271,15.4,270.7,15.3,270.3,15.4L270.3,15.4z M268,15.1c0.2,0,0.3,0,0.4,0c0.1,0-0.1,0-0.2-0.1c-0.1,0-0.3,0-0.4,0
	C267.5,15.1,267.7,15.1,268,15.1L268,15.1z M266.9,15.1L266.9,15.1l-0.6-0.1l0,0.1L266.9,15.1z M266.1,15.4L266.1,15.4
	C266.1,15.4,266.1,15.4,266.1,15.4c-0.3,0.1-0.4,0.1,0.2,0.1c0.1,0,0.2,0,0.4,0c0,0,0,0,0.1,0C266.7,15.4,266.5,15.4,266.1,15.4z
	 M267.2,14.8c0.1,0,0.1,0,0.1,0c0.2,0,0.2-0.1-0.5-0.1C266.5,14.7,266.5,14.8,267.2,14.8z M260.4,15.1c0.5,0,0.8,0,0.9,0
	c0.1,0,0,0,0,0c-0.2,0-0.4,0-0.6,0L260.4,15.1z M260,14.8c0.1,0,0.1,0,0.2,0c0.2-0.1,0.2-0.1-0.2-0.2c-0.6,0-0.9,0-1.1,0.1
	C258.6,14.7,257.9,14.8,260,14.8z M258.9,15.4l0.3,0.1c0.1,0,0.5,0,0.6-0.1c0.1,0,0.1-0.1,0-0.1C259.5,15.4,259.2,15.4,258.9,15.4
	L258.9,15.4z M259.3,15.2c0,0,0.1,0,0.2,0c0,0,0,0,0,0c0-0.1-0.2-0.1-0.6-0.1c-0.1,0-0.2,0.1-0.3,0.1
	C258.8,15.1,259,15.2,259.3,15.2z M255.3,15.5c0.3,0,0.4,0,0.6,0c0.2,0,0.2,0,0.5,0c0,0,0,0,0.1,0c0.1,0,0.2-0.1-0.2-0.1
	C256,15.4,255,15.5,255.3,15.5z M244.4,14.7L244.4,14.7c0.1,0.1,0.2,0.1,0.3,0.1c0.1,0,0.2,0,0.3,0c0,0,0.1,0,0.1,0
	c0,0,0-0.1-0.3-0.1C244.7,14.7,244.7,14.7,244.4,14.7z M235.9,18.8c0,0,0.1,0,0.1,0c21.6-0.4,50.7-0.7,72-1.3c0.5,0,1.5-0.1,2.9-0.3
	c0.7,0,1.2,0.1,1.9,0.1c0.5,0,0.9,0,1.1,0c-0.4,0-0.5,0-0.5-0.1c0-0.1-0.2-0.1-0.7-0.1c0.3,0,0.6,0,0.9,0c-0.1-0.2,0.5-0.3,0.6-0.4
	c-0.3,0-0.7,0-0.9,0c-0.6-0.1,0.5-0.3,1.8-0.3c0.1-0.1,0-0.2-0.3-0.2c0.2,0,0.3,0,0.8-0.1l0.1,0l-0.1,1.3c0.1-0.4,0.2-0.9,0.3-1.3
	c0.2,0,0.4,0,0.6,0c0,0-0.1-0.1-0.1-0.1c-0.2,0-0.5,0-0.7,0c0-0.1,0-0.1,0-0.2l0,0.2c-2.2,0-2.6-0.1-3.2-0.3
	c-0.1,0.1-0.2,0.2-0.4,0.2c-0.4-0.1-0.8-0.2-1.2-0.2c-0.7,0-0.7,0-2.4,0c-1.3,0.1-1.3,0.2-1.5,0.3c-0.3-0.1-0.3-0.1-2.4-0.2
	c-1.5,0.1-1.6,0.1-1.7,0.3c-3.4,0.3-7.8,0.1-11.2,0.4c-1.4-0.1-2.8,0-4.2,0c0.1,0,0.2,0.1,0.2,0.1c0.3,0,0.7,0,1,0c0,0,0,0.1,0,0.1
	c-1.5,0.2-1.5,0.2-1.6,0.3c2.8,0,3.6-0.1,4.3-0.2c0.5,0.1,0.5,0.2,1.1,0.3c3.8-0.2,8.2-0.2,12.1-0.4c0.1,0,0.2,0.1,0.3,0.1
	c0.1,0,0.3-0.1,0.4-0.1c1.2,0.1,2.4,0,3.6,0.1c0.4,0.3,0.4,0.3-0.1,0.4C305.3,17,305,17,304,17c-0.3,0-0.7,0.1-1,0.1
	c0.1,0,0.3,0.1,0.4,0.1c3.4-0.1,3.4-0.1,5.1,0c-1.6,0.1-1.6,0.1-2.4,0.3c0.2,0,0.5,0,0.7,0C274.7,18,255.7,18.4,235.9,18.8z
	 M292.7,17.2c0.1,0,0.5,0,0.6,0c0,0,0.1,0,0.1,0c-0.4,0-1.4,0-1.5,0.1h0C292.2,17.2,292.4,17.2,292.7,17.2z M303,17.5
	c0.1,0,0.5,0,0.8,0c0,0,0.1,0,0.1,0c-0.4-0.1-1.1-0.1-2.4-0.1C301.6,17.4,301.7,17.5,303,17.5z M228.7,15.7c0.1,0,0.2,0,0.3,0
	c0.1,0,0.6,0,0.7-0.1c0,0,0.1,0,0.1,0c0,0-0.1,0-0.1,0C229.3,15.5,228.5,15.6,228.7,15.7z M189,13c0.1,0,0.1,0,0.2,0c0,0,0,0,0,0
	c0,0,0.1,0,0.1,0h0h0C189.3,13,189.1,12.9,189,13z M187.3,15.2c0.1,0,0.2,0,0.4,0c0.1,0,0.1,0,0.2,0c0,0,0.1,0,0,0
	C187.9,15.1,187.7,15.1,187.3,15.2z M182.1,14.7c0.2,0,0.3,0,0.5,0c0.3,0,0.6,0,0.8-0.1c0.1,0,0.1,0,0.1-0.1
	C182.8,14.5,182,14.6,182.1,14.7z M179.4,15.2c0.6,0,0.7,0,0.3,0.1c0.5,0,0.8,0,1.1,0c0.3,0,0.6,0,1.2,0c0,0,0.1,0,0.1,0
	c0.1,0,0.2-0.1,0.3-0.1c-0.3,0-0.6,0-0.8,0c-0.1,0-0.1,0-0.1-0.1h0c-0.2,0-0.4,0-0.6,0c-0.3,0-0.6,0-0.9,0
	C179.7,15.2,179.6,15.2,179.4,15.2z M178.2,15.2L178.2,15.2l0.6,0.1l0-0.1L178.2,15.2z M171.6,15.3c0.3,0,0.5,0.1,0.8,0.1
	c0.2,0,0.3,0,0.4,0c0,0,0,0,0,0c-0.3,0-0.5,0-0.2-0.1c0.4-0.1,0.4-0.1,0.4-0.1c-0.2,0-0.4,0-0.7,0C171.8,15.2,171.5,15.2,171.6,15.3
	z M168.1,15.2c0.3,0,0.4,0,0.5,0C168.7,15.2,168.5,15.1,168.1,15.2C167.6,15.2,167.9,15.2,168.1,15.2z M999.9,7.9
	c-0.4,0-0.6,0-0.8,0c-0.3,0.1,0.4,0.2,0.8,0.2c0.5,0,0.8-0.1,0.9-0.1c0.1,0,0.1,0,0.2-0.1C1000.8,7.9,1000.6,7.9,999.9,7.9z
	 M990.9,8c0.2,0.1,0.6,0.2,2.3,0.2c1.1,0,1.4,0,1.8,0c1.3-0.2,3.4-0.2,4.5-0.4c0.1,0,0.2,0,0.2,0c-0.8,0-0.9,0-0.9-0.2h0
	c0-0.1-0.2-0.1-0.5-0.1c-0.3,0.1-0.3,0.1-0.1,0.2C996.2,7.8,994.7,7.8,990.9,8z M990.5,8.4c0.6,0.1,0.9,0.1,1.7,0.1
	c0.7,0,1.5,0,2.2,0c0.7,0.2,2.5,0.1,3.1,0c0.1,0,0.1,0,0.2,0c-0.9-0.2-4,0-4.1,0C993.3,8.2,991.6,8.2,990.5,8.4z M993.4,8.7
	c0.4,0,0.7,0,1.2,0c0.3,0,0.6,0,0.9,0c0,0,0.1,0,0.1,0c0,0,0,0,0,0C995.7,8.5,994.1,8.6,993.4,8.7z M985.1,7.1
	c0.3,0,0.8,0.1,2.3,0.1c0.2,0,0.8,0,1.3,0c0,0,0.1,0,0.1,0c0,0,0.1-0.1-0.2-0.2C987.9,6.8,985.8,6.7,985.1,7.1z M964.6,7.4
	c1.4,0,2.7,0.1,4,0.1c3.2-0.3,3.2-0.3,4.7-0.4c1.8,0,3,0.1,3.6,0.2l1.1,0c0.5,0,0.8,0.1,1.4,0.1c0.2,0,0.5,0,0.9-0.1
	c0.3,0,0-0.1,0-0.1c-0.3-0.1-0.8-0.1-1.1-0.2c-0.9,0-1,0-2.6-0.1c-1.6,0.1-2.9-0.1-4.4-0.1c-0.6,0.1-1,0.2-1.8,0.2c-2.2,0-2.2,0-3,0
	C967,7,966.7,7,966,7c-0.1,0.1-0.1,0.1-0.8,0.2C964.5,7.3,964.5,7.3,964.6,7.4z M975.4,8.3c-0.2,0-0.8,0-0.9,0.1L975.4,8.3
	C975.5,8.4,975.6,8.4,975.4,8.3z M968.7,7.9c-0.4,0-1.7,0-1.7,0.1c0.2,0,0.4,0,0.8,0c0.1,0,0.4,0,0.9,0C968.7,8,968.8,8,968.7,7.9
	C968.8,7.9,968.9,7.9,968.7,7.9z M952,8.9c0.9,0,1.1,0,1.3-0.1c0.1,0,0.2-0.1,0.2-0.1c-0.3,0-0.5,0-0.7,0c-0.2,0-0.4,0-0.6,0
	C952.2,8.8,952.1,8.9,952,8.9z M949.6,7.9c0,0.1,0.5,0.2,0.4,0.3c0.2,0,0.8,0,1.1-0.1c1-0.2-0.8-0.3-1-0.3
	C949.8,7.8,949.6,7.8,949.6,7.9z M934,7.2c0.9,0.1,1.9,0.2,3,0.2c0.4,0,1.2,0,2-0.1c0.1,0,0.2,0,0.3,0C937.8,7,937.7,7,937,7
	C936.6,7,934.6,7,934,7.2z M930.1,7.9c0,0.1,0.1,0.1,1,0.1c0.4,0,0.9,0,1.3,0c0.4,0,0.7,0,0.9,0c0.2,0,0.4,0,0.7,0.1
	c0.3,0,0.3,0,0.6,0.1c0.2,0,0.5,0,0.7,0c0.1,0,0.4-0.1,0.7-0.1c0.2,0,0.2,0,0.3-0.1c-0.4-0.1-0.8-0.1-1.9-0.1c-0.6,0-1.5,0-1.9,0
	C931.4,7.8,930.9,7.8,930.1,7.9L930.1,7.9z M924.8,7.2c0.2,0,0.7,0.1,1.4,0.1c0.2,0,0.5,0,0.8-0.1c0.1,0,0.2-0.1,0.3-0.1
	C926.9,7.1,925,7.1,924.8,7.2z M911.5,16.6c1.3,0,2.5,0,3.8,0C914,16.6,912.8,16.6,911.5,16.6z M794.3,17.4
	c49.3-0.3,85.8-0.5,116.2-0.7C879.8,16.9,843,17.1,794.3,17.4z M783.4,17.4c2.6,0,5.1,0,7.6,0C788.5,17.4,786,17.4,783.4,17.4z
	 M704.9,18.2L704.9,18.2L704.9,18.2L704.9,18.2z M1017.9,10.9l0.4,0l0.1-0.1l-0.4,0L1017.9,10.9z M1018.8,7.3c0.1,0,0.1,0,0.4,0
	c0.1,0,0.2,0,0.3,0c0,0,0,0,0,0c0,0,0.1,0,0.1,0C1018.9,7.3,1018.9,7.2,1018.8,7.3z M309.1,15.9c0.2,0,0.4,0,0.6,0
	c0.2-0.1,0.2-0.1,0-0.2c-0.2,0-0.3,0-0.5,0c-0.7,0-1,0-1,0.1C308.7,15.8,308.6,15.9,309.1,15.9L309.1,15.9z M300.6,16.3
	C300.6,16.3,300.6,16.3,300.6,16.3l0-0.1c-0.3,0-0.6,0-0.9,0C299.7,16.3,300.3,16.3,300.6,16.3z M438.5,3.3c0.7,0,1,0,1.2-0.1
	c0,0,0,0,0,0c0,0,0.1,0,0.1,0c-0.1,0-0.3,0-0.5,0C439.1,3.2,438.5,3.2,438.5,3.3z M306.3,16.1c-0.2,0.1-0.2,0.1-0.6,0.1
	c-0.1-0.1-0.6-0.1-0.9-0.1c-0.4,0-0.7,0.1-1.2,0.1c-0.3,0-0.7,0-1,0c0.2,0.1,0.7,0.1,1.8,0.1c1.2,0,1.9,0,2.1,0.1
	c0.3-0.1,0.3-0.1,0.3-0.3C306.6,16.1,306.4,16.1,306.3,16.1z M625.5,9.1c-0.2,0.1-0.3,0.1-0.8,0.2c0.3,0,1.1,0.1,1.5,0
	c0.3-0.1,0.4-0.2,0.5-0.2C626.1,9.1,625.8,9.1,625.5,9.1z M657.1,15.6c-0.4,0.1-0.5,0.2,0.4,0.2c0,0,0,0,0,0
	C657.7,15.6,657.7,15.6,657.1,15.6C657.1,15.6,657.1,15.6,657.1,15.6z M298.5,16.2c-0.4,0.1-0.5,0.1-0.6,0.1c0,0,0-0.1,0-0.1
	c-0.9,0-1.7,0.1-2.7,0.1c-1,0-2-0.1-3-0.1c-0.3,0.1-0.4,0.1-0.4,0.1c0,0.1,0.3,0.1,0.4,0.2c0.7,0,1,0,1.3-0.1
	c0.4-0.1,0.4-0.1,0.8-0.1c-0.1,0-0.2,0-0.2,0.1c0,0,0.1,0,0.2,0c1.4-0.2,4-0.2,4.8-0.2c0,0,0,0,0,0
	C299.2,16.1,299.2,16.1,298.5,16.2z M666.3,18.2c0.1-0.1,0-0.1-0.4-0.1c-0.1,0-0.3,0.1-0.5,0.1C665.7,18.2,666,18.2,666.3,18.2z
	 M437.6,9.2l-0.6,0l0,0.1L437.6,9.2L437.6,9.2z M369.1,12.5c0.3,0,0.6,0,0.9,0c0,0,0,0,0,0h0c-0.1,0-0.4,0-0.6,0
	C369.4,12.5,369.3,12.5,369.1,12.5z M508.1,12.6L508.1,12.6L508.1,12.6L508.1,12.6z M314.4,16.2c0.1,0,0.2-0.1-0.4-0.1
	c-0.4,0.1-0.5,0.1,0.3,0.1C314.3,16.2,314.3,16.2,314.4,16.2z M66.1,10.4C66.1,10.4,66.1,10.4,66.1,10.4c0,0-0.1,0-0.1,0
	c-0.4,0-0.7,0-0.6,0.1C65.7,10.5,66,10.5,66.1,10.4z M26.6,11.6c0.1,0,0.1-0.1-0.4-0.1c-0.2,0.1-0.3,0.1-0.2,0.1c0,0,0,0.1-0.1,0.1
	C26.2,11.7,26.5,11.7,26.6,11.6z M63.7,10.4c0,0-0.1,0-0.1,0c0.1,0.1,0.5,0.1,0.9,0.1c0,0,0,0,0,0C64.5,10.4,64.3,10.4,63.7,10.4z
	 M63.6,9.9c0.1,0,0.1,0.1,0.2,0.2c0.2,0,0.4,0,0.5-0.1c0.2-0.1-0.5-0.2-1.5-0.2c-0.5,0-0.7,0.1-0.9,0.1c-0.8-0.1-0.9-0.1-1,0.1
	c0.6,0,1.3,0,2,0C63.3,10,63.4,10,63.6,9.9z M290.2,16.5l0.6,0v-0.1L290.2,16.5L290.2,16.5z M72.2,9.9L72.2,9.9l-0.9-0.1l0.1,0.1
	L72.2,9.9z M88,9.8c0.3,0.1,1.1,0,1.3-0.1c0,0,0,0,0,0c-0.5,0-0.9,0-1.4,0C87.9,9.7,87.9,9.7,88,9.8L88,9.8z M91.9,9.6
	c-0.3,0-0.8,0-1.2,0c0,0.1-0.1,0.1-0.6,0.3c0.6,0,1.4,0,1.7-0.1C92,9.7,92,9.7,91.9,9.6z M277.6,14.3c-0.2,0-0.3,0-0.3,0
	c0.2,0,0.4,0,0.6,0.1c0.1,0,0.2,0,0.2,0h0C278.3,14.4,278,14.3,277.6,14.3z M278.9,14.7l-0.3,0.1c0.3,0,0.6,0,0.9,0
	C279.5,14.8,279.4,14.7,278.9,14.7z M102.9,10.2l-0.5,0c-0.1,0-0.2,0.1-0.2,0.1C102.9,10.3,102.9,10.3,102.9,10.2
	C103,10.2,103,10.2,102.9,10.2z M275.3,14.6C275.3,14.6,275.3,14.6,275.3,14.6c0,0.1,0,0.1,1.1,0.2c0,0,0,0,0.1,0
	C276.3,14.7,276.2,14.6,275.3,14.6z M1.4,12c0.3,0,0.5,0,0.5,0c0,0,0,0,0,0c-0.4,0-0.4-0.1-0.8-0.1c0,0-0.1,0-0.1,0
	C0.9,12,1.3,12,1.4,12C1.4,12,1.4,12,1.4,12z M277.3,15.2c0.1,0,0.1,0.1-0.1,0.1c0.1,0,0.6,0,0.8,0c0.2-0.1,0.1-0.2-0.5-0.2
	C277.1,15.1,277.1,15.1,277.3,15.2z M225.3,8.4c0,0-0.2-0.1-0.4-0.1c-0.1,0-0.1,0-0.2,0l0.3,0.1C225.3,8.4,225.3,8.4,225.3,8.4z
	 M276.6,11l0.6,0l0-0.1L276.6,11L276.6,11z M191.8,11.9c-0.7,0-1.1,0-1.2,0.2c1.1,0.1,2.2,0,2.5-0.1c0.3-0.1-0.1-0.1-0.3-0.2
	C192.7,11.9,192.4,11.9,191.8,11.9z M275.1,9.3C275.2,9.3,275.2,9.3,275.1,9.3c-0.1,0-0.3,0-0.4-0.1c-0.3,0-0.4,0-0.5,0
	c-0.1,0-0.2,0-0.2,0c0.1,0,0.2,0,0.5,0C274.8,9.3,275,9.4,275.1,9.3z M286.2,11.6C286.1,11.5,286.1,11.5,286.2,11.6
	c0.1-0.1,0.4-0.1,0.5-0.1c0.1,0,0,0,0,0c0,0-0.1,0-0.1,0c0,0-0.1,0-0.1,0c-0.3,0.1-0.5,0.1-1.1,0c-0.5,0-0.7,0-0.9,0
	c-0.2,0-0.3,0-0.5,0c0,0,0,0-0.3,0.1c-0.3,0-0.4,0-0.3,0.1C284.7,11.6,285,11.6,286.2,11.6z M281.7,12.1L281.7,12.1l-0.6-0.1l0,0.1
	L281.7,12.1z M281,12.8c0.1-0.1,0.4-0.1,0.3-0.2c-0.6,0-1.2,0.1-1.9,0.1c0,0,0,0,0.2,0.1c0.2,0,0.7,0.1,0.8,0c-0.1,0-0.3,0-0.3,0
	C280.1,12.8,280.7,12.8,281,12.8C280.9,12.8,281,12.8,281,12.8z M279.2,13c0.3,0,0.9,0,1.1-0.1c0.1,0,0.1,0,0.1,0h0
	c-0.2,0-0.5,0-0.7,0C279.2,13,279,13,279.2,13z M273.2,10.4c-0.1,0-0.3,0.1-0.4,0.1c0.5,0.1,0.6,0,0.8,0c0.1,0,0.3-0.1,0.7-0.1
	c0.3,0,0.5,0.1,1,0.1c0.4,0,0.5,0,0.6,0.1c0.4,0,0.7,0,1.1-0.1c0,0,0.1,0,0.1,0c0.1-0.1,0.1-0.1-0.2-0.1c-0.2,0-0.2-0.1-0.2-0.1
	c-0.3,0-0.4,0-0.8,0c0,0-1.2,0-1.7,0.1c-0.1,0-0.2-0.1-0.3-0.1c0.1,0,0.3,0,0.4,0c0.3,0,0.2-0.2-0.2-0.2v0c-0.2,0-0.4,0-0.6,0
	c0.1,0.1,0,0.1-0.5,0.2c-0.6,0-0.7,0.1-0.6,0.1C272.7,10.4,273,10.4,273.2,10.4z M267.8,12L267.8,12C267.8,12,267.8,12,267.8,12
	L267.8,12C267.9,12,267.9,12,267.8,12z M257.9,10.6c0.1,0,0.5-0.1,0.6-0.1c0.1,0,0-0.1,0-0.1l-0.9,0
	C257.7,10.5,257.8,10.6,257.9,10.6L257.9,10.6z M256.2,11.3c0.1,0.1,0.7,0.1,1,0.1c0.1,0,0.1-0.1,0.1-0.1c-0.6,0-0.7,0-0.9-0.1
	C256.2,11.2,256.1,11.2,256.2,11.3z M273.3,11c0.2,0,0.6,0,0.8-0.1c0,0,0,0,0,0C273.4,10.9,273.1,11,273.3,11z M271.9,10.7
	C271.9,10.7,272,10.7,271.9,10.7c-0.2,0-0.3,0-0.5,0c-0.3,0-0.2,0-0.2,0C271.3,10.8,271.6,10.8,271.9,10.7z M256.4,10.5
	c-0.1-0.1-0.1-0.1-0.5-0.1c-0.1,0-0.1,0-0.2,0l0,0.1C256,10.5,256.2,10.5,256.4,10.5z M272.3,9.1C272.3,9.1,272.4,9.1,272.3,9.1
	c0-0.1-0.2-0.1-0.6-0.1c-0.1,0-0.1,0-0.2,0C271.4,9.1,271.5,9.2,272.3,9.1z M318.6,11.2c0.3-0.1,0.9,0,1.2-0.1c0.1,0-0.1,0-0.3-0.1
	L318.6,11.2l-0.3-0.1l0,0.1C318.4,11.2,318.5,11.2,318.6,11.2z M332.9,7.7c0,0,0.1,0,0.1,0C332.9,7.7,332.9,7.7,332.9,7.7
	c0.1-0.2,0.1-0.2-0.3-0.2c-0.1,0-0.2,0-0.3,0c0.1,0,0.1,0,0,0.1c-0.2,0-0.5,0-0.6,0C331.6,7.6,331.5,7.7,332.9,7.7z M313.6,9.3
	c0.1,0,0.2-0.1-0.5-0.1c0,0-0.1,0.1,0,0.1C313.2,9.3,313.4,9.3,313.6,9.3z M317.7,11.6l0.9,0c0.2-0.1,0.4-0.1,0.6-0.2
	c-0.3,0-0.6,0-1,0C317.5,11.4,317.7,11.6,317.7,11.6z M334.6,5.3C334.6,5.3,334.7,5.4,334.6,5.3c0.4-0.1,0.6-0.2,0.9-0.4
	C334.8,5,334.2,5.3,334.6,5.3z M333.8,5.6c0.3,0,0.5,0,0.6,0c0.2,0,0.1-0.1-0.2-0.1c0,0,0,0,0,0L333.8,5.6
	C333.8,5.5,333.8,5.5,333.8,5.6L333.8,5.6z M334.3,6.1L334.3,6.1c0,0,0.2,0,0.2-0.1c0,0,0,0,0,0c0-0.1-0.1-0.1-0.2-0.2
	c-0.1-0.1-0.1-0.1,0-0.1c0.2-0.1,0.2-0.1,0.1-0.1c-0.1,0-0.1,0-0.2,0c-0.1,0-0.3,0-0.4,0c-0.5,0.3-0.7,0.5-0.5,0.6
	C333.6,6.2,334,6.2,334.3,6.1z M289.5,11.1l-0.6,0c-0.1,0-0.2,0.1-0.3,0.1C289.4,11.2,289.4,11.2,289.5,11.1
	C289.5,11.1,289.5,11.1,289.5,11.1z M306.3,9.5c0.2-0.1,0-0.1-0.3-0.1c-0.1,0.1-0.4,0.1-0.3,0.2C306,9.6,306.2,9.5,306.3,9.5z
	 M306.3,8.5c0,0,0.1,0,0.1,0c0.1-0.1,0.2-0.4-0.1-0.5c-0.1,0.1-0.4,0.2-0.4,0.4C305.8,8.4,305.9,8.5,306.3,8.5z M299,8.5l-0.6,0
	l-0.3,0.1l0.6,0L299,8.5z M313.3,11C313.3,11,313.3,11,313.3,11c-0.4,0-1,0-1.4,0c0.2,0.1-0.4,0.2,0.4,0.2c-0.1-0.1,0-0.1,0.4-0.1
	C312.8,11.1,313.1,11.1,313.3,11z M311.9,10.9c0.3-0.1,0.4-0.2-0.3-0.2c0,0-0.1,0-0.1,0c0.1,0.1,0,0.1-0.1,0.1
	c-0.1,0-0.2,0.1-0.1,0.1C311.5,11,311.7,11,311.9,10.9L311.9,10.9z M314.1,10.7C314.2,10.6,314.2,10.6,314.1,10.7
	c-0.2,0-0.5-0.1-0.8-0.1c-0.1,0-0.2,0-0.3,0c0,0,0,0.1,0,0.1C313.6,10.7,314,10.7,314.1,10.7z M276,10c0,0,0,0.1,0.6,0v0
	c0,0,0,0,0.1,0c0.1,0,0-0.2-0.6-0.1c-0.2,0-0.2,0-0.3,0C276,10,276,10,276,10z M194.2,9.4c0.1,0,0.1,0,0.2,0c-0.6-0.1-1.2-0.1-2.1,0
	c-0.7,0-1.3,0-2.1,0.1c0.8,0,1.6,0,2.4,0C193,9.5,193.5,9.5,194.2,9.4z M198.4,9.1C198.6,9.1,198.5,9,198.4,9.1
	C198.3,9,198.2,9,198.1,9c-0.5,0-0.8,0-0.8,0.1C198.4,9.1,198.4,9.1,198.4,9.1L198.4,9.1z M190.2,10.3c-1.3,0-2.5-0.1-3.7-0.1
	C187,10,188,10,188.3,10c0.8-0.1,0.8-0.1,1-0.3c0.6,0,0.6,0,8.1,0c0.1,0,0.1,0-0.5,0.2c0.1,0,0.2,0,0.2,0c0.5,0,0.9,0,1.2-0.1
	c-0.3,0-0.6,0-0.6-0.1c0.3,0,0.6,0,0.9,0l0.1,0.1c0.5-0.1,1-0.1,1.7-0.2c-0.5-0.1-0.5-0.1-0.4-0.2c0.2-0.1,1.2-0.2,1.8,0
	c0.6-0.1,1.4-0.2,3.5-0.2c0.1,0.1-0.1,0.2-1.4,0.2c-0.1,0-0.1-0.1-0.2-0.1c-0.7,0.1-0.7,0.1-2.1,0.2c0.2,0.1,0.6,0.1,0.6,0.2
	c-0.2,0-0.4,0-0.6,0c1,0.1,2.2-0.1,3.2,0.1c0.1,0,0.3,0,0.4,0c0,0-0.3-0.1-0.2-0.1c0.2,0,0.4,0,0.5,0c0.1,0.2,0.1,0.2-0.2,0.2
	c1.9,0,2.6,0,3.2,0c0,0-0.1-0.1-0.2-0.1c-0.3,0-0.6,0-0.9,0c0.1-0.2,2-0.2,3-0.3c0,0,0-0.1,0-0.1c-2.2,0-2.2,0-2.6-0.1
	c1.7-0.1,1.7-0.1,2.4,0c2.1-0.2,3.3-0.2,3.8-0.1c-0.6-0.1-2.1-0.1-2.3-0.3c0.9,0,1.8,0,2.7,0c0.3-0.2,0.3-0.2,0.5-0.2
	c-0.3,0-0.3,0-5.2,0c-0.2,0.1-0.2,0.1-1.7,0.2c0.7,0.1,1.8,0,2.7,0c0.1,0.1,0.1,0.1-0.2,0.2c-0.9-0.1-1.7-0.1-4.6,0
	c-1,0-3.1,0.1-3.5-0.1c1.6,0,2.4-0.2,4.1-0.2c0.1,0,0.1,0,0.2,0c-0.3-0.1-1.2-0.1-1.2-0.1c-2.4,0.2-5-0.1-5.2-0.1
	c0.2,0,0.8-0.1,1.2,0c0.9-0.2,3,0,4-0.2c0,0,0.1,0,0.1,0c0.3,0,2,0.2,3.3,0c2.4,0.2,5.3-0.1,7.7,0.1c-0.3,0.1-1.2,0.2-1.3,0.3
	c0.8,0.1,5.3,0.1,5.9,0c0.1,0,0.3,0.1,0.5,0.2c0.3,0,0.3,0,1.1-0.1c2.9,0.1,5.5-0.3,8.5-0.1c0.6-0.1,0.1-0.2,0.4-0.4
	c0,0-1,0.2-1.5,0.2c-0.5-0.1-0.5-0.1-1.1,0c-0.1-0.1-0.1-0.1,0.4-0.2c-0.2,0-0.5,0-0.8,0c0.9-0.1,1.5,0.1,2.4,0c0,0-0.1-0.1-0.2-0.1
	c-0.1,0-0.1,0-0.4,0c0,0-0.1,0-0.2,0c0.1,0,0.1,0,0.2-0.1c0.5,0,0.5,0,1.5,0.1c1.2-0.1,2.6,0,3.5-0.2c1.5,0.1,2.1,0.1,3.1,0.2
	c2.2-0.1,2.2-0.1,2.8-0.1c0.1,0.1-0.4,0.3-0.9,0.3c-0.6,0-0.6,0-0.9,0c-0.1,0-0.2,0-0.2,0c1.7,0.3,3.7,0.1,4.3,0.1
	c0.9,0.1,0.9,0.1,0.8,0.5c-0.7,0-1.4,0-2.1,0C241.9,9,241.7,9,240,9c0.3,0,0.7,0,1,0.1c0,0,0.1,0,0.1,0c-0.2,0-0.2,0-1.6,0.1
	c-1,0-1.4-0.1-1.9-0.2c0.1,0.1,0.1,0.1-1.7,0.3c0.7,0.1,1.7,0,2.4,0.1c1-0.1,1.4-0.1,2.6,0c2.1-0.1,4.2-0.1,6.4-0.1
	c-0.1,0-0.1,0.1-0.2,0.1c-1,0.3-3.5,0.1-4.8,0.2c-0.2,0-0.2,0-6.1,0c0.1,0,0.1,0,0.2,0c0.1,0,0.2,0,0.3,0c0.1,0,0.1,0,0.2,0
	c0.7,0.1,0.4,0.1-0.2,0.2c1.5,0,3.2-0.1,4.6,0.1c0,0,0,0,0.1,0.1c-1.3,0-2.3,0.1-3.6,0.2c0,0,0,0,1.9,0.2l-13.5,0.3l0,0l-1.2,0l0,0
	c-0.7,0-1.7,0-2.5,0c-0.1,0-0.2,0-0.3-0.1c-0.3,0-0.3,0-1.1,0.1c-0.2,0-0.3,0-0.4-0.1c-0.2,0-0.5,0-0.7,0c0,0-0.1,0-0.1,0
	c-0.9,0-1.3,0.1-2,0.2c0,0,0,0,0,0c0,0,0,0-0.1,0c-0.2,0-0.3,0.1-0.5,0.1h0c-0.5,0-0.9,0-1.4-0.1c0.5,0,1.3,0,1.8,0
	c-0.8,0-1.7,0-2.4,0.1c0,0,0,0,0,0c-0.2,0-0.5,0-0.7,0.1l0.1,0c0,0-0.1-0.1-0.1-0.1c-2.1,0-2.2-0.1-2.3-0.2
	c-1.6,0.2-3.5,0.1-4.5,0.1c-0.8,0-0.9,0.2-1.7,0.2c0.1,0,0.2-0.1,0.1-0.1c-0.5,0-0.7,0-1.6,0c-0.4-0.4,4.4-0.1,6.5-0.2
	c2.1,0.1,6.8,0,6.5-0.1c-0.6,0-1.3,0-1.8-0.1c-0.8,0.1-2.1,0.2-3.3,0c0,0,0,0,0,0c0,0,0,0,0,0c-1.2,0-2,0.1-3.2,0.1l-0.3-0.1l-1.2,0
	c-0.3,0-0.7,0-1-0.1c-0.2,0-0.4,0-0.5,0c-1,0.1-3.8,0-4.7,0c-0.2,0-0.2,0-3.6,0.2c0.2,0,0.4,0,0.6,0.1c-1.2,0.1-1.4,0.1-2.3,0.1
	c0.1,0,0.1-0.1,0.1-0.1c-0.1,0-0.3,0-0.4,0c0.1-0.1,0.3-0.1,0.7-0.1c0.1,0,0.2,0,0.1,0.1c0.4-0.1,0.6-0.1,1.7-0.2
	c-0.4,0-1-0.1-1.4-0.1c-0.7,0-0.9,0-1.2,0.1c-1.4-0.1-2.8-0.2-4.5-0.1c0.3-0.1,0.3-0.1,2.2-0.3c-0.1,0-0.2,0-0.2,0
	c-0.6,0-1,0-1.5,0.1l-0.3-0.1C190.8,10.2,190.5,10.3,190.2,10.3z M242.2,8.7c0.1,0,0.3,0.1,0.4,0.1h0l0.6-0.1
	C242.9,8.7,242.6,8.7,242.2,8.7z M238.3,9c0.1,0,0.2,0,0.3,0c0,0,0,0,0.1,0C238.5,9,238.4,8.9,238.3,9c-0.3-0.1-0.6-0.1-0.6-0.1
	C237.6,8.9,237.6,9,238.3,9z M235.3,8.9c0.1,0,0.2,0.1,0.3,0.1c0.4,0,0.8,0,1-0.1c0.1,0,0.1,0,0.1-0.1
	C235.9,8.9,235.5,8.9,235.3,8.9z M234.9,10l1.2,0.1c0-0.1,0-0.2-0.7-0.2C235.3,10,235.1,10,234.9,10z M232.7,10.4
	c1,0,1.9,0.1,2.9,0.1v0c0,0,0.1,0,0.1,0c0,0,0,0,0,0c0,0,0.1-0.1,0-0.1C235.4,10.3,233.2,10.3,232.7,10.4z M230,10.5L230,10.5
	l-0.6-0.1l0,0.1L230,10.5z M231.1,8.9c0.2,0,0.2,0,0.2,0.1c-0.1,0.1,0,0.1,0.5,0.1c0,0,0.1,0,0.1,0c0.2-0.1,0.2-0.1,0.1-0.2
	C231.7,8.9,231.3,8.9,231.1,8.9z M229,9c0,0,0,0.1,0.1,0.1l0.6,0l0.3-0.1C229.6,9,229.3,9,229,9z M228.9,10.1c0.6,0,0.9,0,1.1-0.1
	c0.1,0,0.1-0.1,0-0.1C228.8,10,228.9,10.1,228.9,10.1z M226.9,10.5c0.1,0,0.2,0,0.4,0c0,0,0,0,0,0c-0.5,0-0.7,0-0.7,0
	C226.4,10.4,226.6,10.5,226.9,10.5z M206.2,8.9C206.2,8.9,206.2,8.9,206.2,8.9c-0.3-0.1-0.6-0.1-0.7-0.1c-0.2,0-0.3,0.1,0.4,0.1
	C206,8.9,206.1,8.9,206.2,8.9C206.2,8.9,206.2,8.9,206.2,8.9z M223,10.5c-0.5,0-0.7,0-0.9-0.1c-0.9,0.1-1.2,0.1-1.9,0
	c-0.4,0-0.8,0-1.7,0c0,0,0,0-0.1,0.1c-0.1,0-0.3,0-0.5,0.1c1.1,0,2,0,2.9,0h0c0.3,0,1.3,0,2.1-0.1C222.9,10.5,223,10.5,223,10.5z
	 M219.6,10.2C219.7,10.1,219.8,10.1,219.6,10.2C219.7,10.1,219.6,10.1,219.6,10.2c-0.2,0-0.5,0.1-0.5,0.1
	C219.3,10.2,219.5,10.2,219.6,10.2z M223.7,9.5c0.3,0,0.6,0,1.4,0c0.1,0,0.2,0,0.4,0c0,0,0,0,0.1,0c0,0,0.1-0.1-0.2-0.1h0
	C225,9.3,223.8,9.3,223.7,9.5z M220.5,10.2L220.5,10.2c0.7,0.1,1.2,0.1,2.1,0.1c0.2,0,0.5,0,1.1,0c0,0,0.1,0,0.2,0
	c0,0-0.1-0.1-0.1-0.2C223,10,220.8,10,220.5,10.2z M218.7,9.2c0.4,0,0.7,0,1.5,0c1.4,0,1.7,0,1.9-0.1c0.1,0,0.1,0,0.1-0.1
	c-0.6,0-1.3,0-1.9,0c-0.3,0-0.6,0-0.7,0C219,9,218.8,9.1,218.7,9.2z M214.1,9.5c0.5,0,1.9,0.1,3.5,0.1c0.2,0,0.6,0,0.9,0
	c0,0,0.1,0,0.1,0c0,0-0.1-0.1-0.1-0.2c-0.3,0-0.7,0-1.3,0c-0.8,0-1.5,0-1.7,0c-0.3,0-0.3,0-0.5,0c-0.2,0-0.4,0-0.6,0
	c0,0-0.1,0-0.1,0c-0.2,0-0.4,0-0.4,0C213.9,9.4,214.1,9.5,214.1,9.5z M216.6,9.8L216.6,9.8c-0.2,0-0.4,0.1-0.5,0.1
	c0.1,0,0.2,0,0.4,0c0.3,0,0.4,0,0.4,0C217,9.8,217.1,9.8,216.6,9.8z M210.8,10.1c0,0.1,0,0.1,0.1,0.2c0.4,0,0.8,0,1.5,0
	c0.9,0,1.7-0.1,2.6-0.1c0.6,0,0.9,0,1,0c0.1,0,0.2-0.1,0.3-0.1l0.1,0.1c0.5,0,1.3,0,1.9-0.2c0,0,0.1,0,0.1,0c-1.3,0-2.6,0-3.9,0
	c-1,0-1.6,0.1-2,0.1c0-0.1-0.1-0.1-0.3-0.1C211.6,10.1,211.2,10.1,210.8,10.1z M207.6,10.2c1.1,0,1.3,0,1.6,0.1
	c0.1-0.1,0.8-0.1,1.1-0.1c0.1,0,0-0.1,0-0.1h0c-0.3,0-0.7,0-1,0c-0.5,0-0.9,0-1.4,0C207.7,10.1,207.6,10.2,207.6,10.2z M206.4,10.3
	c0.6,0,0.7,0,0.8-0.1c0,0,0,0,0,0c-0.4,0-0.8,0-1.5,0C205.6,10.3,206,10.3,206.4,10.3z M202.6,10.3c0.1,0,0.2,0,0.4,0
	c0,0,0.1,0,0.1,0c-0.1,0-0.2,0-0.2,0c0,0,0,0-0.1,0c-0.4,0-0.5-0.1-1-0.1C201.6,10.3,202.2,10.3,202.6,10.3z M199.1,10.2L199.1,10.2
	l0.6,0.1l0-0.1L199.1,10.2z M197.6,10.3c0.1,0,0.2,0,0.3,0c0,0,0,0,0,0c0,0,0-0.1,0-0.1h0c-0.3,0-0.5,0-0.6,0
	C197.1,10.2,197,10.3,197.6,10.3z M195,9.8c0.5,0,0.5,0.1,1,0.1c0.2,0,0.2,0,0.4,0c0.1,0,0,0,0-0.1c-0.1,0-0.1,0,0.1-0.1
	C195.5,9.7,195,9.8,195,9.8L195,9.8z M196.3,9C196.3,9,196.3,9,196.3,9C196.2,9,196,9,195.6,9c-0.7,0-1.4,0.1-0.7,0.2
	C195.4,9.2,195.4,9.2,196.3,9z M197.9,9.4c-0.5,0-1,0-1,0.1c0.3,0,0.4,0,0.7,0c0.3,0,0.6,0,1,0c0,0,0.1,0,0.1,0
	C198.8,9.4,198.5,9.4,197.9,9.4z M197.1,8.8c0-0.1-0.1-0.1-0.5-0.1c0,0-0.1,0-0.1,0l0,0.1C196.7,8.8,196.9,8.8,197.1,8.8z
	 M207.3,9.3c-0.2,0-0.4,0-0.7,0c-0.8,0-1,0-1.1,0.1C207.2,9.4,207.2,9.4,207.3,9.3C207.3,9.3,207.3,9.3,207.3,9.3z M193.3,8.8
	c0.1,0,0.1,0,0.2,0c-0.1,0-0.1,0,0.1-0.1c0.2,0,0.2-0.1,0.1-0.1c-0.7,0-0.8,0-1.5,0c-0.4,0.1-1.5,0.1-1.3,0.2
	C191.6,8.9,192.4,8.8,193.3,8.8z M200,10.8c0.4,0,0.9,0,1.3,0c0.2,0,0.4,0,0.5,0c0.1,0,0-0.1,0-0.1C201.3,10.7,199.9,10.7,200,10.8z
	 M194.3,10.7c-0.1,0.1-0.3,0.1-0.2,0.2c0.6,0,1,0,1.1-0.1c0.1,0,0.1-0.1,0-0.1c-0.3,0-0.5,0-0.8,0C194.4,10.7,194.4,10.7,194.3,10.7
	z M193.8,10.9c0-0.1-0.1-0.1-0.4-0.2c-0.7,0-1.4,0-2.1,0c-0.5,0-0.7,0-0.9,0.1c0,0,0,0,0,0c-0.1,0-0.1,0.1-0.1,0.1
	c0.5,0,0.8,0,1.2,0c0-0.1,0.3-0.1,0.8,0c0.6,0,0.9,0,1.2-0.1C193.6,10.8,193.7,10.8,193.8,10.9z M242.6,10c0,0-0.1,0-0.1,0
	c-0.2,0-0.2,0.1-0.5,0.1c-0.1,0-0.4,0-0.7,0c0,0,0.1,0.1,0.3,0.1c0.2,0,0.3,0,0.3,0c0.2,0,0.7-0.1,1.4-0.1c0,0,0,0,0.1,0
	C243.5,10.1,243.2,10.1,242.6,10C242.7,10,242.7,10,242.6,10z M245.4,10c-0.7,0-1,0.1-1,0.2h0c2.1,0,2.1,0,2.3-0.1
	c0.2,0,0.1-0.1,0.1-0.1C246,10,245.8,10,245.4,10z M210.7,11c0.1,0,0.1,0,0.2-0.1h0c0.3-0.1,0-0.1-0.2-0.1
	C210.3,10.9,210.1,11,210.7,11z M246.6,9C246.7,9,246.7,9,246.6,9c-0.4,0-0.8,0-1.2,0c0,0-0.1,0-0.1,0h0
	C245.5,9.1,246.4,9.1,246.6,9z M207.6,8.2c0.1,0,0.2-0.1-0.3-0.1c-0.2,0-0.4,0-0.6,0.1C207.3,8.3,207.6,8.2,207.6,8.2z M243.8,6.6
	c0.1,0,0.3-0.1-0.5-0.1c0,0-0.1,0-0.2,0.1c-0.3,0.1-0.4,0.1-0.3,0.2C243.4,6.7,243.7,6.6,243.8,6.6z M235.5,7.5c0.4,0,0.5,0,0.4,0.1
	c-0.1,0-0.3,0-0.7,0c-0.2,0-0.2,0-0.3,0c0,0,0,0,0,0c0,0,0,0,0,0c0.4,0,1,0,1.3,0.1c-0.3,0.1-1.1,0-1.2,0.1c1,0,1.7,0.1,2.7,0.1
	c0.6,0,1.1,0,1.7,0l1.2,0.1c0.9-0.1,0.9-0.1,1.7,0h0c0.8,0,1.8,0.1,2.1,0c0,0,0.1,0,0.1,0c-1.3,0-1.3,0-1.1-0.3
	c-0.6,0-0.6,0-0.6,0.1c0,0,0,0.1-0.3,0.1c-0.6-0.1-0.9-0.2-1.4-0.3c-0.7,0-1.3,0-2.3,0.1c-0.5,0-1.1,0.1-1.7,0.1c-0.6,0-1.2,0-1.8,0
	c-0.2,0-0.6,0-0.7,0.1C234.9,7.5,235.2,7.5,235.5,7.5z M241.9,6.8L241.9,6.8l-0.7-0.1l0,0.1L241.9,6.8z M253.3,10.6
	C253.4,10.6,253.4,10.6,253.3,10.6l0-0.1c-0.3,0-0.6,0-0.9,0h0C252.4,10.6,252.8,10.6,253.3,10.6z M248.6,10.1
	c0.1,0,0.2-0.1-0.3-0.1c0,0-0.1,0-0.3,0.1c-0.2,0-0.4,0-0.3,0.1C248.1,10.2,248.4,10.1,248.6,10.1z M248.8,10.6c0.1,0,0.2,0,1.6,0
	c0.6,0,1.3,0,1.6,0c0,0,0,0,0.1,0c0,0,0.4-0.2-1.8-0.2C249.6,10.4,247.9,10.5,248.8,10.6z M255.4,11.3L255.4,11.3
	c0,0-0.1-0.1,0.7-0.1c0,0,0.1,0,0.1,0l0.1,0l0,0l0,0c-0.2-0.1-0.4-0.1-1.2-0.1c0.1,0.1,0,0.1-0.4,0.1c-0.4,0-0.6,0-0.5,0.1
	C254.6,11.3,255,11.3,255.4,11.3z M337.5,8.7c-0.1,0-0.1-0.1-0.1-0.2c-0.1,0-0.1,0-0.2,0c-0.8,0-1.3,0.1-1.6,0.2L337.5,8.7
	L337.5,8.7z M219,8.5c0.3,0,0.7,0.1,1,0.1c0.3-0.1,0.5-0.1,1,0c0.5,0.1,0.7,0.1,1.2,0.1c0.1,0,0.1,0,0.2-0.1
	c0.2-0.1-0.6-0.2-1.8-0.1c-0.4-0.1-0.7-0.1-1.5-0.1c-0.1,0-0.3,0-0.4,0C218.7,8.4,218.7,8.4,219,8.5z M210,8.3
	C210,8.3,210.1,8.3,210,8.3c0.1-0.1-0.2-0.2-0.9-0.1c-0.1,0-0.2,0-0.3,0C208.7,8.3,209.1,8.3,210,8.3z M234.3,7.6
	c0,0,0.2-0.1-0.6-0.1c0,0,0,0.1,0.1,0.1C233.9,7.6,234.2,7.6,234.3,7.6z M243.3,8.4C243.3,8.4,243.3,8.4,243.3,8.4
	c0-0.1-0.7-0.1-1.6-0.1C241.7,8.4,242.9,8.4,243.3,8.4z M244.1,8.3c-0.1,0-0.3,0-0.4,0c-0.2,0,0,0.1,0.7,0.1c0,0,0,0,0,0
	C244.5,8.3,244.5,8.3,244.1,8.3L244.1,8.3z"/>
      </clipPath>
    </defs>
</svg>
