<svg xmlns="http://www.w3.org/2000/svg" width="2848" height="1561.8" viewBox="0 0 2848 1561.8" fill="white"><path d="M2757,536.3c1.3,0.7,2.7,1.3,4,2c-7.1,18.4-22.2,34.2-31,51c-13.3,25.3-26.4,48.7-42,71c-7.2,10.3-9.5,22.5-16,33c-20.9,33.9-40.1,68.5-60,104c-15.3,25.3-30.7,50.7-46,76c0,51.3,0,102.7,0,154c-23.6,3.2-96.3,5.3-120-1c0-51,0-102,0-153c-5.3-8.3-10.7-16.7-16-25c-13.9-22.7-26.7-46.1-40-68c-33.1-54.5-64-109.4-93-166c-10.9-21.3-39-51.7-44-75c0.3-0.7,0.7-1.3,1-2c42.7,0.3,85.3,0.7,128,1c12.4,9.4,22.9,37.9,28,51c10,25.4,32,50.3,44,75c12.2,25.2,33.3,75.9,51,94c2.3-1.7,4.7-3.3,7-5c39-71.7,78-143.3,117-215C2671.7,537.7,2714.3,537,2757,536.3z"/><path d="M1874,537.3c115,0.3,230,0.7,345,1c2,18.1,4.2,100.2-2,112c-53,0-106,0-159,0c-18.8,0-51.9-4.5-65,3c-0.3,20.4-5,57.3,3,72c67,0.3,134,0.7,201,1c0.7,1.3,1.3,2.7,2,4c-0.7,36.3-1.3,72.7-2,109c-67.3,0.7-134.7,1.3-202,2c-0.7,0.3-1.3,0.7-2,1c-0.3,20-5.2,57.9,3,72c52,0,104,0,156,0c19.3,0,51.8-4.8,67,2c0.3,36.7,0.7,73.3,1,110c-84.7,0.7-169.3,1.3-254,2c-22.3,0-81.9,5.9-94-3C1872.7,862.7,1873.3,700,1874,537.3z"/><path d="M1382,537.3c41,0.3,82,0.7,123,1c16,10.8,42.3,65.9,55,85c46.3,72.3,92.7,144.7,139,217c2,0,4,0,6,0c0-71,0-142,0-213c0-22.3-5.4-73.5,2-90c38.7,0.3,77.3,0.7,116,1c-0.3,163.3-0.7,326.7-1,490c-41,0-82,0-123,0c-11.4-4.4-46.1-70.8-55-85c-47-73.3-94-146.7-141-220c-1.7,0.3-3.3,0.7-5,1c-0.3,101.3-0.7,202.7-1,304c-39-0.3-78-0.7-117-1c0-115.7,0-231.3,0-347C1380,651.2,1373.4,556.6,1382,537.3z"/><path d="M962,537.3c91.3,0,182.7,0,274,0c24.1,0,96.9-5.2,113,2c-2.1,25.6,5.7,94.4-3,111c-26-0.2-111-5.7-128,2c0,89,0,178,0,267c0,27.6,6.1,90.6-2,109c-25.3,0.2-107.4,5.5-124-2c0-89.3,0-178.7,0-268c0-25.7,6.3-90.6-3-108c-25.4-1.4-108.3,6.9-128-2C961.3,611.3,961.7,574.3,962,537.3z"/><path d="M817,537.3c23.5-0.2,97.5-5,113,2c0,115.7,0,231.3,0,347c0,28.9,6.6,122.8-2,142c-23.3,0.2-96.7,5-112-2C816.3,863.3,816.7,700.3,817,537.3z"/><path d="M722,907.3c-12.7-25.3-25.3-50.7-38-76c5.4-8.5,17.2-12.9,25-19c16.6-13.1,30.3-33.2,39-54c9.2-21.8,12.7-58.9,7-85c-22.8-103.8-68.7-115.5-171-136c-63.7-0.3-127.3-0.7-191-1c-1,0.7-2,1.3-3,2c0.3,162.3,0.7,324.7,1,487c2.6,3.4,105.8,5.1,117,2c0-39.7,0-79.3,0-119c0-12.7-3.5-37.3,2-46c5-6.6,51.6-7.5,62-3c11.6,5.8,15,27.3,21,39c15.7,31,31.3,62,47,93c5.3,12,10.7,24,16,36c41,0.3,82,0.7,123,1c0.3-0.7,0.7-1.3,1-2C756.3,990,742.7,946.7,722,907.3z M552,742.3c-12.7,0-25.3,0-38,0c-1-0.3-2-0.7-3-1c-0.3-28.3-0.7-56.7-1-85c1-1.3,2-2.7,3-4c55.4-1,124.6-6.6,133,39C656.2,746.5,592.3,737.7,552,742.3z"/><path d="M294,773.3c-0.3-1.7-0.7-3.3-1-5c13.1-13,28.3-28,35-47c9.8-28,4.6-70.5-4-94c-38.3-105.2-179.4-91.5-323-90c-0.3,163.3-0.7,326.7-1,490c32.3,0.3,64.7,0.7,97,1c102.5,0,194.4-5.3,231-70C362.4,897.6,351.7,800.4,294,773.3z M123,652.3c33.5-0.7,90.8-5.7,97,21c12.7,54.6-62.1,43.9-96,45C118.3,709.1,118.2,663,123,652.3z M123,912.3c-6.1-12-3.8-58.1-2-74c1-1,2-2,3-3c44.5-0.9,106-4,115,31C250.8,912,162.5,918.1,123,912.3z"/><path d="M2846,874.3c-11.5,4.2-4.1,14-9,19c-21.2,21.7-42.6,45.8-58,73c1.3,0.3,2.7,0.7,4,1c-1.8,4.8-2.3,4.3-7,3c-8.8,15.3-23,33.2-31,50c-0.8,3.9,0.5,2.9,2,7c-3,3.9-6.2,6.8-12,8c1.8,2,0,0.7,3,2c-1.2,3.6-1.1,2.7-3,5c0.7,5.4-2.7,6.5-9,7c8.4,6.4-8.3,41.2-19,42c1,0.3,2,0.7,3,1c-0.9,12.8-6.4,15.1-14,21c0.7,1.3,1.3,2.7,2,4c-8.2,7.7-10.5,20.7-18,29c1.9,2.3,1.9,1.4,3,5c-5.9,0.1-3.9-0.3-8,2c1,3,2,6,3,9c-6.9,9.2-19.2,14.6-29,20c-0.3,0-0.7,0-1,0c-10.5-40.1,7.2-87.5,12-115c1.3-7.3,7.9-31,6-38c-2.3-2.3-4.7-4.7-7-7c2.7-17,5.3-34,8-51c-7.9-2.3-13.7-1.7-21-5c-9.6,11.7-19.4,38.4-22,55c1.3,0,2.7,0,4,0c0,1.3,0,2.7,0,4c-1.3-0.3-2.7-0.7-4-1c-7.8,8.3-9.4,25.8-9,38c-1.7,0-3.3,0-5,0c-2,10-13.2,43.4-10,46c-4,8.2-9.9,9.5-10,23c-0.7,0.3-1.3,0.7-2,1c-1.3,0-2.7,0-4,0c2.1-14.8,6-27.1-4-38c-6.4-5.9-19.6-5.1-23-14c8-2.2,11.3-4.8,22-4c0.3-1,0.7-2,1-3c-4.5-3.1-5.2-6.9-11-9c-0.5-3.6,0.1-1.9,2-5c-18,3.1-42.5,19.2-59,9c-8.9,11.4-95.6,35.9-117,43c-21.5,7.2-54.6,28.2-74,27c-11,7.2-24.8,16.5-38,21c-45,15.5-95.8,24.4-136,47c-1,0-2,0-3,0c0.7-6.2,2.2-5.4,1-8c1.5-5.6,0.7-3.8,5-4c9-8.8,33.9-49.7,33-60c12.5-0.5,6.8-5.4,11-14c4.3-4.3,8.7-8.7,13-13c5.5-8.8,5.3-23.4,8-30c-0.3-0.7-0.7-1.3-1-2c-1-0.7-2-1.3-3-2c-19.8-0.3-47.4,34.6-51,50c3.8,1.4,2.1,0,4,3c-0.3,0.3-0.7,0.7-1,1c-2.5,2.4-3.4,1.9-7,1c-1,3.3-0.3,0.4,2,5c-2,2.7-4,5.3-6,8c-4.7-1.5-2.6-0.9-5-4c-2.5,8.1-8.2,12-12,19c-1.1,1.7,0.5,1.2,1,7c-11.8,1.7-41.8,44.2-47,55c2.7-0.3,5.3-0.7,8-1c-1,2-2,4-3,6c-2.3,2.1-5.4,2.1-11,2c0.2,5.5-1.9,3.8-6,7c1.5,4.6-32.1,45.9-38,59c-1.3,0-2.7,0-4,0c1.9-36.9,6-74.2,17-111c-2.1-1.7-2-1.6-6-2c-2-8.1,1.5-19.9,3-25c3.5-11.8-2.5-53.7-2-66c-3.3-1-6.7-2-10-3c-7.8,6.6-11.7,18.9-17,28c-5.7,5.3-11.3,10.7-17,16c-7.9,11.3-15.3,30.8-20,43c-4,0-8,0-12,0c-1.9,4.5-2.6,5.3-6,8c3.2,8.7-0.7,29.3-2,35c0,0.7,0,1.3,0,2c-4,0.3-1.7,1.8-4-2c-8.7,10.8-22.7,11.9-27,25c-2.7,0.7-5.3,1.3-8,2c1.4-21.1,17.5-28.2,18-49c-8-0.5-6.5-2.1-15-2c0.6-9.6,1.2-12.2,0-22c-30.2-5.4-34.1,11.1-52,29c-9,9-18.3,7.8-23,22c-3.3-0.7-6.7-1.3-10-2c-3.2,9.8-19.6,24.7-27,32c2-0.3,4-0.7,6-1c0,1.3,0,2.7,0,4c-4.7,3-9.3,6-14,9c-1.5,2.4-0.6,1.1,2,2c-2.5,11.5-38.5,58-46,61c-2,6.1-5.6,12.4-2,15c-2.3,6.4-9.1,9.9-13,15c4.5,3.4,6.1,4.7,7,12c-4.5,2.1-4.7,3.1-3,6c-2,3.7-0.8,2.6-6,3c0.8,3.6-2.6,10.6-6,5c-3.5,2.5-5.4,4.4-7,9c2-1,4-2,6-3c0.5,4.9,0.4,4.6,3,7c-1.3,2.3-2.7,4.7-4,7c3.5,2.8,4.8,2.2,10,2c1.5,3.1,1.7,3.3,1,7c15.9-3.8,12.4-16.9,22-26c-0.7-3.9-0.4-1.5-2-6c0-0.3,0-0.7,0-1c3.4-1.5,2.8-1.4,7-1c0.7-2.3,1.3-4.7,2-7c1.8-0.4-1.5-1.7-2-7c3.3-0.3,6.7-0.7,10-1c1.3-3,2.7-6,4-9c-1-1.3-2-2.7-3-4c8.3-10.4,21.3-5.1,33-13c10.5-7.1,16.6-16.3,30-22c3,0.7,6,1.3,9,2c1,10.7-5.3,14.3-2,23c0,1,0,2,0,3c-5.2-0.5-4,0.7-6-3c-1,0.3-2,0.7-3,1c1,2,2,4,3,6c0,1,0,2,0,3c-4.5-0.3-3.8-0.8-7,1c-3.5,2.3-4.8,5.4-6,10c3.7,0,7.3,0,11,0c0,2,0,4,0,6c14-2,15.7-8.8,20-22c0.7-0.3,1.3-0.7,2-1c4.5,1.4,3.6,0.5,5,5c9.4-0.8,8-4.5,16-6c-0.7,2.3-1.3,4.7-2,7c-2.5,3.1-3.1,1.5,0,4c-1.9,4.3-6.9,9-11,11c-3.6,5.1-3.7,9.1,5,11c2.6,9.8-2.8,13.4-6,20c-3.1,3.4-2.2,1.5-1,5c2.4,2.6,2.3,1.3,7,1c-0.3,1.3-0.7,2.7-1,4c3.3,1,6.7,2,10,3c5.3-3.8,26-49.1,28-57c4.1-1.9,5.6-1.1,13-1c5-13.3,10-26.7,15-40c9.1-19.8,32.6-46.2,31-68c10.1-3.3,30.1-40.6,33-52c-1.7,0-3.3,0-5,0c0.7-3,1.3-6,2-9c0-0.7,0-1.3,0-2c2,0,4,0,6,0c-0.6,4.8-1.1,2.4-1,8c0.3,0,0.7,0,1,0c2.3-7.8,6.4-9.6,7-19c1.3,0,2.7,0,4,0c1,5-0.4,50.1-3,52c0.7,5.4-0.3,2.2,3,6c-1.1,6.8-6.6,36.3-9,40c1.3,0.7,2.7,1.3,4,2c-2.5,4.9-3.9,2.6-4,8c-3.7,12.5-8.9,65.2-18,68c-1.4,3.6-2.3,2,0,5c-7.1,16.1-26.1,26.8-35,39c-2.6,2.2-2.9,2-4,6c9.4-1.6,14.8,2.7,21,7c2.7-3.2,2.2-4.5,7-6c0.8,6.9,2.5,7.2,2,13c3.3-1,6.7-2,10-3c3,1.8,3.4,1.7,5,5c3.5,1.7,2.8,1.2,8,1c5.2-11.4,3.1-25.1,9-35c2.5-4.2,9.1-7.8,12-12c9.4-13.4,26.3-55,40-58c2.3-6-0.4-5.4-3-11c2.2-2.6,2-2.9,6-4c0,1.3,0,2.7,0,4c6.3-4.7,13.9-16.5,16-25c4,0.6,3-0.1,5,2c4.2-4.1,4.2-8.2,5-14c3.3-2.3,6.7-4.7,10-7c28.5,12.8,94.9-12.3,120-11c1.2,2.9,47.6,7.5,61,9c-3.7,14.3-20.1,20.5-30,29c-19.3,16.6-41.3,28.1-62,44c-10.6,8.2-20.6,19.9-34,25c1.2,5.6-2.3,10.9-8,4c-4.4,8.5-21,19.9-31,20c0,1.7,0,3.3,0,5c-4.1,1.7-4.3,3-9,2c0,1.7,0,3.3,0,5c-23.8,1.7-54.3,44-86,47c0.3,2,0.7,4,1,6c-7.4-0.5-30,7-30,7c-2.6,2.5-2.8,2.6-3,8c-4.7,0.9-7.2,0.6-11-1c-0.3,0.3-0.7,0.7-1,1c0.2,6.8-72.7,34.1-89,37c-0.6,1.8-2.3,12.2-4,14c-32.3,16.7-64.7,33.3-97,50c-0.7,1-1.3,2-2,3c2.4,1.9,5.1,2.1,10,2c0,1,0,2,0,3c-3.6,1.1-2.9,0.8-5,3c29.2,4.2,49.1-18.8,69-31c35.4-21.6,84.9-51.7,127-63c4.7,4.2,11.9,11.4,22,7c11.1-4.8,14.4-14.1,22-19c6-1.7,12-3.3,18-5c9.8-8.3,51.9-32.1,54-37c6.3,0.9,10.4-1.1,18-3c1.9,2.6,1.7,2.5,1,6c39.6,2.8,36.3-25.1,64-29c3.2-5.6,4.4-11.8,9-16c4.9,0.7,4.1,1,7,3c7.1-7.5,46.4-32,57-36c1.7,0,3.3,0,5,0c-2.1,5.2-6.9,5.5-10.6,8.7c6.5-0.9,13.1-1.8,19.6-2.7c-0.3-2-0.7-4-1-6c-2,0-4,0-6,0c-1-2-2-4-3-6c5.1-2.9,4-7,10-9c-0.4-2.2-0.9-2-2-6c0-0.3,0-0.7,0-1c2-1.3,4-2.7,6-4c0.3,0,0.7,0,1,0c0.6,3.5,0.4,2.1-1,5c2.8,0.6,9.9-4.9,14-9c15.5,2.9,14.2,21.7,25,29c6.5,4.4,15.8,7.5,21,10c0.3,0,0.7,0,1,0c0.7,0,1.3,0,2,0l30-3c1-2,2-4,3-6c5.7-0.7,11.3-1.3,17-2c6.7-3.2,13-6.8,22-11c5.7-2.6,18.2-10.3,23-15c2-3.7,4-7.3,6-11c17.4-8,29.9-17.7,45-30c1.4-1.2,3.4-8.6,4-13c12.6,2,17.7-7.6,24-17c-5.8-0.5-6.6-1.1-8-6c11.6,0.2,12.2-1.3,20-4c0-0.3,0-0.7,0-1c-2.3-0.7-4.7-1.3-7-2c1.8-9.7,11.2-6.5,16-18c1.3-0.3,2.7-0.7,4-1c-0.4,20.7-12.7,35.6-22,51c1.7,0.7,3.3,1.3,5,2c-1.8,4.8-2.3,4.3-7,3c-3.7,13.6-14.9,22.6-23,34c-0.7,0.7-1.3,1.3-2,2c10.1,1.3,11.8,6.7,20,9c0,1,0,2,0,3c-2.3,3.7-4.7,7.3-7,11c-0.7,1-1.3,2-2,3c4,0,8,0,12,0c0.3,1.7,0.7,3.3,1,5c1.7,0.7,3.3,1.3,5,2c0.3,0,0.7,0,1,0c9.9-14.4,7.9-36.4,16-53c17-34.8,28.6-73.7,43-113c11.7-28.3,23.3-56.7,35-85c1.7-0.3,3.3-0.7,5-1c1,1,2,2,3,3c-7.6,27.4-6.7,56.5-3,78c-2,0.3-4,0.7-6,1c-1.3,7.8-4.1,28.8,0,31c-1.3,4.6-1.6,3.9-5,6c0.3,2.7,0.7,5.3,1,8c2-0.3,4-0.7,6-1c-1.6,4.7-2.7,4.3-7,6c-0.3,0.7-0.7,1.3-1,2c2.1,1.7,2,1.6,6,2c0,1.3,0,2.7,0,4c-1.3-0.3-2.7-0.7-4-1c-3.6,4.3-0.6,12,4,14c-1.5,5-1.7,4.9-8,5c-0.4,30.1-1.7,62.3-10,83c0,1.3,0,2.7,0,4c7.5-3.3,11.2-0.5,16,4c10.7-6.3,3.7-15.2,8-22c2.3-1.7,4.7-3.3,7-5c2.3-12,4.7-24,7-36c7.4-11.6,12.5-24.6,20-38c42.4-76,81.6-179,134-257c9.1-13.6,36.4-60.7,48-67c0-9.3,0-18.7,0-28C2846.1,874.9,2847.4,876.2,2846,874.3z M1873,1276.3c-11,3-22,6-33,9c-0.7-0.3-1.3-0.7-2-1c8.1-24.4,35.2-44.7,50-64c1,0,2,0,3,0C1888.2,1240.9,1879.4,1255,1873,1276.3z M1919,1292.3c-1.7-1-3.3-2-5-3c-0.3,0.7-0.7,1.3-1,2c2.8,9.3,3,10.4,1,21c-2.3,1-4.7,2-7,3c1-2.7,2-5.3,3-8c-2,0-4,0-6,0c-2,2-1.1,0.3-2,4c0,0,0,0,1,1c-1.7,3.3-3.3,6.7-5,10c-2,0-4,0-6,0c2,2,0.3,1.1,4,2c-1,3-2,6-3,9c-2.7,0.3-5.3,0.7-8,1c-0.3-0.7-0.7-1.3-1-2c13.3-30.4,26.7-53,45-77c0.7,0,1.3,0,2,0c0.7,1,1.3,2,2,3C1927.2,1267.9,1919.4,1280.1,1919,1292.3z M2261,1229.3c0-0.7,0-1.3,0-2c6-1.3,12-2.7,18-4c9.3,0.5,28.7-0.9,32,9C2295,1234.2,2279.9,1229.1,2261,1229.3z M2324,1223.3c-16.6,1.6-35.1-9.5-50-16c-11,1.7-22,3.3-33,5c1.3,1,2.7,2,4,3c-0.7,0.7-1.3,1.3-2,2c-5.4-1.1-6.6-1.8-8-7c-3,0.3-6,0.7-9,1c0,0.3,0,0.7,0,1c1.4,9.1-16.3,2.4-25,2c3.7-10.2,28.1-14.6,39-18c3.6-1.1,11,0,11,0c9.7-5.3,19.3-10.7,29-16c13.7-3,27.3-6,41-9c2.2-2.2,0.9-1.8,2-5c-0.8-9.1,48.8-25.3,64-27c0,0.7,0,1.3,0,2c0.7,0.7,1.3,1.3,2,2c-5,4.5-16.2,4.3-17,17c-1.7,0-3.3,0-5,0C2362,1172.6,2322.7,1211.8,2324,1223.3z M2368,1187.3c1,0,2,0,3,0c-1.9,9.6-22.7,42.5-33,44C2342.6,1214.1,2359.4,1201.5,2368,1187.3z M2454,1267.3c0.3,4-0.4,0.9,1,4c-5.2,6.6-21,19-28,21c-4.6,1.7-1.4,1.7-5-1c-3.3,6.9-3.7,6.6-9,11c0.7,1,1.3,2,2,3c-12.1,7.3-23.5,10.1-39,11c-0.3,2-0.7,4-1,6c-11.3-2.5-17.5-1.6-31-6c-12.8-20.5,12.6-47.9,11-62c-1.2-11.2,29.2-31.1,38-40c27.8-28,46.1-65,86-81c11.7-4.7,22.1-4.9,35-10c12.8-0.3,20.9,1.2,28,6c1.7,12.4-3.6,24.7,3,30C2522.1,1181.2,2483.6,1263.2,2454,1267.3z M2553,1118.3c-6.6,0.5-13.2-6.5-20-8c-14.1-3.2-32.4-0.3-45,4c-0.7-0.3-1.3-0.7-2-1c0-0.3,0-0.7,0-1c7.6-9.3,20.6-8.2,33-13c21.3-0.6,27.4,3.7,34,18C2553,1117.7,2553,1118,2553,1118.3z"/><path d="M1837,1078.3c-4-1.3-8-2.7-12-4c-1.8,3.3-2.4,4.5-2,8c-3,2.9-1.9,3.1-5,1c-3,7.5-2.3,10.4-9,14c-2.5,4.1-4.7,2.4-1,5c-1.9,4.7-10.6,13-16,11c-4.8,4.8-3.6,12.6-7,19c-4.7,2.7-9.3,5.3-14,8c-6.6,6.6-32,43.5-34,51c-5.7,1.5-4.2,0.8-10,3c-0.3,3.6-1.1,1.1,2,3c-2.5,12.1-20.3,18.1-26,29c-3.6-1-2,0.1-4-2c-10.4,3.7-20.5,20.3-25,29c-3.6-1.2-2.7-1.1-5-3c-4.4,9.4-10.7,13.1-13,23c-9.5,1.7-13.3,4.1-18,6c-4-3.5-5.7-5.4-13-6c8.7-29.7,17.3-59.3,26-89c5.7-13.8,15.1-22.6,20-39c-2-2-4-4-6-6c3.2-31.1,11.6-59,11-96c-1-0.7-2-1.3-3-2c-2.1-1.4-1.3-2.3-4-1c-4.3,7.3-8.7,14.7-13,22c-5.3,3-10.7,6-16,9c-9.4,14.6-14.9,29.3-26,42c-23,26.4-48.6,54.4-68,84c-6.2,9.6-32,64.1-38,64c-3.4,16.4-16.1,38.5-28,53c-8.7,10.6-27.8,15.5-29,33c-0.8,12.2-8.2,32.9-19,35c0,3,0,6,0,9c4-3.1,6.4-5.3,7-12c2.4-1.1,3.4-1.2,5-3c1.3,0.7,2.7,1.3,4,2c-12.5,33.8-38.2,62.4-53,97c2.1,2.6,2.7,2,4,6c-5.2,7.9-12.7,11.9-17,21c1.3-0.7,2.7-1.3,4-2c0.7,0.7,1.3,1.3,2,2c-0.7,3.3-1.3,6.7-2,10c4.7-0.7,9.3-1.3,14-2c8.3,0.6,33.3-43.7,39-55c8.1-16.1,28.2-24.5,39-38c15.1-18.8,38.4-106.1,54-113c-1-2.3-2-4.7-3-7c5.3-1.5,2.6,0.7,3-5c7.3-1.3,14.5-2.6,14,5c3.7-1.2,4.1-1.8,8-1c2.8-15.4,49.1-96.3,62-103c0.3,0,0.7,0,1,0c4.2,16-21.4,42.2-27,56c-1.6,4,1.6,16.8,0,24c-6.2,27.9-10.2,62.9-25,89c2.7,2.3,2.5,0.9,4,5c-1.9,1.4-0.6,0.1-2,2c-1,0-2,0-3,0c2.9,2.4,3.4,2,5,6c4,1.8,7.3,1.7,14,1c-1,3.7-2,7.3-3,11c7.3,3.7,14.7,7.3,22,11c16.7-4.3,18.3-24.9,28-36c3.8-4.4,11.6-9.4,14-15c0.3-3.3,0.7-6.7,1-10c9-10.2,25.3-18.9,32-31c8.8-15.7,11.3-30.7,22-44c8.1-10.2,28.3-21.8,31-36c3.4-2.4,3.2-3.4,9-4c-0.3,5.9-0.8,5.9-3,9c2-0.3,4-0.7,6-1c-1.4,5.4-5.6,8.3-10,8c0.7,1.3,1.3,2.7,2,4c0,1.3,0,2.7,0,4c-3.6-1-2,0.1-4-2c-3.2,3.9,0.6,3-1,10c-0.7,1.5-18.9,16.5-21,17c-0.7,1-1.3,2-2,3c2-0.7,4-1.3,6-2c1.7,8.3,6.6,5.3,10,13c4-1.3,8-2.7,12-4c0,7.1-1.4,11.3-7,13c-2,5-3.9,23-7,28c-2.7,2-5.3,4-8,6c-3.5,8.2,1.2,22.1-2,29c-18.9,41.1-40.1,62.9-49,110c3.2,1.1,3,1.2,5,3c3-1.3,6-2.7,9-4c2.4-27.3,15-30.6,19-50c3.6,1,2-0.1,4,2c4.3-2.2,4.6-4.3,9-6c0.7,3.6,0.4,3,2,5c3.6-3.1,6.8-4.3,9-9c1.8-2.6,0-1.8,1-6c-4.3-2.7-5.6-2.3-8-7c7.4-14.5,24.9-19.2,31-28c2.9-3,2.6-3.5,0-8c0-0.7,0-1.3,0-2c-3,1.3-6,2.7-9,4c-1,0-2,0-3,0c0.9-6.5,0.5-3.5-1-10c1.7-3,3.3-6,5-9c2.3,0,4.7,0,7,0c0.3,0,0.7,0,1,0c-0.7-3-1.3-6-2-9c1.9-6.3,11.3-8.8,14-14c0-0.1-3.5-3.2-2-6c2-0.7,4-1.3,6-2c6-16.7,12-33.3,18-50c4-5,8-10,12-15c-7.3-10.7,3.7-31.6,9-44c14.1-32.8,28.1-69.4,41-103C1841.9,1089.2,1835.4,1085.8,1837,1078.3z M1646,1135.3c1.3,0,2.7,0,4,0c-3.6,14.5-13.1,26.6-17,39c-1,0-2,0-3,0C1631,1157.3,1640.1,1150.4,1646,1135.3z"/></svg>